<svg width="24" height="24" viewBox="0 0 24 24" fill="none" xmlns="http://www.w3.org/2000/svg">
<path d="M9.975 8.77631C10.1689 8.22518 10.5515 7.76045 11.0552 7.46443C11.5589 7.16841 12.1511 7.0602 12.7269 7.15897C13.3028 7.25774 13.8251 7.55711 14.2013 8.00406C14.5775 8.45101 14.7835 9.0167 14.7826 9.60094C14.7826 11.2502 12.3087 12.0748 12.3087 12.0748M12.3747 15.3734H12.3829M21.75 11.0892C21.7537 12.5191 21.4196 13.9296 20.775 15.2059C20.0106 16.7353 18.8355 18.0216 17.3814 18.9209C15.9272 19.8202 14.2514 20.2969 12.5417 20.2975C11.1118 20.3013 9.70128 19.9672 8.42499 19.3225L2.25 21.3809L4.30833 15.2059C3.66367 13.9296 3.3296 12.5191 3.33333 11.0892C3.33399 9.37945 3.81066 7.70364 4.70994 6.24948C5.60922 4.79532 6.8956 3.62025 8.42499 2.85589C9.70128 2.21123 11.1118 1.87716 12.5417 1.88089H13.0833C15.3414 2.00546 17.4741 2.95855 19.0732 4.55765C20.6723 6.15675 21.6254 8.2895 21.75 10.5475V11.0892Z" stroke="#FE5900" stroke-width="2" stroke-linecap="round" stroke-linejoin="round"/>
</svg>
