<svg width="32" height="32" viewBox="0 0 32 32" fill="none" xmlns="http://www.w3.org/2000/svg">
<path d="M28 13C28 22.3333 16 30.3333 16 30.3333C16 30.3333 4 22.3333 4 13C4 9.8174 5.26428 6.76515 7.51472 4.51472C9.76516 2.26428 12.8174 1 16 1C19.1826 1 22.2348 2.26428 24.4853 4.51472C26.7357 6.76515 28 9.8174 28 13Z" stroke="#FE5900" stroke-width="2" stroke-linecap="round" stroke-linejoin="round"/>
<path d="M16 17C18.2091 17 20 15.2091 20 13C20 10.7909 18.2091 9 16 9C13.7909 9 12 10.7909 12 13C12 15.2091 13.7909 17 16 17Z" stroke="#FE5900" stroke-width="2" stroke-linecap="round" stroke-linejoin="round"/>
</svg>
