<svg width="32" height="32" viewBox="0 0 32 32" fill="none" xmlns="http://www.w3.org/2000/svg">
<path d="M29.5175 22.8935V26.8935C29.519 27.2648 29.4429 27.6324 29.2942 27.9726C29.1454 28.3128 28.9272 28.6182 28.6536 28.8693C28.38 29.1203 28.0569 29.3114 27.7052 29.4304C27.3534 29.5494 26.9807 29.5936 26.6108 29.5601C22.5079 29.1143 18.5668 27.7123 15.1042 25.4668C11.8826 23.4197 9.15127 20.6884 7.10416 17.4668C4.85079 13.9884 3.44848 10.0281 3.01082 5.9068C2.9775 5.53809 3.02132 5.16648 3.13949 4.81563C3.25766 4.46478 3.44758 4.14238 3.69718 3.86896C3.94677 3.59553 4.25056 3.37708 4.58921 3.22749C4.92786 3.07791 5.29394 3.00048 5.66416 3.00013H9.66416C10.3112 2.99376 10.9385 3.2229 11.4292 3.64484C11.9198 4.06678 12.2403 4.65272 12.3308 5.29346C12.4997 6.57355 12.8128 7.83043 13.2642 9.04013C13.4435 9.51736 13.4824 10.036 13.376 10.5346C13.2697 11.0333 13.0226 11.4909 12.6642 11.8535L10.9708 13.5468C12.8689 16.8849 15.6328 19.6487 18.9708 21.5468L20.6642 19.8535C21.0267 19.495 21.4844 19.2479 21.983 19.1416C22.4816 19.0352 23.0003 19.0741 23.4775 19.2535C24.6872 19.7049 25.9441 20.018 27.2242 20.1868C27.8718 20.2782 28.4634 20.6044 28.8862 21.1035C29.309 21.6025 29.5337 22.2396 29.5175 22.8935Z" stroke="#FE5900" stroke-width="2" stroke-linecap="round" stroke-linejoin="round"/>
</svg>
