<svg width="107" height="100" viewBox="0 0 107 100" fill="none" xmlns="http://www.w3.org/2000/svg">
<path d="M92.7177 70C91.9341 70 91.223 70.4503 90.8623 71.1459C83.2058 85.9113 67.7811 96 50 96C24.5949 96 4 75.4051 4 50C4 24.5949 24.5949 4 50 4C67.7811 4 83.2058 14.0887 90.8623 28.8541C91.223 29.5497 91.9341 30 92.7177 30C94.1904 30 95.1736 28.4898 94.5005 27.1798C86.2076 11.0409 69.3932 0 50 0C22.3858 0 0 22.3858 0 50C0 77.6142 22.3858 100 50 100C69.3932 100 86.2076 88.9591 94.5005 72.8202C95.1736 71.5102 94.1904 70 92.7177 70Z" fill="#FFD5BF"/>
<path d="M32.8153 69.76C32.4419 69.76 32.1433 69.648 31.9193 69.424C31.6953 69.1627 31.5833 68.8453 31.5833 68.472V36.888L22.1753 44.112C21.9139 44.336 21.6339 44.448 21.3353 44.448C20.9993 44.448 20.6819 44.2613 20.3833 43.888L19.0393 42.152C18.8526 41.8907 18.7593 41.6293 18.7593 41.368C18.7593 40.9573 18.9459 40.6213 19.3193 40.36L31.4713 30.952C31.8819 30.6907 32.3673 30.56 32.9273 30.56H35.5593C35.9326 30.56 36.2313 30.6907 36.4553 30.952C36.7166 31.176 36.8473 31.4747 36.8473 31.848V68.472C36.8473 68.8453 36.7166 69.1627 36.4553 69.424C36.2313 69.648 35.9326 69.76 35.5593 69.76H32.8153Z" fill="#FE8442"/>
<path d="M58.9003 70.32C56.063 70.32 53.5243 69.8533 51.2843 68.92C49.0817 67.9493 47.3643 66.568 46.1323 64.776C44.9003 62.984 44.2843 60.8933 44.2843 58.504C44.2843 56.3013 44.8257 54.3787 45.9083 52.736C47.0283 51.056 48.5217 49.768 50.3883 48.872C48.895 48.0133 47.7377 46.8933 46.9163 45.512C46.095 44.0933 45.6843 42.432 45.6843 40.528C45.6843 37.28 46.8977 34.7227 49.3243 32.856C51.751 30.952 54.943 30 58.9003 30C62.8577 30 66.031 30.9333 68.4203 32.8C70.847 34.6667 72.0603 37.2427 72.0603 40.528C72.0603 42.3947 71.6497 44.0373 70.8283 45.456C70.007 46.8373 68.8683 47.976 67.4123 48.872C69.279 49.768 70.7537 51.056 71.8363 52.736C72.9563 54.3787 73.5163 56.32 73.5163 58.56C73.5163 60.9493 72.9003 63.04 71.6683 64.832C70.4363 66.5867 68.7003 67.9493 66.4603 68.92C64.2577 69.8533 61.7377 70.32 58.9003 70.32ZM58.9003 46.912C61.1777 46.8373 63.1003 46.24 64.6683 45.12C66.2363 44 67.0203 42.5067 67.0203 40.64C67.0203 38.736 66.2363 37.224 64.6683 36.104C63.1377 34.9467 61.215 34.368 58.9003 34.368C56.5483 34.368 54.607 34.9467 53.0763 36.104C51.5457 37.224 50.7803 38.736 50.7803 40.64C50.7803 42.544 51.5457 44.0747 53.0763 45.232C54.607 46.352 56.5483 46.912 58.9003 46.912ZM58.9003 65.952C61.551 65.952 63.7537 65.28 65.5083 63.936C67.3003 62.592 68.1963 60.8 68.1963 58.56C68.1963 56.32 67.3003 54.528 65.5083 53.184C63.7537 51.84 61.551 51.168 58.9003 51.168C56.2123 51.168 53.9723 51.84 52.1803 53.184C50.4257 54.528 49.5483 56.32 49.5483 58.56C49.5483 60.8 50.4257 62.592 52.1803 63.936C53.9723 65.28 56.2123 65.952 58.9003 65.952Z" fill="#FE8442"/>
<path fill-rule="evenodd" clip-rule="evenodd" d="M91.1305 62.6277L91.1105 62.6044C90.8509 62.3015 90.7262 61.9348 90.7262 61.5281V51.8961H81.1902C80.7834 51.8961 80.4168 51.7714 80.1139 51.5118L80.0905 51.4917L80.0705 51.4684C79.8109 51.1655 79.6862 50.7988 79.6862 50.3921V48.9521C79.6862 48.5464 79.8111 48.1815 80.0914 47.9012C80.3912 47.6014 80.7653 47.4481 81.1902 47.4481H90.7262V38.1041C90.7262 37.6788 90.844 37.2926 91.1314 37.0052L91.1422 36.9944L91.1539 36.9844C91.4567 36.7248 91.8234 36.6001 92.2302 36.6001H93.7662C94.1915 36.6001 94.5777 36.7178 94.8651 37.0052C95.1525 37.2926 95.2702 37.6788 95.2702 38.1041V47.4481H104.806C105.221 47.4481 105.585 47.5955 105.858 47.9006C106.163 48.1734 106.31 48.5368 106.31 48.9521V50.3921C106.31 50.8169 106.157 51.191 105.857 51.4909C105.577 51.7712 105.212 51.8961 104.806 51.8961H95.2702V61.5281C95.2702 61.9529 95.1169 62.327 94.8171 62.6269C94.5368 62.9072 94.1719 63.0321 93.7662 63.0321H92.2302C91.8234 63.0321 91.4567 62.9074 91.1539 62.6478L91.1305 62.6277ZM94.8702 51.4961H104.806C105.126 51.4961 105.382 51.4001 105.574 51.2081C105.798 50.9841 105.91 50.7121 105.91 50.3921V48.9521C105.91 48.6321 105.798 48.3761 105.574 48.1841C105.382 47.9601 105.126 47.8481 104.806 47.8481H94.8702V38.1041C94.8702 37.7521 94.7742 37.4801 94.5822 37.2881C94.3902 37.0961 94.1182 37.0001 93.7662 37.0001H92.2302C91.9102 37.0001 91.6382 37.0961 91.4142 37.2881C91.2222 37.4801 91.1262 37.7521 91.1262 38.1041V47.8481H81.1902C80.8702 47.8481 80.5982 47.9601 80.3742 48.1841C80.1822 48.3761 80.0862 48.6321 80.0862 48.9521V50.3921C80.0862 50.7121 80.1822 50.9841 80.3742 51.2081C80.5982 51.4001 80.8702 51.4961 81.1902 51.4961H91.1262V61.5281C91.1262 61.8481 91.2222 62.1201 91.4142 62.3441C91.6382 62.5361 91.9102 62.6321 92.2302 62.6321H93.7662C94.0862 62.6321 94.3422 62.5361 94.5342 62.3441C94.7582 62.1201 94.8702 61.8481 94.8702 61.5281V51.4961Z" fill="#FE8442"/>
<path d="M92.2302 62.6321C91.9102 62.6321 91.6382 62.5361 91.4142 62.3441C91.2222 62.1201 91.1262 61.8481 91.1262 61.5281V51.4961H81.1902C80.8702 51.4961 80.5982 51.4001 80.3742 51.2081C80.1822 50.9841 80.0862 50.7121 80.0862 50.3921V48.9521C80.0862 48.6321 80.1822 48.3761 80.3742 48.1841C80.5982 47.9601 80.8702 47.8481 81.1902 47.8481H91.1262V38.1041C91.1262 37.7521 91.2222 37.4801 91.4142 37.2881C91.6382 37.0961 91.9102 37.0001 92.2302 37.0001H93.7662C94.1182 37.0001 94.3902 37.0961 94.5822 37.2881C94.7742 37.4801 94.8702 37.7521 94.8702 38.1041V47.8481H104.806C105.126 47.8481 105.382 47.9601 105.574 48.1841C105.798 48.3761 105.91 48.6321 105.91 48.9521V50.3921C105.91 50.7121 105.798 50.9841 105.574 51.2081C105.382 51.4001 105.126 51.4961 104.806 51.4961H94.8702V61.5281C94.8702 61.8481 94.7582 62.1201 94.5342 62.3441C94.3422 62.5361 94.0862 62.6321 93.7662 62.6321H92.2302Z" fill="#FE8442"/>
</svg>
