<svg width="24" height="24" viewBox="0 0 24 24" fill="none" xmlns="http://www.w3.org/2000/svg">
<path d="M22.7861 9.84565H21.9V9.8H12V14.2H18.2167C17.3097 16.7614 14.8727 18.6 12 18.6C8.35515 18.6 5.4 15.6448 5.4 12C5.4 8.35515 8.35515 5.4 12 5.4C13.6825 5.4 15.2131 6.0347 16.3786 7.07145L19.4899 3.9601C17.5253 2.12915 14.8974 1 12 1C5.92525 1 1 5.92525 1 12C1 18.0748 5.92525 23 12 23C18.0748 23 23 18.0748 23 12C23 11.2625 22.9241 10.5425 22.7861 9.84565Z" fill="#FFC107"/>
<path d="M2.26758 6.88005L5.88163 9.5305C6.85953 7.1094 9.22783 5.4 11.9993 5.4C13.6817 5.4 15.2124 6.0347 16.3778 7.07145L19.4892 3.9601C17.5246 2.12915 14.8967 1 11.9993 1C7.77418 1 4.11008 3.38535 2.26758 6.88005Z" fill="#FF3D00"/>
<path d="M11.9998 22.9998C14.8411 22.9998 17.4228 21.9124 19.3747 20.1442L15.9702 17.2633C14.8287 18.1314 13.4339 18.6009 11.9998 18.5998C9.13868 18.5998 6.70933 16.7754 5.79413 14.2295L2.20703 16.9932C4.02753 20.5556 7.72463 22.9998 11.9998 22.9998Z" fill="#4CAF50"/>
<path d="M22.786 9.84545H21.9V9.7998H12V14.1998H18.2167C17.7828 15.4188 17.0013 16.4841 15.9688 17.2639L15.9704 17.2628L19.375 20.1437C19.1341 20.3626 23 17.4998 23 11.9998C23 11.2623 22.9241 10.5423 22.786 9.84545Z" fill="#1976D2"/>
</svg>
