<svg width="40" height="40" viewBox="0 0 40 40" fill="none" xmlns="http://www.w3.org/2000/svg">
<rect x="0.5" y="0.5" width="39" height="39" rx="7.5" fill="white"/>
<path d="M16.6074 25.7791C17.348 26.7053 18.1022 27.8699 18.4969 28.5733C18.9776 29.4878 19.1769 30.1052 19.5345 31.2112C19.7435 31.8169 19.9428 32.0006 20.361 32.0006C20.8182 32.0006 21.0273 31.6918 21.1875 31.2112C21.5216 30.1736 21.7796 29.3842 22.1879 28.6319C23.7628 25.6619 26.3303 23.5516 27.7763 20.6598C27.7763 20.6598 28.7279 18.8934 28.7279 16.4196C28.7279 14.114 27.79 12.5117 27.79 12.5117L16.6133 25.7987L16.6074 25.7791Z" fill="#34A853"/>
<path d="M12.8164 20.3503C13.7172 22.4019 15.4347 24.1996 16.6071 25.7823L22.8207 18.4158C22.8207 18.4158 21.9434 19.5648 20.3587 19.5648C18.5923 19.5648 17.1542 18.1579 17.1542 16.3798C17.1542 15.1566 17.8831 14.3086 17.8831 14.3086C13.3108 14.9886 13.5648 16.0965 12.8027 20.3463L12.8164 20.3503Z" fill="#FBBC04"/>
<path d="M22.8967 8.38281C24.9679 9.04911 26.7265 10.454 27.7816 12.5057L22.8185 18.4262C22.8185 18.4262 23.5474 17.5743 23.5474 16.355C23.5474 14.5398 22.0155 13.17 20.3624 13.17C18.7934 13.17 17.9004 14.3053 17.9004 14.3053C18.2814 13.4377 22.2187 8.67786 22.9026 8.38477L22.8967 8.38281Z" fill="#4285F4"/>
<path d="M13.9492 10.9896C15.1841 9.52018 17.3491 8 20.3387 8C21.7827 8 22.8788 8.38298 22.8788 8.38298L17.8962 14.3035C17.5601 14.1212 14.2814 11.5679 13.9492 10.9818V10.9896Z" fill="#1A73E8"/>
<path d="M12.8148 20.3478C12.8148 20.3478 12 18.7299 12 16.4007C12 14.1928 12.8637 12.2583 13.954 11.0078L17.901 14.3295L12.8207 20.3478H12.8148Z" fill="#EA4335"/>
<rect x="0.5" y="0.5" width="39" height="39" rx="7.5" stroke="white"/>
</svg>
