<svg width="16" height="16" viewBox="0 0 16 16" fill="none" xmlns="http://www.w3.org/2000/svg">
<path d="M13.8931 3.40756C13.5526 3.06689 13.1483 2.79666 12.7033 2.61228C12.2584 2.42791 11.7814 2.33301 11.2998 2.33301C10.8181 2.33301 10.3412 2.42791 9.89618 2.61228C9.45121 2.79666 9.04693 3.06689 8.70642 3.40756L7.99975 4.11422L7.29309 3.40756C6.60529 2.71976 5.67244 2.33336 4.69975 2.33336C3.72707 2.33336 2.79422 2.71976 2.10642 3.40756C1.41863 4.09535 1.03223 5.0282 1.03223 6.00089C1.03223 6.97358 1.41863 7.90643 2.10642 8.59423L2.81309 9.30089L7.99975 13.6676L13.1864 9.30089L13.8931 8.59423C14.2338 8.25372 14.504 7.84943 14.6884 7.40446C14.8727 6.95949 14.9676 6.48255 14.9676 6.00089C14.9676 5.51923 14.8727 5.04229 14.6884 4.59732C14.504 4.15235 14.2338 3.74806 13.8931 3.40756Z" stroke="#809097" stroke-width="1.4" stroke-linecap="round" stroke-linejoin="round"/>
</svg>
