<svg width="32" height="32" viewBox="0 0 32 32" fill="none" xmlns="http://www.w3.org/2000/svg">
<path d="M27.7862 7.94891C27.1052 7.26758 26.2966 6.7271 25.4066 6.35835C24.5167 5.9896 23.5628 5.7998 22.5995 5.7998C21.6362 5.7998 20.6823 5.9896 19.7924 6.35835C18.9024 6.7271 18.0939 7.26758 17.4128 7.94891L15.9995 9.36224L14.5862 7.94891C13.2106 6.57332 11.3449 5.80052 9.39951 5.80052C7.45413 5.80052 5.58843 6.57332 4.21284 7.94891C2.83725 9.3245 2.06445 11.1902 2.06445 13.1356C2.06445 15.0809 2.83725 16.9466 4.21284 18.3222L5.62617 19.7356L15.9995 28.4691L26.3728 19.7356L27.7862 18.3222C28.4675 17.6412 29.008 16.8327 29.3767 15.9427C29.7455 15.0528 29.9353 14.0989 29.9353 13.1356C29.9353 12.1723 29.7455 11.2184 29.3767 10.3284C29.008 9.43849 28.4675 8.62991 27.7862 7.94891Z" stroke="#FE5900" stroke-width="2" stroke-linecap="round" stroke-linejoin="round"/>
</svg>
