<svg width="24" height="24" viewBox="0 0 24 24" fill="none" xmlns="http://www.w3.org/2000/svg">
<path d="M20.8401 5.11183C20.3294 4.60083 19.7229 4.19547 19.0555 3.91891C18.388 3.64235 17.6726 3.5 16.9501 3.5C16.2276 3.5 15.5122 3.64235 14.8448 3.91891C14.1773 4.19547 13.5709 4.60083 13.0601 5.11183L12.0001 6.17183L10.9401 5.11183C9.90843 4.08013 8.50915 3.50053 7.05012 3.50053C5.59109 3.50053 4.19181 4.08013 3.16012 5.11183C2.12843 6.14352 1.54883 7.54279 1.54883 9.00183C1.54883 10.4609 2.12843 11.8601 3.16012 12.8918L4.22012 13.9518L12.0001 20.502L19.7801 13.9518L20.8401 12.8918C21.3511 12.3811 21.7565 11.7746 22.033 11.1072C22.3096 10.4397 22.4519 9.72431 22.4519 9.00183C22.4519 8.27934 22.3096 7.56393 22.033 6.89647C21.7565 6.22901 21.3511 5.62258 20.8401 5.11183Z" stroke="white" stroke-width="2" stroke-linecap="round" stroke-linejoin="round"/>
</svg>
