<svg width="147" height="132" viewBox="0 0 147 132" fill="none" xmlns="http://www.w3.org/2000/svg">
<path d="M114.164 16.8828C127.542 25.3082 140.22 36.8303 144.631 51.1701C149.071 65.51 145.244 82.6676 136.598 97.3423C127.951 111.989 114.485 124.153 98.6821 129.202C82.8789 134.252 64.7682 132.132 49.5492 125.52C34.3011 118.908 21.9741 107.748 13.0648 94.1618C4.15542 80.5752 -1.30703 64.5336 0.270363 48.6035C1.84775 32.6734 10.4942 16.827 23.7268 8.34583C36.9593 -0.107443 54.778 -1.19549 70.7564 0.952703C86.7056 3.07299 100.785 8.42952 114.164 16.8828Z" fill="#FFF7F2"/>
<path d="M46.5216 25.9688C45.7902 24.4004 46.4688 22.536 48.0372 21.8046C49.6057 21.0732 51.4701 21.7518 52.2014 23.3203L56.1743 31.8401C56.9057 33.4086 56.2271 35.2729 54.6586 36.0043C53.0902 36.7357 51.2258 36.0571 50.4944 34.4887L46.5216 25.9688Z" fill="#FFAC80"/>
<path d="M81.241 76.0685C81.1304 77.2757 80.7039 78.4337 80.0041 79.4268C79.3043 80.4199 78.3557 81.2132 77.2534 81.7272C76.1511 82.2413 74.9337 82.458 73.7231 82.3557C72.5125 82.2535 71.3512 81.8358 70.3555 81.1445" fill="#FFAC80"/>
<path fill-rule="evenodd" clip-rule="evenodd" d="M67.0698 78.8649C68.3296 77.0502 70.822 76.6004 72.6367 77.8602C73.0555 78.1509 73.546 78.328 74.06 78.3714C74.5741 78.4148 75.0927 78.3228 75.5631 78.1035C76.0335 77.8842 76.4373 77.546 76.7346 77.1242C77.0317 76.7026 77.2113 76.213 77.2578 75.7054C77.4592 73.5054 79.4058 71.8853 81.6058 72.0867C83.8057 72.2881 85.4259 74.2347 85.2245 76.4347C85.0499 78.3413 84.3765 80.1679 83.274 81.7324C82.1716 83.2968 80.6783 84.5453 78.9441 85.354C77.2098 86.1627 75.2936 86.5041 73.3866 86.343C71.4794 86.1819 69.6473 85.5237 68.0745 84.4318C66.2598 83.172 65.81 80.6796 67.0698 78.8649Z" fill="#FFAC80"/>
<path d="M79.9966 39.3514C77.6727 34.3678 73.4553 30.5157 68.272 28.6425C63.0887 26.7693 57.3642 27.0285 52.3578 29.363C47.3514 31.6975 43.4733 35.9161 41.5765 41.0908C39.6797 46.2655 39.9196 51.9724 42.2435 56.956C52.4662 78.8785 45.9486 89.5432 45.9486 89.5432L102.578 63.1364C102.578 63.1364 90.2193 61.2739 79.9966 39.3514Z" fill="#FFE6D9"/>
<path fill-rule="evenodd" clip-rule="evenodd" d="M37.8214 39.7152C40.0831 33.5449 44.7054 28.5192 50.6679 25.7388C56.6304 22.9584 63.4515 22.648 69.632 24.8817C75.8134 27.1156 80.8477 31.7116 83.6224 37.662C88.4834 48.0864 93.7231 53.4775 97.4884 56.2413C99.3806 57.6302 100.938 58.3837 101.949 58.7801C102.455 58.9789 102.828 59.0893 103.041 59.1451C103.148 59.173 103.214 59.1872 103.238 59.192C103.238 59.1921 103.239 59.1922 103.239 59.1923C104.953 59.4789 106.289 60.8412 106.538 62.5659C106.79 64.312 105.868 66.0171 104.269 66.7626L47.6397 93.1695C46.0407 93.9151 44.1421 93.5251 42.9666 92.2096C41.8055 90.9103 41.6206 89.0112 42.5026 87.5141C42.5028 87.5138 42.503 87.5134 42.5033 87.513C42.5146 87.492 42.5465 87.4319 42.5936 87.3323C42.6878 87.1334 42.8429 86.7767 43.0163 86.2607C43.3623 85.2316 43.7862 83.5543 43.9385 81.212C44.2416 76.5511 43.4798 69.0719 38.6188 58.6475C35.8441 52.6971 35.5593 45.8863 37.8214 39.7152ZM42.5294 87.4693C42.53 87.4685 42.5305 87.4676 42.531 87.4667L42.5298 87.4687L42.5294 87.4693ZM103.187 59.1839L103.189 59.1842L103.187 59.1839ZM54.0488 32.9892C49.9986 34.8779 46.8645 38.2894 45.3327 42.4685C43.8011 46.6467 43.9962 51.2498 45.8693 55.2666C51.231 66.7647 52.3217 75.5791 51.9217 81.7311C51.9077 81.9469 51.8918 82.1591 51.8743 82.3678L93.2728 63.0634C93.1017 62.9426 92.9289 62.8184 92.7546 62.6904C87.7848 59.0424 81.7336 52.5411 76.372 41.0429C74.4989 37.0261 71.0982 33.9179 66.913 32.4054C62.727 30.8926 58.0991 31.1006 54.0488 32.9892ZM42.5329 87.4636C42.5329 87.4637 42.5329 87.4637 42.5329 87.4637L42.5323 87.4646C42.5325 87.4643 42.5327 87.464 42.5329 87.4636Z" fill="#FFE6D9"/>
<path fill-rule="evenodd" clip-rule="evenodd" d="M54.413 51.5079C53.4431 51.9601 53.0235 53.113 53.4758 54.0829C53.7092 54.5834 53.4926 55.1784 52.9921 55.4118C52.4915 55.6452 51.8966 55.4287 51.6632 54.9281C50.7441 52.9572 51.5968 50.6143 53.5678 49.6952C55.5387 48.7762 57.8816 49.6289 58.8007 51.5999C59.0341 52.1004 58.8175 52.6954 58.317 52.9288C57.8164 53.1622 57.2215 52.9456 56.9881 52.4451C56.5358 51.4752 55.3829 51.0556 54.413 51.5079Z" fill="#FFAC80"/>
<path fill-rule="evenodd" clip-rule="evenodd" d="M68.2587 45.0508C67.2888 45.5031 66.8692 46.656 67.3215 47.6259C67.5549 48.1264 67.3383 48.7214 66.8378 48.9548C66.3373 49.1882 65.7423 48.9716 65.5089 48.4711C64.5898 46.5001 65.4425 44.1573 67.4135 43.2382C69.3844 42.3191 71.7273 43.1719 72.6464 45.1428C72.8798 45.6434 72.6632 46.2383 72.1627 46.4717C71.6621 46.7052 71.0672 46.4886 70.8338 45.9881C70.3815 45.0182 69.2286 44.5986 68.2587 45.0508Z" fill="#FFAC80"/>
<path fill-rule="evenodd" clip-rule="evenodd" d="M75.2553 57.4772C75.6886 57.8196 75.7623 58.4484 75.4199 58.8818C71.8177 63.4403 66.2094 66.0293 60.4103 65.8829C59.8582 65.8689 59.4219 65.4101 59.4359 64.8579C59.4498 64.3058 59.9087 63.8696 60.4608 63.8835C65.6396 64.0143 70.6444 61.6993 73.8507 57.6418C74.1931 57.2084 74.8219 57.1347 75.2553 57.4772Z" fill="#FFAC80"/>
<path opacity="0.9" d="M106.464 103.1C106.464 105.608 92.0532 107.648 74.2417 107.648C56.4728 107.648 42.0195 105.608 42.0195 103.1C42.0195 100.592 56.4303 98.5514 74.2417 98.5514C92.0532 98.5089 106.464 100.549 106.464 103.1Z" fill="#FFE6D9"/>
</svg>
