<svg width="24" height="24" viewBox="0 0 24 24" fill="none" xmlns="http://www.w3.org/2000/svg">
<g clip-path="url(#clip0)">
<path d="M10.5858 6.34269L12.7071 4.22137C13.1714 3.75708 13.7226 3.38878 14.3292 3.13751C14.9358 2.88623 15.586 2.75691 16.2426 2.75691C16.8992 2.75691 17.5494 2.88624 18.156 3.13751C18.7627 3.38878 19.3139 3.75708 19.7782 4.22137C20.2425 4.68567 20.6108 5.23686 20.862 5.84349C21.1133 6.45012 21.2426 7.1003 21.2426 7.75691C21.2426 8.41352 21.1133 9.0637 20.862 9.67032C20.6108 10.277 20.2425 10.8281 19.7782 11.2924L17.6568 13.4138M13.4142 17.6564L11.2929 19.7777C10.8286 20.242 10.2774 20.6103 9.67076 20.8616C9.06414 21.1129 8.41396 21.2422 7.75735 21.2422C6.43126 21.2422 5.1595 20.7154 4.22181 19.7777C3.28413 18.84 2.75735 17.5683 2.75735 16.2422C2.75735 14.9161 3.28413 13.6443 4.22181 12.7067L6.34313 10.5853M9.17156 14.828L14.8284 9.17112" stroke="#809097" stroke-width="2" stroke-linecap="round" stroke-linejoin="round"/>
</g>
<defs>
<clipPath id="clip0">
<rect width="24" height="24" fill="white"/>
</clipPath>
</defs>
</svg>
