<svg width="16" height="16" viewBox="0 0 16 16" fill="none" xmlns="http://www.w3.org/2000/svg">
<path d="M13.6538 6.72727C13.6538 11.1818 7.92649 15 7.92649 15C7.92649 15 2.19922 11.1818 2.19922 6.72727C2.19922 5.20831 2.80263 3.75155 3.8767 2.67748C4.95077 1.60341 6.40752 1 7.92649 1C9.44546 1 10.9022 1.60341 11.9763 2.67748C13.0504 3.75155 13.6538 5.20831 13.6538 6.72727Z" stroke="#809097" stroke-width="1.4" stroke-linecap="round" stroke-linejoin="round"/>
<path d="M7.92649 8.63636C8.98085 8.63636 9.83558 7.78163 9.83558 6.72727C9.83558 5.67291 8.98085 4.81818 7.92649 4.81818C6.87213 4.81818 6.0174 5.67291 6.0174 6.72727C6.0174 7.78163 6.87213 8.63636 7.92649 8.63636Z" stroke="#809097" stroke-width="1.4" stroke-linecap="round" stroke-linejoin="round"/>
</svg>
