<svg width="352" height="160" viewBox="0 0 352 160" fill="none" xmlns="http://www.w3.org/2000/svg">
<path d="M0 70.383V68.7676C0.39643 57.7926 3.28469 47.0514 8.44626 37.3568C12.8227 28.8534 18.9941 21.4014 26.5338 15.5157C33.7217 10.0317 40.7195 7.28521 47.5272 7.27616C49.8439 7.18733 52.1502 7.63058 54.2688 8.57185C56.3874 9.51311 58.262 10.9273 59.7485 12.7059C62.3519 15.9462 63.7145 20.0083 63.5914 24.1626C63.5914 29.5923 61.6043 34.927 57.6301 40.1666C55.7109 42.8762 53.2043 45.1174 50.2974 46.723C49.2612 47.3444 48.0831 47.6903 46.8754 47.7275C45.8632 47.7409 44.8623 47.5129 43.9559 47.0624C43.092 46.6359 42.3032 46.072 41.6203 45.3927C40.469 44.3979 39.7326 43.0079 39.5562 41.4969C39.5064 41.0562 39.5616 40.61 39.7174 40.1948C39.8732 39.7796 40.1251 39.4071 40.4524 39.1078C46.5993 34.755 50.7681 30.2438 52.9589 25.5743C53.7687 23.9546 54.2005 22.1724 54.2217 20.3618C54.2217 16.7646 52.5243 14.932 49.1024 14.932C43.7612 14.932 38.2571 17.8505 32.5901 23.6875C26.9532 29.5717 22.4306 36.4291 19.2417 43.9267C15.783 51.118 13.7626 58.9153 13.294 66.8808V68.9984C13.294 77.333 15.0548 82.7989 18.5763 85.3961C19.9009 86.3283 21.4927 86.8047 23.1118 86.7535C24.7915 86.7664 26.4646 86.5425 28.0818 86.0884C29.6919 85.6224 31.2556 85.0089 32.753 84.2559C36.1948 82.3157 39.4376 80.0424 42.435 77.4687C42.6281 77.2461 42.8736 77.0749 43.1493 76.9706C43.425 76.8663 43.7223 76.8322 44.0145 76.8712C44.3067 76.9103 44.5846 77.0213 44.8233 77.1943C45.0619 77.3673 45.2538 77.5969 45.3817 77.8624C46.0548 78.8444 46.406 80.0113 46.3865 81.2017C46.5339 82.6906 46.2312 84.1895 45.5175 85.5047C44.6651 86.5411 43.6735 87.4547 42.5708 88.2196C40.9874 89.3714 39.2792 90.3413 37.4786 91.1109C33.1731 93.1038 28.4944 94.1632 23.75 94.2194C20.0582 94.353 16.3738 93.796 12.8867 92.5769C10.2416 91.5611 7.86357 89.9546 5.93411 87.8802C1.97804 83.636 0 77.8036 0 70.383ZM94.9458 46.6959C92.9089 46.6959 89.2561 49.8134 83.9874 56.0485L79.3704 61.709L70.4761 73.3014C68.3215 77.3828 66.6331 80.7763 65.411 83.4821L62.4643 89.9571C61.9249 91.1578 61.2409 92.2883 60.4274 93.3235C60.1328 93.6457 59.7708 93.8991 59.3671 94.0657C58.9635 94.2322 58.528 94.3079 58.0918 94.2873C57.1211 94.289 56.1586 94.1095 55.2538 93.7579C54.3971 93.4378 53.5989 92.9792 52.891 92.4004C52.2679 91.9529 51.7546 91.3696 51.39 90.6947C51.0254 90.0198 50.8189 89.2709 50.7862 88.5046C50.9784 87.3536 51.3738 86.2458 51.954 85.2332L54.181 80.7266C61.1064 66.4645 67.389 48.3655 73.0289 26.4295C74.8965 19.2599 76.3833 11.9965 77.4829 4.66989C77.8903 1.55686 79.4112 0.00034425 82.0455 0.00034425C83.5481 -0.0578177 85.0294 0.370675 86.2687 1.22203C88.4142 2.82379 89.4598 4.52058 89.3783 6.33953C89.2805 8.39726 89.0217 10.4442 88.6043 12.4615C88.1516 14.7149 87.5768 17.1673 86.8797 19.8188C86.1827 22.4703 85.386 25.2621 84.4898 28.1941C82.0455 35.6328 80.235 41.0037 79.0581 44.3068C75.437 54.2612 73.1738 60.1027 72.2685 61.8312C72.8253 61.1525 73.545 60.243 74.4412 59.1163C81.1765 50.2478 85.3453 44.9538 86.9476 43.2344C88.2221 41.8301 89.5827 40.5064 91.0214 39.2707C93.4981 37.1723 96.6715 36.0777 99.9158 36.2029C101.238 36.1526 102.555 36.39 103.777 36.8986C104.998 37.4072 106.095 38.1748 106.991 39.1486C108.566 40.8336 109.457 43.0455 109.489 45.352C109.509 47.3986 109.258 49.4389 108.742 51.4197C108.215 53.2685 107.571 55.082 106.814 56.8494C106.035 58.6593 105.184 60.5688 104.261 62.5777L101.545 68.4147C98.9562 74.3059 97.6571 78.6768 97.648 81.5274C97.648 83.5364 98.4628 84.5409 100.106 84.5409C101.583 84.5566 103.042 84.2118 104.356 83.5364C105.117 83.0642 105.953 82.7246 106.828 82.5319C106.986 82.5092 107.148 82.5238 107.3 82.5744C107.452 82.6251 107.59 82.7104 107.704 82.8237C107.817 82.937 107.902 83.0751 107.953 83.2271C108.004 83.379 108.018 83.5407 107.995 83.6993C107.995 86.9979 106.325 89.767 102.998 91.9796C101.169 93.3342 98.9839 94.1266 96.7111 94.2601C95.1102 94.3032 93.512 94.1018 91.9719 93.6628C90.7348 93.2885 89.6008 92.6334 88.6586 91.7489C86.4724 89.7534 85.3724 86.7943 85.3724 82.912C85.3724 78.7221 86.7304 73.4598 89.4462 67.1251L95.4618 54.3382C96.4214 52.6052 97.0087 50.6912 97.1863 48.7184C97.1863 47.361 96.4259 46.6551 94.905 46.6551L94.9458 46.6959ZM143.505 23.1581C142.699 24.0114 141.759 24.7268 140.721 25.2756C139.696 25.8048 138.582 26.1407 137.435 26.2666C136.33 26.4253 135.203 26.2603 134.19 25.7915C133.166 25.313 132.261 24.6129 131.542 23.7418C130.09 22.22 129.241 20.2229 129.152 18.122C129.053 16.6486 129.368 15.1769 130.062 13.8733C130.659 12.9498 131.446 12.1633 132.37 11.5656C133.848 10.5167 135.597 9.91797 137.408 9.84169C138.639 9.80829 139.869 9.91761 141.074 10.1675C141.944 10.3921 142.767 10.769 143.505 11.2806C144.304 11.7317 144.973 12.3807 145.449 13.1652C145.925 13.9497 146.19 14.8433 146.221 15.7601C146.27 17.2614 146.016 18.7571 145.474 20.1581C145.001 21.2833 144.335 22.317 143.505 23.2124V23.1581ZM132.098 83.3464C133.063 83.3464 133.538 83.9708 133.538 85.2332C133.423 87.1723 132.619 89.0066 131.27 90.405C130.166 91.6865 128.787 92.7016 127.235 93.3739C125.682 94.0463 123.998 94.3586 122.308 94.2873C118.008 94.2873 115.061 92.5452 113.468 89.0612C112.835 87.6692 112.528 86.1509 112.572 84.6224C112.608 82.6523 112.919 80.697 113.495 78.8126C114.102 76.6769 114.862 74.4145 115.776 72.0254C116.686 69.6771 117.677 67.288 118.75 64.8854L121.697 57.8811C123.842 52.7093 124.929 49.2614 124.929 47.5918C125.032 46.4608 124.85 45.322 124.399 44.2796C124.094 43.8002 123.708 43.3776 123.258 43.0308L122.213 42.2571C122.014 42.0953 121.859 41.8863 121.762 41.6492C121.664 41.4121 121.628 41.1544 121.656 40.8996C121.673 40.2101 121.938 39.5497 122.403 39.04C122.96 38.4031 123.632 37.8779 124.385 37.4925C126.2 36.6 128.203 36.1577 130.225 36.2029C135.656 36.2029 138.372 37.6418 138.372 40.4924C138.234 44.4298 137.344 48.3046 135.751 51.9084C134.013 56.1978 132.533 59.6457 131.311 62.2791L127.97 69.9486C125.526 75.5955 124.29 79.6542 124.29 82.1654C124.243 82.4992 124.273 82.8394 124.38 83.1592C124.487 83.479 124.667 83.7696 124.905 84.008C125.143 84.2464 125.434 84.426 125.754 84.5327C126.074 84.6393 126.414 84.67 126.748 84.6224C127.987 84.6709 129.22 84.4437 130.36 83.9572C130.906 83.6365 131.511 83.4288 132.139 83.3464H132.098ZM288.409 43.5873C284.516 43.5873 280.768 46.2569 277.165 51.5962C273.921 56.6295 271.449 62.1201 269.832 67.8853C275.883 67.3213 281.567 64.734 285.964 60.5416C290.147 56.5327 292.238 52.7002 292.238 49.0442C292.238 45.3882 290.962 43.5511 288.409 43.533V43.5873ZM255.927 74.2788C256.057 71.1354 256.6 68.0228 257.543 65.0211C258.479 62.0434 259.726 59.1724 261.264 56.4557C262.823 53.6793 264.642 51.0568 266.695 48.6234C268.716 46.2242 270.993 44.053 273.485 42.1485C278.799 38.1757 284.158 36.1894 289.563 36.1894C295.9 36.1894 300.128 38.8047 302.246 44.0353C303.021 46.046 303.377 48.1941 303.291 50.3473C303.298 52.6558 302.836 54.9416 301.934 57.0666C301.041 59.1416 299.791 61.0437 298.24 62.6863C296.575 64.4398 294.685 65.9644 292.618 67.2202C290.385 68.571 288.025 69.6985 285.571 70.5866C280.13 72.4622 274.42 73.4388 268.664 73.4779C268.482 74.243 268.386 75.0262 268.379 75.8127C268.363 76.98 268.477 78.1456 268.719 79.2877C268.96 80.4967 269.42 81.6515 270.077 82.6948C270.636 83.7333 271.473 84.5957 272.495 85.1855C273.516 85.7753 274.682 86.0691 275.861 86.0341C280.325 85.9837 284.683 84.6758 288.436 82.2604C289.717 81.5265 290.903 80.6375 291.966 79.6135C292.554 78.8786 293.398 78.3935 294.329 78.256C294.701 78.2824 295.059 78.4068 295.367 78.6167C295.674 78.8265 295.921 79.1143 296.081 79.4506C296.587 80.2643 296.847 81.2073 296.828 82.1654C296.867 84.0112 296.278 85.8156 295.158 87.2829C290.486 91.9525 283.534 94.2873 274.3 94.2873C271.897 94.398 269.496 94.0222 267.242 93.1824C264.988 92.3427 262.927 91.0563 261.182 89.4005C257.48 85.6993 255.737 80.6587 255.954 74.2788H255.927ZM304.758 92.4004C304.058 91.8927 303.455 91.2627 302.979 90.5408C302.593 90.0184 302.345 89.4066 302.259 88.7625C302.242 88.1383 302.343 87.5164 302.558 86.93C302.803 86.197 303.128 85.3282 303.536 84.2151C311.095 65.6184 314.875 53.1301 314.875 46.7501C314.893 46.0185 314.737 45.2929 314.418 44.6341C314.099 43.9753 313.627 43.4023 313.041 42.9629L311.928 42.1892C311.748 42.0137 311.608 41.8018 311.516 41.5677C311.425 41.3336 311.385 41.0827 311.398 40.8318C311.399 40.1465 311.65 39.4852 312.104 38.9721C312.628 38.3397 313.269 37.8142 313.992 37.4246C315.496 36.5897 317.187 36.1463 318.908 36.1351C320.247 36.085 321.585 36.2735 322.859 36.6916C323.751 37.0406 324.57 37.5514 325.276 38.1984C325.904 38.7176 326.418 39.3602 326.788 40.0864C327.157 40.8126 327.372 41.6069 327.422 42.42C327.434 43.9368 327.265 45.4496 326.919 46.9266C326.566 48.4469 326.145 49.9401 325.67 51.4061C325.195 52.8721 324.706 54.2567 324.217 55.5734C323.848 56.5271 323.535 57.5016 323.28 58.4919C323.034 59.2824 322.92 60.1077 322.941 60.9353C323.681 60.3657 324.238 59.5917 324.543 58.7091L326.702 54.6368C331.527 45.9583 336.235 40.2119 340.824 37.3975C342.3 36.5887 343.963 36.1859 345.645 36.2301C346.499 36.2016 347.348 36.3649 348.131 36.7079C348.913 37.0508 349.609 37.5648 350.167 38.2119C351.271 39.4018 351.911 40.9477 351.973 42.5693C352.05 43.9037 351.941 45.2425 351.647 46.5465C351.372 47.5912 350.952 48.592 350.398 49.5193C349.176 51.5962 347.682 52.6414 345.944 52.6414C345.446 52.6398 344.965 52.4618 344.586 52.1391L343.364 51.0803C342.426 50.1254 341.169 49.5502 339.833 49.465C338.256 49.7055 336.813 50.4937 335.759 51.6912C333.909 53.4431 332.223 55.3605 330.721 57.4195C324.754 65.3675 319.932 74.1131 316.395 83.4007L313.951 89.8485C313.523 91.0401 312.977 92.1861 312.322 93.2692C312.078 93.6053 311.754 93.8748 311.379 94.0527C311.004 94.2307 310.59 94.3113 310.176 94.2873C309.206 94.2811 308.245 94.1018 307.338 93.7579C306.434 93.4318 305.583 92.9744 304.812 92.4004H304.758ZM216.317 124.612L206.037 130.788C205.819 130.917 205.652 131.117 205.566 131.355C205.48 131.592 205.479 131.853 205.565 132.091C205.65 132.329 205.816 132.53 206.033 132.659C206.251 132.788 206.507 132.837 206.757 132.797L212.596 131.902C212.834 131.866 213.076 131.909 213.287 132.024C213.498 132.139 213.666 132.32 213.764 132.54L216.086 137.969C216.187 138.195 216.363 138.38 216.584 138.493C216.804 138.605 217.057 138.639 217.3 138.588C217.542 138.537 217.76 138.405 217.917 138.214C218.074 138.022 218.161 137.783 218.163 137.535L217.96 125.535C217.956 125.345 217.902 125.16 217.804 124.997C217.705 124.834 217.566 124.7 217.4 124.608C217.234 124.516 217.046 124.469 216.856 124.472C216.666 124.475 216.48 124.528 216.317 124.626V124.612ZM217.389 64.7361C216.075 67.245 214.976 69.8606 214.103 72.5548C213.318 74.846 212.896 77.2461 212.854 79.6678C212.768 81.5326 213.241 83.3806 214.212 84.9753C214.649 85.6488 215.256 86.1961 215.97 86.5628C216.685 86.9295 217.483 87.1029 218.286 87.0657C220.193 87.044 222.063 86.5346 223.717 85.5861C225.633 84.5097 227.392 83.1761 228.945 81.6225C230.725 79.8365 232.309 77.8662 233.671 75.7448C235.148 73.4826 236.421 71.0931 237.473 68.6047C239.713 63.6789 240.928 58.3495 241.044 52.94C241.14 50.8114 240.779 48.687 239.985 46.7094C239.739 46.051 239.294 45.4848 238.713 45.0887C238.132 44.6926 237.443 44.4858 236.74 44.4968C235.083 44.5866 233.497 45.1944 232.204 46.2343C230.391 47.5651 228.713 49.0699 227.194 50.7274C225.327 52.7633 223.598 54.9219 222.02 57.1888C220.325 59.5979 218.796 62.1194 217.444 64.7361H217.389ZM208.848 88.4503C209.052 88.7897 208.373 90.3914 208.278 90.7308C207.803 92.4819 200.348 115.164 198.351 117.364C197.798 117.999 197.113 118.507 196.344 118.851C195.575 119.196 194.74 119.369 193.897 119.359C192.876 119.368 191.875 119.078 191.016 118.526C190.157 117.974 189.479 117.183 189.063 116.25C188.723 115.646 188.549 114.962 188.561 114.269C188.689 113.167 189.02 112.1 189.538 111.119C190.258 109.409 198.27 86.6857 200.402 78.9483C202.366 71.8354 203.665 66.9984 204.299 64.4374L206.078 57.4874C206.911 54.4017 207.587 51.2756 208.101 48.1211C208.362 46.9507 208.258 45.7284 207.803 44.619C207.469 44.0058 207.006 43.4729 206.445 43.0579C205.915 42.705 205.44 42.4064 204.992 42.1485C204.766 41.9944 204.593 41.776 204.493 41.5217C204.394 41.2674 204.374 40.9892 204.435 40.7232C204.526 40.0096 204.85 39.3461 205.358 38.8363C205.939 38.226 206.624 37.7249 207.382 37.3568C208.955 36.6034 210.675 36.2049 212.419 36.1894C213.773 36.1345 215.124 36.3419 216.398 36.8002C217.309 37.1729 218.125 37.7432 218.788 38.4698C219.376 39.0029 219.84 39.6584 220.148 40.3901C220.455 41.1218 220.598 41.912 220.567 42.705C220.2 45.5556 219.779 47.999 219.345 50.0351C225.836 40.8046 232.562 36.1894 239.524 36.1894C245.86 36.1894 250.106 39.4698 252.261 46.0307C253.064 48.7572 253.439 51.5917 253.374 54.4332C253.363 57.7959 252.86 61.1388 251.881 64.356C250.883 67.6401 249.517 70.8004 247.807 73.7765C246.114 76.6916 244.121 79.4213 241.859 81.9211C239.695 84.3381 237.288 86.526 234.676 88.4503C229.344 92.3054 224.301 94.233 219.549 94.233C217.405 94.3344 215.274 93.8433 213.391 92.8136C211.509 91.7839 209.946 90.2554 208.875 88.396" fill="#FE5900"/>
<path d="M230.426 69.2286C230.015 69.6773 229.527 70.0496 228.986 70.3281C228.46 70.5994 227.89 70.7741 227.302 70.8439C226.727 70.9128 226.143 70.8187 225.619 70.5724C225.1 70.3139 224.638 69.9539 224.261 69.5136C223.516 68.7246 223.082 67.6928 223.038 66.6088C222.954 65.9433 223.066 65.2679 223.361 64.6651C223.655 64.0623 224.119 63.5585 224.695 63.2152C225.463 62.6802 226.367 62.3743 227.302 62.3329C227.936 62.3132 228.57 62.3724 229.19 62.5093C229.639 62.6174 230.063 62.811 230.439 63.0794C230.846 63.314 231.184 63.6499 231.422 64.0543C231.66 64.4587 231.789 64.9179 231.797 65.3871C231.82 66.1615 231.686 66.9325 231.403 67.654C231.161 68.2358 230.816 68.7692 230.385 69.2286H230.426ZM167.309 153.172C158.306 152.262 149.724 148.095 144.578 140.48C143.161 138.38 142.038 136.096 141.237 133.693C140.531 131.535 138.522 123.146 134.095 124.612C128.432 126.498 131.094 136.828 132.587 140.711C135.178 147.096 140.059 152.285 146.275 155.262C151.341 157.733 156.819 159.252 162.435 159.742C181.907 161.71 202.48 150.701 212.827 134.019C214.755 130.91 214.266 129.946 211.632 133.258C201.271 146.48 183.876 154.814 167.309 153.131V153.172ZM218.978 113.25V117.322H221.002C221.646 117.371 222.286 117.188 222.808 116.806C223.024 116.603 223.191 116.353 223.297 116.076C223.403 115.798 223.444 115.5 223.419 115.205C223.44 114.924 223.395 114.643 223.286 114.383C223.178 114.123 223.009 113.893 222.794 113.711C222.236 113.344 221.572 113.172 220.907 113.223L218.978 113.25ZM218.978 111.54H220.811C221.425 111.591 222.04 111.444 222.563 111.119C222.749 110.947 222.895 110.736 222.989 110.502C223.083 110.267 223.123 110.014 223.106 109.761C223.135 109.503 223.095 109.241 222.99 109.002C222.885 108.764 222.719 108.558 222.509 108.404C221.937 108.09 221.286 107.948 220.635 107.997H218.978V111.54ZM217.077 106.205H220.54C221.75 106.11 222.961 106.379 224.016 106.979C224.38 107.27 224.667 107.647 224.852 108.075C225.037 108.504 225.113 108.971 225.075 109.436C225.099 110.102 224.919 110.76 224.559 111.322C224.382 111.573 224.156 111.786 223.895 111.947C223.634 112.108 223.342 112.214 223.038 112.259V112.354C223.744 112.454 224.388 112.812 224.845 113.359C225.246 113.955 225.445 114.663 225.415 115.381C225.441 115.887 225.356 116.392 225.166 116.861C224.976 117.33 224.686 117.751 224.315 118.096C223.461 118.795 222.375 119.149 221.273 119.087H217.064L217.077 106.205ZM231.145 110.739C230.875 110.729 230.605 110.781 230.358 110.891C230.111 111.002 229.892 111.168 229.719 111.377C229.317 111.9 229.089 112.536 229.068 113.196H233.073C233.105 112.543 232.919 111.898 232.544 111.363C232.379 111.164 232.171 111.004 231.936 110.896C231.701 110.788 231.445 110.734 231.186 110.739H231.145ZM231.525 119.304C230.924 119.329 230.325 119.219 229.771 118.985C229.217 118.75 228.721 118.396 228.321 117.947C227.497 116.908 227.082 115.605 227.153 114.282C227.082 112.94 227.459 111.612 228.226 110.508C228.576 110.063 229.027 109.708 229.542 109.472C230.057 109.236 230.62 109.126 231.186 109.151C231.697 109.132 232.206 109.227 232.675 109.429C233.145 109.631 233.564 109.934 233.902 110.318C234.614 111.239 234.971 112.386 234.907 113.549V114.675H229.04C229.012 115.462 229.257 116.234 229.733 116.861C229.962 117.122 230.247 117.327 230.567 117.461C230.887 117.595 231.233 117.654 231.58 117.634C232.064 117.638 232.548 117.583 233.019 117.472C233.52 117.34 234.007 117.158 234.472 116.929V118.639C234.043 118.868 233.587 119.041 233.114 119.155C232.586 119.257 232.05 119.307 231.512 119.304H231.525ZM243.991 117.702C244.291 117.717 244.591 117.67 244.872 117.562C245.152 117.455 245.407 117.29 245.621 117.078C246.056 116.591 246.28 115.952 246.245 115.3V114.458H245.105C244.432 114.429 243.766 114.599 243.19 114.947C242.983 115.103 242.819 115.31 242.714 115.548C242.61 115.785 242.568 116.046 242.592 116.304C242.579 116.486 242.602 116.668 242.66 116.841C242.718 117.014 242.811 117.173 242.932 117.309C243.073 117.439 243.241 117.538 243.424 117.599C243.606 117.66 243.8 117.681 243.991 117.662V117.702ZM246.707 119.087L246.327 117.729C245.999 118.233 245.557 118.651 245.037 118.951C244.518 119.189 243.95 119.3 243.38 119.277C243.006 119.298 242.632 119.238 242.283 119.103C241.934 118.967 241.618 118.758 241.357 118.49C240.839 117.879 240.581 117.089 240.637 116.291C240.62 115.854 240.709 115.421 240.896 115.026C241.083 114.631 241.362 114.287 241.71 114.024C242.63 113.441 243.704 113.147 244.792 113.182H246.313V112.666C246.339 112.182 246.2 111.704 245.919 111.309C245.762 111.147 245.571 111.021 245.36 110.942C245.149 110.862 244.922 110.83 244.697 110.847C244.235 110.838 243.775 110.912 243.339 111.065C242.932 111.214 242.533 111.386 242.144 111.58L241.547 110.101C242.037 109.82 242.562 109.605 243.109 109.463C243.637 109.328 244.179 109.255 244.724 109.246C245.64 109.178 246.546 109.471 247.25 110.06C247.56 110.407 247.796 110.813 247.943 111.254C248.091 111.696 248.146 112.162 248.106 112.626V119.209L246.707 119.087ZM260.87 116.345C260.89 116.756 260.816 117.167 260.654 117.546C260.491 117.924 260.245 118.261 259.933 118.53C259.145 119.096 258.185 119.37 257.217 119.304C256.236 119.345 255.261 119.14 254.379 118.707V116.915C255.268 117.401 256.259 117.671 257.272 117.702C258.426 117.702 258.996 117.322 258.996 116.549C259.009 116.329 258.941 116.112 258.806 115.938C258.633 115.727 258.421 115.552 258.181 115.422C257.791 115.191 257.382 114.991 256.959 114.825C256.185 114.527 255.485 114.063 254.909 113.467C254.53 112.985 254.337 112.383 254.366 111.77C254.351 111.398 254.426 111.027 254.585 110.689C254.743 110.352 254.98 110.057 255.275 109.829C256.001 109.322 256.876 109.074 257.76 109.123C258.78 109.125 259.785 109.367 260.694 109.829L260.096 111.39C259.349 111.008 258.53 110.786 257.693 110.739C256.715 110.739 256.212 111.051 256.212 111.675C256.212 111.826 256.247 111.975 256.316 112.11C256.384 112.244 256.484 112.361 256.606 112.449C257.131 112.808 257.696 113.104 258.29 113.331C258.848 113.552 259.376 113.839 259.865 114.187C260.175 114.425 260.426 114.732 260.599 115.082C260.771 115.466 260.854 115.884 260.843 116.304L260.87 116.345ZM270.308 119.128H268.434V113.101C268.475 112.513 268.337 111.926 268.04 111.417C267.906 111.233 267.727 111.085 267.521 110.988C267.314 110.891 267.086 110.847 266.859 110.861C266.548 110.839 266.236 110.9 265.957 111.039C265.678 111.177 265.441 111.388 265.27 111.648C264.865 112.454 264.687 113.355 264.754 114.254V119.128H262.893V109.341H264.346L264.618 110.698H264.713C264.952 110.24 265.32 109.862 265.772 109.612C266.245 109.361 266.772 109.23 267.307 109.232C267.866 109.162 268.433 109.275 268.922 109.554C269.412 109.833 269.798 110.263 270.022 110.779H270.145C270.397 110.304 270.778 109.908 271.245 109.639C271.742 109.362 272.305 109.222 272.874 109.232C273.3 109.19 273.73 109.249 274.129 109.405C274.528 109.561 274.884 109.808 275.169 110.128C275.713 110.924 275.967 111.882 275.889 112.843V119.223H274.015V113.101C274.059 112.514 273.927 111.928 273.635 111.417C273.499 111.231 273.318 111.082 273.109 110.984C272.9 110.887 272.67 110.845 272.44 110.861C272.129 110.838 271.819 110.896 271.538 111.029C271.257 111.162 271.015 111.366 270.837 111.621C270.45 112.331 270.276 113.136 270.335 113.942L270.308 119.128ZM281.198 117.702C281.498 117.717 281.798 117.67 282.079 117.562C282.359 117.455 282.614 117.29 282.828 117.078C283.259 116.59 283.479 115.95 283.439 115.3V114.458H282.312C281.639 114.427 280.972 114.597 280.397 114.947C280.187 115.102 280.021 115.308 279.914 115.546C279.807 115.783 279.763 116.045 279.786 116.304C279.774 116.487 279.799 116.67 279.86 116.842C279.921 117.015 280.015 117.174 280.139 117.309C280.28 117.439 280.448 117.538 280.631 117.599C280.813 117.66 281.007 117.681 281.198 117.662V117.702ZM283.914 119.087L283.534 117.729C283.243 118.24 282.813 118.657 282.293 118.931C281.773 119.205 281.186 119.325 280.601 119.277C280.227 119.3 279.852 119.241 279.503 119.105C279.153 118.969 278.838 118.759 278.577 118.49C278.055 117.881 277.791 117.091 277.844 116.291C277.819 115.857 277.898 115.423 278.075 115.026C278.253 114.63 278.523 114.281 278.863 114.01C279.782 113.427 280.856 113.134 281.945 113.169H283.466V112.666C283.492 112.182 283.353 111.704 283.072 111.309C282.915 111.147 282.724 111.021 282.513 110.942C282.301 110.862 282.075 110.83 281.85 110.847C281.388 110.837 280.928 110.91 280.492 111.065C280.084 111.214 279.686 111.386 279.297 111.58L278.7 110.101C279.19 109.82 279.715 109.605 280.261 109.463C280.785 109.328 281.323 109.256 281.864 109.246C282.784 109.176 283.695 109.468 284.403 110.06C284.713 110.407 284.949 110.813 285.096 111.254C285.243 111.696 285.298 112.162 285.258 112.626V119.209L283.914 119.087ZM292.387 109.164C292.702 109.162 293.016 109.194 293.324 109.259L293.134 111.2C292.865 111.122 292.586 111.085 292.306 111.092C291.961 111.082 291.618 111.15 291.303 111.291C290.988 111.432 290.709 111.642 290.486 111.906C290.006 112.499 289.76 113.248 289.794 114.01V119.128H287.879V109.341H289.346L289.59 111.065H289.685C289.956 110.526 290.351 110.061 290.839 109.707C291.272 109.375 291.801 109.194 292.347 109.191L292.387 109.164ZM298.226 117.621C298.69 117.617 299.149 117.535 299.584 117.377V118.951C299.327 119.062 299.059 119.144 298.783 119.195C298.448 119.267 298.107 119.303 297.765 119.304C295.999 119.304 295.117 118.259 295.117 116.182V110.915H293.908V109.951L295.266 109.191L295.904 107.114H297.059V109.286H299.571V110.861H297.059V116.101C297.024 116.501 297.146 116.9 297.398 117.214C297.513 117.33 297.65 117.422 297.802 117.483C297.954 117.544 298.117 117.572 298.281 117.567L298.226 117.621ZM309.606 110.861C309.293 110.834 308.978 110.889 308.693 111.02C308.407 111.151 308.16 111.353 307.976 111.607C307.585 112.369 307.406 113.223 307.46 114.078V114.214C307.398 115.109 307.576 116.004 307.976 116.806C308.156 117.075 308.405 117.291 308.696 117.432C308.987 117.572 309.311 117.633 309.633 117.607C309.942 117.617 310.247 117.539 310.514 117.383C310.78 117.227 310.997 116.999 311.14 116.725C311.527 115.942 311.704 115.072 311.656 114.2C311.656 111.974 310.977 110.861 309.606 110.861ZM310.095 109.164C310.603 109.154 311.105 109.273 311.554 109.51C312.003 109.748 312.384 110.096 312.661 110.522C313.331 111.642 313.648 112.938 313.571 114.241C313.644 115.554 313.323 116.859 312.648 117.987C312.367 118.416 311.982 118.766 311.528 119.004C311.074 119.241 310.566 119.359 310.054 119.345C309.541 119.363 309.032 119.247 308.577 119.009C308.123 118.771 307.738 118.419 307.46 117.987H307.338L306.999 119.155H305.641V105.363H307.515V110.589H307.596C307.858 110.127 308.242 109.745 308.707 109.486C309.172 109.227 309.699 109.102 310.23 109.123L310.095 109.164ZM321.949 119.128L321.691 117.77H321.596C321.337 118.228 320.95 118.601 320.483 118.843C319.977 119.111 319.412 119.246 318.84 119.236C318.401 119.268 317.961 119.206 317.549 119.053C317.137 118.901 316.762 118.663 316.45 118.354C315.871 117.572 315.592 116.609 315.662 115.639V109.341H317.55V115.381C317.502 115.973 317.65 116.564 317.971 117.064C318.131 117.265 318.34 117.422 318.577 117.519C318.815 117.616 319.074 117.651 319.329 117.621C319.661 117.648 319.995 117.59 320.299 117.452C320.603 117.314 320.867 117.101 321.067 116.834C321.499 116.032 321.687 115.121 321.61 114.214V109.341H323.497V119.128H321.949ZM324.76 109.341H326.797L328.617 114.892C328.876 115.613 329.058 116.36 329.16 117.119C329.221 116.72 329.307 116.325 329.418 115.938C329.554 115.476 330.219 113.223 331.441 109.341H333.464L329.703 120.417C329.033 122.49 327.902 123.526 326.308 123.526C325.901 123.525 325.495 123.474 325.1 123.376V121.68C325.416 121.754 325.739 121.791 326.064 121.788C326.96 121.788 327.598 121.204 327.965 120.037L328.291 119.128L324.76 109.341ZM338.326 110.739C338.056 110.732 337.787 110.785 337.54 110.896C337.294 111.006 337.075 111.17 336.9 111.377C336.502 111.901 336.278 112.537 336.262 113.196H340.254C340.29 112.545 340.108 111.9 339.738 111.363C339.571 111.167 339.362 111.009 339.128 110.901C338.893 110.794 338.638 110.738 338.38 110.739H338.326ZM338.733 119.304C338.13 119.331 337.528 119.222 336.971 118.988C336.415 118.753 335.917 118.397 335.515 117.947C334.696 116.906 334.286 115.603 334.361 114.282C334.283 112.939 334.661 111.609 335.433 110.508C335.781 110.064 336.23 109.708 336.742 109.472C337.255 109.236 337.816 109.126 338.38 109.151C338.891 109.129 339.401 109.222 339.871 109.425C340.341 109.627 340.76 109.932 341.096 110.318C341.819 111.234 342.181 112.384 342.114 113.549V114.675H336.248C336.22 115.462 336.464 116.234 336.941 116.861C337.167 117.121 337.45 117.325 337.768 117.459C338.086 117.593 338.43 117.653 338.774 117.634C339.263 117.638 339.751 117.583 340.227 117.472C340.724 117.339 341.206 117.158 341.666 116.929V118.639C341.239 118.872 340.782 119.045 340.308 119.155C339.785 119.258 339.253 119.308 338.72 119.304H338.733ZM348.687 109.164C348.997 109.162 349.307 109.193 349.61 109.259L349.434 111.2C349.164 111.123 348.885 111.087 348.605 111.092C348.26 111.081 347.917 111.149 347.602 111.29C347.287 111.431 347.008 111.642 346.786 111.906C346.305 112.499 346.059 113.248 346.093 114.01V119.128H344.219V109.341H345.686L345.93 111.065H346.025C346.295 110.53 346.686 110.065 347.166 109.707C347.605 109.377 348.138 109.196 348.687 109.191V109.164ZM159.909 64.7355C158.601 67.2472 157.501 69.8623 156.623 72.5543C155.844 74.8472 155.422 77.2462 155.373 79.6672C155.288 81.532 155.76 83.3801 156.731 84.9747C157.172 85.6454 157.779 86.1904 158.492 86.5568C159.206 86.9231 160.003 87.0983 160.805 87.0652C162.712 87.044 164.582 86.5346 166.237 85.5856C168.155 84.5127 169.914 83.1787 171.465 81.6219C173.244 79.836 174.828 77.8656 176.19 75.7442C177.667 73.4794 178.944 71.0903 180.006 68.6042C182.246 63.6784 183.461 58.349 183.577 52.9395C183.673 50.8108 183.312 48.6864 182.518 46.7089C182.268 46.0504 181.82 45.485 181.237 45.0892C180.654 44.6934 179.964 44.4864 179.259 44.4963C177.589 44.565 175.983 45.1587 174.669 46.193C172.88 47.5371 171.229 49.0559 169.74 50.7268C167.865 52.7559 166.136 54.9151 164.566 57.1882C162.862 59.5939 161.329 62.1158 159.977 64.7355H159.909ZM151.381 88.4498C151.585 88.7891 150.906 90.3909 150.811 90.7302C150.335 92.4813 142.88 115.164 140.884 117.363C140.333 117.997 139.65 118.503 138.883 118.848C138.117 119.192 137.284 119.367 136.444 119.358C135.421 119.368 134.417 119.079 133.556 118.527C132.695 117.975 132.014 117.183 131.596 116.25C131.263 115.643 131.09 114.961 131.094 114.268C131.22 113.165 131.557 112.096 132.085 111.119C132.805 109.408 140.803 86.6851 142.948 78.9478C144.913 71.8349 146.212 66.9979 146.846 64.4369L148.624 57.4868C149.46 54.4009 150.14 51.2748 150.661 48.1206C150.92 46.9489 150.811 45.726 150.349 44.6184C150.016 44.0052 149.552 43.4724 148.991 43.0574C148.475 42.7045 147.986 42.4058 147.538 42.1479C147.313 41.9938 147.139 41.7754 147.04 41.5211C146.94 41.2669 146.92 40.9886 146.981 40.7226C147.072 40.009 147.397 39.3456 147.905 38.8358C148.488 38.2285 149.173 37.7277 149.928 37.3562C151.502 36.6029 153.221 36.2043 154.966 36.1888C156.319 36.1339 157.67 36.3414 158.945 36.7996C159.857 37.1691 160.674 37.7398 161.335 38.4693C161.893 39.0172 162.327 39.6793 162.606 40.4102C162.885 41.1412 163.002 41.9238 162.951 42.7045C162.579 45.555 162.172 47.9984 161.728 50.0346C168.219 40.8041 174.95 36.1888 181.921 36.1888C188.258 36.1888 192.503 39.4693 194.658 46.0302C195.454 48.7581 195.83 51.5915 195.771 54.4326C195.762 57.7965 195.254 61.1404 194.264 64.3554C193.273 67.6417 191.906 70.8027 190.19 73.776C188.498 76.691 186.504 79.4208 184.243 81.9205C182.079 84.3375 179.671 86.5255 177.059 88.4498C171.718 92.3049 166.676 94.2324 161.932 94.2324C159.789 94.3323 157.659 93.8406 155.776 92.811C153.894 91.7815 152.331 90.2538 151.259 88.3955" fill="#FE5900"/>
<path d="M172.945 69.2288C172.557 69.6681 172.098 70.0397 171.588 70.3283C171.057 70.5996 170.482 70.7742 169.89 70.8441C169.315 70.913 168.731 70.819 168.206 70.5727C167.683 70.3205 167.22 69.9595 166.848 69.5139C166.095 68.7289 165.656 67.6956 165.613 66.609C165.561 65.8459 165.726 65.0838 166.088 64.4099C166.392 63.932 166.795 63.5246 167.269 63.2154C168.037 62.6804 168.941 62.3745 169.877 62.3331C170.511 62.3125 171.145 62.3718 171.764 62.5095C172.213 62.6176 172.637 62.8112 173.013 63.0797C173.42 63.3142 173.759 63.6501 173.997 64.0545C174.235 64.4589 174.364 64.9181 174.371 65.3873C174.394 66.1617 174.26 66.9328 173.977 67.6542C173.735 68.236 173.39 68.7694 172.959 69.2288" fill="#FE5900"/>
</svg>
