<svg width="176" height="88" viewBox="0 0 176 88" fill="none" xmlns="http://www.w3.org/2000/svg">
<g clip-path="url(#clip0)">
<path d="M0 43.207V42.399C0.198217 36.9095 1.64236 31.5369 4.22317 26.6878C6.41143 22.4345 9.49712 18.7071 13.267 15.7632C16.861 13.0202 20.3599 11.6464 23.7638 11.6419C24.9222 11.5974 26.0753 11.8192 27.1346 12.29C28.194 12.7608 29.1312 13.4681 29.8745 14.3577C31.1762 15.9785 31.8575 18.0103 31.796 20.0882C31.796 22.8041 30.8024 25.4724 28.8153 28.0932C27.8557 29.4485 26.6024 30.5695 25.1489 31.3726C24.6308 31.6835 24.0418 31.8564 23.4379 31.8751C22.9318 31.8817 22.4314 31.7677 21.9781 31.5424C21.5462 31.3291 21.1518 31.047 20.8103 30.7072C20.2347 30.2096 19.8665 29.5144 19.7783 28.7586C19.7534 28.5382 19.781 28.315 19.8589 28.1073C19.9368 27.8996 20.0627 27.7133 20.2264 27.5636C23.2998 25.3864 25.3843 23.13 26.4797 20.7943C26.8846 19.9842 27.1005 19.0927 27.1111 18.1871C27.1111 16.3878 26.2624 15.4712 24.5514 15.4712C21.8808 15.4712 19.1287 16.931 16.2952 19.8506C13.4767 22.7938 11.2154 26.2238 9.62095 29.9739C7.89155 33.5709 6.88135 37.471 6.64708 41.4553V42.5144C6.64708 46.6833 7.52747 49.4173 9.28825 50.7164C9.95053 51.1826 10.7465 51.4209 11.556 51.3953C12.3959 51.4018 13.2324 51.2898 14.041 51.0626C14.8461 50.8295 15.6279 50.5227 16.3767 50.146C18.0975 49.1756 19.719 48.0385 21.2177 46.7512C21.3143 46.6398 21.437 46.5542 21.5748 46.5021C21.7127 46.4499 21.8614 46.4328 22.0075 46.4523C22.1536 46.4719 22.2925 46.5274 22.4118 46.6139C22.5312 46.7005 22.6271 46.8153 22.691 46.9481C23.0276 47.4393 23.2032 48.023 23.1935 48.6183C23.2672 49.3631 23.1158 50.1128 22.7589 50.7707C22.3328 51.2891 21.837 51.746 21.2856 52.1286C20.4939 52.7048 19.6398 53.1899 18.7395 53.5748C16.5867 54.5716 14.2473 55.1015 11.8751 55.1296C10.0292 55.1965 8.18699 54.9178 6.44339 54.3081C5.12083 53.8 3.93182 52.9965 2.96708 51.9589C0.989027 49.836 0 46.9187 0 43.207ZM47.4733 31.359C46.4548 31.359 44.6284 32.9184 41.994 36.0371L39.6856 38.8684L35.2383 44.6668C34.161 46.7082 33.3169 48.4056 32.7058 49.759L31.2324 52.9977C30.9627 53.5983 30.6207 54.1638 30.214 54.6815C30.0667 54.8427 29.8856 54.9694 29.6838 55.0527C29.482 55.1361 29.2643 55.1739 29.0462 55.1636C28.5608 55.1645 28.0795 55.0746 27.6271 54.8988C27.1988 54.7387 26.7997 54.5093 26.4457 54.2198C26.1342 53.9959 25.8775 53.7042 25.6952 53.3666C25.5129 53.0291 25.4097 52.6545 25.3933 52.2712C25.4894 51.6954 25.6871 51.1414 25.9772 50.6349L27.0907 48.3807C30.5535 41.247 33.6948 32.1942 36.5148 21.2221C37.4486 17.636 38.192 14.0029 38.7418 10.3383C38.9455 8.78116 39.7059 8.00261 41.0231 8.00261C41.7744 7.97352 42.515 8.18785 43.1347 8.61368C44.2075 9.41486 44.7303 10.2636 44.6895 11.1734C44.6406 12.2026 44.5112 13.2265 44.3025 14.2355C44.0762 15.3626 43.7888 16.5893 43.4402 17.9155C43.0917 19.2418 42.6934 20.6382 42.2453 22.1047C41.0231 25.8255 40.1178 28.5119 39.5294 30.1641C37.7188 35.1431 36.5872 38.065 36.1346 38.9295C36.4129 38.59 36.7728 38.1351 37.2209 37.5716C40.5886 33.1357 42.673 30.4877 43.4742 29.6277C44.1114 28.9253 44.7917 28.2631 45.5111 27.6451C46.7495 26.5955 48.3362 26.048 49.9583 26.1106C50.6194 26.0855 51.2782 26.2042 51.8889 26.4586C52.4997 26.713 53.0479 27.097 53.4957 27.584C54.2837 28.4268 54.7291 29.5332 54.745 30.6869C54.7549 31.7106 54.6293 32.7311 54.3716 33.7218C54.1078 34.6466 53.7858 35.5537 53.4075 36.4377C53.0182 37.343 52.5927 38.2981 52.131 39.3029L50.7731 42.2225C49.4785 45.1692 48.829 47.3555 48.8244 48.7813C48.8244 49.7862 49.2318 50.2886 50.0534 50.2886C50.7921 50.2964 51.5215 50.124 52.1785 49.7862C52.559 49.55 52.9769 49.3801 53.4142 49.2837C53.4936 49.2724 53.5744 49.2797 53.6505 49.305C53.7265 49.3303 53.7956 49.373 53.8522 49.4297C53.9089 49.4863 53.9516 49.5554 53.9769 49.6314C54.0022 49.7074 54.0095 49.7883 53.9981 49.8676C53.9981 51.5175 53.163 52.9026 51.4996 54.0093C50.5847 54.6869 49.4924 55.0832 48.3559 55.15C47.5555 55.1716 46.7564 55.0708 45.9864 54.8513C45.3678 54.664 44.8008 54.3364 44.3297 53.8939C43.2365 52.8958 42.6866 51.4157 42.6866 49.4738C42.6866 47.3781 43.3655 44.746 44.7235 41.5775L47.7313 35.1816C48.2111 34.3148 48.5048 33.3574 48.5936 32.3707C48.5936 31.6917 48.2134 31.3387 47.4529 31.3387L47.4733 31.359ZM71.7531 19.5858C71.3502 20.0126 70.88 20.3704 70.3612 20.645C69.8486 20.9097 69.2916 21.0777 68.7181 21.1406C68.1656 21.22 67.6019 21.1375 67.0954 20.903C66.5835 20.6637 66.1312 20.3135 65.7714 19.8777C65.0455 19.1166 64.6209 18.1177 64.5764 17.0668C64.5268 16.3299 64.6844 15.5937 65.0313 14.9416C65.3303 14.4797 65.7237 14.0864 66.1856 13.7874C66.9244 13.2628 67.7992 12.9633 68.7046 12.9251C69.3199 12.9084 69.935 12.9631 70.5378 13.0881C70.9726 13.2004 71.384 13.3889 71.7531 13.6448C72.1526 13.8705 72.4873 14.1951 72.7251 14.5875C72.963 14.9799 73.0958 15.4268 73.111 15.8854C73.1355 16.6363 73.0085 17.3845 72.7376 18.0853C72.5011 18.6481 72.1679 19.1651 71.7531 19.6129V19.5858ZM66.0498 49.6911C66.5319 49.6911 66.7695 50.0034 66.7695 50.6349C66.7121 51.6048 66.31 52.5223 65.6356 53.2217C65.0838 53.8627 64.3939 54.3704 63.6178 54.7068C62.8417 55.0431 61.9995 55.1992 61.1544 55.1636C59.0044 55.1636 57.531 54.2922 56.7344 52.5496C56.4177 51.8533 56.2645 51.0939 56.2863 50.3293C56.3047 49.344 56.46 48.3659 56.748 47.4234C57.0512 46.3551 57.4315 45.2235 57.8886 44.0285C58.3435 42.8539 58.8392 41.6589 59.3756 40.4572L60.8489 36.9537C61.9217 34.3669 62.4649 32.6423 62.4649 31.8072C62.5166 31.2415 62.4255 30.6719 62.2001 30.1505C62.0477 29.9107 61.8547 29.6993 61.6297 29.5258L61.1069 29.1388C61.0075 29.0579 60.9299 28.9534 60.8813 28.8348C60.8327 28.7162 60.8145 28.5873 60.8285 28.4599C60.837 28.1149 60.9696 27.7847 61.202 27.5297C61.4803 27.2111 61.8167 26.9484 62.1933 26.7557C63.1005 26.3093 64.102 26.088 65.1128 26.1106C67.8287 26.1106 69.1866 26.8303 69.1866 28.2562C69.1174 30.2256 68.6726 32.1637 67.8762 33.9663C67.0071 36.1118 66.2671 37.8364 65.656 39.1536L63.9857 42.9897C62.7636 45.8142 62.1457 47.8443 62.1457 49.1004C62.1219 49.2673 62.1373 49.4375 62.1906 49.5975C62.2439 49.7575 62.3338 49.9028 62.453 50.0221C62.5723 50.1413 62.7176 50.2311 62.8776 50.2845C63.0376 50.3378 63.2077 50.3532 63.3747 50.3293C63.9939 50.3536 64.6108 50.24 65.1807 49.9966C65.4537 49.8362 65.7562 49.7323 66.0702 49.6911H66.0498ZM144.206 29.8042C142.259 29.8042 140.385 31.1395 138.584 33.8101C136.962 36.3277 135.726 39.074 134.917 41.9577C137.943 41.6756 140.785 40.3814 142.983 38.2845C145.075 36.2793 146.12 34.3623 146.12 32.5336C146.12 30.705 145.482 29.7861 144.206 29.777V29.8042ZM127.965 45.1556C128.03 43.5833 128.301 42.0265 128.773 40.5251C129.241 39.0357 129.864 37.5996 130.633 36.2408C131.413 34.8521 132.322 33.5403 133.349 32.3232C134.359 31.1231 135.497 30.0371 136.744 29.0845C139.401 27.0974 142.08 26.1038 144.783 26.1038C147.951 26.1038 150.065 27.412 151.124 30.0283C151.512 31.034 151.69 32.1084 151.647 33.1855C151.65 34.3401 151.419 35.4835 150.968 36.5463C150.522 37.5842 149.897 38.5356 149.121 39.3573C148.289 40.2343 147.344 40.9969 146.31 41.625C145.194 42.3007 144.014 42.8647 142.787 43.3088C140.066 44.247 137.211 44.7355 134.333 44.755C134.242 45.1377 134.194 45.5295 134.191 45.9229C134.183 46.5067 134.24 47.0897 134.361 47.661C134.481 48.2658 134.711 48.8433 135.04 49.3652C135.319 49.8847 135.738 50.316 136.249 50.611C136.759 50.906 137.342 51.053 137.932 51.0355C140.163 51.0103 142.343 50.356 144.219 49.1479C144.86 48.7808 145.453 48.3362 145.984 47.824C146.278 47.4564 146.7 47.2138 147.166 47.145C147.352 47.1582 147.531 47.2204 147.685 47.3254C147.838 47.4304 147.962 47.5743 148.042 47.7425C148.295 48.1495 148.425 48.6212 148.415 49.1004C148.435 50.0236 148.14 50.9262 147.58 51.6601C145.244 53.9958 141.768 55.1636 137.151 55.1636C135.95 55.219 134.749 55.031 133.622 54.611C132.495 54.1909 131.465 53.5475 130.592 52.7193C128.741 50.868 127.87 48.3468 127.978 45.1556H127.965ZM152.38 54.2198C152.03 53.9658 151.729 53.6507 151.491 53.2896C151.298 53.0284 151.174 52.7223 151.131 52.4002C151.122 52.088 151.173 51.7769 151.28 51.4836C151.403 51.1169 151.566 50.6824 151.769 50.1257C155.549 40.8238 157.439 34.5773 157.439 31.3862C157.448 31.0202 157.37 30.6573 157.21 30.3278C157.051 29.9982 156.815 29.7116 156.522 29.4919L155.965 29.1049C155.875 29.0171 155.805 28.9111 155.759 28.794C155.714 28.6769 155.694 28.5514 155.7 28.4259C155.701 28.0832 155.826 27.7524 156.053 27.4957C156.315 27.1794 156.636 26.9166 156.997 26.7217C157.75 26.3041 158.595 26.0823 159.455 26.0767C160.125 26.0517 160.794 26.1459 161.431 26.3551C161.877 26.5296 162.287 26.7851 162.639 27.1087C162.953 27.3684 163.211 27.6899 163.395 28.0531C163.58 28.4163 163.688 28.8136 163.712 29.2203C163.718 29.979 163.634 30.7357 163.461 31.4745C163.284 32.2349 163.074 32.9818 162.836 33.715C162.599 34.4483 162.354 35.1409 162.11 35.7995C161.925 36.2765 161.769 36.7639 161.641 37.2593C161.519 37.6546 161.461 38.0675 161.472 38.4814C161.842 38.1965 162.12 37.8094 162.273 37.3679L163.352 35.331C165.765 30.9901 168.119 28.1158 170.414 26.7081C171.151 26.3036 171.983 26.1021 172.824 26.1242C173.251 26.11 173.676 26.1916 174.067 26.3632C174.458 26.5347 174.806 26.7918 175.085 27.1155C175.637 27.7107 175.957 28.4839 175.988 29.295C176.027 29.9625 175.972 30.6321 175.825 31.2844C175.688 31.8069 175.477 32.3074 175.2 32.7713C174.589 33.8101 173.842 34.3329 172.973 34.3329C172.724 34.3321 172.484 34.2431 172.294 34.0817L171.683 33.5521C171.215 33.0745 170.586 32.7867 169.918 32.7441C169.129 32.8644 168.408 33.2586 167.881 33.8576C166.956 34.7339 166.113 35.693 165.362 36.7229C162.378 40.6983 159.967 45.0728 158.199 49.7183L156.977 52.9434C156.763 53.5394 156.49 54.1126 156.162 54.6544C156.04 54.8225 155.878 54.9573 155.691 55.0463C155.503 55.1353 155.297 55.1756 155.089 55.1636C154.604 55.1605 154.124 55.0708 153.67 54.8988C153.218 54.7357 152.793 54.5069 152.407 54.2198H152.38ZM108.159 70.3317L103.019 73.421C102.91 73.485 102.827 73.5852 102.784 73.7041C102.741 73.8231 102.741 73.9533 102.783 74.0724C102.826 74.1916 102.909 74.292 103.018 74.3566C103.126 74.4211 103.254 74.4456 103.379 74.4258L106.299 73.9777C106.418 73.9598 106.539 73.9813 106.645 74.0389C106.75 74.0966 106.834 74.1872 106.883 74.2968L108.044 77.0127C108.095 77.1258 108.182 77.2181 108.293 77.2744C108.403 77.3307 108.529 77.3476 108.651 77.3222C108.772 77.2969 108.881 77.2308 108.96 77.135C109.038 77.0391 109.082 76.9193 109.083 76.7954L108.981 70.7934C108.979 70.6983 108.952 70.6055 108.903 70.5241C108.854 70.4427 108.784 70.3757 108.701 70.3296C108.618 70.2836 108.524 70.2602 108.429 70.2617C108.334 70.2633 108.241 70.2897 108.159 70.3385V70.3317ZM108.696 40.3825C108.039 41.6375 107.489 42.9457 107.053 44.2933C106.66 45.4394 106.449 46.6398 106.428 47.8511C106.385 48.7839 106.621 49.7082 107.107 50.5059C107.326 50.8427 107.629 51.1165 107.986 51.2999C108.343 51.4833 108.743 51.5701 109.144 51.5515C110.097 51.5406 111.032 51.2858 111.86 50.8114C112.817 50.273 113.697 49.6059 114.474 48.8288C115.363 47.9355 116.155 46.95 116.836 45.8889C117.575 44.7574 118.211 43.5622 118.738 42.3175C119.857 39.8537 120.465 37.188 120.523 34.4823C120.571 33.4176 120.39 32.355 119.994 31.3658C119.87 31.0365 119.648 30.7533 119.358 30.5552C119.067 30.357 118.723 30.2536 118.371 30.2591C117.543 30.304 116.749 30.608 116.103 31.1282C115.197 31.7938 114.358 32.5465 113.598 33.3756C112.664 34.3939 111.8 35.4736 111.011 36.6074C110.163 37.8124 109.399 39.0737 108.723 40.3825H108.696ZM104.425 52.244C104.527 52.4138 104.187 53.2149 104.14 53.3847C103.902 54.2606 100.175 65.6061 99.1765 66.706C98.8999 67.0239 98.5574 67.2778 98.1729 67.4501C97.7883 67.6225 97.3709 67.7091 96.9495 67.7041C96.439 67.7085 95.9382 67.5638 95.5088 67.2875C95.0794 67.0113 94.7401 66.6157 94.5324 66.1492C94.3622 65.847 94.2755 65.5048 94.2812 65.158C94.3453 64.6072 94.511 64.0731 94.7701 63.5828C95.1299 62.7273 99.1358 51.3614 100.202 47.4913C101.184 43.9335 101.834 41.5141 102.15 40.2331L103.04 36.7568C103.457 35.2134 103.794 33.6498 104.052 32.072C104.182 31.4865 104.13 30.8751 103.902 30.3202C103.736 30.0135 103.504 29.747 103.223 29.5394C102.958 29.3629 102.721 29.2135 102.497 29.0845C102.384 29.0074 102.297 28.8982 102.247 28.771C102.198 28.6438 102.188 28.5046 102.218 28.3716C102.264 28.0147 102.426 27.6828 102.68 27.4278C102.97 27.1225 103.313 26.8719 103.692 26.6878C104.478 26.311 105.338 26.1116 106.211 26.1038C106.887 26.0764 107.563 26.1801 108.2 26.4094C108.655 26.5958 109.063 26.881 109.395 27.2445C109.689 27.5111 109.921 27.839 110.075 28.205C110.228 28.571 110.3 28.9662 110.284 29.3629C110.101 30.7887 109.891 32.0108 109.673 33.0293C112.919 28.4123 116.282 26.1038 119.763 26.1038C122.931 26.1038 125.054 27.7447 126.131 31.0263C126.533 32.3901 126.721 33.8079 126.688 35.2291C126.682 36.9111 126.431 38.5832 125.941 40.1924C125.443 41.835 124.759 43.4158 123.904 44.9044C123.058 46.3625 122.061 47.7278 120.931 48.9782C119.849 50.1871 118.645 51.2815 117.339 52.244C114.673 54.1723 112.152 55.1364 109.775 55.1364C108.703 55.1872 107.638 54.9415 106.697 54.4265C105.755 53.9114 104.974 53.1469 104.439 52.2169" fill="white"/>
<path d="M115.214 42.6299C115.008 42.8543 114.765 43.0405 114.494 43.1798C114.231 43.3155 113.946 43.4029 113.652 43.4378C113.364 43.4723 113.073 43.4252 112.81 43.302C112.551 43.1727 112.32 42.9926 112.131 42.7725C111.759 42.3778 111.542 41.8617 111.52 41.3195C111.478 40.9866 111.534 40.6488 111.681 40.3473C111.828 40.0458 112.06 39.7938 112.348 39.6221C112.732 39.3545 113.185 39.2014 113.652 39.1807C113.969 39.1709 114.286 39.2005 114.596 39.269C114.82 39.3231 115.033 39.4199 115.22 39.5542C115.424 39.6715 115.593 39.8395 115.712 40.0418C115.831 40.2441 115.896 40.4737 115.899 40.7084C115.911 41.0958 115.844 41.4814 115.703 41.8423C115.582 42.1333 115.409 42.4001 115.193 42.6299H115.214ZM83.6554 84.6171C79.1538 84.1622 74.8628 82.0778 72.2895 78.2688C71.5813 77.2182 71.0193 76.0761 70.6192 74.874C70.2662 73.7944 69.2613 69.5984 67.0479 70.3317C64.2166 71.2754 65.5474 76.4424 66.2942 78.3842C67.5895 81.578 70.03 84.1735 73.1382 85.6627C75.6713 86.8985 78.4101 87.658 81.2179 87.9033C90.9543 88.8878 101.241 83.3814 106.414 75.0369C107.378 73.4821 107.134 73 105.817 74.6567C100.636 81.2698 91.9388 85.4387 83.6554 84.5967V84.6171ZM109.49 64.6487V66.6856H110.502C110.824 66.7098 111.144 66.6183 111.405 66.4276C111.513 66.3258 111.596 66.2008 111.649 66.062C111.702 65.9233 111.723 65.7744 111.71 65.6264C111.721 65.4861 111.698 65.3453 111.644 65.2154C111.59 65.0856 111.505 64.9705 111.398 64.8796C111.119 64.6958 110.787 64.6098 110.454 64.6352L109.49 64.6487ZM109.49 63.7932H110.407C110.714 63.8191 111.021 63.7453 111.282 63.5828C111.376 63.497 111.448 63.3915 111.495 63.274C111.542 63.1565 111.562 63.0301 111.554 62.9038C111.568 62.7743 111.548 62.6434 111.496 62.5242C111.443 62.405 111.36 62.3017 111.255 62.2248C110.969 62.0676 110.644 61.9968 110.318 62.0211H109.49V63.7932ZM108.539 61.1249H110.271C110.876 61.0772 111.481 61.212 112.009 61.5119C112.191 61.6578 112.335 61.8461 112.427 62.0604C112.519 62.2747 112.558 62.5083 112.539 62.7408C112.55 63.0743 112.46 63.4035 112.281 63.6846C112.192 63.8101 112.079 63.9163 111.948 63.9969C111.818 64.0774 111.672 64.1305 111.52 64.1531V64.2006C111.873 64.2505 112.195 64.4296 112.423 64.7031C112.624 65.0012 112.724 65.3557 112.708 65.7147C112.721 65.9675 112.679 66.2201 112.584 66.4547C112.489 66.6893 112.344 66.9003 112.158 67.0726C111.731 67.4223 111.189 67.5991 110.637 67.5683H108.533L108.539 61.1249ZM115.574 63.3926C115.438 63.3876 115.304 63.4137 115.18 63.4691C115.056 63.5244 114.947 63.6074 114.861 63.7118C114.659 63.9734 114.545 64.2916 114.535 64.6216H116.538C116.554 64.2951 116.46 63.9727 116.273 63.705C116.19 63.6053 116.087 63.5255 115.969 63.4714C115.851 63.4174 115.723 63.3904 115.594 63.3926H115.574ZM115.764 67.6769C115.463 67.6891 115.163 67.6346 114.886 67.5172C114.609 67.3998 114.362 67.2225 114.161 66.998C113.749 66.4786 113.542 65.8266 113.577 65.1647C113.542 64.4935 113.73 63.8294 114.114 63.2772C114.289 63.0548 114.515 62.8772 114.772 62.7592C115.029 62.6411 115.311 62.586 115.594 62.5983C115.849 62.5889 116.104 62.6364 116.339 62.7374C116.573 62.8383 116.783 62.9903 116.952 63.1822C117.308 63.643 117.486 64.2166 117.454 64.7981V65.3616H114.521C114.507 65.7551 114.629 66.1413 114.867 66.4548C114.982 66.5853 115.124 66.688 115.284 66.755C115.444 66.8221 115.618 66.8518 115.791 66.8418C116.033 66.8435 116.275 66.8161 116.511 66.7603C116.761 66.6943 117.005 66.6033 117.237 66.4887V67.3442C117.023 67.4586 116.794 67.5453 116.558 67.6022C116.294 67.6535 116.026 67.6785 115.757 67.6769H115.764ZM121.997 66.8757C122.147 66.8832 122.297 66.8593 122.437 66.8056C122.577 66.7518 122.705 66.6693 122.811 66.5634C123.029 66.3199 123.141 66.0001 123.124 65.674V65.253H122.553C122.217 65.2386 121.884 65.3236 121.596 65.4974C121.492 65.5757 121.41 65.6792 121.358 65.798C121.306 65.9169 121.285 66.0471 121.297 66.1764C121.29 66.2673 121.302 66.3586 121.331 66.4449C121.36 66.5312 121.406 66.6108 121.467 66.6788C121.538 66.7441 121.621 66.7936 121.713 66.8241C121.804 66.8545 121.901 66.8652 121.997 66.8554V66.8757ZM123.354 67.5683L123.164 66.8893C123 67.1409 122.779 67.3503 122.519 67.5004C122.26 67.6191 121.976 67.675 121.691 67.6633C121.504 67.6738 121.317 67.6441 121.143 67.5761C120.968 67.5082 120.81 67.4037 120.679 67.2695C120.42 66.9639 120.291 66.5692 120.32 66.1696C120.311 65.9514 120.356 65.7344 120.449 65.537C120.542 65.3396 120.682 65.1677 120.856 65.0357C121.316 64.7441 121.853 64.5974 122.397 64.6148H123.158V64.3568C123.171 64.1147 123.101 63.8754 122.961 63.6778C122.882 63.5967 122.787 63.534 122.681 63.4941C122.575 63.4542 122.462 63.4381 122.35 63.447C122.119 63.4424 121.889 63.4791 121.671 63.5556C121.467 63.6305 121.267 63.7166 121.073 63.8136L120.774 63.0735C121.019 62.9331 121.282 62.8258 121.555 62.7544C121.819 62.6872 122.091 62.6507 122.363 62.6458C122.821 62.6122 123.274 62.7583 123.626 63.0532C123.781 63.2265 123.899 63.4298 123.973 63.6505C124.046 63.8712 124.074 64.1046 124.054 64.3364V67.6294L123.354 67.5683ZM130.436 66.1968C130.446 66.4026 130.409 66.608 130.328 66.7974C130.247 66.9868 130.124 67.1552 129.968 67.2899C129.574 67.573 129.094 67.7098 128.61 67.6769C128.119 67.6974 127.631 67.5947 127.191 67.3782V66.4819C127.635 66.725 128.131 66.8599 128.637 66.8757C129.214 66.8757 129.499 66.6856 129.499 66.2986C129.506 66.1886 129.472 66.0801 129.404 65.9931C129.318 65.8877 129.212 65.8 129.092 65.7351C128.896 65.6195 128.692 65.5196 128.481 65.4363C128.094 65.2873 127.744 65.0556 127.455 64.7574C127.266 64.5163 127.17 64.215 127.184 63.9087C127.177 63.7223 127.214 63.5368 127.293 63.3679C127.372 63.199 127.491 63.0515 127.639 62.9377C128.002 62.6842 128.439 62.5598 128.881 62.5847C129.391 62.5855 129.894 62.7065 130.348 62.9377L130.049 63.7185C129.676 63.5275 129.266 63.4165 128.847 63.3926C128.358 63.3926 128.107 63.5488 128.107 63.8611C128.107 63.9366 128.125 64.0111 128.159 64.0784C128.193 64.1457 128.243 64.2039 128.304 64.2481C128.567 64.4276 128.849 64.5757 129.146 64.6895C129.425 64.8 129.689 64.9436 129.934 65.1172C130.089 65.2365 130.214 65.3899 130.3 65.5653C130.387 65.7572 130.428 65.9661 130.423 66.1764L130.436 66.1968ZM135.155 67.5887H134.218V64.574C134.238 64.28 134.17 63.9866 134.021 63.7321C133.954 63.6398 133.865 63.5659 133.761 63.5173C133.658 63.4686 133.544 63.4468 133.43 63.4538C133.275 63.4428 133.119 63.4735 132.98 63.5427C132.84 63.6119 132.721 63.7172 132.636 63.8476C132.434 64.2507 132.344 64.7013 132.378 65.1512V67.5887H131.448V62.6933H132.174L132.31 63.3723H132.358C132.477 63.1432 132.661 62.9543 132.887 62.8291C133.123 62.7035 133.387 62.6382 133.654 62.639C133.934 62.6039 134.217 62.6604 134.462 62.7999C134.707 62.9395 134.9 63.1546 135.012 63.413H135.073C135.2 63.175 135.39 62.9773 135.623 62.8427C135.872 62.7042 136.153 62.6339 136.438 62.639C136.651 62.618 136.866 62.6476 137.066 62.7255C137.265 62.8033 137.443 62.9273 137.586 63.0871C137.858 63.4852 137.985 63.9645 137.945 64.445V67.6362H137.008V64.574C137.031 64.2807 136.964 63.9875 136.818 63.7321C136.751 63.6388 136.66 63.5643 136.556 63.5156C136.451 63.4669 136.336 63.4456 136.221 63.4538C136.066 63.4422 135.91 63.4712 135.77 63.5378C135.63 63.6045 135.509 63.7065 135.42 63.834C135.226 64.1888 135.139 64.5919 135.169 64.995L135.155 67.5887ZM140.6 66.8757C140.75 66.8832 140.9 66.8593 141.041 66.8056C141.181 66.7518 141.308 66.6693 141.415 66.5634C141.631 66.3192 141.741 65.9992 141.721 65.674V65.253H141.157C140.821 65.2373 140.487 65.3225 140.2 65.4974C140.095 65.5749 140.012 65.6781 139.958 65.797C139.905 65.9159 139.883 66.0465 139.894 66.1764C139.888 66.2677 139.901 66.3593 139.931 66.4457C139.961 66.532 140.009 66.6113 140.071 66.6788C140.141 66.7441 140.225 66.7936 140.316 66.8241C140.408 66.8545 140.505 66.8652 140.6 66.8554V66.8757ZM141.958 67.5683L141.768 66.8893C141.623 67.1447 141.408 67.3532 141.148 67.4904C140.888 67.6275 140.594 67.6875 140.301 67.6633C140.114 67.6747 139.927 67.6454 139.752 67.5774C139.578 67.5094 139.42 67.4044 139.29 67.2695C139.028 66.965 138.897 66.5701 138.923 66.1696C138.911 65.9526 138.95 65.7357 139.039 65.5373C139.127 65.3388 139.262 65.1644 139.432 65.029C139.892 64.7373 140.429 64.5906 140.974 64.608H141.734V64.3568C141.747 64.1147 141.678 63.8754 141.537 63.6778C141.459 63.5967 141.363 63.534 141.257 63.4941C141.152 63.4542 141.039 63.4381 140.926 63.447C140.695 63.4416 140.465 63.4784 140.247 63.5556C140.043 63.6305 139.844 63.7166 139.65 63.8136L139.351 63.0735C139.596 62.9331 139.859 62.8258 140.132 62.7544C140.394 62.6872 140.663 62.6508 140.933 62.6458C141.393 62.6111 141.849 62.7573 142.203 63.0532C142.358 63.2265 142.476 63.4298 142.549 63.6505C142.623 63.8712 142.65 64.1046 142.63 64.3364V67.6294L141.958 67.5683ZM146.195 62.605C146.352 62.6038 146.509 62.6198 146.663 62.6526L146.568 63.6235C146.434 63.5841 146.294 63.5658 146.154 63.5692C145.982 63.5643 145.81 63.5984 145.653 63.6689C145.495 63.7394 145.356 63.8446 145.244 63.9766C145.004 64.2732 144.881 64.6476 144.898 65.029V67.5887H143.941V62.6933H144.674L144.796 63.5556H144.844C144.979 63.2863 145.177 63.0535 145.421 62.8766C145.637 62.7107 145.902 62.6201 146.175 62.6186L146.195 62.605ZM149.114 66.835C149.346 66.8332 149.576 66.7918 149.793 66.7128V67.5004C149.665 67.5559 149.531 67.5969 149.393 67.6226C149.225 67.6581 149.055 67.6763 148.884 67.6769C148.001 67.6769 147.56 67.1541 147.56 66.1153V63.4809H146.955V62.9988L147.634 62.6186L147.953 61.5798H148.531V62.6662H149.787V63.4538H148.531V66.0746C148.513 66.2751 148.574 66.4745 148.7 66.6313C148.758 66.6897 148.826 66.7355 148.902 66.7659C148.978 66.7963 149.06 66.8106 149.142 66.8078L149.114 66.835ZM154.804 63.4538C154.648 63.4404 154.49 63.4677 154.348 63.5332C154.205 63.5986 154.081 63.6999 153.989 63.8272C153.794 64.2083 153.704 64.6353 153.731 65.0629V65.1308C153.7 65.5784 153.789 66.0261 153.989 66.4276C154.079 66.562 154.204 66.6699 154.349 66.7403C154.495 66.8108 154.657 66.8411 154.818 66.8282C154.972 66.8329 155.125 66.7941 155.258 66.716C155.391 66.6379 155.5 66.5239 155.571 66.3869C155.765 65.9951 155.853 65.5602 155.829 65.124C155.829 64.0105 155.49 63.4538 154.804 63.4538ZM155.049 62.605C155.303 62.5998 155.554 62.6593 155.778 62.7781C156.003 62.8969 156.193 63.0711 156.332 63.284C156.667 63.8444 156.825 64.4927 156.787 65.1444C156.823 65.8011 156.663 66.4538 156.325 67.0183C156.185 67.2328 155.992 67.4078 155.765 67.5267C155.538 67.6455 155.284 67.7043 155.028 67.6973C154.772 67.7062 154.517 67.6484 154.29 67.5293C154.063 67.4103 153.87 67.2342 153.731 67.0183H153.67L153.501 67.6022H152.822V60.7039H153.759V63.318H153.799C153.93 63.0864 154.122 62.8955 154.355 62.7661C154.587 62.6367 154.851 62.574 155.117 62.5847L155.049 62.605ZM160.976 67.5887L160.847 66.9097H160.799C160.67 67.1387 160.476 67.325 160.243 67.4461C159.99 67.5802 159.707 67.6479 159.421 67.643C159.202 67.6588 158.982 67.6277 158.776 67.5515C158.57 67.4754 158.382 67.3561 158.226 67.2016C157.937 66.8105 157.797 66.3289 157.832 65.8437V62.6933H158.776V65.7147C158.752 66.0108 158.826 66.3066 158.987 66.5566C159.067 66.657 159.171 66.7353 159.29 66.784C159.409 66.8328 159.538 66.8503 159.666 66.835C159.832 66.8484 159.999 66.8193 160.151 66.7504C160.303 66.6815 160.435 66.5751 160.535 66.4412C160.751 66.0401 160.845 65.5847 160.806 65.1308V62.6933H161.75V67.5887H160.976ZM162.381 62.6933H163.4L164.31 65.4703C164.439 65.8308 164.53 66.2041 164.581 66.5838C164.612 66.3843 164.655 66.187 164.71 65.9931C164.778 65.7622 165.111 64.6352 165.722 62.6933H166.734L164.853 68.2337C164.518 69.2702 163.952 69.7885 163.155 69.7885C162.952 69.7879 162.749 69.7629 162.551 69.7138V68.8651C162.709 68.9024 162.871 68.9206 163.033 68.9194C163.481 68.9194 163.8 68.6275 163.984 68.0436L164.147 67.5887L162.381 62.6933ZM169.164 63.3926C169.029 63.3891 168.895 63.4159 168.772 63.4711C168.648 63.5264 168.539 63.6086 168.451 63.7118C168.252 63.974 168.141 64.2923 168.132 64.6216H170.128C170.146 64.2959 170.056 63.9735 169.87 63.705C169.787 63.6068 169.683 63.528 169.565 63.474C169.448 63.4201 169.321 63.3923 169.191 63.3926H169.164ZM169.368 67.6769C169.066 67.6901 168.765 67.6361 168.487 67.5187C168.209 67.4012 167.96 67.2234 167.759 66.998C167.349 66.4777 167.144 65.8257 167.182 65.1647C167.143 64.4931 167.332 63.8281 167.718 63.2772C167.892 63.0549 168.116 62.8773 168.373 62.7592C168.629 62.6411 168.91 62.586 169.191 62.5983C169.447 62.5874 169.702 62.6342 169.937 62.7353C170.172 62.8364 170.381 62.9891 170.549 63.1822C170.911 63.6406 171.092 64.2153 171.059 64.7981V65.3616H168.126C168.111 65.7551 168.234 66.1413 168.472 66.4548C168.585 66.5847 168.727 66.6871 168.885 66.7542C169.044 66.8213 169.216 66.8512 169.388 66.8418C169.633 66.8435 169.877 66.8161 170.115 66.7603C170.363 66.6942 170.604 66.6032 170.835 66.4887V67.3442C170.621 67.4607 170.393 67.5475 170.156 67.6022C169.894 67.6539 169.628 67.6789 169.361 67.6769H169.368ZM174.345 62.605C174.5 62.6038 174.655 62.6197 174.807 62.6526L174.718 63.6235C174.584 63.5851 174.444 63.5667 174.304 63.5692C174.132 63.5638 173.96 63.5976 173.802 63.6682C173.645 63.7388 173.505 63.8442 173.394 63.9766C173.154 64.2732 173.031 64.6476 173.048 65.029V67.5887H172.111V62.6933H172.844L172.967 63.5556H173.014C173.149 63.2882 173.344 63.0558 173.584 62.8766C173.804 62.7115 174.07 62.6211 174.345 62.6186V62.605ZM79.955 40.3825C79.3009 41.6388 78.7513 42.9468 78.3119 44.2933C77.9224 45.4402 77.7118 46.6402 77.6873 47.8511C77.6444 48.7839 77.8808 49.7082 78.3662 50.5059C78.5865 50.8413 78.8899 51.1139 79.2468 51.2972C79.6038 51.4804 80.0022 51.568 80.4031 51.5515C81.3568 51.5409 82.2918 51.2861 83.119 50.8114C84.0779 50.2747 84.9577 49.6075 85.733 48.8288C86.6228 47.9355 87.4148 46.95 88.0958 45.8889C88.8342 44.7561 89.4725 43.5611 90.0037 42.3175C91.1236 39.8537 91.7311 37.188 91.7894 34.4823C91.8372 33.4176 91.6567 32.355 91.2598 31.3658C91.1345 31.0365 90.9109 30.7537 90.6194 30.5557C90.3279 30.3577 89.9826 30.2542 89.6303 30.2591C88.7951 30.2935 87.992 30.5905 87.3354 31.1078C86.4407 31.7801 85.615 32.5398 84.8707 33.3756C83.9332 34.3905 83.0688 35.4705 82.2839 36.6074C81.4318 37.8108 80.665 39.0722 79.989 40.3825H79.955ZM75.6911 52.244C75.793 52.4138 75.4535 53.2149 75.4059 53.3847C75.1683 54.2606 71.4408 65.6061 70.4427 66.706C70.1668 67.023 69.8254 67.2764 69.4421 67.4487C69.0588 67.621 68.6427 67.7082 68.2225 67.7041C67.711 67.709 67.2091 67.5645 66.7786 67.2883C66.348 67.0121 66.0074 66.6162 65.7986 66.1492C65.6319 65.8456 65.5454 65.5044 65.5474 65.158C65.6105 64.6061 65.7788 64.0714 66.043 63.5828C66.4029 62.7273 70.402 51.3614 71.4747 47.4913C72.457 43.9335 73.1065 41.5141 73.4234 40.2331L74.3128 36.7568C74.7306 35.2133 75.0705 33.6497 75.3313 32.072C75.4605 31.4859 75.406 30.8742 75.1751 30.3202C75.0085 30.0135 74.7768 29.747 74.4961 29.5394C74.2381 29.3629 73.9937 29.2135 73.7696 29.0845C73.6569 29.0074 73.5701 28.8982 73.5204 28.771C73.4708 28.6438 73.4606 28.5046 73.4913 28.3716C73.5367 28.0147 73.6991 27.6828 73.953 27.4278C74.2445 27.1241 74.5868 26.8736 74.9646 26.6878C75.7514 26.311 76.6113 26.1116 77.4836 26.1038C78.1602 26.0764 78.8357 26.1801 79.4729 26.4094C79.9291 26.5942 80.3376 26.8796 80.6679 27.2445C80.9473 27.5185 81.1641 27.8497 81.3035 28.2153C81.443 28.581 81.5018 28.9724 81.4759 29.3629C81.2903 30.7887 81.0866 32.0108 80.8648 33.0293C84.1103 28.4123 87.4757 26.1038 90.9611 26.1038C94.1296 26.1038 96.2525 27.7447 97.3298 31.0263C97.728 32.3908 97.9158 33.808 97.8865 35.2291C97.8818 36.9117 97.6278 38.5843 97.1328 40.1924C96.6372 41.8361 95.9537 43.4172 95.0959 44.9044C94.2496 46.3625 93.2529 47.7278 92.1221 48.9782C91.04 50.1871 89.8365 51.2815 88.5303 52.244C85.8597 54.1723 83.3385 55.1364 80.9667 55.1364C79.8949 55.1864 78.83 54.9404 77.8887 54.4255C76.9474 53.9105 76.1659 53.1464 75.63 52.2169" fill="white"/>
<path d="M86.4731 42.6299C86.2789 42.8496 86.0494 43.0355 85.7941 43.1798C85.5288 43.3155 85.2414 43.4029 84.9454 43.4378C84.6576 43.4723 84.3659 43.4252 84.1035 43.302C83.842 43.1759 83.6105 42.9953 83.4245 42.7725C83.048 42.3798 82.8283 41.863 82.8067 41.3195C82.781 40.9378 82.8634 40.5566 83.0443 40.2195C83.1963 39.9805 83.3977 39.7767 83.635 39.6221C84.019 39.3545 84.4711 39.2014 84.9386 39.1807C85.2557 39.1704 85.5727 39.2001 85.8824 39.269C86.107 39.3231 86.3191 39.4199 86.507 39.5542C86.7103 39.6715 86.8797 39.8395 86.9987 40.0418C87.1177 40.2441 87.1822 40.4737 87.186 40.7084C87.1974 41.0958 87.1304 41.4814 86.9891 41.8423C86.8681 42.1333 86.6956 42.4001 86.4799 42.6299" fill="white"/>
</g>
<defs>
<clipPath id="clip0">
<rect width="176" height="88" fill="white"/>
</clipPath>
</defs>
</svg>
