<svg width="24" height="24" viewBox="0 0 24 24" fill="none" xmlns="http://www.w3.org/2000/svg">
<path d="M20.8 3H3.2C1.99 3 1 4.0125 1 5.25V18.75C1 19.9875 1.99 21 3.2 21H20.8C22.01 21 23 19.9875 23 18.75V5.25C23 4.0125 22.01 3 20.8 3ZM20.36 7.78125L13.166 12.3825C12.451 12.8438 11.549 12.8438 10.834 12.3825L3.64 7.78125C3.5297 7.71793 3.43311 7.63237 3.35608 7.52976C3.27904 7.42715 3.22317 7.30963 3.19183 7.18429C3.1605 7.05896 3.15435 6.92843 3.17377 6.8006C3.19319 6.67276 3.23777 6.55029 3.30481 6.44059C3.37185 6.33089 3.45996 6.23624 3.5638 6.16237C3.66764 6.0885 3.78506 6.03695 3.90895 6.01084C4.03283 5.98472 4.16061 5.98459 4.28455 6.01044C4.40849 6.0363 4.52601 6.0876 4.63 6.16125L12 10.875L19.37 6.16125C19.474 6.0876 19.5915 6.0363 19.7155 6.01044C19.8394 5.98459 19.9672 5.98472 20.0911 6.01084C20.2149 6.03695 20.3324 6.0885 20.4362 6.16237C20.54 6.23624 20.6282 6.33089 20.6952 6.44059C20.7622 6.55029 20.8068 6.67276 20.8262 6.8006C20.8456 6.92843 20.8395 7.05896 20.8082 7.18429C20.7768 7.30963 20.721 7.42715 20.6439 7.52976C20.5669 7.63237 20.4703 7.71793 20.36 7.78125Z" fill="#FE5900"/>
</svg>
