<svg width="104" height="104" viewBox="0 0 104 104" fill="none" xmlns="http://www.w3.org/2000/svg">
<rect width="104" height="104" rx="52" fill="#FFF7F2"/>
<g clip-path="url(#clip0)">
<path d="M43.2839 64.8408C43.3464 65.0833 43.6984 65.5056 43.9096 65.5916C44.4258 65.8028 45.0749 65.5838 45.3643 65.1067C45.9353 64.1604 44.8716 63.0341 43.8861 63.5425C43.4168 63.7771 43.1587 64.3403 43.2839 64.8408Z" fill="#FE5900"/>
<path d="M48.8284 65.5132C48.3278 65.2082 48.1558 64.6998 48.3669 64.1445C48.758 63.1277 50.2284 63.1903 50.5178 64.2383C50.7759 65.1769 49.6574 66.0216 48.8284 65.5132Z" fill="#FE5900"/>
<path d="M53.4585 63.9723C53.1613 64.4729 53.349 65.2159 53.8339 65.5131C54.7412 66.0684 55.8752 65.1299 55.492 64.1444C55.3356 63.722 55.0071 63.4718 54.5534 63.417C54.1389 63.3779 53.6697 63.6125 53.4585 63.9723Z" fill="#FE5900"/>
<path d="M43.8854 60.5317C43.51 60.3362 43.3144 60.039 43.2753 59.5932C43.2128 58.8814 43.7446 58.3652 44.4876 58.42C45.8485 58.5217 45.8407 60.5004 44.4798 60.6412C44.2608 60.6647 44.0653 60.6256 43.8854 60.5317Z" fill="#FE5900"/>
<path d="M48.3897 59.0238C48.1159 59.5556 48.374 60.3142 48.9137 60.5567C49.2265 60.6975 49.7818 60.6506 50.0478 60.455C50.517 60.0953 50.6735 59.4617 50.4154 58.9612C50.0087 58.1791 48.8042 58.2182 48.3897 59.0238Z" fill="#FE5900"/>
<path d="M53.8807 60.5004C53.5209 60.2892 53.3175 59.9373 53.3175 59.5384C53.3175 58.8658 53.779 58.3965 54.4438 58.3965C55.4058 58.3965 55.9298 59.4758 55.3119 60.211C54.9287 60.6646 54.3656 60.782 53.8807 60.5004Z" fill="#FE5900"/>
<path fill-rule="evenodd" clip-rule="evenodd" d="M42.0788 54.894C42.1648 55.1912 42.5168 55.5275 42.8218 55.6057C42.9078 55.6292 45.9268 55.637 49.5246 55.6292L49.5346 55.6292C56.0006 55.6214 56.071 55.6213 56.2821 55.4571C56.3994 55.3711 56.5714 55.199 56.6575 55.0817C56.8139 54.8784 56.8217 54.7532 56.8452 52.094C56.8687 49.4661 56.8608 49.3019 56.7122 48.9656C56.5871 48.6918 56.4854 48.5823 56.2195 48.465C55.891 48.3164 55.6564 48.3086 49.3916 48.3086C43.2207 48.3086 42.8844 48.3164 42.6263 48.4572C42.4777 48.5354 42.2821 48.6918 42.1961 48.8091C42.0475 49.0125 42.0397 49.1533 42.0162 51.8125C42.0006 53.6739 42.0162 54.6985 42.0788 54.894ZM54.5145 50.5767V53.3141H44.2687V50.5767H54.5145Z" fill="#FE5900"/>
<path fill-rule="evenodd" clip-rule="evenodd" d="M37.12 69.3306C37.4406 70.5507 38.5669 71.6144 39.8339 71.8882C40.225 71.9742 42.0551 71.9977 49.3914 71.9977L50.2971 71.9984C58.1429 72.005 58.9436 72.0056 59.5934 71.6933C59.6672 71.6579 59.7391 71.6184 59.8191 71.5744L59.8591 71.5524L59.9031 71.5284C60.6774 71.1217 61.3422 70.363 61.6628 69.5184C61.8269 69.0729 61.8271 69.0257 61.8505 61.5219L61.8662 53.9386L62.4919 53.6257C62.836 53.4536 63.1645 53.3129 63.2271 53.3129C63.2896 53.3129 63.8449 53.5631 64.4628 53.8682C65.4248 54.3374 65.6204 54.4078 65.855 54.3687C66.2617 54.2905 66.5589 54.0872 66.7231 53.7821C66.8639 53.524 66.8717 53.1643 66.8717 45.4056L66.872 44.028C66.8734 37.8235 66.8737 36.8572 66.5345 36.0301C66.472 35.8777 66.3979 35.7299 66.3102 35.555L66.3098 35.5542L66.3089 35.5524C66.2768 35.4883 66.2428 35.4206 66.207 35.3476C65.5891 34.0884 64.3611 32.97 63.0315 32.4381L62.9448 32.4041C62.8002 32.3474 62.6757 32.2986 62.5492 32.2567C61.7742 32 60.9141 32 54.7894 32.0001L53.4946 32.0001C47.8224 31.9994 46.9526 31.9993 46.1952 32.291C46.058 32.3439 45.9245 32.4063 45.7668 32.48C45.7207 32.5016 45.6725 32.5241 45.6216 32.5476C43.9009 33.3454 42.673 34.7845 42.1881 36.5912C42.1021 36.904 42.0395 37.5297 42.0082 38.2962L41.9613 39.5085L40.8663 39.5554C39.9982 39.5867 39.6775 39.6336 39.3334 39.7666C38.3714 40.1498 37.7848 40.6973 37.3155 41.6593L37.0339 42.2459L37.0105 55.5419C36.987 67.7351 36.9948 68.877 37.12 69.3306ZM59.4494 68.8379C59.2852 69.1977 59.0271 69.4558 58.7143 69.5731C58.5578 69.6357 55.6405 69.6591 49.3679 69.6591C40.6004 69.6591 40.2328 69.6513 40.006 69.5105C39.6931 69.3228 39.4507 69.0413 39.349 68.7753C39.2864 68.6189 39.263 64.6067 39.263 55.6827V42.809L39.4585 42.4727C39.7557 41.9643 40.1389 41.8157 41.1635 41.8157H42.0004V43.2861C42.0004 44.9207 42.0473 45.1006 42.5635 45.4135C42.8138 45.5621 42.9702 45.5699 49.3914 45.5699L50.5642 45.5701C55.5892 45.5717 56.2753 45.5719 56.5287 45.2409C56.5688 45.1886 56.598 45.1279 56.6319 45.0577C56.6489 45.0224 56.6672 44.9846 56.6886 44.9442C56.845 44.6235 56.8606 44.4984 56.8606 43.2079V41.8157H57.6662C58.5187 41.8157 58.9411 41.9409 59.2305 42.2693C59.2422 42.2823 59.2535 42.2944 59.2645 42.3061C59.2813 42.324 59.2972 42.341 59.3123 42.3587C59.5908 42.6848 59.5908 43.2488 59.5903 54.2154L59.5902 55.7765C59.598 68.0089 59.5902 68.5407 59.4494 68.8379ZM64.1187 51.1229C63.3444 50.7553 63.2036 50.7475 62.5232 51.076C62.1947 51.2324 61.9131 51.3576 61.8975 51.3576C61.8818 51.3576 61.8662 49.4101 61.8662 47.0325C61.8662 42.3397 61.8584 42.2068 61.4282 41.4247C61.1779 40.9632 60.6226 40.3844 60.1534 40.0872C59.5277 39.6884 58.9254 39.5476 57.8305 39.5476H56.8606V38.5856C56.8606 37.0604 57.1344 36.3096 57.9947 35.4336C58.7377 34.675 59.6293 34.3074 60.6852 34.3074C61.7802 34.3074 62.6952 34.6828 63.4382 35.4258C63.9544 35.942 64.4003 36.7632 64.5254 37.428C64.5723 37.6861 64.6036 40.4392 64.6036 44.6001V51.3497L64.1187 51.1229ZM54.7411 36.6928C54.5847 37.2716 54.569 37.561 54.5377 40.3141L54.4986 43.3017H44.2685V40.5722C44.2685 39.0627 44.3076 37.6627 44.3467 37.428C44.4484 36.8806 44.8786 35.9968 45.2384 35.5822C45.6372 35.1286 46.3802 34.6515 46.9825 34.4638C47.4674 34.3152 47.7099 34.3074 51.6674 34.3074C53.9668 34.3074 55.8439 34.323 55.8439 34.3387C55.8439 34.3621 55.7344 34.5342 55.6092 34.7297C55.2573 35.2459 54.9288 35.9889 54.7411 36.6928Z" fill="#FE5900"/>
</g>
<defs>
<clipPath id="clip0">
<rect width="40" height="40" fill="white" transform="translate(32 32)"/>
</clipPath>
</defs>
</svg>
