<svg width="24" height="24" viewBox="0 0 24 24" fill="none" xmlns="http://www.w3.org/2000/svg">
<path fill-rule="evenodd" clip-rule="evenodd" d="M14.4438 9.89725C14.2468 9.80862 14.1089 9.80859 10.4159 9.80859C6.72281 9.80859 6.57509 9.80862 6.41752 9.89725C6.31988 9.9494 6.23298 10.0195 6.16146 10.104C6.07334 10.2215 6.07285 10.3001 6.06317 11.8493L6.063 11.8767C6.02978 12.4803 6.02978 13.0852 6.063 13.6888C6.1028 13.7866 6.16286 13.875 6.23924 13.948C6.31562 14.021 6.40661 14.0769 6.50618 14.1122H10.4482C14.2666 14.1122 14.306 14.1122 14.434 14.0138C14.5157 13.9517 14.5886 13.8788 14.6506 13.7971C14.7393 13.6691 14.7491 13.6001 14.759 12.0343C14.7688 10.4684 14.7589 10.3798 14.6802 10.1828C14.662 10.1218 14.6318 10.065 14.5911 10.0159C14.5505 9.96683 14.5004 9.92648 14.4438 9.89725ZM13.459 12.763H7.4122V11.1479H13.459V12.763Z" fill="white"/>
<path d="M10.1303 17.0385C10.24 17.0754 10.3561 17.0893 10.4714 17.0791C10.5867 17.0689 10.6985 17.035 10.8 16.9794C10.9316 16.8784 11.0249 16.7355 11.0642 16.5743C11.1036 16.4131 11.0869 16.2433 11.0167 16.093C10.9581 15.9862 10.8719 15.8971 10.7671 15.835C10.6623 15.773 10.5427 15.7402 10.4208 15.7402C10.299 15.7402 10.1794 15.773 10.0746 15.835C9.9698 15.8971 9.88363 15.9862 9.82505 16.093C9.78121 16.1748 9.75428 16.2645 9.74595 16.3569C9.73761 16.4493 9.74804 16.5424 9.77654 16.6307C9.80505 16.719 9.85106 16.8006 9.91185 16.8706C9.97264 16.9407 10.047 16.9978 10.1303 17.0385Z" fill="white"/>
<path d="M7.92368 16.8683C7.81697 16.989 7.66982 17.0664 7.50996 17.0861C7.38743 17.102 7.26299 17.0778 7.15538 17.0171C7.04811 16.9699 6.95672 16.8927 6.8921 16.795C6.82749 16.6972 6.7924 16.5828 6.791 16.4656C6.77889 16.3696 6.78945 16.2721 6.82178 16.1808C6.8541 16.0896 6.90729 16.0072 6.97716 15.9402C7.04702 15.8732 7.13157 15.8235 7.22408 15.795C7.31659 15.7666 7.41452 15.7601 7.50996 15.7762C7.66982 15.7959 7.81697 15.8733 7.92368 15.9939C8.0304 16.1146 8.08928 16.2701 8.08928 16.4312C8.08928 16.5922 8.0304 16.7477 7.92368 16.8683Z" fill="white"/>
<path d="M13.4585 18.7217C13.3314 18.7152 13.2047 18.7418 13.0908 18.7987C12.9769 18.8557 12.8797 18.9411 12.8085 19.0467C12.7295 19.201 12.7089 19.3786 12.7505 19.5469C12.7921 19.7152 12.8932 19.8628 13.0351 19.9625C13.1541 20.0387 13.2943 20.0753 13.4354 20.067C13.5765 20.0587 13.7114 20.0059 13.8207 19.9163C13.93 19.8267 14.0081 19.7048 14.0439 19.568C14.0797 19.4313 14.0713 19.2867 14.0199 19.155C13.9818 19.034 13.9076 18.9277 13.8072 18.8502C13.7069 18.7727 13.5852 18.7279 13.4585 18.7217Z" fill="white"/>
<path d="M6.85641 19.1238C6.92061 18.9847 7.02932 18.8709 7.16537 18.8005C7.29182 18.7381 7.4349 18.7179 7.57369 18.7428C7.71247 18.7677 7.83965 18.8363 7.93656 18.9387C8.03347 19.0411 8.09502 19.1719 8.1122 19.3118C8.12937 19.4518 8.10128 19.5935 8.03201 19.7164C7.9448 19.8565 7.81205 19.9623 7.65603 20.0161C7.50002 20.0699 7.33026 20.0684 7.17523 20.0118C7.00848 19.908 6.88046 19.7523 6.81085 19.5687C6.77619 19.4194 6.79221 19.2629 6.85641 19.1238Z" fill="white"/>
<path d="M9.78578 19.6122C9.73471 19.4626 9.74166 19.2993 9.80532 19.1546C9.85678 19.0264 9.94663 18.9172 10.0626 18.8421C10.1785 18.7669 10.3149 18.7295 10.453 18.7349C10.5911 18.7403 10.724 18.7883 10.8338 18.8722C10.9435 18.9562 11.0246 19.0721 11.0659 19.2039C11.0928 19.331 11.0832 19.4631 11.0383 19.585C10.9934 19.7069 10.915 19.8136 10.8121 19.8929C10.7091 19.9721 10.5859 20.0207 10.4566 20.0329C10.3273 20.0452 10.1971 20.0207 10.0811 19.9622C9.94225 19.8867 9.83686 19.7617 9.78578 19.6122Z" fill="white"/>
<path d="M13.129 15.8043C13.2117 15.7709 13.3004 15.7552 13.3896 15.7582C13.5155 15.7544 13.6399 15.7873 13.7474 15.853C13.855 15.9187 13.9412 16.0142 13.9955 16.1279C14.0497 16.2417 14.0697 16.3688 14.0531 16.4937C14.0364 16.6186 13.9838 16.736 13.9017 16.8316C13.8072 16.9576 13.6696 17.0443 13.5151 17.0752C13.3607 17.1061 13.2002 17.0789 13.0646 16.999C12.962 16.9458 12.8764 16.8652 12.8172 16.766C12.7581 16.6668 12.7278 16.5531 12.7297 16.4377C12.7242 16.3487 12.7373 16.2595 12.7683 16.1758C12.7992 16.0922 12.8472 16.016 12.9094 15.952C12.9715 15.888 13.0463 15.8377 13.129 15.8043Z" fill="white"/>
<path fill-rule="evenodd" clip-rule="evenodd" d="M20.6339 2.28528C20.6792 2.35748 20.7169 2.41749 20.7169 2.4817C20.9206 2.99582 20.9236 3.5577 20.9425 7.04728L20.9433 7.20881V8.02801C20.9433 12.8518 20.9433 12.8617 20.835 13.0586C20.7687 13.178 20.6754 13.2803 20.5626 13.3572C20.4497 13.4342 20.3205 13.4837 20.1851 13.5018C19.9389 13.5412 19.7911 13.4821 19.2003 13.1965C19.1146 13.1524 19.0357 13.1103 18.9644 13.0722C18.7654 12.966 18.6254 12.8912 18.5601 12.8912L18.2154 13.0488L17.9495 13.1768V17.5297C17.9397 22.0296 17.9397 22.0304 17.8313 22.3258C17.6171 22.8755 17.2161 23.3323 16.6988 23.6159L16.5511 23.6848C16.236 23.8916 15.8914 23.8916 12.6136 23.8916H10.5043C5.86581 23.8916 5.05824 23.8818 4.82189 23.8227C4.40974 23.7295 4.03001 23.5278 3.72184 23.2387C3.41367 22.9496 3.18827 22.5834 3.06894 22.178C3.00001 21.8629 3 21.3311 3 13.9844V6.10582L3.1674 5.7513C3.29155 5.47405 3.46954 5.22423 3.69101 5.01629C3.91247 4.80836 4.17299 4.64645 4.45751 4.53999C4.7751 4.4364 5.1085 4.38971 5.44233 4.40211H5.90522V3.87033C5.91466 3.51636 5.9542 3.16383 6.0234 2.81656C6.16649 2.26504 6.43202 1.75283 6.8003 1.31806C7.16858 0.883287 7.6301 0.537145 8.15058 0.305291H8.23924L8.5051 0.187118C8.94826 2.41399e-06 9.49977 0 12.8875 0H13.647C17.3095 -1.86265e-09 17.8018 0 18.2942 0.167402L18.5305 0.256002H18.5897C19.4376 0.611646 20.1344 1.25271 20.5593 2.06809V2.15675C20.5833 2.20473 20.6097 2.24674 20.6339 2.28528ZM19.1904 11.286V7.61262C19.1904 4.92407 19.1707 3.54534 19.1608 3.44686C19.0634 3.04263 18.8594 2.6719 18.57 2.37338C18.3801 2.17402 18.1505 2.01668 17.8961 1.91151C17.6416 1.80634 17.368 1.75568 17.0927 1.7628C16.8224 1.75979 16.5544 1.81242 16.3054 1.91746C16.0563 2.02251 15.8315 2.17772 15.645 2.37338C15.4162 2.59371 15.2412 2.86379 15.1336 3.16267C15.026 3.46155 14.9887 3.78119 15.0246 4.09681V4.46119H15.3988C15.9162 4.42138 16.4331 4.5454 16.876 4.81571C17.2089 5.04 17.4908 5.33194 17.7033 5.6725C17.979 6.19439 17.979 6.30278 17.979 9.07907V11.3352L18.0776 11.286C18.2414 11.1738 18.4354 11.1137 18.634 11.1137C18.8326 11.1137 19.0265 11.1738 19.1904 11.286ZM16.1374 6.42097L16.2359 6.24371L16.2458 6.2142L16.0981 6.34223C15.9897 6.2142 15.8223 6.13539 15.3299 6.13539H15.0443V6.76569C15.0443 7.52392 15.0443 7.64219 14.9261 7.87854V7.93763C14.901 7.98936 14.8713 8.03876 14.8375 8.08531C14.6307 8.35121 14.4337 8.35123 11.1641 8.35123H10.4747C6.54578 8.35123 6.5355 8.35123 6.33855 8.23306C5.91507 7.98686 5.91502 7.79974 5.91502 6.81492V6.13539H5.60973C5.00899 6.13539 4.89085 6.23386 4.78252 6.43083L4.69386 6.57857V21.8137C4.76211 21.9409 4.86439 22.0466 4.98929 22.119C5.08777 22.178 6.19064 22.178 10.4148 22.178H15.8814C16.0199 22.1113 16.1287 21.9955 16.1867 21.8531C16.2556 21.7252 16.2556 20.7712 16.2556 14.2457V13.3147C16.2556 7.58354 16.2556 6.55884 16.1374 6.42097ZM7.60894 6.64752H13.2618V5.08163C13.2091 4.3504 13.2521 3.61545 13.3898 2.89537C13.5014 2.4909 13.667 2.10329 13.8822 1.74309H11.7846C10.8815 1.66619 9.97244 1.69597 9.07631 1.83175C8.70205 1.94446 8.36297 2.15128 8.09149 2.43247C7.86059 2.72153 7.69588 3.05769 7.60894 3.41729V6.64752Z" fill="white"/>
</svg>
