<svg width="352" height="322" viewBox="0 0 352 322" fill="none" xmlns="http://www.w3.org/2000/svg">
<rect width="352" height="321.624" rx="5" fill="#FFEADF"/>
<g clip-path="url(#clip0)">
<path d="M94.7002 160.083V159.339C94.8826 154.286 96.2119 149.341 98.5875 144.877C100.602 140.962 103.442 137.531 106.912 134.822C110.22 132.297 113.441 131.032 116.574 131.028C117.64 130.987 118.702 131.191 119.677 131.625C120.652 132.058 121.515 132.709 122.199 133.528C123.397 135.02 124.024 136.89 123.968 138.803C123.968 141.303 123.053 143.759 121.224 146.171C120.341 147.419 119.187 148.45 117.849 149.19C117.372 149.476 116.83 149.635 116.274 149.652C115.808 149.658 115.348 149.553 114.93 149.346C114.533 149.15 114.17 148.89 113.856 148.577C113.326 148.119 112.987 147.479 112.906 146.784C112.883 146.581 112.908 146.375 112.98 146.184C113.051 145.993 113.167 145.821 113.318 145.684C116.147 143.68 118.066 141.603 119.074 139.453C119.447 138.707 119.645 137.886 119.655 137.053C119.655 135.397 118.874 134.553 117.299 134.553C114.841 134.553 112.308 135.897 109.699 138.584C107.105 141.293 105.024 144.45 103.556 147.902C101.964 151.213 101.034 154.803 100.819 158.47V159.445C100.819 163.283 101.629 165.799 103.25 166.995C103.859 167.424 104.592 167.644 105.337 167.62C106.11 167.626 106.88 167.523 107.625 167.314C108.366 167.099 109.085 166.817 109.774 166.47C111.358 165.577 112.851 164.53 114.231 163.345C114.319 163.243 114.432 163.164 114.559 163.116C114.686 163.068 114.823 163.052 114.957 163.07C115.092 163.088 115.22 163.139 115.33 163.219C115.44 163.299 115.528 163.404 115.587 163.526C115.897 163.979 116.058 164.516 116.049 165.064C116.117 165.749 115.978 166.44 115.649 167.045C115.257 167.522 114.801 167.943 114.293 168.295C113.564 168.825 112.778 169.272 111.949 169.626C109.968 170.544 107.814 171.031 105.631 171.057C103.932 171.119 102.236 170.862 100.631 170.301C99.4138 169.833 98.3193 169.094 97.4313 168.139C95.6106 166.185 94.7002 163.499 94.7002 160.083ZM138.398 149.177C137.461 149.177 135.779 150.613 133.355 153.483L131.23 156.089L127.136 161.427C126.145 163.306 125.367 164.868 124.805 166.114L123.449 169.095C123.201 169.648 122.886 170.168 122.511 170.645C122.376 170.793 122.209 170.91 122.023 170.987C121.838 171.063 121.637 171.098 121.436 171.089C120.99 171.089 120.547 171.007 120.13 170.845C119.736 170.697 119.369 170.486 119.043 170.22C118.756 170.014 118.52 169.745 118.352 169.435C118.184 169.124 118.089 168.779 118.074 168.426C118.163 167.896 118.345 167.386 118.612 166.92L119.637 164.845C122.824 158.279 125.715 149.946 128.311 139.846C129.171 136.545 129.855 133.201 130.361 129.828C130.548 128.395 131.248 127.678 132.461 127.678C133.152 127.651 133.834 127.849 134.405 128.241C135.392 128.978 135.873 129.759 135.836 130.597C135.791 131.544 135.672 132.487 135.479 133.415C135.271 134.453 135.007 135.582 134.686 136.803C134.365 138.024 133.998 139.309 133.586 140.659C132.461 144.084 131.628 146.556 131.086 148.077C129.419 152.66 128.378 155.35 127.961 156.146C128.217 155.833 128.549 155.414 128.961 154.896C132.061 150.812 133.98 148.375 134.717 147.583C135.304 146.937 135.93 146.327 136.592 145.759C137.732 144.792 139.192 144.288 140.685 144.346C141.294 144.323 141.9 144.432 142.463 144.666C143.025 144.901 143.529 145.254 143.942 145.702C144.667 146.478 145.077 147.496 145.092 148.558C145.101 149.501 144.985 150.44 144.748 151.352C144.505 152.203 144.209 153.038 143.86 153.852C143.502 154.685 143.11 155.564 142.685 156.489L141.435 159.177C140.244 161.889 139.646 163.901 139.642 165.214C139.642 166.139 140.017 166.601 140.773 166.601C141.453 166.609 142.124 166.45 142.729 166.139C143.079 165.921 143.464 165.765 143.867 165.676C143.94 165.666 144.014 165.673 144.084 165.696C144.154 165.719 144.218 165.759 144.27 165.811C144.322 165.863 144.361 165.926 144.385 165.996C144.408 166.066 144.415 166.141 144.404 166.214C144.404 167.733 143.635 169.007 142.104 170.026C141.262 170.65 140.257 171.015 139.211 171.076C138.474 171.096 137.738 171.003 137.029 170.801C136.46 170.629 135.938 170.327 135.504 169.92C134.498 169.001 133.992 167.639 133.992 165.851C133.992 163.922 134.617 161.499 135.867 158.583L138.636 152.696C139.077 151.898 139.348 151.017 139.429 150.108C139.429 149.483 139.079 149.158 138.379 149.158L138.398 149.177ZM160.747 138.34C160.376 138.733 159.943 139.062 159.466 139.315C158.994 139.559 158.481 139.713 157.953 139.771C157.445 139.844 156.926 139.768 156.46 139.553C155.989 139.332 155.572 139.01 155.241 138.609C154.573 137.908 154.182 136.989 154.141 136.022C154.095 135.343 154.24 134.666 154.56 134.065C154.835 133.64 155.197 133.278 155.622 133.003C156.302 132.52 157.108 132.244 157.941 132.209C158.507 132.194 159.074 132.244 159.628 132.359C160.029 132.463 160.407 132.636 160.747 132.872C161.115 133.079 161.423 133.378 161.642 133.739C161.861 134.101 161.983 134.512 161.997 134.934C162.02 135.625 161.903 136.314 161.653 136.959C161.436 137.477 161.129 137.953 160.747 138.365V138.34ZM155.497 166.051C155.941 166.051 156.16 166.339 156.16 166.92C156.107 167.813 155.737 168.657 155.116 169.301C154.608 169.891 153.973 170.359 153.259 170.668C152.544 170.978 151.769 171.121 150.991 171.089C149.012 171.089 147.656 170.287 146.923 168.682C146.631 168.042 146.49 167.343 146.51 166.639C146.527 165.732 146.67 164.832 146.935 163.964C147.214 162.981 147.564 161.939 147.985 160.839C148.404 159.758 148.86 158.658 149.354 157.552L150.71 154.327C151.697 151.946 152.197 150.358 152.197 149.59C152.245 149.069 152.161 148.545 151.954 148.065C151.813 147.844 151.636 147.649 151.429 147.49L150.948 147.134C150.856 147.059 150.785 146.963 150.74 146.854C150.695 146.744 150.678 146.626 150.691 146.509C150.699 146.191 150.821 145.887 151.035 145.652C151.291 145.359 151.601 145.117 151.947 144.94C152.783 144.529 153.704 144.325 154.635 144.346C157.135 144.346 158.385 145.009 158.385 146.321C158.321 148.134 157.912 149.918 157.178 151.577C156.378 153.552 155.697 155.139 155.135 156.352L153.597 159.883C152.472 162.483 151.904 164.351 151.904 165.508C151.882 165.661 151.896 165.818 151.945 165.965C151.994 166.112 152.077 166.246 152.187 166.356C152.296 166.466 152.43 166.548 152.577 166.598C152.725 166.647 152.881 166.661 153.035 166.639C153.605 166.661 154.173 166.557 154.697 166.333C154.949 166.185 155.227 166.089 155.516 166.051H155.497ZM227.438 147.746C225.646 147.746 223.921 148.975 222.263 151.433C220.77 153.751 219.632 156.279 218.888 158.933C221.673 158.673 224.289 157.482 226.313 155.552C228.238 153.706 229.2 151.942 229.2 150.258C229.2 148.575 228.613 147.729 227.438 147.721V147.746ZM212.488 161.877C212.548 160.429 212.798 158.996 213.232 157.614C213.663 156.243 214.237 154.921 214.944 153.671C215.662 152.392 216.499 151.185 217.444 150.065C218.374 148.96 219.422 147.96 220.569 147.084C223.015 145.254 225.481 144.34 227.969 144.34C230.885 144.34 232.831 145.544 233.806 147.952C234.163 148.878 234.327 149.867 234.287 150.858C234.29 151.921 234.078 152.974 233.662 153.952C233.252 154.907 232.676 155.783 231.962 156.539C231.196 157.347 230.326 158.049 229.375 158.627C228.347 159.249 227.261 159.768 226.131 160.177C223.627 161.04 220.999 161.49 218.351 161.508C218.267 161.86 218.222 162.221 218.219 162.583C218.212 163.12 218.264 163.657 218.376 164.183C218.486 164.739 218.698 165.271 219 165.751C219.258 166.229 219.643 166.627 220.113 166.898C220.584 167.17 221.12 167.305 221.663 167.289C223.717 167.266 225.723 166.663 227.45 165.551C228.04 165.213 228.586 164.804 229.075 164.333C229.345 163.994 229.734 163.771 230.162 163.708C230.333 163.72 230.498 163.777 230.64 163.874C230.782 163.97 230.895 164.103 230.969 164.258C231.202 164.632 231.321 165.067 231.312 165.508C231.331 166.357 231.06 167.188 230.544 167.864C228.394 170.014 225.194 171.089 220.944 171.089C219.838 171.14 218.733 170.967 217.696 170.58C216.658 170.193 215.71 169.601 214.907 168.839C213.203 167.135 212.401 164.814 212.501 161.877H212.488ZM234.962 170.22C234.64 169.986 234.363 169.696 234.144 169.364C233.966 169.123 233.852 168.842 233.812 168.545C233.804 168.258 233.851 167.971 233.95 167.701C234.062 167.364 234.212 166.964 234.4 166.451C237.879 157.889 239.618 152.14 239.618 149.202C239.627 148.865 239.555 148.531 239.408 148.228C239.261 147.925 239.044 147.661 238.775 147.458L238.262 147.102C238.179 147.021 238.115 146.924 238.073 146.816C238.031 146.708 238.012 146.593 238.018 146.477C238.019 146.162 238.134 145.857 238.343 145.621C238.584 145.33 238.879 145.088 239.212 144.909C239.904 144.524 240.682 144.32 241.474 144.315C242.091 144.292 242.707 144.379 243.293 144.571C243.703 144.732 244.081 144.967 244.406 145.265C244.694 145.504 244.931 145.8 245.101 146.134C245.271 146.468 245.37 146.834 245.393 147.209C245.399 147.907 245.321 148.603 245.162 149.283C244.999 149.983 244.806 150.671 244.587 151.346C244.368 152.021 244.143 152.658 243.918 153.264C243.748 153.704 243.604 154.152 243.487 154.608C243.374 154.972 243.321 155.352 243.331 155.733C243.671 155.471 243.928 155.115 244.068 154.708L245.062 152.833C247.282 148.838 249.449 146.192 251.561 144.896C252.24 144.524 253.006 144.338 253.78 144.359C254.173 144.346 254.564 144.421 254.924 144.579C255.284 144.737 255.605 144.973 255.861 145.271C256.369 145.819 256.664 146.531 256.692 147.277C256.728 147.892 256.678 148.508 256.542 149.108C256.416 149.589 256.222 150.05 255.967 150.477C255.405 151.433 254.718 151.915 253.918 151.915C253.688 151.914 253.467 151.832 253.293 151.683L252.73 151.196C252.299 150.756 251.72 150.491 251.105 150.452C250.379 150.563 249.715 150.926 249.23 151.477C248.379 152.284 247.603 153.166 246.912 154.114C244.165 157.774 241.946 161.8 240.318 166.076L239.193 169.045C238.996 169.594 238.745 170.121 238.443 170.62C238.331 170.775 238.182 170.899 238.01 170.981C237.837 171.063 237.647 171.1 237.456 171.089C237.009 171.086 236.567 171.003 236.15 170.845C235.734 170.695 235.342 170.484 234.987 170.22H234.962ZM194.258 185.05L189.527 187.894C189.426 187.953 189.35 188.045 189.31 188.155C189.27 188.264 189.27 188.384 189.309 188.494C189.349 188.603 189.425 188.696 189.525 188.755C189.625 188.815 189.743 188.837 189.858 188.819L192.546 188.407C192.655 188.39 192.767 188.41 192.864 188.463C192.961 188.516 193.038 188.599 193.083 188.7L194.152 191.2C194.198 191.304 194.279 191.389 194.381 191.441C194.482 191.493 194.599 191.508 194.71 191.485C194.822 191.462 194.922 191.401 194.995 191.313C195.067 191.224 195.107 191.114 195.108 191L195.014 185.475C195.012 185.388 194.988 185.302 194.942 185.228C194.897 185.153 194.833 185.091 194.756 185.049C194.68 185.006 194.594 184.985 194.506 184.986C194.419 184.987 194.333 185.012 194.258 185.057V185.05ZM194.752 157.483C194.147 158.638 193.641 159.842 193.239 161.083C192.878 162.138 192.684 163.243 192.664 164.358C192.625 165.216 192.842 166.067 193.289 166.801C193.491 167.111 193.77 167.363 194.099 167.532C194.427 167.701 194.795 167.781 195.164 167.764C196.042 167.754 196.903 167.519 197.664 167.083C198.546 166.587 199.355 165.973 200.07 165.258C200.889 164.435 201.618 163.528 202.245 162.552C202.925 161.51 203.511 160.41 203.995 159.264C205.026 156.996 205.585 154.543 205.639 152.052C205.683 151.072 205.516 150.094 205.151 149.183C205.038 148.88 204.833 148.62 204.566 148.437C204.298 148.255 203.981 148.16 203.657 148.165C202.895 148.206 202.165 148.486 201.57 148.965C200.736 149.577 199.963 150.27 199.264 151.033C198.405 151.971 197.609 152.965 196.883 154.008C196.103 155.117 195.399 156.278 194.777 157.483H194.752ZM190.821 168.401C190.914 168.557 190.602 169.295 190.558 169.451C190.339 170.257 186.908 180.701 185.99 181.713C185.735 182.006 185.42 182.239 185.066 182.398C184.712 182.557 184.328 182.636 183.94 182.632C183.47 182.636 183.009 182.503 182.614 182.248C182.218 181.994 181.906 181.63 181.715 181.201C181.558 180.922 181.478 180.607 181.484 180.288C181.543 179.781 181.695 179.29 181.934 178.838C182.265 178.051 185.952 167.589 186.933 164.026C187.837 160.752 188.435 158.525 188.727 157.346L189.546 154.146C189.929 152.725 190.24 151.286 190.477 149.833C190.597 149.294 190.549 148.732 190.339 148.221C190.186 147.939 189.973 147.693 189.714 147.502C189.471 147.34 189.252 147.202 189.046 147.084C188.942 147.013 188.862 146.912 188.816 146.795C188.771 146.678 188.761 146.55 188.789 146.427C188.831 146.099 188.981 145.793 189.214 145.559C189.482 145.278 189.797 145.047 190.146 144.877C190.87 144.531 191.661 144.347 192.464 144.34C193.087 144.315 193.709 144.41 194.295 144.621C194.715 144.793 195.09 145.055 195.395 145.39C195.666 145.635 195.88 145.937 196.021 146.274C196.163 146.611 196.228 146.975 196.214 147.34C196.045 148.652 195.852 149.777 195.652 150.715C198.639 146.465 201.735 144.34 204.939 144.34C207.855 144.34 209.809 145.85 210.801 148.871C211.17 150.126 211.343 151.431 211.313 152.739C211.308 154.288 211.076 155.827 210.626 157.308C210.167 158.82 209.538 160.275 208.751 161.645C207.972 162.987 207.055 164.244 206.014 165.395C205.018 166.508 203.91 167.515 202.708 168.401C200.253 170.176 197.933 171.064 195.745 171.064C194.759 171.11 193.778 170.884 192.912 170.41C192.045 169.936 191.326 169.232 190.833 168.376" fill="#FE5900"/>
<path d="M200.751 159.552C200.562 159.758 200.338 159.93 200.089 160.058C199.847 160.183 199.584 160.263 199.314 160.295C199.049 160.327 198.78 160.284 198.539 160.17C198.3 160.051 198.088 159.886 197.914 159.683C197.571 159.32 197.371 158.845 197.352 158.345C197.313 158.039 197.364 157.728 197.5 157.451C197.635 157.173 197.849 156.941 198.114 156.783C198.467 156.537 198.884 156.396 199.314 156.377C199.606 156.368 199.898 156.395 200.183 156.458C200.389 156.508 200.585 156.597 200.758 156.721C200.945 156.829 201.101 156.983 201.21 157.169C201.32 157.356 201.379 157.567 201.383 157.783C201.393 158.14 201.331 158.495 201.201 158.827C201.09 159.095 200.931 159.34 200.733 159.552H200.751ZM171.703 198.2C167.559 197.781 163.609 195.862 161.241 192.356C160.589 191.389 160.072 190.338 159.703 189.231C159.378 188.238 158.453 184.375 156.416 185.05C153.81 185.919 155.035 190.675 155.722 192.463C156.915 195.402 159.161 197.792 162.022 199.162C164.354 200.3 166.875 200.999 169.459 201.225C178.421 202.131 187.889 197.062 192.652 189.381C193.539 187.95 193.314 187.507 192.102 189.032C187.333 195.119 179.327 198.956 171.703 198.181V198.2ZM195.483 179.819V181.694H196.414C196.711 181.717 197.005 181.632 197.245 181.457C197.345 181.363 197.422 181.248 197.47 181.12C197.519 180.993 197.538 180.856 197.527 180.719C197.536 180.59 197.516 180.461 197.466 180.341C197.416 180.222 197.338 180.116 197.239 180.032C196.982 179.863 196.677 179.784 196.37 179.807L195.483 179.819ZM195.483 179.032H196.327C196.609 179.056 196.892 178.988 197.133 178.838C197.218 178.759 197.285 178.662 197.329 178.554C197.372 178.446 197.39 178.329 197.383 178.213C197.396 178.094 197.378 177.974 197.329 177.864C197.281 177.754 197.205 177.659 197.108 177.588C196.845 177.444 196.545 177.378 196.245 177.401H195.483V179.032ZM194.608 176.576H196.202C196.759 176.532 197.316 176.656 197.802 176.932C197.969 177.066 198.101 177.24 198.186 177.437C198.271 177.634 198.306 177.849 198.289 178.063C198.3 178.37 198.217 178.673 198.051 178.932C197.97 179.048 197.866 179.145 197.746 179.219C197.625 179.294 197.491 179.342 197.352 179.363V179.407C197.676 179.453 197.972 179.618 198.183 179.869C198.367 180.144 198.459 180.47 198.445 180.801C198.457 181.033 198.418 181.266 198.331 181.482C198.243 181.698 198.11 181.892 197.939 182.051C197.546 182.372 197.046 182.535 196.539 182.507H194.602L194.608 176.576ZM201.083 178.663C200.958 178.659 200.834 178.683 200.72 178.734C200.606 178.785 200.506 178.861 200.426 178.957C200.241 179.198 200.136 179.491 200.126 179.794H201.97C201.985 179.494 201.899 179.197 201.726 178.951C201.65 178.859 201.555 178.786 201.447 178.736C201.338 178.686 201.22 178.661 201.101 178.663H201.083ZM201.258 182.607C200.981 182.618 200.705 182.568 200.45 182.46C200.195 182.352 199.967 182.188 199.783 181.982C199.404 181.504 199.212 180.904 199.245 180.294C199.212 179.677 199.386 179.065 199.739 178.557C199.9 178.352 200.108 178.189 200.345 178.08C200.582 177.972 200.841 177.921 201.101 177.932C201.337 177.923 201.571 177.967 201.787 178.06C202.003 178.153 202.196 178.293 202.351 178.47C202.679 178.894 202.843 179.422 202.814 179.957V180.476H200.114C200.101 180.838 200.213 181.193 200.433 181.482C200.538 181.602 200.669 181.696 200.816 181.758C200.964 181.82 201.123 181.847 201.283 181.838C201.506 181.84 201.728 181.814 201.945 181.763C202.176 181.702 202.4 181.619 202.614 181.513V182.301C202.416 182.406 202.206 182.486 201.989 182.538C201.746 182.585 201.499 182.608 201.251 182.607H201.258ZM206.995 181.869C207.133 181.876 207.271 181.854 207.4 181.805C207.529 181.755 207.647 181.679 207.745 181.582C207.945 181.358 208.048 181.063 208.032 180.763V180.376H207.507C207.198 180.362 206.891 180.441 206.626 180.601C206.531 180.673 206.455 180.768 206.407 180.877C206.359 180.987 206.34 181.107 206.351 181.226C206.345 181.309 206.355 181.393 206.382 181.473C206.409 181.552 206.452 181.625 206.507 181.688C206.572 181.748 206.65 181.794 206.734 181.822C206.818 181.85 206.907 181.86 206.995 181.851V181.869ZM208.245 182.507L208.07 181.882C207.919 182.113 207.715 182.306 207.476 182.444C207.237 182.554 206.976 182.605 206.714 182.594C206.541 182.604 206.369 182.577 206.209 182.514C206.048 182.452 205.903 182.355 205.782 182.232C205.544 181.951 205.425 181.587 205.451 181.219C205.443 181.019 205.484 180.819 205.57 180.637C205.656 180.455 205.785 180.297 205.945 180.176C206.368 179.907 206.863 179.772 207.364 179.788H208.064V179.551C208.075 179.328 208.012 179.108 207.882 178.926C207.81 178.851 207.722 178.793 207.625 178.757C207.528 178.72 207.423 178.705 207.32 178.713C207.107 178.709 206.896 178.743 206.695 178.813C206.507 178.882 206.324 178.961 206.145 179.051L205.87 178.37C206.095 178.24 206.337 178.141 206.589 178.076C206.832 178.014 207.081 177.98 207.332 177.976C207.754 177.945 208.171 178.079 208.495 178.351C208.638 178.51 208.746 178.697 208.814 178.901C208.882 179.104 208.907 179.319 208.888 179.532V182.563L208.245 182.507ZM214.763 181.244C214.772 181.434 214.738 181.623 214.664 181.797C214.589 181.972 214.475 182.127 214.332 182.251C213.969 182.511 213.527 182.637 213.082 182.607C212.631 182.626 212.181 182.531 211.776 182.332V181.507C212.185 181.731 212.641 181.855 213.107 181.869C213.638 181.869 213.901 181.694 213.901 181.338C213.907 181.237 213.876 181.137 213.813 181.057C213.734 180.96 213.636 180.879 213.526 180.819C213.346 180.713 213.158 180.621 212.963 180.544C212.607 180.407 212.285 180.194 212.02 179.919C211.845 179.698 211.756 179.42 211.77 179.138C211.763 178.967 211.797 178.796 211.87 178.64C211.943 178.485 212.052 178.349 212.188 178.245C212.522 178.011 212.925 177.897 213.332 177.92C213.801 177.92 214.264 178.032 214.682 178.245L214.407 178.963C214.063 178.787 213.686 178.685 213.301 178.663C212.851 178.663 212.62 178.807 212.62 179.094C212.619 179.164 212.636 179.233 212.667 179.295C212.699 179.356 212.744 179.41 212.801 179.451C213.042 179.616 213.302 179.752 213.576 179.857C213.832 179.959 214.076 180.091 214.301 180.251C214.443 180.361 214.559 180.502 214.638 180.663C214.718 180.84 214.756 181.032 214.751 181.226L214.763 181.244ZM219.107 182.526H218.244V179.751C218.263 179.48 218.2 179.21 218.063 178.976C218.001 178.891 217.919 178.823 217.824 178.778C217.729 178.733 217.624 178.713 217.519 178.719C217.376 178.709 217.233 178.738 217.104 178.801C216.976 178.865 216.867 178.962 216.788 179.082C216.602 179.453 216.52 179.868 216.551 180.282V182.526H215.694V178.02H216.363L216.488 178.645H216.532C216.642 178.434 216.811 178.26 217.019 178.145C217.237 178.029 217.479 177.969 217.726 177.97C217.983 177.937 218.244 177.989 218.469 178.118C218.694 178.246 218.872 178.444 218.976 178.682H219.032C219.148 178.463 219.323 178.281 219.538 178.157C219.767 178.03 220.026 177.965 220.288 177.97C220.484 177.95 220.682 177.977 220.865 178.049C221.049 178.121 221.213 178.235 221.344 178.382C221.594 178.748 221.711 179.19 221.675 179.632V182.569H220.813V179.751C220.833 179.481 220.772 179.211 220.638 178.976C220.576 178.89 220.492 178.821 220.396 178.776C220.3 178.732 220.194 178.712 220.088 178.719C219.945 178.709 219.802 178.736 219.673 178.797C219.544 178.858 219.432 178.952 219.35 179.069C219.172 179.396 219.092 179.767 219.119 180.138L219.107 182.526ZM224.119 181.869C224.257 181.876 224.395 181.854 224.524 181.805C224.653 181.755 224.771 181.679 224.869 181.582C225.068 181.357 225.169 181.063 225.15 180.763V180.376H224.631C224.322 180.361 224.015 180.44 223.75 180.601C223.654 180.672 223.577 180.767 223.528 180.876C223.479 180.986 223.458 181.106 223.469 181.226C223.464 181.31 223.475 181.394 223.503 181.473C223.531 181.553 223.575 181.626 223.632 181.688C223.697 181.748 223.774 181.794 223.858 181.822C223.942 181.85 224.031 181.86 224.119 181.851V181.869ZM225.369 182.507L225.194 181.882C225.06 182.117 224.862 182.309 224.623 182.435C224.384 182.561 224.114 182.617 223.844 182.594C223.672 182.605 223.499 182.578 223.339 182.515C223.178 182.453 223.033 182.356 222.913 182.232C222.672 181.951 222.551 181.588 222.575 181.219C222.564 181.02 222.6 180.82 222.682 180.637C222.763 180.455 222.888 180.294 223.044 180.169C223.467 179.901 223.962 179.766 224.463 179.782H225.163V179.551C225.175 179.328 225.111 179.108 224.981 178.926C224.909 178.851 224.821 178.793 224.724 178.757C224.627 178.72 224.523 178.705 224.419 178.713C224.206 178.708 223.995 178.742 223.794 178.813C223.606 178.882 223.423 178.961 223.244 179.051L222.969 178.37C223.195 178.24 223.436 178.141 223.688 178.076C223.929 178.014 224.176 177.98 224.425 177.976C224.849 177.944 225.268 178.078 225.594 178.351C225.737 178.51 225.845 178.697 225.913 178.901C225.981 179.104 226.006 179.319 225.988 179.532V182.563L225.369 182.507ZM229.269 177.938C229.414 177.937 229.558 177.952 229.7 177.982L229.612 178.876C229.489 178.84 229.36 178.823 229.231 178.826C229.072 178.821 228.915 178.853 228.77 178.918C228.625 178.982 228.496 179.079 228.394 179.201C228.173 179.474 228.059 179.818 228.075 180.169V182.526H227.194V178.02H227.869L227.981 178.813H228.025C228.15 178.565 228.332 178.351 228.556 178.188C228.755 178.036 228.999 177.952 229.25 177.951L229.269 177.938ZM231.956 181.832C232.169 181.83 232.381 181.792 232.581 181.719V182.444C232.463 182.495 232.339 182.533 232.212 182.557C232.058 182.59 231.901 182.606 231.744 182.607C230.931 182.607 230.525 182.126 230.525 181.169V178.744H229.969V178.301L230.594 177.951L230.887 176.995H231.419V177.995H232.575V178.719H231.419V181.132C231.403 181.316 231.459 181.5 231.575 181.644C231.628 181.698 231.691 181.74 231.761 181.768C231.831 181.796 231.906 181.809 231.981 181.807L231.956 181.832ZM237.193 178.719C237.049 178.707 236.905 178.732 236.773 178.793C236.642 178.853 236.528 178.946 236.443 179.063C236.263 179.414 236.181 179.807 236.206 180.201V180.263C236.177 180.675 236.259 181.087 236.443 181.457C236.526 181.581 236.641 181.68 236.775 181.745C236.909 181.81 237.057 181.837 237.206 181.826C237.348 181.83 237.488 181.794 237.611 181.722C237.734 181.65 237.834 181.545 237.9 181.419C238.077 181.059 238.159 180.658 238.137 180.257C238.137 179.232 237.825 178.719 237.193 178.719ZM237.418 177.938C237.652 177.933 237.883 177.988 238.09 178.098C238.297 178.207 238.472 178.367 238.6 178.563C238.908 179.079 239.054 179.676 239.018 180.276C239.052 180.88 238.904 181.481 238.593 182.001C238.464 182.198 238.287 182.359 238.078 182.469C237.869 182.578 237.635 182.632 237.4 182.626C237.164 182.634 236.929 182.581 236.72 182.471C236.511 182.361 236.334 182.199 236.206 182.001H236.15L235.993 182.538H235.368V176.188H236.231V178.595H236.268C236.389 178.381 236.566 178.206 236.78 178.087C236.994 177.967 237.236 177.91 237.481 177.92L237.418 177.938ZM242.874 182.526L242.756 181.901H242.712C242.592 182.111 242.414 182.283 242.199 182.394C241.967 182.518 241.707 182.58 241.443 182.576C241.241 182.59 241.039 182.561 240.849 182.491C240.66 182.421 240.487 182.312 240.343 182.169C240.077 181.809 239.948 181.366 239.981 180.919V178.02H240.849V180.801C240.828 181.073 240.896 181.345 241.043 181.576C241.117 181.668 241.213 181.74 241.322 181.785C241.432 181.83 241.551 181.846 241.668 181.832C241.821 181.844 241.975 181.817 242.115 181.754C242.255 181.691 242.376 181.593 242.468 181.469C242.667 181.1 242.754 180.681 242.718 180.263V178.02H243.587V182.526H242.874ZM244.168 178.02H245.105L245.943 180.576C246.062 180.908 246.146 181.251 246.193 181.601C246.221 181.417 246.261 181.235 246.312 181.057C246.374 180.844 246.68 179.807 247.243 178.02H248.174L246.443 183.119C246.135 184.073 245.614 184.55 244.88 184.55C244.693 184.55 244.506 184.527 244.324 184.482V183.701C244.47 183.735 244.619 183.752 244.768 183.751C245.18 183.751 245.474 183.482 245.643 182.944L245.793 182.526L244.168 178.02ZM250.411 178.663C250.287 178.66 250.164 178.685 250.05 178.735C249.936 178.786 249.836 178.862 249.755 178.957C249.572 179.198 249.469 179.491 249.462 179.794H251.299C251.315 179.495 251.232 179.198 251.061 178.951C250.984 178.86 250.889 178.788 250.781 178.738C250.673 178.689 250.555 178.663 250.436 178.663H250.411ZM250.599 182.607C250.321 182.619 250.044 182.569 249.788 182.461C249.532 182.353 249.303 182.189 249.118 181.982C248.741 181.503 248.552 180.903 248.587 180.294C248.551 179.676 248.725 179.064 249.08 178.557C249.24 178.352 249.447 178.189 249.683 178.08C249.919 177.972 250.177 177.921 250.436 177.932C250.672 177.922 250.906 177.965 251.123 178.058C251.339 178.151 251.532 178.292 251.686 178.47C252.019 178.891 252.186 179.421 252.155 179.957V180.476H249.455C249.442 180.838 249.555 181.193 249.774 181.482C249.878 181.601 250.009 181.696 250.155 181.757C250.301 181.819 250.459 181.847 250.618 181.838C250.843 181.84 251.067 181.814 251.286 181.763C251.515 181.702 251.737 181.619 251.949 181.513V182.301C251.752 182.408 251.542 182.488 251.324 182.538C251.083 182.586 250.838 182.609 250.593 182.607H250.599ZM255.18 177.938C255.323 177.937 255.465 177.952 255.605 177.982L255.524 178.876C255.4 178.84 255.271 178.824 255.143 178.826C254.984 178.821 254.826 178.852 254.681 178.917C254.536 178.982 254.407 179.079 254.305 179.201C254.084 179.474 253.971 179.818 253.986 180.169V182.526H253.124V178.02H253.799L253.911 178.813H253.955C254.079 178.567 254.259 178.353 254.48 178.188C254.682 178.036 254.927 177.953 255.18 177.951V177.938ZM168.297 157.483C167.695 158.639 167.189 159.843 166.784 161.083C166.426 162.139 166.232 163.243 166.209 164.358C166.17 165.216 166.387 166.067 166.834 166.801C167.037 167.11 167.316 167.361 167.645 167.53C167.973 167.698 168.34 167.779 168.709 167.764C169.587 167.754 170.448 167.519 171.209 167.083C172.092 166.589 172.901 165.974 173.615 165.258C174.434 164.435 175.163 163.528 175.79 162.552C176.47 161.509 177.057 160.409 177.546 159.264C178.577 156.996 179.136 154.543 179.19 152.052C179.234 151.072 179.068 150.094 178.702 149.183C178.587 148.88 178.381 148.62 178.113 148.438C177.845 148.255 177.527 148.16 177.202 148.165C176.434 148.196 175.694 148.47 175.09 148.946C174.267 149.565 173.507 150.264 172.821 151.033C171.959 151.967 171.163 152.962 170.44 154.008C169.656 155.116 168.95 156.277 168.328 157.483H168.297ZM164.372 168.401C164.466 168.557 164.153 169.295 164.109 169.451C163.891 170.257 160.46 180.701 159.541 181.713C159.287 182.005 158.973 182.238 158.62 182.397C158.267 182.555 157.884 182.636 157.497 182.632C157.026 182.636 156.564 182.503 156.168 182.249C155.772 181.995 155.458 181.63 155.266 181.201C155.113 180.921 155.033 180.607 155.035 180.288C155.093 179.78 155.248 179.288 155.491 178.838C155.822 178.051 159.503 167.589 160.491 164.026C161.395 160.752 161.993 158.525 162.284 157.346L163.103 154.146C163.488 152.725 163.801 151.286 164.041 149.833C164.16 149.294 164.109 148.731 163.897 148.221C163.744 147.939 163.53 147.693 163.272 147.502C163.034 147.34 162.809 147.202 162.603 147.084C162.499 147.013 162.42 146.912 162.374 146.795C162.328 146.678 162.319 146.55 162.347 146.427C162.389 146.099 162.538 145.793 162.772 145.559C163.04 145.279 163.355 145.048 163.703 144.877C164.427 144.531 165.219 144.347 166.022 144.34C166.645 144.315 167.266 144.41 167.853 144.621C168.273 144.791 168.649 145.054 168.953 145.39C169.21 145.642 169.41 145.947 169.538 146.283C169.666 146.62 169.72 146.98 169.697 147.34C169.526 148.652 169.338 149.777 169.134 150.715C172.121 146.465 175.219 144.34 178.427 144.34C181.344 144.34 183.298 145.85 184.29 148.871C184.656 150.127 184.829 151.431 184.802 152.739C184.798 154.288 184.564 155.828 184.108 157.308C183.652 158.821 183.023 160.276 182.234 161.645C181.455 162.987 180.537 164.244 179.496 165.395C178.5 166.508 177.392 167.515 176.19 168.401C173.732 170.176 171.411 171.064 169.228 171.064C168.241 171.11 167.261 170.883 166.395 170.409C165.528 169.935 164.809 169.232 164.316 168.376" fill="#FE5900"/>
<path d="M174.296 159.552C174.118 159.754 173.906 159.925 173.671 160.058C173.427 160.183 173.163 160.263 172.89 160.295C172.625 160.327 172.357 160.284 172.115 160.17C171.875 160.054 171.661 159.888 171.49 159.683C171.144 159.322 170.941 158.846 170.922 158.345C170.898 157.994 170.974 157.643 171.14 157.333C171.28 157.113 171.466 156.925 171.684 156.783C172.037 156.537 172.454 156.396 172.884 156.377C173.176 156.367 173.468 156.395 173.753 156.458C173.959 156.508 174.155 156.597 174.328 156.721C174.515 156.829 174.671 156.983 174.78 157.169C174.89 157.356 174.949 157.567 174.953 157.783C174.963 158.14 174.901 158.495 174.771 158.827C174.66 159.095 174.501 159.34 174.303 159.552" fill="#FE5900"/>
</g>
<defs>
<clipPath id="clip0">
<rect x="94.7002" y="120.312" width="162.003" height="81.0017" fill="white"/>
</clipPath>
</defs>
</svg>
