<svg width="70" height="70" viewBox="0 0 70 70" fill="none" xmlns="http://www.w3.org/2000/svg">
<path d="M11 11L59 59L11 11ZM40.3673 40.3673C39.8242 41.161 39.1128 41.8253 38.2838 42.3129C37.4549 42.8004 36.5286 43.0994 35.571 43.1884C34.6134 43.2773 33.6479 43.1542 32.7433 42.8277C31.8387 42.5012 31.0171 41.9794 30.3371 41.2993C29.657 40.6193 29.1352 39.7977 28.8087 38.8931C28.4822 37.9884 28.359 37.023 28.448 36.0654C28.537 35.1077 28.8359 34.1815 29.3235 33.3525C29.8111 32.5235 30.4754 31.8122 31.2691 31.2691L40.3673 40.3673ZM49.7273 49.7273H20.2727C19.4047 49.7273 18.5723 49.3825 17.9586 48.7687C17.3448 48.155 17 47.3225 17 46.4545V28.4545C17 27.5866 17.3448 26.7541 17.9586 26.1404C18.5723 25.5266 19.4047 25.1818 20.2727 25.1818H25.1818L49.7273 49.7273ZM30.0909 20.2727H39.9091L43.1818 25.1818H49.7273C50.5953 25.1818 51.4277 25.5266 52.0414 26.1404C52.6552 26.7541 53 27.5866 53 28.4545V43.7382L30.0909 20.2727ZM69 35C69 53.7777 53.7777 69 35 69C16.2223 69 1 53.7777 1 35C1 16.2223 16.2223 1 35 1C53.7777 1 69 16.2223 69 35Z" stroke="#FE5900" stroke-linecap="round" stroke-linejoin="round"/>
</svg>
