<svg width="156" height="104" viewBox="0 0 156 104" fill="none" xmlns="http://www.w3.org/2000/svg">
<g clip-path="url(#clip0_5252_81791)">
<path d="M73.4889 67.5256C73.7139 68.581 73.4969 69.6856 72.8856 70.5961C72.2744 71.5067 71.3189 72.1488 70.2294 72.3811L37.3655 79.3879C36.276 79.6202 35.1417 79.4237 34.2122 78.8416C33.2826 78.2596 32.634 77.3396 32.409 76.2842L26.4696 48.4269C26.2445 47.3714 26.4615 46.2669 27.0728 45.3563C27.6841 44.4458 28.6396 43.8037 29.7291 43.5714L39.999 41.3818L45.3798 46.4753L63.8657 42.534C64.9552 42.3017 66.0895 42.4982 67.019 43.0802C67.9485 43.6623 68.5971 44.5823 68.8222 45.6377L73.4889 67.5256Z" stroke="#FFD5BF" stroke-width="2" stroke-linecap="round" stroke-linejoin="round"/>
</g>
<path d="M116.5 81.1315C116.5 82.8112 115.815 84.4221 114.596 85.6099C113.377 86.7976 111.724 87.4648 110 87.4648H58C56.2761 87.4648 54.6228 86.7976 53.4038 85.6099C52.1848 84.4221 51.5 82.8112 51.5 81.1315V36.7982C51.5 35.1185 52.1848 33.5076 53.4038 32.3198C54.6228 31.1321 56.2761 30.4648 58 30.4648H74.25L80.75 39.9648H110C111.724 39.9648 113.377 40.6321 114.596 41.8198C115.815 43.0076 116.5 44.6185 116.5 46.2982V81.1315Z" fill="white" stroke="#FE8442" stroke-width="2" stroke-linecap="round" stroke-linejoin="round"/>
<rect x="101.102" y="64.9648" width="36.4" height="36.4" rx="12" fill="white"/>
<path d="M119.102 92.9648C124.624 92.9648 129.102 88.4877 129.102 82.9648C129.102 77.442 124.624 72.9648 119.102 72.9648C113.579 72.9648 109.102 77.442 109.102 82.9648C109.102 88.4877 113.579 92.9648 119.102 92.9648Z" stroke="#FE5900" stroke-width="2" stroke-linecap="round" stroke-linejoin="round"/>
<path d="M119.102 76.9648V82.9648L123.102 84.9648" stroke="#FE5900" stroke-width="2" stroke-linecap="round" stroke-linejoin="round"/>
<defs>
<clipPath id="clip0_5252_81791">
<rect width="50.4038" height="48.8287" fill="white" transform="translate(20.2402 39.3535) rotate(-12.0357)"/>
</clipPath>
</defs>
</svg>
