<svg width="25" height="25" viewBox="0 0 25 25" fill="none" xmlns="http://www.w3.org/2000/svg">
<path d="M22.3334 17.3683V20.3683C22.3346 20.6468 22.2775 20.9225 22.1659 21.1777C22.0544 21.4329 21.8907 21.6619 21.6855 21.8502C21.4803 22.0385 21.238 22.1818 20.9742 22.271C20.7104 22.3603 20.4308 22.3934 20.1534 22.3683C17.0763 22.034 14.1204 20.9825 11.5234 19.2983C9.10726 17.763 7.05877 15.7145 5.52343 13.2983C3.83341 10.6895 2.78167 7.71933 2.45343 4.62834C2.42844 4.35181 2.4613 4.0731 2.54993 3.80996C2.63856 3.54683 2.781 3.30503 2.9682 3.09996C3.15539 2.89489 3.38323 2.73105 3.63722 2.61886C3.89121 2.50667 4.16577 2.4486 4.44343 2.44834H7.44343C7.92874 2.44356 8.39922 2.61542 8.76719 2.93187C9.13516 3.24833 9.37551 3.68779 9.44343 4.16834C9.57005 5.12841 9.80488 6.07107 10.1434 6.97834C10.278 7.33626 10.3071 7.72525 10.2273 8.09922C10.1476 8.47319 9.96229 8.81645 9.69343 9.08834L8.42343 10.3583C9.84698 12.8619 11.9199 14.9348 14.4234 16.3583L15.6934 15.0883C15.9653 14.8195 16.3086 14.6342 16.6825 14.5544C17.0565 14.4747 17.4455 14.5038 17.8034 14.6383C18.7107 14.9769 19.6534 15.2117 20.6134 15.3383C21.0992 15.4069 21.5428 15.6515 21.86 16.0258C22.1771 16.4001 22.3456 16.8779 22.3334 17.3683Z" fill="#FE5900"/>
<path d="M22.3334 17.3683V20.3683C22.3346 20.6468 22.2775 20.9225 22.1659 21.1777C22.0544 21.4329 21.8907 21.6619 21.6855 21.8502C21.4803 22.0385 21.238 22.1818 20.9742 22.271C20.7104 22.3603 20.4308 22.3934 20.1534 22.3683C17.0763 22.034 14.1204 20.9825 11.5234 19.2983C9.10726 17.763 7.05877 15.7145 5.52343 13.2983C3.83341 10.6895 2.78167 7.71933 2.45343 4.62834C2.42844 4.35181 2.4613 4.0731 2.54993 3.80996C2.63856 3.54683 2.781 3.30503 2.9682 3.09996C3.15539 2.89489 3.38323 2.73105 3.63722 2.61886C3.89121 2.50667 4.16577 2.4486 4.44343 2.44834H7.44343C7.92874 2.44356 8.39922 2.61542 8.76719 2.93187C9.13516 3.24833 9.37551 3.68779 9.44343 4.16834C9.57005 5.12841 9.80488 6.07107 10.1434 6.97834C10.278 7.33626 10.3071 7.72525 10.2273 8.09922C10.1476 8.47319 9.96229 8.81645 9.69343 9.08834L8.42343 10.3583C9.84698 12.8619 11.9199 14.9348 14.4234 16.3583L15.6934 15.0883C15.9653 14.8195 16.3086 14.6342 16.6825 14.5544C17.0565 14.4747 17.4455 14.5038 17.8034 14.6383C18.7107 14.9769 19.6534 15.2117 20.6134 15.3383C21.0992 15.4069 21.5428 15.6515 21.86 16.0258C22.1771 16.4001 22.3456 16.8779 22.3334 17.3683Z" fill="#FE5900"/>
</svg>
