<svg width="42" height="14" viewBox="0 0 42 14" fill="none" xmlns="http://www.w3.org/2000/svg">
<path d="M18.3149 13.3352H15.0186L17.0787 0.674472H20.3753L18.3149 13.3352ZM12.2456 0.674472L9.10312 9.38263L8.73127 7.50742L8.7316 7.5081L7.62247 1.81443C7.62247 1.81443 7.48836 0.674472 6.05884 0.674472H0.863695L0.802734 0.888848C0.802734 0.888848 2.39142 1.21939 4.2507 2.33597L7.11447 13.3356H10.5489L15.7931 0.674472H12.2456ZM38.1723 13.3352H41.1989L38.56 0.674133H35.9103C34.6867 0.674133 34.3887 1.61766 34.3887 1.61766L29.4726 13.3352H32.9087L33.5958 11.4546H37.7862L38.1723 13.3352ZM34.5451 8.85668L36.2771 4.11872L37.2514 8.85668H34.5451ZM29.7303 3.71909L30.2007 1.00027C30.2007 1.00027 28.7492 0.448242 27.236 0.448242C25.6003 0.448242 21.7158 1.16317 21.7158 4.63959C21.7158 7.91044 26.2749 7.95108 26.2749 9.66914C26.2749 11.3872 22.1855 11.0793 20.8359 9.99595L20.3458 12.8387C20.3458 12.8387 21.8177 13.5537 24.0664 13.5537C26.3159 13.5537 29.7093 12.389 29.7093 9.21905C29.7093 5.9272 25.1092 5.62071 25.1092 4.1895C25.1095 2.75795 28.3198 2.94185 29.7303 3.71909Z" fill="#3269AF"/>
</svg>
