<svg width="40" height="40" viewBox="0 0 40 40" fill="none" xmlns="http://www.w3.org/2000/svg">
<rect width="40" height="40" rx="8" fill="#3FCDFD"/>
<g clip-path="url(#clip0)">
<path fill-rule="evenodd" clip-rule="evenodd" d="M21.2181 9.21875C23.7761 9.21875 26.1851 10.2128 27.9981 12.0258C28.891 12.9141 29.5989 13.9708 30.0807 15.1346C30.5625 16.2984 30.8087 17.5462 30.8051 18.8057C30.8091 20.0653 30.5632 21.3132 30.0818 22.4772C29.6003 23.6411 28.8927 24.6981 28.0001 25.5868C26.1981 27.379 23.7616 28.3877 21.2201 28.3937H18.7601C18.6228 27.7167 18.2565 27.1075 17.7229 26.6686C17.1894 26.2297 16.521 25.9879 15.8301 25.9837C15.3275 25.9836 14.8327 26.1084 14.3904 26.347C13.948 26.5857 13.572 26.9306 13.2961 27.3507V27.3747C12.3978 26.9187 11.583 26.3142 10.8861 25.5868C10.0421 24.7428 9.57009 23.9728 9.37109 23.4768C9.92498 23.3446 10.4268 23.05 10.8121 22.6307C11.3272 22.0784 11.6116 21.35 11.6071 20.5948V18.8057C11.6071 16.6958 12.3031 14.6087 13.6191 12.9447C15.4821 10.5597 18.2381 9.21875 21.2181 9.21875ZM17.9659 15.5542C18.1892 15.3307 18.4921 15.205 18.8081 15.2048C19.1242 15.2048 19.4274 15.3303 19.651 15.5539C19.8745 15.7774 20.0001 16.0806 20.0001 16.3968C20.0002 16.5533 19.9695 16.7083 19.9097 16.853C19.85 16.9977 19.7623 17.1291 19.6517 17.2399C19.5411 17.3507 19.4097 17.4386 19.2652 17.4986C19.1206 17.5587 18.9656 17.5896 18.8091 17.5898C18.6525 17.5898 18.4974 17.5589 18.3527 17.4989C18.208 17.439 18.0766 17.3511 17.9659 17.2403C17.8552 17.1295 17.7674 16.998 17.7075 16.8532C17.6477 16.7085 17.617 16.5534 17.6171 16.3968C17.6171 16.0808 17.7425 15.7777 17.9659 15.5542ZM25.1692 15.5539C25.3928 15.3303 25.696 15.2048 26.0121 15.2048C26.3282 15.2048 26.6314 15.3303 26.855 15.5539C27.0785 15.7774 27.2041 16.0806 27.2041 16.3968C27.2042 16.5534 27.1735 16.7085 27.1136 16.8532C27.0538 16.998 26.966 17.1295 26.8553 17.2403C26.7446 17.3511 26.6132 17.439 26.4685 17.4989C26.3238 17.5589 26.1687 17.5898 26.0121 17.5898C25.8555 17.5898 25.7004 17.5589 25.5557 17.4989C25.411 17.439 25.2796 17.3511 25.1689 17.2403C25.0582 17.1295 24.9704 16.998 24.9105 16.8532C24.8507 16.7085 24.82 16.5534 24.8201 16.3968C24.8201 16.0806 24.9457 15.7774 25.1692 15.5539ZM18.3476 20.0452C18.4359 19.9976 18.5348 19.973 18.6351 19.9738C18.7488 19.978 18.8594 20.0124 18.9553 20.0736C19.0513 20.1348 19.1292 20.2204 19.1811 20.3217C19.4717 20.9389 19.9321 21.4604 20.5084 21.8254C21.0847 22.1904 21.753 22.3837 22.4351 22.3827C23.1173 22.3839 23.7856 22.1906 24.3619 21.8256C24.9382 21.4606 25.3986 20.9389 25.6891 20.3217C25.7315 20.2185 25.8037 20.1302 25.8965 20.0682C25.9893 20.0063 26.0985 19.9734 26.2101 19.9738H26.2351C26.3355 19.9728 26.4345 19.9973 26.523 20.0448C26.6114 20.0924 26.6864 20.1616 26.7409 20.2458C26.7955 20.3301 26.8279 20.4269 26.8351 20.527C26.8423 20.6272 26.824 20.7275 26.7821 20.8188C26.3971 21.6459 25.7829 22.3453 25.0124 22.834C24.2419 23.3226 23.3475 23.5801 22.4351 23.5758C21.524 23.5747 20.632 23.315 19.8626 22.827C19.0933 22.3389 18.4783 21.6425 18.0891 20.8188C18.0472 20.7276 18.0289 20.6273 18.0361 20.5273C18.0432 20.4272 18.0755 20.3305 18.13 20.2463C18.1844 20.162 18.2593 20.0928 18.3476 20.0452Z" fill="white"/>
<path d="M21.218 8C17.915 8 14.835 9.49 12.723 12.148C11.208 14.061 10.413 16.42 10.413 18.854V20.593C10.413 21.487 9.793 22.331 8.551 22.406C8.253 22.431 8.004 22.63 8.004 22.928C7.954 23.748 8.824 25.238 10.016 26.43C10.836 27.274 11.804 27.945 12.848 28.466C12.7708 28.898 12.7892 29.3416 12.9021 29.7657C13.015 30.1898 13.2196 30.5839 13.5013 30.9203C13.7831 31.2567 14.1353 31.5272 14.5329 31.7127C14.9306 31.8983 15.3642 31.9943 15.803 31.994C16.4926 31.9992 17.1625 31.764 17.6975 31.3287C18.2324 30.8934 18.5989 30.2853 18.734 29.609H21.243C21.566 31.298 23.329 32.465 25.217 31.819C26.857 31.273 27.577 29.41 26.98 27.895C27.6362 27.4639 28.2514 26.9735 28.818 26.43C29.8286 25.4293 30.6302 24.2376 31.1761 22.9243C31.722 21.611 32.0014 20.2022 31.998 18.78C31.998 15.898 30.88 13.191 28.843 11.155C26.8131 9.14461 24.0749 8.01164 21.218 8ZM21.218 9.217C23.776 9.217 26.185 10.211 27.998 12.024C28.8909 12.9124 29.5988 13.969 30.0806 15.1328C30.5624 16.2966 30.8087 17.5444 30.805 18.804C30.809 20.0636 30.5631 21.3115 30.0817 22.4754C29.6002 23.6394 28.8927 24.6963 28 25.585C26.198 27.3772 23.7615 28.386 21.22 28.392H18.76C18.6227 27.7149 18.2564 27.1057 17.7229 26.6668C17.1893 26.228 16.5209 25.9861 15.83 25.982C15.3274 25.9818 14.8326 26.1067 14.3903 26.3453C13.9479 26.5839 13.5719 26.9289 13.296 27.349V27.373C12.3977 26.917 11.5829 26.3125 10.886 25.585C10.042 24.741 9.57 23.971 9.371 23.475C9.92489 23.3429 10.4267 23.0483 10.812 22.629C11.3271 22.0767 11.6116 21.3483 11.607 20.593V18.804C11.607 16.694 12.303 14.607 13.619 12.943C15.482 10.558 18.238 9.217 21.218 9.217ZM18.808 15.203C18.492 15.2033 18.1891 15.329 17.9658 15.5525C17.7425 15.776 17.617 16.079 17.617 16.395C17.6169 16.5516 17.6476 16.7067 17.7075 16.8515C17.7673 16.9962 17.8551 17.1277 17.9658 17.2385C18.0765 17.3493 18.2079 17.4372 18.3526 17.4972C18.4973 17.5571 18.6524 17.588 18.809 17.588C18.9655 17.5879 19.1205 17.5569 19.2651 17.4969C19.4097 17.4369 19.541 17.3489 19.6516 17.2382C19.7622 17.1274 19.8499 16.9959 19.9096 16.8512C19.9694 16.7066 20.0001 16.5515 20 16.395C20 16.0789 19.8744 15.7757 19.6509 15.5521C19.4273 15.3286 19.1241 15.203 18.808 15.203ZM26.012 15.203C25.6959 15.203 25.3927 15.3286 25.1691 15.5521C24.9456 15.7757 24.82 16.0789 24.82 16.395C24.8199 16.5516 24.8506 16.7067 24.9105 16.8515C24.9703 16.9962 25.0581 17.1277 25.1688 17.2385C25.2795 17.3493 25.4109 17.4372 25.5556 17.4972C25.7003 17.5571 25.8554 17.588 26.012 17.588C26.1686 17.588 26.3237 17.5571 26.4684 17.4972C26.6131 17.4372 26.7445 17.3493 26.8552 17.2385C26.9659 17.1277 27.0537 16.9962 27.1136 16.8515C27.1734 16.7067 27.2041 16.5516 27.204 16.395C27.204 16.0789 27.0784 15.7757 26.8549 15.5521C26.6313 15.3286 26.3281 15.203 26.012 15.203ZM18.635 19.972C18.5347 19.9712 18.4358 19.9958 18.3475 20.0435C18.2592 20.0911 18.1843 20.1603 18.1299 20.2445C18.0754 20.3288 18.0432 20.4254 18.036 20.5255C18.0289 20.6256 18.0471 20.7258 18.089 20.817C18.4782 21.6408 19.0932 22.3372 19.8625 22.8252C20.6319 23.3132 21.5239 23.5729 22.435 23.574C23.3474 23.5783 24.2418 23.3209 25.0123 22.8322C25.7828 22.3435 26.397 21.6442 26.782 20.817C26.824 20.7258 26.8422 20.6254 26.835 20.5253C26.8278 20.4251 26.7954 20.3284 26.7408 20.2441C26.6863 20.1598 26.6113 20.0907 26.5229 20.0431C26.4344 19.9955 26.3354 19.9711 26.235 19.972H26.21C26.0984 19.9716 25.9892 20.0045 25.8964 20.0665C25.8036 20.1285 25.7314 20.2167 25.689 20.32C25.3985 20.9372 24.9381 21.4588 24.3618 21.8238C23.7855 22.1889 23.1172 22.3821 22.435 22.381C21.7529 22.382 21.0846 22.1887 20.5083 21.8237C19.932 21.4587 19.4716 20.9371 19.181 20.32C19.1292 20.2187 19.0512 20.133 18.9553 20.0719C18.8593 20.0107 18.7487 19.9762 18.635 19.972Z" fill="black"/>
</g>
<defs>
<clipPath id="clip0">
<rect width="24" height="24" fill="white" transform="translate(8 8)"/>
</clipPath>
</defs>
</svg>
