<svg width="274" height="168" viewBox="0 0 274 168" fill="none" xmlns="http://www.w3.org/2000/svg">
<path opacity="0.2" d="M198.603 159.289C198.603 164.091 171.009 167.998 136.904 167.998C102.88 167.998 75.2051 164.091 75.2051 159.289C75.2051 154.486 102.799 150.579 136.904 150.579C171.009 150.498 198.603 154.405 198.603 159.289Z" fill="#FFAC80"/>
<path d="M254.928 131.456C254.928 134.305 252.568 136.584 249.8 136.584H24.2491C21.4002 136.584 19.1211 134.224 19.1211 131.456V5.12802C19.1211 2.27912 21.4816 0 24.2491 0H249.8C252.649 0 254.928 2.36051 254.928 5.12802V131.456Z" fill="#FFD5BF"/>
<path d="M249.719 0H24.2491C21.4002 0 19.1211 2.36051 19.1211 5.12801V18.2329H254.928V5.12801C254.928 2.36051 252.568 0 249.719 0Z" fill="#FE8442"/>
<path d="M254.93 17.9961H19.041V22.0659H254.93V17.9961Z" fill="#FE8442"/>
<path d="M216.266 11.2494C216.266 12.5518 215.207 13.6913 213.824 13.6913H65.0298C63.7275 13.6913 62.5879 12.5518 62.5879 11.2494V7.09816C62.5879 5.79581 63.7275 4.65625 65.0298 4.65625H213.742C215.126 4.65625 216.184 5.79581 216.184 7.09816V11.2494H216.266Z" fill="#FFD5BF"/>
<path d="M243.615 11.2494C243.615 12.5518 242.557 13.6913 241.173 13.6913H225.463C224.08 13.6913 223.021 12.5518 223.021 11.2494V7.09816C223.021 5.79581 224.08 4.65625 225.463 4.65625H241.173C242.557 4.65625 243.615 5.79581 243.615 7.09816V11.2494Z" fill="#FFD5BF"/>
<path d="M35.2409 9.12434C35.2409 10.8337 33.8571 12.2174 32.1478 12.2174C30.4384 12.2174 29.0547 10.8337 29.0547 9.12434C29.0547 7.415 30.4384 6.03125 32.1478 6.03125C33.8571 6.03125 35.2409 7.415 35.2409 9.12434Z" fill="#FFD5BF"/>
<path d="M44.362 9.12434C44.362 10.8337 42.9782 12.2174 41.2689 12.2174C39.5595 12.2174 38.1758 10.8337 38.1758 9.12434C38.1758 7.415 39.5595 6.03125 41.2689 6.03125C42.9782 6.03125 44.362 7.415 44.362 9.12434Z" fill="#FFD5BF"/>
<path d="M53.5495 9.12434C53.5495 10.8337 52.1657 12.2174 50.4564 12.2174C48.747 12.2174 47.3633 10.8337 47.3633 9.12434C47.3633 7.415 48.747 6.03125 50.4564 6.03125C52.1657 6.03125 53.5495 7.415 53.5495 9.12434Z" fill="#FFD5BF"/>
<path d="M71.3773 77.0847L60.3887 67.3984" stroke="#FE8442" stroke-width="4" stroke-miterlimit="10" stroke-linecap="round"/>
<path d="M70.7234 66.75L61.0371 77.7386" stroke="#FE8442" stroke-width="4" stroke-miterlimit="10" stroke-linecap="round"/>
<path d="M213.58 77.0847L202.592 67.3984" stroke="#FE8442" stroke-width="4" stroke-miterlimit="10" stroke-linecap="round"/>
<path d="M212.926 66.75L203.24 77.7386" stroke="#FE8442" stroke-width="4" stroke-miterlimit="10" stroke-linecap="round"/>
<path d="M5.21208 91.3308H2.85156C2.85156 82.3771 10.0959 75.1328 19.0496 75.1328V77.4933C11.3983 77.4933 5.21208 83.6795 5.21208 91.3308Z" fill="#FFD5BF"/>
<path d="M7.97691 94.1056C7.97691 96.3034 6.18618 98.0941 3.98846 98.0941C1.79074 98.0941 0 96.3034 0 94.1056C0 91.9079 1.79074 90.1172 3.98846 90.1172C6.18618 90.1172 7.97691 91.9079 7.97691 94.1056Z" fill="#FFD5BF"/>
<path d="M4.07374 101.021C3.66675 101.021 3.25977 100.696 3.25977 100.208V95.5679C3.25977 95.1609 3.58535 94.7539 4.07374 94.7539C4.48072 94.7539 4.88771 95.0795 4.88771 95.5679V100.208C4.88771 100.696 4.48072 101.021 4.07374 101.021Z" fill="#FFD5BF"/>
<path d="M6.67335 101.021C6.26636 101.021 5.85938 100.696 5.85938 100.208V95.5679C5.85938 95.1609 6.18496 94.7539 6.67335 94.7539C7.08033 94.7539 7.48732 95.0795 7.48732 95.5679V100.208C7.48732 100.696 7.08033 101.021 6.67335 101.021Z" fill="#FFD5BF"/>
<path d="M1.46436 101.021C1.05738 101.021 0.650391 100.696 0.650391 100.208V95.5679C0.650391 95.1609 0.975979 94.7539 1.46436 94.7539C1.87135 94.7539 2.27833 95.0795 2.27833 95.5679V100.208C2.19693 100.696 1.87135 101.021 1.46436 101.021Z" fill="#FFD5BF"/>
<path d="M9.60242 97.1879C9.43963 97.1879 9.19544 97.1065 9.03264 96.9437L5.69536 93.6064C5.36977 93.2808 5.36977 92.7924 5.69536 92.4668C6.02095 92.1413 6.50933 92.1413 6.83492 92.4668L10.1722 95.8041C10.4978 96.1297 10.4978 96.6181 10.1722 96.9437C10.0094 97.1065 9.84661 97.1879 9.60242 97.1879Z" fill="#FFD5BF"/>
<path d="M271.132 91.3308H268.771C268.771 83.6795 262.585 77.4933 254.934 77.4933V75.1328C263.806 75.1328 271.132 82.3771 271.132 91.3308Z" fill="#FFD5BF"/>
<path d="M266.004 94.1056C266.004 96.3034 267.795 98.0941 269.992 98.0941C272.19 98.0941 273.981 96.3034 273.981 94.1056C273.981 91.9079 272.19 90.1172 269.992 90.1172C267.713 90.1172 266.004 91.9079 266.004 94.1056Z" fill="#FFD5BF"/>
<path d="M269.912 101.021C269.505 101.021 269.098 100.696 269.098 100.208V95.5679C269.098 95.1609 269.423 94.7539 269.912 94.7539C270.319 94.7539 270.726 95.0795 270.726 95.5679V100.208C270.726 100.696 270.319 101.021 269.912 101.021Z" fill="#FFD5BF"/>
<path d="M267.304 101.021C266.897 101.021 266.49 100.696 266.49 100.208V95.5679C266.49 95.1609 266.816 94.7539 267.304 94.7539C267.711 94.7539 268.118 95.0795 268.118 95.5679V100.208C268.037 100.696 267.711 101.021 267.304 101.021Z" fill="#FFD5BF"/>
<path d="M272.511 101.021C272.104 101.021 271.697 100.696 271.697 100.208V95.5679C271.697 95.1609 272.023 94.7539 272.511 94.7539C272.918 94.7539 273.325 95.0795 273.325 95.5679V100.208C273.325 100.696 272.918 101.021 272.511 101.021Z" fill="#FFD5BF"/>
<path d="M264.298 97.1918C264.136 97.1918 263.891 97.1104 263.729 96.9476C263.403 96.622 263.403 96.1336 263.729 95.808L267.066 92.4708C267.391 92.1452 267.88 92.1452 268.205 92.4708C268.531 92.7963 268.531 93.2847 268.205 93.6103L264.868 96.9476C264.705 97.1104 264.543 97.1918 264.298 97.1918Z" fill="#FFD5BF"/>
<path d="M98.1691 136.668H95.8086V158.971H98.1691V136.668Z" fill="#FFD5BF"/>
<path d="M98.1639 158.973C98.1639 155.635 95.4778 152.949 92.1406 152.949C88.8033 152.949 86.1172 155.635 86.1172 158.973H98.1639Z" fill="#FFD5BF"/>
<path d="M178.175 136.668H175.814V158.971H178.175V136.668Z" fill="#FFD5BF"/>
<path d="M175.814 158.973C175.814 155.635 178.501 152.949 181.838 152.949C185.175 152.949 187.861 155.635 187.861 158.973H175.814Z" fill="#FFD5BF"/>
<path d="M110.129 93.9336H163.851" stroke="#FE8442" stroke-width="4" stroke-miterlimit="10" stroke-linecap="round"/>
</svg>
