<svg width="33" height="32" viewBox="0 0 33 32" fill="none" xmlns="http://www.w3.org/2000/svg">
<path d="M7.40656 6.90656L13.0599 12.5599M20.6067 20.1067L26.26 25.76M26.26 6.90656L20.6067 12.5599L25.3134 7.85322M7.40656 25.76L13.0599 20.1067M30.1667 16.3333C30.1667 23.6971 24.1971 29.6667 16.8333 29.6667C9.46954 29.6667 3.5 23.6971 3.5 16.3333C3.5 8.96954 9.46954 3 16.8333 3C24.1971 3 30.1667 8.96954 30.1667 16.3333ZM22.1667 16.3333C22.1667 19.2789 19.7789 21.6667 16.8333 21.6667C13.8878 21.6667 11.5 19.2789 11.5 16.3333C11.5 13.3878 13.8878 11 16.8333 11C19.7789 11 22.1667 13.3878 22.1667 16.3333Z" stroke="#FE5900" stroke-width="2" stroke-linecap="round" stroke-linejoin="round"/>
</svg>
