<svg width="25" height="25" viewBox="0 0 25 25" fill="none" xmlns="http://www.w3.org/2000/svg">
<path d="M15.8059 8.36719L19.3059 4.86719M21.3059 2.86719L19.3059 4.86719L21.3059 2.86719ZM11.6959 12.4772C12.2123 12.9867 12.6227 13.5932 12.9037 14.262C13.1846 14.9307 13.3305 15.6485 13.333 16.3738C13.3354 17.0992 13.1943 17.8179 12.9179 18.4885C12.6414 19.1591 12.235 19.7684 11.7221 20.2813C11.2092 20.7942 10.5999 21.2006 9.92924 21.4771C9.25862 21.7536 8.53994 21.8946 7.81457 21.8922C7.0892 21.8898 6.37148 21.7439 5.70273 21.4629C5.03398 21.182 4.42741 20.7715 3.91794 20.2552C2.91607 19.2179 2.3617 17.8286 2.37423 16.3865C2.38676 14.9444 2.96519 13.5649 3.98494 12.5452C5.00468 11.5254 6.38415 10.947 7.82623 10.9345C9.26831 10.9219 10.6576 11.4763 11.6949 12.4782L11.6959 12.4772ZM11.6959 12.4772L15.8059 8.36719L11.6959 12.4772ZM15.8059 8.36719L18.8059 11.3672L22.3059 7.86719L19.3059 4.86719L15.8059 8.36719Z" stroke="#809097" stroke-width="1.6" stroke-linecap="round" stroke-linejoin="round"/>
</svg>
