<svg width="25" height="24" viewBox="0 0 25 24" fill="none" xmlns="http://www.w3.org/2000/svg">
<path d="M14.0298 20.5C13.854 20.8031 13.6017 21.0547 13.298 21.2295C12.9944 21.4044 12.6502 21.4965 12.2998 21.4965C11.9494 21.4965 11.6052 21.4044 11.3016 21.2295C10.998 21.0547 10.7456 20.8031 10.5698 20.5M18.2998 8C18.2998 6.4087 17.6677 4.88258 16.5424 3.75736C15.4172 2.63214 13.8911 2 12.2998 2C10.7085 2 9.18238 2.63214 8.05716 3.75736C6.93195 4.88258 6.2998 6.4087 6.2998 8C6.2998 15 3.2998 17 3.2998 17H21.2998C21.2998 17 18.2998 15 18.2998 8Z" stroke="#415962" stroke-width="2" stroke-linecap="round" stroke-linejoin="round"/>
</svg>
