<svg width="157" height="157" viewBox="0 0 157 157" fill="none" xmlns="http://www.w3.org/2000/svg">
<path d="M157 0H0V157H157V0Z" fill="white"/>
<path d="M46.6749 8.48828H42.4316V12.7316H46.6749V8.48828Z" fill="black"/>
<path d="M50.9191 8.48828H46.6758V12.7316H50.9191V8.48828Z" fill="black"/>
<path d="M55.1611 8.48828H50.918V12.7316H55.1611V8.48828Z" fill="black"/>
<path d="M59.4053 8.48828H55.1621V12.7316H59.4053V8.48828Z" fill="black"/>
<path d="M67.8917 8.48828H63.6484V12.7316H67.8917V8.48828Z" fill="black"/>
<path d="M84.8643 8.48828H80.6211V12.7316H84.8643V8.48828Z" fill="black"/>
<path d="M89.1065 8.48828H84.8633V12.7316H89.1065V8.48828Z" fill="black"/>
<path d="M93.3526 8.48828H89.1094V12.7316H93.3526V8.48828Z" fill="black"/>
<path d="M97.5948 8.48828H93.3516V12.7316H97.5948V8.48828Z" fill="black"/>
<path d="M101.839 8.48828H97.5957V12.7316H101.839V8.48828Z" fill="black"/>
<path d="M110.325 8.48828H106.082V12.7316H110.325V8.48828Z" fill="black"/>
<path d="M46.6749 12.7344H42.4316V16.9776H46.6749V12.7344Z" fill="black"/>
<path d="M50.9191 12.7344H46.6758V16.9776H50.9191V12.7344Z" fill="black"/>
<path d="M59.4053 12.7344H55.1621V16.9776H59.4053V12.7344Z" fill="black"/>
<path d="M63.6475 12.7344H59.4043V16.9776H63.6475V12.7344Z" fill="black"/>
<path d="M67.8917 12.7344H63.6484V16.9776H67.8917V12.7344Z" fill="black"/>
<path d="M89.1065 12.7344H84.8633V16.9776H89.1065V12.7344Z" fill="black"/>
<path d="M101.839 12.7344H97.5957V16.9776H101.839V12.7344Z" fill="black"/>
<path d="M106.081 12.7344H101.838V16.9776H106.081V12.7344Z" fill="black"/>
<path d="M110.325 12.7344H106.082V16.9776H110.325V12.7344Z" fill="black"/>
<path d="M55.1611 16.9766H50.918V21.2198H55.1611V16.9766Z" fill="black"/>
<path d="M63.6475 16.9766H59.4043V21.2198H63.6475V16.9766Z" fill="black"/>
<path d="M80.6202 16.9766H76.377V21.2198H80.6202V16.9766Z" fill="black"/>
<path d="M84.8643 16.9766H80.6211V21.2198H84.8643V16.9766Z" fill="black"/>
<path d="M97.5948 16.9766H93.3516V21.2198H97.5948V16.9766Z" fill="black"/>
<path d="M110.325 16.9766H106.082V21.2198H110.325V16.9766Z" fill="black"/>
<path d="M114.567 16.9766H110.324V21.2198H114.567V16.9766Z" fill="black"/>
<path d="M46.6749 21.2188H42.4316V25.4621H46.6749V21.2188Z" fill="black"/>
<path d="M50.9191 21.2188H46.6758V25.4621H50.9191V21.2188Z" fill="black"/>
<path d="M59.4053 21.2188H55.1621V25.4621H59.4053V21.2188Z" fill="black"/>
<path d="M63.6475 21.2188H59.4043V25.4621H63.6475V21.2188Z" fill="black"/>
<path d="M72.1339 21.2188H67.8906V25.4621H72.1339V21.2188Z" fill="black"/>
<path d="M76.378 21.2188H72.1348V25.4621H76.378V21.2188Z" fill="black"/>
<path d="M80.6202 21.2188H76.377V25.4621H80.6202V21.2188Z" fill="black"/>
<path d="M93.3526 21.2188H89.1094V25.4621H93.3526V21.2188Z" fill="black"/>
<path d="M97.5948 21.2188H93.3516V25.4621H97.5948V21.2188Z" fill="black"/>
<path d="M110.325 21.2188H106.082V25.4621H110.325V21.2188Z" fill="black"/>
<path d="M50.9191 25.4609H46.6758V29.7041H50.9191V25.4609Z" fill="black"/>
<path d="M59.4053 25.4609H55.1621V29.7041H59.4053V25.4609Z" fill="black"/>
<path d="M63.6475 25.4609H59.4043V29.7041H63.6475V25.4609Z" fill="black"/>
<path d="M67.8917 25.4609H63.6484V29.7041H67.8917V25.4609Z" fill="black"/>
<path d="M72.1339 25.4609H67.8906V29.7041H72.1339V25.4609Z" fill="black"/>
<path d="M97.5948 25.4609H93.3516V29.7041H97.5948V25.4609Z" fill="black"/>
<path d="M106.081 25.4609H101.838V29.7041H106.081V25.4609Z" fill="black"/>
<path d="M55.1611 29.707H50.918V33.9503H55.1611V29.707Z" fill="black"/>
<path d="M59.4053 29.707H55.1621V33.9503H59.4053V29.707Z" fill="black"/>
<path d="M63.6475 29.707H59.4043V33.9503H63.6475V29.707Z" fill="black"/>
<path d="M72.1339 29.707H67.8906V33.9503H72.1339V29.707Z" fill="black"/>
<path d="M89.1065 29.707H84.8633V33.9503H89.1065V29.707Z" fill="black"/>
<path d="M93.3526 29.707H89.1094V33.9503H93.3526V29.707Z" fill="black"/>
<path d="M97.5948 29.707H93.3516V33.9503H97.5948V29.707Z" fill="black"/>
<path d="M106.081 29.707H101.838V33.9503H106.081V29.707Z" fill="black"/>
<path d="M46.6749 33.9492H42.4316V38.1925H46.6749V33.9492Z" fill="black"/>
<path d="M55.1611 33.9492H50.918V38.1925H55.1611V33.9492Z" fill="black"/>
<path d="M63.6475 33.9492H59.4043V38.1925H63.6475V33.9492Z" fill="black"/>
<path d="M72.1339 33.9492H67.8906V38.1925H72.1339V33.9492Z" fill="black"/>
<path d="M80.6202 33.9492H76.377V38.1925H80.6202V33.9492Z" fill="black"/>
<path d="M89.1065 33.9492H84.8633V38.1925H89.1065V33.9492Z" fill="black"/>
<path d="M97.5948 33.9492H93.3516V38.1925H97.5948V33.9492Z" fill="black"/>
<path d="M106.081 33.9492H101.838V38.1925H106.081V33.9492Z" fill="black"/>
<path d="M114.567 33.9492H110.324V38.1925H114.567V33.9492Z" fill="black"/>
<path d="M46.6749 38.1914H42.4316V42.4346H46.6749V38.1914Z" fill="black"/>
<path d="M50.9191 38.1914H46.6758V42.4346H50.9191V38.1914Z" fill="black"/>
<path d="M55.1611 38.1914H50.918V42.4346H55.1611V38.1914Z" fill="black"/>
<path d="M63.6475 38.1914H59.4043V42.4346H63.6475V38.1914Z" fill="black"/>
<path d="M84.8643 38.1914H80.6211V42.4346H84.8643V38.1914Z" fill="black"/>
<path d="M89.1065 38.1914H84.8633V42.4346H89.1065V38.1914Z" fill="black"/>
<path d="M97.5948 38.1914H93.3516V42.4346H97.5948V38.1914Z" fill="black"/>
<path d="M106.081 38.1914H101.838V42.4346H106.081V38.1914Z" fill="black"/>
<path d="M110.325 38.1914H106.082V42.4346H110.325V38.1914Z" fill="black"/>
<path d="M12.7296 42.4336H8.48633V46.6768H12.7296V42.4336Z" fill="black"/>
<path d="M21.2159 42.4336H16.9727V46.6768H21.2159V42.4336Z" fill="black"/>
<path d="M25.4601 42.4336H21.2168V46.6768H25.4601V42.4336Z" fill="black"/>
<path d="M33.9464 42.4336H29.7031V46.6768H33.9464V42.4336Z" fill="black"/>
<path d="M38.1886 42.4336H33.9453V46.6768H38.1886V42.4336Z" fill="black"/>
<path d="M42.4327 42.4336H38.1895V46.6768H42.4327V42.4336Z" fill="black"/>
<path d="M50.9191 42.4336H46.6758V46.6768H50.9191V42.4336Z" fill="black"/>
<path d="M55.1611 42.4336H50.918V46.6768H55.1611V42.4336Z" fill="black"/>
<path d="M63.6475 42.4336H59.4043V46.6768H63.6475V42.4336Z" fill="black"/>
<path d="M72.1339 42.4336H67.8906V46.6768H72.1339V42.4336Z" fill="black"/>
<path d="M84.8643 42.4336H80.6211V46.6768H84.8643V42.4336Z" fill="black"/>
<path d="M93.3526 42.4336H89.1094V46.6768H93.3526V42.4336Z" fill="black"/>
<path d="M101.839 42.4336H97.5957V46.6768H101.839V42.4336Z" fill="black"/>
<path d="M110.325 42.4336H106.082V46.6768H110.325V42.4336Z" fill="black"/>
<path d="M123.054 42.4336H118.811V46.6768H123.054V42.4336Z" fill="black"/>
<path d="M135.784 42.4336H131.541V46.6768H135.784V42.4336Z" fill="black"/>
<path d="M144.271 42.4336H140.027V46.6768H144.271V42.4336Z" fill="black"/>
<path d="M148.513 42.4336H144.27V46.6768H148.513V42.4336Z" fill="black"/>
<path d="M16.9737 46.6797H12.7305V50.923H16.9737V46.6797Z" fill="black"/>
<path d="M33.9464 46.6797H29.7031V50.923H33.9464V46.6797Z" fill="black"/>
<path d="M42.4327 46.6797H38.1895V50.923H42.4327V46.6797Z" fill="black"/>
<path d="M50.9191 46.6797H46.6758V50.923H50.9191V46.6797Z" fill="black"/>
<path d="M55.1611 46.6797H50.918V50.923H55.1611V46.6797Z" fill="black"/>
<path d="M59.4053 46.6797H55.1621V50.923H59.4053V46.6797Z" fill="black"/>
<path d="M63.6475 46.6797H59.4043V50.923H63.6475V46.6797Z" fill="black"/>
<path d="M80.6202 46.6797H76.377V50.923H80.6202V46.6797Z" fill="black"/>
<path d="M89.1065 46.6797H84.8633V50.923H89.1065V46.6797Z" fill="black"/>
<path d="M93.3526 46.6797H89.1094V50.923H93.3526V46.6797Z" fill="black"/>
<path d="M97.5948 46.6797H93.3516V50.923H97.5948V46.6797Z" fill="black"/>
<path d="M101.839 46.6797H97.5957V50.923H101.839V46.6797Z" fill="black"/>
<path d="M106.081 46.6797H101.838V50.923H106.081V46.6797Z" fill="black"/>
<path d="M110.325 46.6797H106.082V50.923H110.325V46.6797Z" fill="black"/>
<path d="M114.567 46.6797H110.324V50.923H114.567V46.6797Z" fill="black"/>
<path d="M123.054 46.6797H118.811V50.923H123.054V46.6797Z" fill="black"/>
<path d="M127.298 46.6797H123.055V50.923H127.298V46.6797Z" fill="black"/>
<path d="M135.784 46.6797H131.541V50.923H135.784V46.6797Z" fill="black"/>
<path d="M140.026 46.6797H135.783V50.923H140.026V46.6797Z" fill="black"/>
<path d="M144.271 46.6797H140.027V50.923H144.271V46.6797Z" fill="black"/>
<path d="M148.513 46.6797H144.27V50.923H148.513V46.6797Z" fill="black"/>
<path d="M12.7296 50.9219H8.48633V55.165H12.7296V50.9219Z" fill="black"/>
<path d="M21.2159 50.9219H16.9727V55.165H21.2159V50.9219Z" fill="black"/>
<path d="M25.4601 50.9219H21.2168V55.165H25.4601V50.9219Z" fill="black"/>
<path d="M29.7022 50.9219H25.459V55.165H29.7022V50.9219Z" fill="black"/>
<path d="M38.1886 50.9219H33.9453V55.165H38.1886V50.9219Z" fill="black"/>
<path d="M42.4327 50.9219H38.1895V55.165H42.4327V50.9219Z" fill="black"/>
<path d="M46.6749 50.9219H42.4316V55.165H46.6749V50.9219Z" fill="black"/>
<path d="M55.1611 50.9219H50.918V55.165H55.1611V50.9219Z" fill="black"/>
<path d="M63.6475 50.9219H59.4043V55.165H63.6475V50.9219Z" fill="black"/>
<path d="M72.1339 50.9219H67.8906V55.165H72.1339V50.9219Z" fill="black"/>
<path d="M84.8643 50.9219H80.6211V55.165H84.8643V50.9219Z" fill="black"/>
<path d="M101.839 50.9219H97.5957V55.165H101.839V50.9219Z" fill="black"/>
<path d="M106.081 50.9219H101.838V55.165H106.081V50.9219Z" fill="black"/>
<path d="M110.325 50.9219H106.082V55.165H110.325V50.9219Z" fill="black"/>
<path d="M114.567 50.9219H110.324V55.165H114.567V50.9219Z" fill="black"/>
<path d="M127.298 50.9219H123.055V55.165H127.298V50.9219Z" fill="black"/>
<path d="M131.54 50.9219H127.297V55.165H131.54V50.9219Z" fill="black"/>
<path d="M135.784 50.9219H131.541V55.165H135.784V50.9219Z" fill="black"/>
<path d="M144.271 50.9219H140.027V55.165H144.271V50.9219Z" fill="black"/>
<path d="M148.513 50.9219H144.27V55.165H148.513V50.9219Z" fill="black"/>
<path d="M12.7296 55.1641H8.48633V59.4073H12.7296V55.1641Z" fill="black"/>
<path d="M16.9737 55.1641H12.7305V59.4073H16.9737V55.1641Z" fill="black"/>
<path d="M21.2159 55.1641H16.9727V59.4073H21.2159V55.1641Z" fill="black"/>
<path d="M25.4601 55.1641H21.2168V59.4073H25.4601V55.1641Z" fill="black"/>
<path d="M29.7022 55.1641H25.459V59.4073H29.7022V55.1641Z" fill="black"/>
<path d="M55.1611 55.1641H50.918V59.4073H55.1611V55.1641Z" fill="black"/>
<path d="M59.4053 55.1641H55.1621V59.4073H59.4053V55.1641Z" fill="black"/>
<path d="M63.6475 55.1641H59.4043V59.4073H63.6475V55.1641Z" fill="black"/>
<path d="M67.8917 55.1641H63.6484V59.4073H67.8917V55.1641Z" fill="black"/>
<path d="M72.1339 55.1641H67.8906V59.4073H72.1339V55.1641Z" fill="black"/>
<path d="M80.6202 55.1641H76.377V59.4073H80.6202V55.1641Z" fill="black"/>
<path d="M89.1065 55.1641H84.8633V59.4073H89.1065V55.1641Z" fill="black"/>
<path d="M106.081 55.1641H101.838V59.4073H106.081V55.1641Z" fill="black"/>
<path d="M110.325 55.1641H106.082V59.4073H110.325V55.1641Z" fill="black"/>
<path d="M127.298 55.1641H123.055V59.4073H127.298V55.1641Z" fill="black"/>
<path d="M135.784 55.1641H131.541V59.4073H135.784V55.1641Z" fill="black"/>
<path d="M12.7296 59.4062H8.48633V63.6495H12.7296V59.4062Z" fill="black"/>
<path d="M29.7022 59.4062H25.459V63.6495H29.7022V59.4062Z" fill="black"/>
<path d="M33.9464 59.4062H29.7031V63.6495H33.9464V59.4062Z" fill="black"/>
<path d="M38.1886 59.4062H33.9453V63.6495H38.1886V59.4062Z" fill="black"/>
<path d="M46.6749 59.4062H42.4316V63.6495H46.6749V59.4062Z" fill="black"/>
<path d="M55.1611 59.4062H50.918V63.6495H55.1611V59.4062Z" fill="black"/>
<path d="M59.4053 59.4062H55.1621V63.6495H59.4053V59.4062Z" fill="black"/>
<path d="M76.378 59.4062H72.1348V63.6495H76.378V59.4062Z" fill="black"/>
<path d="M89.1065 59.4062H84.8633V63.6495H89.1065V59.4062Z" fill="black"/>
<path d="M118.812 59.4062H114.568V63.6495H118.812V59.4062Z" fill="black"/>
<path d="M127.298 59.4062H123.055V63.6495H127.298V59.4062Z" fill="black"/>
<path d="M131.54 59.4062H127.297V63.6495H131.54V59.4062Z" fill="black"/>
<path d="M135.784 59.4062H131.541V63.6495H135.784V59.4062Z" fill="black"/>
<path d="M148.513 59.4062H144.27V63.6495H148.513V59.4062Z" fill="black"/>
<path d="M12.7296 63.6523H8.48633V67.8956H12.7296V63.6523Z" fill="black"/>
<path d="M16.9737 63.6523H12.7305V67.8956H16.9737V63.6523Z" fill="black"/>
<path d="M29.7022 63.6523H25.459V67.8956H29.7022V63.6523Z" fill="black"/>
<path d="M33.9464 63.6523H29.7031V67.8956H33.9464V63.6523Z" fill="black"/>
<path d="M42.4327 63.6523H38.1895V67.8956H42.4327V63.6523Z" fill="black"/>
<path d="M50.9191 63.6523H46.6758V67.8956H50.9191V63.6523Z" fill="black"/>
<path d="M55.1611 63.6523H50.918V67.8956H55.1611V63.6523Z" fill="black"/>
<path d="M63.6475 63.6523H59.4043V67.8956H63.6475V63.6523Z" fill="black"/>
<path d="M80.6202 63.6523H76.377V67.8956H80.6202V63.6523Z" fill="black"/>
<path d="M89.1065 63.6523H84.8633V67.8956H89.1065V63.6523Z" fill="black"/>
<path d="M106.081 63.6523H101.838V67.8956H106.081V63.6523Z" fill="black"/>
<path d="M127.298 63.6523H123.055V67.8956H127.298V63.6523Z" fill="black"/>
<path d="M135.784 63.6523H131.541V67.8956H135.784V63.6523Z" fill="black"/>
<path d="M144.271 63.6523H140.027V67.8956H144.271V63.6523Z" fill="black"/>
<path d="M16.9737 67.8945H12.7305V72.1378H16.9737V67.8945Z" fill="black"/>
<path d="M21.2159 67.8945H16.9727V72.1378H21.2159V67.8945Z" fill="black"/>
<path d="M29.7022 67.8945H25.459V72.1378H29.7022V67.8945Z" fill="black"/>
<path d="M33.9464 67.8945H29.7031V72.1378H33.9464V67.8945Z" fill="black"/>
<path d="M38.1886 67.8945H33.9453V72.1378H38.1886V67.8945Z" fill="black"/>
<path d="M46.6749 67.8945H42.4316V72.1378H46.6749V67.8945Z" fill="black"/>
<path d="M50.9191 67.8945H46.6758V72.1378H50.9191V67.8945Z" fill="black"/>
<path d="M55.1611 67.8945H50.918V72.1378H55.1611V67.8945Z" fill="black"/>
<path d="M76.378 67.8945H72.1348V72.1378H76.378V67.8945Z" fill="black"/>
<path d="M80.6202 67.8945H76.377V72.1378H80.6202V67.8945Z" fill="black"/>
<path d="M84.8643 67.8945H80.6211V72.1378H84.8643V67.8945Z" fill="black"/>
<path d="M89.1065 67.8945H84.8633V72.1378H89.1065V67.8945Z" fill="black"/>
<path d="M106.081 67.8945H101.838V72.1378H106.081V67.8945Z" fill="black"/>
<path d="M114.567 67.8945H110.324V72.1378H114.567V67.8945Z" fill="black"/>
<path d="M123.054 67.8945H118.811V72.1378H123.054V67.8945Z" fill="black"/>
<path d="M127.298 67.8945H123.055V72.1378H127.298V67.8945Z" fill="black"/>
<path d="M12.7296 72.1367H8.48633V76.38H12.7296V72.1367Z" fill="black"/>
<path d="M21.2159 72.1367H16.9727V76.38H21.2159V72.1367Z" fill="black"/>
<path d="M25.4601 72.1367H21.2168V76.38H25.4601V72.1367Z" fill="black"/>
<path d="M29.7022 72.1367H25.459V76.38H29.7022V72.1367Z" fill="black"/>
<path d="M33.9464 72.1367H29.7031V76.38H33.9464V72.1367Z" fill="black"/>
<path d="M42.4327 72.1367H38.1895V76.38H42.4327V72.1367Z" fill="black"/>
<path d="M55.1611 72.1367H50.918V76.38H55.1611V72.1367Z" fill="black"/>
<path d="M59.4053 72.1367H55.1621V76.38H59.4053V72.1367Z" fill="black"/>
<path d="M80.6202 72.1367H76.377V76.38H80.6202V72.1367Z" fill="black"/>
<path d="M93.3526 72.1367H89.1094V76.38H93.3526V72.1367Z" fill="black"/>
<path d="M97.5948 72.1367H93.3516V76.38H97.5948V72.1367Z" fill="black"/>
<path d="M101.839 72.1367H97.5957V76.38H101.839V72.1367Z" fill="black"/>
<path d="M110.325 72.1367H106.082V76.38H110.325V72.1367Z" fill="black"/>
<path d="M114.567 72.1367H110.324V76.38H114.567V72.1367Z" fill="black"/>
<path d="M118.812 72.1367H114.568V76.38H118.812V72.1367Z" fill="black"/>
<path d="M123.054 72.1367H118.811V76.38H123.054V72.1367Z" fill="black"/>
<path d="M131.54 72.1367H127.297V76.38H131.54V72.1367Z" fill="black"/>
<path d="M135.784 72.1367H131.541V76.38H135.784V72.1367Z" fill="black"/>
<path d="M140.026 72.1367H135.783V76.38H140.026V72.1367Z" fill="black"/>
<path d="M12.7296 76.3789H8.48633V80.6222H12.7296V76.3789Z" fill="black"/>
<path d="M16.9737 76.3789H12.7305V80.6222H16.9737V76.3789Z" fill="black"/>
<path d="M21.2159 76.3789H16.9727V80.6222H21.2159V76.3789Z" fill="black"/>
<path d="M33.9464 76.3789H29.7031V80.6222H33.9464V76.3789Z" fill="black"/>
<path d="M38.1886 76.3789H33.9453V80.6222H38.1886V76.3789Z" fill="black"/>
<path d="M50.9191 76.3789H46.6758V80.6222H50.9191V76.3789Z" fill="black"/>
<path d="M55.1611 76.3789H50.918V80.6222H55.1611V76.3789Z" fill="black"/>
<path d="M72.1339 76.3789H67.8906V80.6222H72.1339V76.3789Z" fill="black"/>
<path d="M76.378 76.3789H72.1348V80.6222H76.378V76.3789Z" fill="black"/>
<path d="M80.6202 76.3789H76.377V80.6222H80.6202V76.3789Z" fill="black"/>
<path d="M89.1065 76.3789H84.8633V80.6222H89.1065V76.3789Z" fill="black"/>
<path d="M93.3526 76.3789H89.1094V80.6222H93.3526V76.3789Z" fill="black"/>
<path d="M97.5948 76.3789H93.3516V80.6222H97.5948V76.3789Z" fill="black"/>
<path d="M101.839 76.3789H97.5957V80.6222H101.839V76.3789Z" fill="black"/>
<path d="M106.081 76.3789H101.838V80.6222H106.081V76.3789Z" fill="black"/>
<path d="M110.325 76.3789H106.082V80.6222H110.325V76.3789Z" fill="black"/>
<path d="M114.567 76.3789H110.324V80.6222H114.567V76.3789Z" fill="black"/>
<path d="M118.812 76.3789H114.568V80.6222H118.812V76.3789Z" fill="black"/>
<path d="M123.054 76.3789H118.811V80.6222H123.054V76.3789Z" fill="black"/>
<path d="M131.54 76.3789H127.297V80.6222H131.54V76.3789Z" fill="black"/>
<path d="M140.026 76.3789H135.783V80.6222H140.026V76.3789Z" fill="black"/>
<path d="M12.7296 80.625H8.48633V84.8682H12.7296V80.625Z" fill="black"/>
<path d="M16.9737 80.625H12.7305V84.8682H16.9737V80.625Z" fill="black"/>
<path d="M25.4601 80.625H21.2168V84.8682H25.4601V80.625Z" fill="black"/>
<path d="M50.9191 80.625H46.6758V84.8682H50.9191V80.625Z" fill="black"/>
<path d="M55.1611 80.625H50.918V84.8682H55.1611V80.625Z" fill="black"/>
<path d="M63.6475 80.625H59.4043V84.8682H63.6475V80.625Z" fill="black"/>
<path d="M67.8917 80.625H63.6484V84.8682H67.8917V80.625Z" fill="black"/>
<path d="M72.1339 80.625H67.8906V84.8682H72.1339V80.625Z" fill="black"/>
<path d="M76.378 80.625H72.1348V84.8682H76.378V80.625Z" fill="black"/>
<path d="M84.8643 80.625H80.6211V84.8682H84.8643V80.625Z" fill="black"/>
<path d="M89.1065 80.625H84.8633V84.8682H89.1065V80.625Z" fill="black"/>
<path d="M97.5948 80.625H93.3516V84.8682H97.5948V80.625Z" fill="black"/>
<path d="M101.839 80.625H97.5957V84.8682H101.839V80.625Z" fill="black"/>
<path d="M110.325 80.625H106.082V84.8682H110.325V80.625Z" fill="black"/>
<path d="M114.567 80.625H110.324V84.8682H114.567V80.625Z" fill="black"/>
<path d="M118.812 80.625H114.568V84.8682H118.812V80.625Z" fill="black"/>
<path d="M123.054 80.625H118.811V84.8682H123.054V80.625Z" fill="black"/>
<path d="M131.54 80.625H127.297V84.8682H131.54V80.625Z" fill="black"/>
<path d="M135.784 80.625H131.541V84.8682H135.784V80.625Z" fill="black"/>
<path d="M144.271 80.625H140.027V84.8682H144.271V80.625Z" fill="black"/>
<path d="M148.513 80.625H144.27V84.8682H148.513V80.625Z" fill="black"/>
<path d="M12.7296 84.8672H8.48633V89.1104H12.7296V84.8672Z" fill="black"/>
<path d="M29.7022 84.8672H25.459V89.1104H29.7022V84.8672Z" fill="black"/>
<path d="M33.9464 84.8672H29.7031V89.1104H33.9464V84.8672Z" fill="black"/>
<path d="M38.1886 84.8672H33.9453V89.1104H38.1886V84.8672Z" fill="black"/>
<path d="M42.4327 84.8672H38.1895V89.1104H42.4327V84.8672Z" fill="black"/>
<path d="M46.6749 84.8672H42.4316V89.1104H46.6749V84.8672Z" fill="black"/>
<path d="M50.9191 84.8672H46.6758V89.1104H50.9191V84.8672Z" fill="black"/>
<path d="M63.6475 84.8672H59.4043V89.1104H63.6475V84.8672Z" fill="black"/>
<path d="M67.8917 84.8672H63.6484V89.1104H67.8917V84.8672Z" fill="black"/>
<path d="M72.1339 84.8672H67.8906V89.1104H72.1339V84.8672Z" fill="black"/>
<path d="M76.378 84.8672H72.1348V89.1104H76.378V84.8672Z" fill="black"/>
<path d="M80.6202 84.8672H76.377V89.1104H80.6202V84.8672Z" fill="black"/>
<path d="M84.8643 84.8672H80.6211V89.1104H84.8643V84.8672Z" fill="black"/>
<path d="M101.839 84.8672H97.5957V89.1104H101.839V84.8672Z" fill="black"/>
<path d="M114.567 84.8672H110.324V89.1104H114.567V84.8672Z" fill="black"/>
<path d="M118.812 84.8672H114.568V89.1104H118.812V84.8672Z" fill="black"/>
<path d="M127.298 84.8672H123.055V89.1104H127.298V84.8672Z" fill="black"/>
<path d="M131.54 84.8672H127.297V89.1104H131.54V84.8672Z" fill="black"/>
<path d="M140.026 84.8672H135.783V89.1104H140.026V84.8672Z" fill="black"/>
<path d="M144.271 84.8672H140.027V89.1104H144.271V84.8672Z" fill="black"/>
<path d="M21.2159 89.1094H16.9727V93.3526H21.2159V89.1094Z" fill="black"/>
<path d="M25.4601 89.1094H21.2168V93.3526H25.4601V89.1094Z" fill="black"/>
<path d="M29.7022 89.1094H25.459V93.3526H29.7022V89.1094Z" fill="black"/>
<path d="M33.9464 89.1094H29.7031V93.3526H33.9464V89.1094Z" fill="black"/>
<path d="M59.4053 89.1094H55.1621V93.3526H59.4053V89.1094Z" fill="black"/>
<path d="M93.3526 89.1094H89.1094V93.3526H93.3526V89.1094Z" fill="black"/>
<path d="M106.081 89.1094H101.838V93.3526H106.081V89.1094Z" fill="black"/>
<path d="M110.325 89.1094H106.082V93.3526H110.325V89.1094Z" fill="black"/>
<path d="M123.054 89.1094H118.811V93.3526H123.054V89.1094Z" fill="black"/>
<path d="M131.54 89.1094H127.297V93.3526H131.54V89.1094Z" fill="black"/>
<path d="M148.513 89.1094H144.27V93.3526H148.513V89.1094Z" fill="black"/>
<path d="M12.7296 93.3516H8.48633V97.5948H12.7296V93.3516Z" fill="black"/>
<path d="M21.2159 93.3516H16.9727V97.5948H21.2159V93.3516Z" fill="black"/>
<path d="M25.4601 93.3516H21.2168V97.5948H25.4601V93.3516Z" fill="black"/>
<path d="M38.1886 93.3516H33.9453V97.5948H38.1886V93.3516Z" fill="black"/>
<path d="M42.4327 93.3516H38.1895V97.5948H42.4327V93.3516Z" fill="black"/>
<path d="M46.6749 93.3516H42.4316V97.5948H46.6749V93.3516Z" fill="black"/>
<path d="M55.1611 93.3516H50.918V97.5948H55.1611V93.3516Z" fill="black"/>
<path d="M59.4053 93.3516H55.1621V97.5948H59.4053V93.3516Z" fill="black"/>
<path d="M67.8917 93.3516H63.6484V97.5948H67.8917V93.3516Z" fill="black"/>
<path d="M72.1339 93.3516H67.8906V97.5948H72.1339V93.3516Z" fill="black"/>
<path d="M89.1065 93.3516H84.8633V97.5948H89.1065V93.3516Z" fill="black"/>
<path d="M101.839 93.3516H97.5957V97.5948H101.839V93.3516Z" fill="black"/>
<path d="M106.081 93.3516H101.838V97.5948H106.081V93.3516Z" fill="black"/>
<path d="M114.567 93.3516H110.324V97.5948H114.567V93.3516Z" fill="black"/>
<path d="M118.812 93.3516H114.568V97.5948H118.812V93.3516Z" fill="black"/>
<path d="M135.784 93.3516H131.541V97.5948H135.784V93.3516Z" fill="black"/>
<path d="M140.026 93.3516H135.783V97.5948H140.026V93.3516Z" fill="black"/>
<path d="M144.271 93.3516H140.027V97.5948H144.271V93.3516Z" fill="black"/>
<path d="M148.513 93.3516H144.27V97.5948H148.513V93.3516Z" fill="black"/>
<path d="M12.7296 97.5977H8.48633V101.841H12.7296V97.5977Z" fill="black"/>
<path d="M16.9737 97.5977H12.7305V101.841H16.9737V97.5977Z" fill="black"/>
<path d="M21.2159 97.5977H16.9727V101.841H21.2159V97.5977Z" fill="black"/>
<path d="M33.9464 97.5977H29.7031V101.841H33.9464V97.5977Z" fill="black"/>
<path d="M59.4053 97.5977H55.1621V101.841H59.4053V97.5977Z" fill="black"/>
<path d="M72.1339 97.5977H67.8906V101.841H72.1339V97.5977Z" fill="black"/>
<path d="M76.378 97.5977H72.1348V101.841H76.378V97.5977Z" fill="black"/>
<path d="M89.1065 97.5977H84.8633V101.841H89.1065V97.5977Z" fill="black"/>
<path d="M101.839 97.5977H97.5957V101.841H101.839V97.5977Z" fill="black"/>
<path d="M106.081 97.5977H101.838V101.841H106.081V97.5977Z" fill="black"/>
<path d="M110.325 97.5977H106.082V101.841H110.325V97.5977Z" fill="black"/>
<path d="M114.567 97.5977H110.324V101.841H114.567V97.5977Z" fill="black"/>
<path d="M118.812 97.5977H114.568V101.841H118.812V97.5977Z" fill="black"/>
<path d="M123.054 97.5977H118.811V101.841H123.054V97.5977Z" fill="black"/>
<path d="M127.298 97.5977H123.055V101.841H127.298V97.5977Z" fill="black"/>
<path d="M140.026 97.5977H135.783V101.841H140.026V97.5977Z" fill="black"/>
<path d="M148.513 97.5977H144.27V101.841H148.513V97.5977Z" fill="black"/>
<path d="M29.7022 101.84H25.459V106.083H29.7022V101.84Z" fill="black"/>
<path d="M33.9464 101.84H29.7031V106.083H33.9464V101.84Z" fill="black"/>
<path d="M38.1886 101.84H33.9453V106.083H38.1886V101.84Z" fill="black"/>
<path d="M55.1611 101.84H50.918V106.083H55.1611V101.84Z" fill="black"/>
<path d="M67.8917 101.84H63.6484V106.083H67.8917V101.84Z" fill="black"/>
<path d="M80.6202 101.84H76.377V106.083H80.6202V101.84Z" fill="black"/>
<path d="M84.8643 101.84H80.6211V106.083H84.8643V101.84Z" fill="black"/>
<path d="M89.1065 101.84H84.8633V106.083H89.1065V101.84Z" fill="black"/>
<path d="M97.5948 101.84H93.3516V106.083H97.5948V101.84Z" fill="black"/>
<path d="M110.325 101.84H106.082V106.083H110.325V101.84Z" fill="black"/>
<path d="M114.567 101.84H110.324V106.083H114.567V101.84Z" fill="black"/>
<path d="M123.054 101.84H118.811V106.083H123.054V101.84Z" fill="black"/>
<path d="M131.54 101.84H127.297V106.083H131.54V101.84Z" fill="black"/>
<path d="M135.784 101.84H131.541V106.083H135.784V101.84Z" fill="black"/>
<path d="M144.271 101.84H140.027V106.083H144.271V101.84Z" fill="black"/>
<path d="M148.513 101.84H144.27V106.083H148.513V101.84Z" fill="black"/>
<path d="M16.9737 106.082H12.7305V110.325H16.9737V106.082Z" fill="black"/>
<path d="M25.4601 106.082H21.2168V110.325H25.4601V106.082Z" fill="black"/>
<path d="M42.4327 106.082H38.1895V110.325H42.4327V106.082Z" fill="black"/>
<path d="M46.6749 106.082H42.4316V110.325H46.6749V106.082Z" fill="black"/>
<path d="M59.4053 106.082H55.1621V110.325H59.4053V106.082Z" fill="black"/>
<path d="M80.6202 106.082H76.377V110.325H80.6202V106.082Z" fill="black"/>
<path d="M89.1065 106.082H84.8633V110.325H89.1065V106.082Z" fill="black"/>
<path d="M93.3526 106.082H89.1094V110.325H93.3526V106.082Z" fill="black"/>
<path d="M97.5948 106.082H93.3516V110.325H97.5948V106.082Z" fill="black"/>
<path d="M106.081 106.082H101.838V110.325H106.081V106.082Z" fill="black"/>
<path d="M114.567 106.082H110.324V110.325H114.567V106.082Z" fill="black"/>
<path d="M131.54 106.082H127.297V110.325H131.54V106.082Z" fill="black"/>
<path d="M135.784 106.082H131.541V110.325H135.784V106.082Z" fill="black"/>
<path d="M144.271 106.082H140.027V110.325H144.271V106.082Z" fill="black"/>
<path d="M148.513 106.082H144.27V110.325H148.513V106.082Z" fill="black"/>
<path d="M12.7296 110.324H8.48633V114.567H12.7296V110.324Z" fill="black"/>
<path d="M21.2159 110.324H16.9727V114.567H21.2159V110.324Z" fill="black"/>
<path d="M25.4601 110.324H21.2168V114.567H25.4601V110.324Z" fill="black"/>
<path d="M33.9464 110.324H29.7031V114.567H33.9464V110.324Z" fill="black"/>
<path d="M38.1886 110.324H33.9453V114.567H38.1886V110.324Z" fill="black"/>
<path d="M42.4327 110.324H38.1895V114.567H42.4327V110.324Z" fill="black"/>
<path d="M55.1611 110.324H50.918V114.567H55.1611V110.324Z" fill="black"/>
<path d="M59.4053 110.324H55.1621V114.567H59.4053V110.324Z" fill="black"/>
<path d="M63.6475 110.324H59.4043V114.567H63.6475V110.324Z" fill="black"/>
<path d="M67.8917 110.324H63.6484V114.567H67.8917V110.324Z" fill="black"/>
<path d="M76.378 110.324H72.1348V114.567H76.378V110.324Z" fill="black"/>
<path d="M84.8643 110.324H80.6211V114.567H84.8643V110.324Z" fill="black"/>
<path d="M106.081 110.324H101.838V114.567H106.081V110.324Z" fill="black"/>
<path d="M114.567 110.324H110.324V114.567H114.567V110.324Z" fill="black"/>
<path d="M118.812 110.324H114.568V114.567H118.812V110.324Z" fill="black"/>
<path d="M123.054 110.324H118.811V114.567H123.054V110.324Z" fill="black"/>
<path d="M127.298 110.324H123.055V114.567H127.298V110.324Z" fill="black"/>
<path d="M131.54 110.324H127.297V114.567H131.54V110.324Z" fill="black"/>
<path d="M46.6749 114.57H42.4316V118.814H46.6749V114.57Z" fill="black"/>
<path d="M59.4053 114.57H55.1621V118.814H59.4053V114.57Z" fill="black"/>
<path d="M76.378 114.57H72.1348V118.814H76.378V114.57Z" fill="black"/>
<path d="M80.6202 114.57H76.377V118.814H80.6202V114.57Z" fill="black"/>
<path d="M84.8643 114.57H80.6211V118.814H84.8643V114.57Z" fill="black"/>
<path d="M89.1065 114.57H84.8633V118.814H89.1065V114.57Z" fill="black"/>
<path d="M93.3526 114.57H89.1094V118.814H93.3526V114.57Z" fill="black"/>
<path d="M97.5948 114.57H93.3516V118.814H97.5948V114.57Z" fill="black"/>
<path d="M114.567 114.57H110.324V118.814H114.567V114.57Z" fill="black"/>
<path d="M131.54 114.57H127.297V118.814H131.54V114.57Z" fill="black"/>
<path d="M135.784 114.57H131.541V118.814H135.784V114.57Z" fill="black"/>
<path d="M46.6749 118.812H42.4316V123.056H46.6749V118.812Z" fill="black"/>
<path d="M50.9191 118.812H46.6758V123.056H50.9191V118.812Z" fill="black"/>
<path d="M55.1611 118.812H50.918V123.056H55.1611V118.812Z" fill="black"/>
<path d="M63.6475 118.812H59.4043V123.056H63.6475V118.812Z" fill="black"/>
<path d="M67.8917 118.812H63.6484V123.056H67.8917V118.812Z" fill="black"/>
<path d="M72.1339 118.812H67.8906V123.056H72.1339V118.812Z" fill="black"/>
<path d="M93.3526 118.812H89.1094V123.056H93.3526V118.812Z" fill="black"/>
<path d="M97.5948 118.812H93.3516V123.056H97.5948V118.812Z" fill="black"/>
<path d="M106.081 118.812H101.838V123.056H106.081V118.812Z" fill="black"/>
<path d="M110.325 118.812H106.082V123.056H110.325V118.812Z" fill="black"/>
<path d="M114.567 118.812H110.324V123.056H114.567V118.812Z" fill="black"/>
<path d="M123.054 118.812H118.811V123.056H123.054V118.812Z" fill="black"/>
<path d="M131.54 118.812H127.297V123.056H131.54V118.812Z" fill="black"/>
<path d="M46.6749 123.055H42.4316V127.298H46.6749V123.055Z" fill="black"/>
<path d="M67.8917 123.055H63.6484V127.298H67.8917V123.055Z" fill="black"/>
<path d="M80.6202 123.055H76.377V127.298H80.6202V123.055Z" fill="black"/>
<path d="M97.5948 123.055H93.3516V127.298H97.5948V123.055Z" fill="black"/>
<path d="M101.839 123.055H97.5957V127.298H101.839V123.055Z" fill="black"/>
<path d="M110.325 123.055H106.082V127.298H110.325V123.055Z" fill="black"/>
<path d="M114.567 123.055H110.324V127.298H114.567V123.055Z" fill="black"/>
<path d="M131.54 123.055H127.297V127.298H131.54V123.055Z" fill="black"/>
<path d="M135.784 123.055H131.541V127.298H135.784V123.055Z" fill="black"/>
<path d="M140.026 123.055H135.783V127.298H140.026V123.055Z" fill="black"/>
<path d="M144.271 123.055H140.027V127.298H144.271V123.055Z" fill="black"/>
<path d="M148.513 123.055H144.27V127.298H148.513V123.055Z" fill="black"/>
<path d="M50.9191 127.297H46.6758V131.54H50.9191V127.297Z" fill="black"/>
<path d="M55.1611 127.297H50.918V131.54H55.1611V127.297Z" fill="black"/>
<path d="M59.4053 127.297H55.1621V131.54H59.4053V127.297Z" fill="black"/>
<path d="M63.6475 127.297H59.4043V131.54H63.6475V127.297Z" fill="black"/>
<path d="M67.8917 127.297H63.6484V131.54H67.8917V127.297Z" fill="black"/>
<path d="M76.378 127.297H72.1348V131.54H76.378V127.297Z" fill="black"/>
<path d="M84.8643 127.297H80.6211V131.54H84.8643V127.297Z" fill="black"/>
<path d="M101.839 127.297H97.5957V131.54H101.839V127.297Z" fill="black"/>
<path d="M110.325 127.297H106.082V131.54H110.325V127.297Z" fill="black"/>
<path d="M114.567 127.297H110.324V131.54H114.567V127.297Z" fill="black"/>
<path d="M118.812 127.297H114.568V131.54H118.812V127.297Z" fill="black"/>
<path d="M123.054 127.297H118.811V131.54H123.054V127.297Z" fill="black"/>
<path d="M127.298 127.297H123.055V131.54H127.298V127.297Z" fill="black"/>
<path d="M131.54 127.297H127.297V131.54H131.54V127.297Z" fill="black"/>
<path d="M140.026 127.297H135.783V131.54H140.026V127.297Z" fill="black"/>
<path d="M148.513 127.297H144.27V131.54H148.513V127.297Z" fill="black"/>
<path d="M46.6749 131.543H42.4316V135.786H46.6749V131.543Z" fill="black"/>
<path d="M55.1611 131.543H50.918V135.786H55.1611V131.543Z" fill="black"/>
<path d="M63.6475 131.543H59.4043V135.786H63.6475V131.543Z" fill="black"/>
<path d="M89.1065 131.543H84.8633V135.786H89.1065V131.543Z" fill="black"/>
<path d="M101.839 131.543H97.5957V135.786H101.839V131.543Z" fill="black"/>
<path d="M127.298 131.543H123.055V135.786H127.298V131.543Z" fill="black"/>
<path d="M135.784 131.543H131.541V135.786H135.784V131.543Z" fill="black"/>
<path d="M148.513 131.543H144.27V135.786H148.513V131.543Z" fill="black"/>
<path d="M46.6749 135.785H42.4316V140.028H46.6749V135.785Z" fill="black"/>
<path d="M59.4053 135.785H55.1621V140.028H59.4053V135.785Z" fill="black"/>
<path d="M63.6475 135.785H59.4043V140.028H63.6475V135.785Z" fill="black"/>
<path d="M84.8643 135.785H80.6211V140.028H84.8643V135.785Z" fill="black"/>
<path d="M89.1065 135.785H84.8633V140.028H89.1065V135.785Z" fill="black"/>
<path d="M101.839 135.785H97.5957V140.028H101.839V135.785Z" fill="black"/>
<path d="M106.081 135.785H101.838V140.028H106.081V135.785Z" fill="black"/>
<path d="M114.567 135.785H110.324V140.028H114.567V135.785Z" fill="black"/>
<path d="M118.812 135.785H114.568V140.028H118.812V135.785Z" fill="black"/>
<path d="M123.054 135.785H118.811V140.028H123.054V135.785Z" fill="black"/>
<path d="M127.298 135.785H123.055V140.028H127.298V135.785Z" fill="black"/>
<path d="M135.784 135.785H131.541V140.028H135.784V135.785Z" fill="black"/>
<path d="M140.026 135.785H135.783V140.028H140.026V135.785Z" fill="black"/>
<path d="M50.9191 140.027H46.6758V144.271H50.9191V140.027Z" fill="black"/>
<path d="M67.8917 140.027H63.6484V144.271H67.8917V140.027Z" fill="black"/>
<path d="M72.1339 140.027H67.8906V144.271H72.1339V140.027Z" fill="black"/>
<path d="M76.378 140.027H72.1348V144.271H76.378V140.027Z" fill="black"/>
<path d="M80.6202 140.027H76.377V144.271H80.6202V140.027Z" fill="black"/>
<path d="M84.8643 140.027H80.6211V144.271H84.8643V140.027Z" fill="black"/>
<path d="M89.1065 140.027H84.8633V144.271H89.1065V140.027Z" fill="black"/>
<path d="M97.5948 140.027H93.3516V144.271H97.5948V140.027Z" fill="black"/>
<path d="M114.567 140.027H110.324V144.271H114.567V140.027Z" fill="black"/>
<path d="M123.054 140.027H118.811V144.271H123.054V140.027Z" fill="black"/>
<path d="M127.298 140.027H123.055V144.271H127.298V140.027Z" fill="black"/>
<path d="M131.54 140.027H127.297V144.271H131.54V140.027Z" fill="black"/>
<path d="M148.513 140.027H144.27V144.271H148.513V140.027Z" fill="black"/>
<path d="M46.6749 144.27H42.4316V148.513H46.6749V144.27Z" fill="black"/>
<path d="M50.9191 144.27H46.6758V148.513H50.9191V144.27Z" fill="black"/>
<path d="M55.1611 144.27H50.918V148.513H55.1611V144.27Z" fill="black"/>
<path d="M63.6475 144.27H59.4043V148.513H63.6475V144.27Z" fill="black"/>
<path d="M67.8917 144.27H63.6484V148.513H67.8917V144.27Z" fill="black"/>
<path d="M72.1339 144.27H67.8906V148.513H72.1339V144.27Z" fill="black"/>
<path d="M76.378 144.27H72.1348V148.513H76.378V144.27Z" fill="black"/>
<path d="M80.6202 144.27H76.377V148.513H80.6202V144.27Z" fill="black"/>
<path d="M84.8643 144.27H80.6211V148.513H84.8643V144.27Z" fill="black"/>
<path d="M93.3526 144.27H89.1094V148.513H93.3526V144.27Z" fill="black"/>
<path d="M101.839 144.27H97.5957V148.513H101.839V144.27Z" fill="black"/>
<path d="M131.54 144.27H127.297V148.513H131.54V144.27Z" fill="black"/>
<path d="M135.784 144.27H131.541V148.513H135.784V144.27Z" fill="black"/>
<path d="M140.026 144.27H135.783V148.513H140.026V144.27Z" fill="black"/>
<path d="M33.7336 8.48828H12.9417H8.48633V12.9437V33.7356V38.191H12.9417H33.7336H38.189V33.7356V12.9437V8.48828H33.7336ZM33.7336 33.7356H12.9417V12.9437H33.7336V33.7356Z" fill="black"/>
<path d="M144.058 8.48828H123.266H118.811V12.9437V33.7356V38.191H123.266H144.058H148.513V33.7356V12.9437V8.48828H144.058ZM144.058 33.7356H123.266V12.9437H144.058V33.7356Z" fill="black"/>
<path d="M33.7336 118.812H12.9417H8.48633V123.268V144.06V148.515H12.9417H33.7336H38.189V144.06V123.268V118.812H33.7336ZM33.7336 144.06H12.9417V123.268H33.7336V144.06Z" fill="black"/>
<path d="M29.7024 16.9766H16.9727V29.7063H29.7024V16.9766Z" fill="black"/>
<path d="M140.027 16.9766H127.297V29.7063H140.027V16.9766Z" fill="black"/>
<path d="M29.7024 127.297H16.9727V140.027H29.7024V127.297Z" fill="black"/>
</svg>
