<svg width="40" height="40" viewBox="0 0 40 40" fill="none" xmlns="http://www.w3.org/2000/svg">
<rect width="40" height="40" rx="2" fill="white"/>
<path d="M1.74023 7.82349V13.9102H7.8269H13.9136V7.82349V1.73682H7.8269H1.74023V7.82349ZM12.1745 7.82349V12.1711H7.8269H3.47928V7.82349V3.47587H7.8269H12.1745V7.82349Z" fill="black"/>
<path d="M5.21875 7.82502V10.4336H7.82732H10.4359V7.82502V5.21645H7.82732H5.21875V7.82502Z" fill="black"/>
<path d="M17.3917 3.47686V5.21591H16.5221H15.6526V6.08543V6.95496H16.5221H17.3917V7.82448V8.694H18.2612H19.1307V9.56353V10.4331H20.0002H20.8698V11.3026V12.1721H20.0002H19.1307V13.0416V13.9111H18.2612H17.3917V13.0416V12.1721H16.5221H15.6526V13.9111V15.6502H12.1745H8.69642V16.5197V17.3892H7.8269H6.95738V16.5197V15.6502H4.34881H1.74023V17.3892V19.1283H2.60976H3.47928V19.9978V20.8673H2.60976H1.74023V21.7369V22.6064H2.60976H3.47928V21.7369V20.8673H4.34881H5.21833V19.1283V17.3892H6.08785H6.95738V19.1283V20.8673H7.8269H8.69642V21.7369V22.6064H7.8269H6.95738V23.4759V24.3454H11.305H15.6526V27.8235V31.3016H18.2612H20.8698V32.1711V33.0407H20.0002H19.1307V33.9102V34.7797H18.2612H17.3917V33.9102V33.0407H16.5221H15.6526V35.6492V38.2578H16.5221H17.3917V37.3883V36.5188H18.2612H19.1307V35.6492V34.7797H20.0002H20.8698V35.6492V36.5188H22.6088H24.3479V35.6492V34.7797H25.2174H26.0869V33.9102V33.0407H24.3479H22.6088V32.1711V31.3016H21.7393H20.8698V29.5626V27.8235H21.7393H22.6088V28.6931V29.5626H23.4783H24.3479V30.4321V31.3016H26.0869H27.8259V34.7797V38.2578H28.6955H29.565V37.3883V36.5188H31.304H33.0431V35.6492V34.7797H33.9126H34.7821V36.5188V38.2578H36.5212H38.2602V37.3883V36.5188H37.3907H36.5212V35.6492V34.7797H37.3907H38.2602V33.9102V33.0407H37.3907H36.5212V31.3016V29.5626H37.3907H38.2602V23.4759V17.3892H37.3907H36.5212V18.2588V19.1283H33.9126H31.304V18.2588V17.3892H29.565H27.8259V16.5197V15.6502H25.2174H22.6088V16.5197V17.3892H21.7393H20.8698V16.5197V15.6502H20.0002H19.1307V14.7807V13.9111H20.0002H20.8698V13.0416V12.1721H21.7393H22.6088V13.0416V13.9111H23.4783H24.3479V13.0416V12.1721H23.4783H22.6088V10.4331V8.694H23.4783H24.3479V6.95496V5.21591H23.4783H22.6088V4.34639V3.47686H23.4783H24.3479V2.60734V1.73781H23.4783H22.6088V2.60734V3.47686H20.8698H19.1307V2.60734V1.73781H18.2612H17.3917V3.47686ZM22.6088 6.08543V6.95496H21.7393H20.8698V7.82448V8.694H20.0002H19.1307V6.95496V5.21591H20.8698H22.6088V6.08543ZM19.1307 19.1283V20.8673H22.6088H26.0869V19.9978V19.1283H24.3479H22.6088V18.2588V17.3892H24.3479H26.0869V18.2588V19.1283H27.8259H29.565V19.9978V20.8673H33.0431H36.5212V22.6064V24.3454H35.6517H34.7821V25.215V26.0845H33.9126H33.0431V26.954V27.8235H34.7821H36.5212V28.6931V29.5626H35.6517H34.7821V31.3016V33.0407H35.6517H36.5212V33.9102V34.7797H35.6517H34.7821V33.9102V33.0407H33.9126H33.0431V33.9102V34.7797H32.1736H31.304V33.0407V31.3016H30.4345H29.565V29.5626V27.8235H30.4345H31.304V26.0845V24.3454H30.4345H29.565V25.215V26.0845H28.6955H27.8259V27.8235V29.5626H26.0869H24.3479V27.8235V26.0845H25.2174H26.0869V25.215V24.3454H26.9564H27.8259V23.4759V22.6064H24.3479H20.8698V25.215V27.8235H20.0002H19.1307V28.6931V29.5626H18.2612H17.3917V28.6931V27.8235H18.2612H19.1307V26.954V26.0845H18.2612H17.3917V25.215V24.3454H18.2612H19.1307V22.6064V20.8673H17.3917H15.6526V21.7369V22.6064H13.044H10.4355V21.7369V20.8673H9.56595H8.69642V19.9978V19.1283H9.56595H10.4355V18.2588V17.3892H14.7831H19.1307V19.1283Z" fill="black"/>
<path d="M10.4355 19.9977V20.8672H13.0441H15.6527V19.9977V19.1281H13.0441H10.4355V19.9977Z" fill="black"/>
<path d="M31.3037 23.4742V24.3438H32.1732H33.0428V23.4742V22.6047H32.1732H31.3037V23.4742Z" fill="black"/>
<path d="M31.3037 30.4352V31.3047H32.1732H33.0428V30.4352V29.5656H32.1732H31.3037V30.4352Z" fill="black"/>
<path d="M26.0869 7.82349V13.9102H32.1736H38.2602V7.82349V1.73682H32.1736H26.0869V7.82349ZM36.5212 7.82349V12.1711H32.1736H27.826V7.82349V3.47587H32.1736H36.5212V7.82349Z" fill="black"/>
<path d="M29.5654 7.82502V10.4336H32.174H34.7826V7.82502V5.21645H32.174H29.5654V7.82502Z" fill="black"/>
<path d="M33.0439 16.5211V17.3906H33.9135H34.783V16.5211V15.6516H33.9135H33.0439V16.5211Z" fill="black"/>
<path d="M1.74023 32.1711V38.2578H7.8269H13.9136V32.1711V26.0845H7.8269H1.74023V32.1711ZM12.1745 32.1711V36.5188H7.8269H3.47928V32.1711V27.8235H7.8269H12.1745V32.1711Z" fill="black"/>
<path d="M5.21875 32.1727V34.7812H7.82732H10.4359V32.1727V29.5641H7.82732H5.21875V32.1727Z" fill="black"/>
</svg>
