<svg width="40" height="40" viewBox="0 0 40 40" fill="none" xmlns="http://www.w3.org/2000/svg">
<rect width="40" height="40" rx="3" fill="white"/>
<path d="M1.73926 7.82711V13.9141H7.82621H13.9132V7.82711V1.74015H7.82621H1.73926V7.82711ZM12.174 7.82711V12.1749H7.82621H3.47839V7.82711V3.47928H7.82621H12.174V7.82711Z" fill="black"/>
<path d="M5.21777 7.8288V10.4375H7.82647H10.4352V7.8288V5.22011H7.82647H5.21777V7.8288Z" fill="black"/>
<path d="M17.3914 2.60954V3.47911H16.5219H15.6523V5.21824V6.95737H16.5219H17.3914V7.82693V8.6965H16.5219H15.6523V12.1748V15.653H13.9132H12.174V16.5226V17.3922H10.4349H8.69578V16.5226V15.653H7.82621H6.95665V16.5226V17.3922H6.08708H5.21752V16.5226V15.653H3.47839H1.73926V19.1313V22.6095H2.60882H3.47839V23.4791V24.3487H5.21752H6.95665V23.4791V22.6095H8.69578H10.4349V23.4791V24.3487H13.0436H15.6523V26.0878V27.8269H16.5219H17.3914V28.6965V29.5661H18.261H19.1306V27.8269V26.0878H18.261H17.3914V24.3487V22.6095H18.261H19.1306V23.4791V24.3487H20.0001H20.8697V25.2182V26.0878H21.7393H22.6088V26.9574V27.8269H21.7393H20.8697V28.6965V29.5661H22.6088H24.348V28.6965V27.8269H26.0871H27.8262V28.6965V29.5661H26.9566H26.0871V31.3052V33.0443H23.4784H20.8697V32.1748V31.3052H20.0001H19.1306V32.1748V33.0443H18.261H17.3914V32.1748V31.3052H16.5219H15.6523V32.1748V33.0443H16.5219H17.3914V33.9139V34.7835H16.5219H15.6523V36.5226V38.2617H19.1306H22.6088V37.3922V36.5226H24.348H26.0871V37.3922V38.2617H27.8262H29.5653V36.5226V34.7835H30.4349H31.3045V36.5226V38.2617H32.174H33.0436V36.5226V34.7835H33.9132H34.7827V33.9139V33.0443H35.6523H36.5219V33.9139V34.7835H37.3914H38.261V33.0443V31.3052H36.5219H34.7827V32.1748V33.0443H33.9132H33.0436V31.3052V29.5661H31.3045H29.5653V28.6965V27.8269H33.0436H36.5219V28.6965V29.5661H37.3914H38.261V28.6965V27.8269H37.3914H36.5219V26.9574V26.0878H37.3914H38.261V24.3487V22.6095H37.3914H36.5219V24.3487V26.0878H31.3045H26.0871V25.2182V24.3487H25.2175H24.348V23.4791V22.6095H23.4784H22.6088V21.74V20.8704H23.4784H24.348V16.5226V12.1748H23.4784H22.6088V11.3052V10.4356H21.7393H20.8697V11.3052V12.1748H20.0001H19.1306V13.0443V13.9139H18.261H17.3914V11.3052V8.6965H18.261H19.1306V5.21824V1.73998H18.261H17.3914V2.60954ZM22.6088 16.5226V20.8704H21.7393H20.8697V20.0008V19.1313H20.0001H19.1306V18.2617V17.3922H20.0001H20.8697V14.7835V12.1748H21.7393H22.6088V16.5226ZM17.3914 19.1313V22.6095H14.7827H12.174V21.74V20.8704H13.0436H13.9132V20.0008V19.1313H13.0436H12.174V18.2617V17.3922H13.9132H15.6523V16.5226V15.653H16.5219H17.3914V19.1313ZM5.21752 19.1313V20.8704H6.08708H6.95665V20.0008V19.1313H7.82621H8.69578V20.0008V20.8704H7.82621H6.95665V21.74V22.6095H5.21752H3.47839V20.0008V17.3922H4.34795H5.21752V19.1313ZM24.348 25.2182V26.0878H23.4784H22.6088V25.2182V24.3487H23.4784H24.348V25.2182ZM27.8262 34.7835V36.5226H26.9566H26.0871V34.7835V33.0443H26.9566H27.8262V34.7835ZM33.0436 33.9139V34.7835H32.174H31.3045V33.9139V33.0443H32.174H33.0436V33.9139ZM20.8697 35.653V36.5226H20.0001H19.1306V35.653V34.7835H20.0001H20.8697V35.653Z" fill="black"/>
<path d="M22.6092 2.60834V3.47791H21.7397H20.8701V6.08661V8.69531H22.6092H24.3484V7.82575V6.95618H23.4788H22.6092V5.21704V3.47791H23.4788H24.3484V2.60834V1.73878H23.4788H22.6092V2.60834Z" fill="black"/>
<path d="M26.0869 7.82711V13.9141H32.1739H38.2608V7.82711V1.74015H32.1739H26.0869V7.82711ZM36.5217 7.82711V12.1749H32.1739H27.826V7.82711V3.47928H32.1739H36.5217V7.82711Z" fill="black"/>
<path d="M29.5654 7.8288V10.4375H32.1742H34.7829V7.8288V5.22011H32.1742H29.5654V7.8288Z" fill="black"/>
<path d="M26.0869 17.3911V19.1303H28.6956H31.3043V21.739V24.3477H32.1739H33.0435V22.6085V20.8694H33.9131H34.7826V19.9998V19.1303H33.0435H31.3043V17.3911V15.652H28.6956H26.0869V17.3911Z" fill="black"/>
<path d="M33.0439 16.5233V17.3928H34.7831H36.5222V19.132V20.8711H37.3918H38.2613V19.132V17.3928H37.3918H36.5222V16.5233V15.6537H34.7831H33.0439V16.5233Z" fill="black"/>
<path d="M26.0869 21.7398V22.6094H26.9565H27.826V21.7398V20.8702H26.9565H26.0869V21.7398Z" fill="black"/>
<path d="M1.73926 32.1748V38.2617H7.82621H13.9132V32.1748V26.0878H7.82621H1.73926V32.1748ZM12.174 32.1748V36.5226H7.82621H3.47839V32.1748V27.8269H7.82621H12.174V32.1748Z" fill="black"/>
<path d="M5.21777 32.1764V34.7852H7.82647H10.4352V32.1764V29.5677H7.82647H5.21777V32.1764Z" fill="black"/>
<path d="M34.7832 37.3922V38.2617H35.6527H36.5223V37.3922V36.5226H35.6527H34.7832V37.3922Z" fill="black"/>
</svg>
