<svg width="157" height="157" viewBox="0 0 157 157" fill="none" xmlns="http://www.w3.org/2000/svg">
<path d="M157 0H0V157H157V0Z" fill="white"/>
<path d="M46.6749 8.48828H42.4316V12.7315H46.6749V8.48828Z" fill="black"/>
<path d="M50.9191 8.48828H46.6758V12.7315H50.9191V8.48828Z" fill="black"/>
<path d="M55.1612 8.48828H50.918V12.7315H55.1612V8.48828Z" fill="black"/>
<path d="M63.6475 8.48828H59.4043V12.7315H63.6475V8.48828Z" fill="black"/>
<path d="M84.8643 8.48828H80.6211V12.7315H84.8643V8.48828Z" fill="black"/>
<path d="M89.1085 8.48828H84.8652V12.7315H89.1085V8.48828Z" fill="black"/>
<path d="M93.3507 8.48828H89.1074V12.7315H93.3507V8.48828Z" fill="black"/>
<path d="M97.5948 8.48828H93.3516V12.7315H97.5948V8.48828Z" fill="black"/>
<path d="M101.837 8.48828H97.5938V12.7315H101.837V8.48828Z" fill="black"/>
<path d="M110.323 8.48828H106.08V12.7315H110.323V8.48828Z" fill="black"/>
<path d="M46.6749 12.7305H42.4316V16.9737H46.6749V12.7305Z" fill="black"/>
<path d="M50.9191 12.7305H46.6758V16.9737H50.9191V12.7305Z" fill="black"/>
<path d="M55.1612 12.7305H50.918V16.9737H55.1612V12.7305Z" fill="black"/>
<path d="M72.1358 12.7305H67.8926V16.9737H72.1358V12.7305Z" fill="black"/>
<path d="M80.6222 12.7305H76.3789V16.9737H80.6222V12.7305Z" fill="black"/>
<path d="M84.8643 12.7305H80.6211V16.9737H84.8643V12.7305Z" fill="black"/>
<path d="M106.081 12.7305H101.838V16.9737H106.081V12.7305Z" fill="black"/>
<path d="M110.323 12.7305H106.08V16.9737H110.323V12.7305Z" fill="black"/>
<path d="M50.9191 16.9766H46.6758V21.2198H50.9191V16.9766Z" fill="black"/>
<path d="M55.1612 16.9766H50.918V21.2198H55.1612V16.9766Z" fill="black"/>
<path d="M63.6475 16.9766H59.4043V21.2198H63.6475V16.9766Z" fill="black"/>
<path d="M67.8917 16.9766H63.6484V21.2198H67.8917V16.9766Z" fill="black"/>
<path d="M72.1358 16.9766H67.8926V21.2198H72.1358V16.9766Z" fill="black"/>
<path d="M89.1085 16.9766H84.8652V21.2198H89.1085V16.9766Z" fill="black"/>
<path d="M106.081 16.9766H101.838V21.2198H106.081V16.9766Z" fill="black"/>
<path d="M110.323 16.9766H106.08V21.2198H110.323V16.9766Z" fill="black"/>
<path d="M114.567 16.9766H110.324V21.2198H114.567V16.9766Z" fill="black"/>
<path d="M46.6749 21.2188H42.4316V25.462H46.6749V21.2188Z" fill="black"/>
<path d="M50.9191 21.2188H46.6758V25.462H50.9191V21.2188Z" fill="black"/>
<path d="M55.1612 21.2188H50.918V25.462H55.1612V21.2188Z" fill="black"/>
<path d="M63.6475 21.2188H59.4043V25.462H63.6475V21.2188Z" fill="black"/>
<path d="M76.378 21.2188H72.1348V25.462H76.378V21.2188Z" fill="black"/>
<path d="M84.8643 21.2188H80.6211V25.462H84.8643V21.2188Z" fill="black"/>
<path d="M110.323 21.2188H106.08V25.462H110.323V21.2188Z" fill="black"/>
<path d="M114.567 21.2188H110.324V25.462H114.567V21.2188Z" fill="black"/>
<path d="M50.9191 25.4609H46.6758V29.7042H50.9191V25.4609Z" fill="black"/>
<path d="M55.1612 25.4609H50.918V29.7042H55.1612V25.4609Z" fill="black"/>
<path d="M67.8917 25.4609H63.6484V29.7042H67.8917V25.4609Z" fill="black"/>
<path d="M80.6222 25.4609H76.3789V29.7042H80.6222V25.4609Z" fill="black"/>
<path d="M89.1085 25.4609H84.8652V29.7042H89.1085V25.4609Z" fill="black"/>
<path d="M93.3507 25.4609H89.1074V29.7042H93.3507V25.4609Z" fill="black"/>
<path d="M106.081 25.4609H101.838V29.7042H106.081V25.4609Z" fill="black"/>
<path d="M114.567 25.4609H110.324V29.7042H114.567V25.4609Z" fill="black"/>
<path d="M50.9191 29.7031H46.6758V33.9464H50.9191V29.7031Z" fill="black"/>
<path d="M59.4054 29.7031H55.1621V33.9464H59.4054V29.7031Z" fill="black"/>
<path d="M63.6475 29.7031H59.4043V33.9464H63.6475V29.7031Z" fill="black"/>
<path d="M72.1358 29.7031H67.8926V33.9464H72.1358V29.7031Z" fill="black"/>
<path d="M76.378 29.7031H72.1348V33.9464H76.378V29.7031Z" fill="black"/>
<path d="M80.6222 29.7031H76.3789V33.9464H80.6222V29.7031Z" fill="black"/>
<path d="M84.8643 29.7031H80.6211V33.9464H84.8643V29.7031Z" fill="black"/>
<path d="M89.1085 29.7031H84.8652V33.9464H89.1085V29.7031Z" fill="black"/>
<path d="M93.3507 29.7031H89.1074V33.9464H93.3507V29.7031Z" fill="black"/>
<path d="M101.837 29.7031H97.5938V33.9464H101.837V29.7031Z" fill="black"/>
<path d="M114.567 29.7031H110.324V33.9464H114.567V29.7031Z" fill="black"/>
<path d="M46.6749 33.9492H42.4316V38.1925H46.6749V33.9492Z" fill="black"/>
<path d="M55.1612 33.9492H50.918V38.1925H55.1612V33.9492Z" fill="black"/>
<path d="M63.6475 33.9492H59.4043V38.1925H63.6475V33.9492Z" fill="black"/>
<path d="M72.1358 33.9492H67.8926V38.1925H72.1358V33.9492Z" fill="black"/>
<path d="M80.6222 33.9492H76.3789V38.1925H80.6222V33.9492Z" fill="black"/>
<path d="M89.1085 33.9492H84.8652V38.1925H89.1085V33.9492Z" fill="black"/>
<path d="M97.5948 33.9492H93.3516V38.1925H97.5948V33.9492Z" fill="black"/>
<path d="M106.081 33.9492H101.838V38.1925H106.081V33.9492Z" fill="black"/>
<path d="M114.567 33.9492H110.324V38.1925H114.567V33.9492Z" fill="black"/>
<path d="M46.6749 38.1914H42.4316V42.4347H46.6749V38.1914Z" fill="black"/>
<path d="M50.9191 38.1914H46.6758V42.4347H50.9191V38.1914Z" fill="black"/>
<path d="M55.1612 38.1914H50.918V42.4347H55.1612V38.1914Z" fill="black"/>
<path d="M63.6475 38.1914H59.4043V42.4347H63.6475V38.1914Z" fill="black"/>
<path d="M76.378 38.1914H72.1348V42.4347H76.378V38.1914Z" fill="black"/>
<path d="M80.6222 38.1914H76.3789V42.4347H80.6222V38.1914Z" fill="black"/>
<path d="M84.8643 38.1914H80.6211V42.4347H84.8643V38.1914Z" fill="black"/>
<path d="M89.1085 38.1914H84.8652V42.4347H89.1085V38.1914Z" fill="black"/>
<path d="M97.5948 38.1914H93.3516V42.4347H97.5948V38.1914Z" fill="black"/>
<path d="M106.081 38.1914H101.838V42.4347H106.081V38.1914Z" fill="black"/>
<path d="M110.323 38.1914H106.08V42.4347H110.323V38.1914Z" fill="black"/>
<path d="M12.7296 42.4336H8.48633V46.6768H12.7296V42.4336Z" fill="black"/>
<path d="M21.2159 42.4336H16.9727V46.6768H21.2159V42.4336Z" fill="black"/>
<path d="M25.4601 42.4336H21.2168V46.6768H25.4601V42.4336Z" fill="black"/>
<path d="M33.9464 42.4336H29.7031V46.6768H33.9464V42.4336Z" fill="black"/>
<path d="M38.1886 42.4336H33.9453V46.6768H38.1886V42.4336Z" fill="black"/>
<path d="M42.4327 42.4336H38.1895V46.6768H42.4327V42.4336Z" fill="black"/>
<path d="M55.1612 42.4336H50.918V46.6768H55.1612V42.4336Z" fill="black"/>
<path d="M59.4054 42.4336H55.1621V46.6768H59.4054V42.4336Z" fill="black"/>
<path d="M63.6475 42.4336H59.4043V46.6768H63.6475V42.4336Z" fill="black"/>
<path d="M72.1358 42.4336H67.8926V46.6768H72.1358V42.4336Z" fill="black"/>
<path d="M76.378 42.4336H72.1348V46.6768H76.378V42.4336Z" fill="black"/>
<path d="M80.6222 42.4336H76.3789V46.6768H80.6222V42.4336Z" fill="black"/>
<path d="M84.8643 42.4336H80.6211V46.6768H84.8643V42.4336Z" fill="black"/>
<path d="M89.1085 42.4336H84.8652V46.6768H89.1085V42.4336Z" fill="black"/>
<path d="M101.837 42.4336H97.5938V46.6768H101.837V42.4336Z" fill="black"/>
<path d="M110.323 42.4336H106.08V46.6768H110.323V42.4336Z" fill="black"/>
<path d="M123.054 42.4336H118.811V46.6768H123.054V42.4336Z" fill="black"/>
<path d="M135.784 42.4336H131.541V46.6768H135.784V42.4336Z" fill="black"/>
<path d="M144.271 42.4336H140.027V46.6768H144.271V42.4336Z" fill="black"/>
<path d="M148.513 42.4336H144.27V46.6768H148.513V42.4336Z" fill="black"/>
<path d="M21.2159 46.6758H16.9727V50.9191H21.2159V46.6758Z" fill="black"/>
<path d="M29.7022 46.6758H25.459V50.9191H29.7022V46.6758Z" fill="black"/>
<path d="M33.9464 46.6758H29.7031V50.9191H33.9464V46.6758Z" fill="black"/>
<path d="M59.4054 46.6758H55.1621V50.9191H59.4054V46.6758Z" fill="black"/>
<path d="M67.8917 46.6758H63.6484V50.9191H67.8917V46.6758Z" fill="black"/>
<path d="M80.6222 46.6758H76.3789V50.9191H80.6222V46.6758Z" fill="black"/>
<path d="M89.1085 46.6758H84.8652V50.9191H89.1085V46.6758Z" fill="black"/>
<path d="M93.3507 46.6758H89.1074V50.9191H93.3507V46.6758Z" fill="black"/>
<path d="M97.5948 46.6758H93.3516V50.9191H97.5948V46.6758Z" fill="black"/>
<path d="M110.323 46.6758H106.08V50.9191H110.323V46.6758Z" fill="black"/>
<path d="M114.567 46.6758H110.324V50.9191H114.567V46.6758Z" fill="black"/>
<path d="M123.054 46.6758H118.811V50.9191H123.054V46.6758Z" fill="black"/>
<path d="M127.298 46.6758H123.055V50.9191H127.298V46.6758Z" fill="black"/>
<path d="M135.784 46.6758H131.541V50.9191H135.784V46.6758Z" fill="black"/>
<path d="M140.026 46.6758H135.783V50.9191H140.026V46.6758Z" fill="black"/>
<path d="M144.271 46.6758H140.027V50.9191H144.271V46.6758Z" fill="black"/>
<path d="M148.513 46.6758H144.27V50.9191H148.513V46.6758Z" fill="black"/>
<path d="M16.9737 50.9219H12.7305V55.1651H16.9737V50.9219Z" fill="black"/>
<path d="M25.4601 50.9219H21.2168V55.1651H25.4601V50.9219Z" fill="black"/>
<path d="M38.1886 50.9219H33.9453V55.1651H38.1886V50.9219Z" fill="black"/>
<path d="M50.9191 50.9219H46.6758V55.1651H50.9191V50.9219Z" fill="black"/>
<path d="M55.1612 50.9219H50.918V55.1651H55.1612V50.9219Z" fill="black"/>
<path d="M59.4054 50.9219H55.1621V55.1651H59.4054V50.9219Z" fill="black"/>
<path d="M67.8917 50.9219H63.6484V55.1651H67.8917V50.9219Z" fill="black"/>
<path d="M84.8643 50.9219H80.6211V55.1651H84.8643V50.9219Z" fill="black"/>
<path d="M97.5948 50.9219H93.3516V55.1651H97.5948V50.9219Z" fill="black"/>
<path d="M106.081 50.9219H101.838V55.1651H106.081V50.9219Z" fill="black"/>
<path d="M110.323 50.9219H106.08V55.1651H110.323V50.9219Z" fill="black"/>
<path d="M114.567 50.9219H110.324V55.1651H114.567V50.9219Z" fill="black"/>
<path d="M123.054 50.9219H118.811V55.1651H123.054V50.9219Z" fill="black"/>
<path d="M127.298 50.9219H123.055V55.1651H127.298V50.9219Z" fill="black"/>
<path d="M131.54 50.9219H127.297V55.1651H131.54V50.9219Z" fill="black"/>
<path d="M135.784 50.9219H131.541V55.1651H135.784V50.9219Z" fill="black"/>
<path d="M144.271 50.9219H140.027V55.1651H144.271V50.9219Z" fill="black"/>
<path d="M148.513 50.9219H144.27V55.1651H148.513V50.9219Z" fill="black"/>
<path d="M12.7296 55.1641H8.48633V59.4073H12.7296V55.1641Z" fill="black"/>
<path d="M25.4601 55.1641H21.2168V59.4073H25.4601V55.1641Z" fill="black"/>
<path d="M50.9191 55.1641H46.6758V59.4073H50.9191V55.1641Z" fill="black"/>
<path d="M59.4054 55.1641H55.1621V59.4073H59.4054V55.1641Z" fill="black"/>
<path d="M76.378 55.1641H72.1348V59.4073H76.378V55.1641Z" fill="black"/>
<path d="M80.6222 55.1641H76.3789V59.4073H80.6222V55.1641Z" fill="black"/>
<path d="M97.5948 55.1641H93.3516V59.4073H97.5948V55.1641Z" fill="black"/>
<path d="M127.298 55.1641H123.055V59.4073H127.298V55.1641Z" fill="black"/>
<path d="M135.784 55.1641H131.541V59.4073H135.784V55.1641Z" fill="black"/>
<path d="M144.271 55.1641H140.027V59.4073H144.271V55.1641Z" fill="black"/>
<path d="M16.9737 59.4062H12.7305V63.6495H16.9737V59.4062Z" fill="black"/>
<path d="M21.2159 59.4062H16.9727V63.6495H21.2159V59.4062Z" fill="black"/>
<path d="M25.4601 59.4062H21.2168V63.6495H25.4601V59.4062Z" fill="black"/>
<path d="M29.7022 59.4062H25.459V63.6495H29.7022V59.4062Z" fill="black"/>
<path d="M33.9464 59.4062H29.7031V63.6495H33.9464V59.4062Z" fill="black"/>
<path d="M38.1886 59.4062H33.9453V63.6495H38.1886V59.4062Z" fill="black"/>
<path d="M42.4327 59.4062H38.1895V63.6495H42.4327V59.4062Z" fill="black"/>
<path d="M50.9191 59.4062H46.6758V63.6495H50.9191V59.4062Z" fill="black"/>
<path d="M55.1612 59.4062H50.918V63.6495H55.1612V59.4062Z" fill="black"/>
<path d="M59.4054 59.4062H55.1621V63.6495H59.4054V59.4062Z" fill="black"/>
<path d="M72.1358 59.4062H67.8926V63.6495H72.1358V59.4062Z" fill="black"/>
<path d="M76.378 59.4062H72.1348V63.6495H76.378V59.4062Z" fill="black"/>
<path d="M80.6222 59.4062H76.3789V63.6495H80.6222V59.4062Z" fill="black"/>
<path d="M84.8643 59.4062H80.6211V63.6495H84.8643V59.4062Z" fill="black"/>
<path d="M93.3507 59.4062H89.1074V63.6495H93.3507V59.4062Z" fill="black"/>
<path d="M106.081 59.4062H101.838V63.6495H106.081V59.4062Z" fill="black"/>
<path d="M110.323 59.4062H106.08V63.6495H110.323V59.4062Z" fill="black"/>
<path d="M114.567 59.4062H110.324V63.6495H114.567V59.4062Z" fill="black"/>
<path d="M118.812 59.4062H114.568V63.6495H118.812V59.4062Z" fill="black"/>
<path d="M127.298 59.4062H123.055V63.6495H127.298V59.4062Z" fill="black"/>
<path d="M131.54 59.4062H127.297V63.6495H131.54V59.4062Z" fill="black"/>
<path d="M135.784 59.4062H131.541V63.6495H135.784V59.4062Z" fill="black"/>
<path d="M12.7296 63.6523H8.48633V67.8956H12.7296V63.6523Z" fill="black"/>
<path d="M16.9737 63.6523H12.7305V67.8956H16.9737V63.6523Z" fill="black"/>
<path d="M29.7022 63.6523H25.459V67.8956H29.7022V63.6523Z" fill="black"/>
<path d="M42.4327 63.6523H38.1895V67.8956H42.4327V63.6523Z" fill="black"/>
<path d="M46.6749 63.6523H42.4316V67.8956H46.6749V63.6523Z" fill="black"/>
<path d="M50.9191 63.6523H46.6758V67.8956H50.9191V63.6523Z" fill="black"/>
<path d="M63.6475 63.6523H59.4043V67.8956H63.6475V63.6523Z" fill="black"/>
<path d="M67.8917 63.6523H63.6484V67.8956H67.8917V63.6523Z" fill="black"/>
<path d="M72.1358 63.6523H67.8926V67.8956H72.1358V63.6523Z" fill="black"/>
<path d="M89.1085 63.6523H84.8652V67.8956H89.1085V63.6523Z" fill="black"/>
<path d="M93.3507 63.6523H89.1074V67.8956H93.3507V63.6523Z" fill="black"/>
<path d="M101.837 63.6523H97.5938V67.8956H101.837V63.6523Z" fill="black"/>
<path d="M114.567 63.6523H110.324V67.8956H114.567V63.6523Z" fill="black"/>
<path d="M127.298 63.6523H123.055V67.8956H127.298V63.6523Z" fill="black"/>
<path d="M135.784 63.6523H131.541V67.8956H135.784V63.6523Z" fill="black"/>
<path d="M144.271 63.6523H140.027V67.8956H144.271V63.6523Z" fill="black"/>
<path d="M16.9737 67.8945H12.7305V72.1378H16.9737V67.8945Z" fill="black"/>
<path d="M25.4601 67.8945H21.2168V72.1378H25.4601V67.8945Z" fill="black"/>
<path d="M33.9464 67.8945H29.7031V72.1378H33.9464V67.8945Z" fill="black"/>
<path d="M38.1886 67.8945H33.9453V72.1378H38.1886V67.8945Z" fill="black"/>
<path d="M50.9191 67.8945H46.6758V72.1378H50.9191V67.8945Z" fill="black"/>
<path d="M55.1612 67.8945H50.918V72.1378H55.1612V67.8945Z" fill="black"/>
<path d="M59.4054 67.8945H55.1621V72.1378H59.4054V67.8945Z" fill="black"/>
<path d="M89.1085 67.8945H84.8652V72.1378H89.1085V67.8945Z" fill="black"/>
<path d="M93.3507 67.8945H89.1074V72.1378H93.3507V67.8945Z" fill="black"/>
<path d="M97.5948 67.8945H93.3516V72.1378H97.5948V67.8945Z" fill="black"/>
<path d="M101.837 67.8945H97.5938V72.1378H101.837V67.8945Z" fill="black"/>
<path d="M114.567 67.8945H110.324V72.1378H114.567V67.8945Z" fill="black"/>
<path d="M123.054 67.8945H118.811V72.1378H123.054V67.8945Z" fill="black"/>
<path d="M131.54 67.8945H127.297V72.1378H131.54V67.8945Z" fill="black"/>
<path d="M135.784 67.8945H131.541V72.1378H135.784V67.8945Z" fill="black"/>
<path d="M140.026 67.8945H135.783V72.1378H140.026V67.8945Z" fill="black"/>
<path d="M16.9737 72.1367H12.7305V76.38H16.9737V72.1367Z" fill="black"/>
<path d="M29.7022 72.1367H25.459V76.38H29.7022V72.1367Z" fill="black"/>
<path d="M33.9464 72.1367H29.7031V76.38H33.9464V72.1367Z" fill="black"/>
<path d="M42.4327 72.1367H38.1895V76.38H42.4327V72.1367Z" fill="black"/>
<path d="M46.6749 72.1367H42.4316V76.38H46.6749V72.1367Z" fill="black"/>
<path d="M59.4054 72.1367H55.1621V76.38H59.4054V72.1367Z" fill="black"/>
<path d="M63.6475 72.1367H59.4043V76.38H63.6475V72.1367Z" fill="black"/>
<path d="M76.378 72.1367H72.1348V76.38H76.378V72.1367Z" fill="black"/>
<path d="M93.3507 72.1367H89.1074V76.38H93.3507V72.1367Z" fill="black"/>
<path d="M101.837 72.1367H97.5938V76.38H101.837V72.1367Z" fill="black"/>
<path d="M106.081 72.1367H101.838V76.38H106.081V72.1367Z" fill="black"/>
<path d="M110.323 72.1367H106.08V76.38H110.323V72.1367Z" fill="black"/>
<path d="M118.812 72.1367H114.568V76.38H118.812V72.1367Z" fill="black"/>
<path d="M123.054 72.1367H118.811V76.38H123.054V72.1367Z" fill="black"/>
<path d="M140.026 72.1367H135.783V76.38H140.026V72.1367Z" fill="black"/>
<path d="M12.7296 76.3789H8.48633V80.6222H12.7296V76.3789Z" fill="black"/>
<path d="M16.9737 76.3789H12.7305V80.6222H16.9737V76.3789Z" fill="black"/>
<path d="M21.2159 76.3789H16.9727V80.6222H21.2159V76.3789Z" fill="black"/>
<path d="M33.9464 76.3789H29.7031V80.6222H33.9464V76.3789Z" fill="black"/>
<path d="M38.1886 76.3789H33.9453V80.6222H38.1886V76.3789Z" fill="black"/>
<path d="M50.9191 76.3789H46.6758V80.6222H50.9191V76.3789Z" fill="black"/>
<path d="M55.1612 76.3789H50.918V80.6222H55.1612V76.3789Z" fill="black"/>
<path d="M59.4054 76.3789H55.1621V80.6222H59.4054V76.3789Z" fill="black"/>
<path d="M72.1358 76.3789H67.8926V80.6222H72.1358V76.3789Z" fill="black"/>
<path d="M80.6222 76.3789H76.3789V80.6222H80.6222V76.3789Z" fill="black"/>
<path d="M97.5948 76.3789H93.3516V80.6222H97.5948V76.3789Z" fill="black"/>
<path d="M101.837 76.3789H97.5938V80.6222H101.837V76.3789Z" fill="black"/>
<path d="M106.081 76.3789H101.838V80.6222H106.081V76.3789Z" fill="black"/>
<path d="M114.567 76.3789H110.324V80.6222H114.567V76.3789Z" fill="black"/>
<path d="M118.812 76.3789H114.568V80.6222H118.812V76.3789Z" fill="black"/>
<path d="M123.054 76.3789H118.811V80.6222H123.054V76.3789Z" fill="black"/>
<path d="M131.54 76.3789H127.297V80.6222H131.54V76.3789Z" fill="black"/>
<path d="M135.784 76.3789H131.541V80.6222H135.784V76.3789Z" fill="black"/>
<path d="M140.026 76.3789H135.783V80.6222H140.026V76.3789Z" fill="black"/>
<path d="M25.4601 80.625H21.2168V84.8682H25.4601V80.625Z" fill="black"/>
<path d="M29.7022 80.625H25.459V84.8682H29.7022V80.625Z" fill="black"/>
<path d="M59.4054 80.625H55.1621V84.8682H59.4054V80.625Z" fill="black"/>
<path d="M63.6475 80.625H59.4043V84.8682H63.6475V80.625Z" fill="black"/>
<path d="M67.8917 80.625H63.6484V84.8682H67.8917V80.625Z" fill="black"/>
<path d="M72.1358 80.625H67.8926V84.8682H72.1358V80.625Z" fill="black"/>
<path d="M76.378 80.625H72.1348V84.8682H76.378V80.625Z" fill="black"/>
<path d="M106.081 80.625H101.838V84.8682H106.081V80.625Z" fill="black"/>
<path d="M110.323 80.625H106.08V84.8682H110.323V80.625Z" fill="black"/>
<path d="M114.567 80.625H110.324V84.8682H114.567V80.625Z" fill="black"/>
<path d="M123.054 80.625H118.811V84.8682H123.054V80.625Z" fill="black"/>
<path d="M131.54 80.625H127.297V84.8682H131.54V80.625Z" fill="black"/>
<path d="M135.784 80.625H131.541V84.8682H135.784V80.625Z" fill="black"/>
<path d="M148.513 80.625H144.27V84.8682H148.513V80.625Z" fill="black"/>
<path d="M12.7296 84.8672H8.48633V89.1104H12.7296V84.8672Z" fill="black"/>
<path d="M25.4601 84.8672H21.2168V89.1104H25.4601V84.8672Z" fill="black"/>
<path d="M38.1886 84.8672H33.9453V89.1104H38.1886V84.8672Z" fill="black"/>
<path d="M42.4327 84.8672H38.1895V89.1104H42.4327V84.8672Z" fill="black"/>
<path d="M46.6749 84.8672H42.4316V89.1104H46.6749V84.8672Z" fill="black"/>
<path d="M50.9191 84.8672H46.6758V89.1104H50.9191V84.8672Z" fill="black"/>
<path d="M76.378 84.8672H72.1348V89.1104H76.378V84.8672Z" fill="black"/>
<path d="M80.6222 84.8672H76.3789V89.1104H80.6222V84.8672Z" fill="black"/>
<path d="M89.1085 84.8672H84.8652V89.1104H89.1085V84.8672Z" fill="black"/>
<path d="M97.5948 84.8672H93.3516V89.1104H97.5948V84.8672Z" fill="black"/>
<path d="M123.054 84.8672H118.811V89.1104H123.054V84.8672Z" fill="black"/>
<path d="M127.298 84.8672H123.055V89.1104H127.298V84.8672Z" fill="black"/>
<path d="M131.54 84.8672H127.297V89.1104H131.54V84.8672Z" fill="black"/>
<path d="M140.026 84.8672H135.783V89.1104H140.026V84.8672Z" fill="black"/>
<path d="M144.271 84.8672H140.027V89.1104H144.271V84.8672Z" fill="black"/>
<path d="M29.7022 89.1094H25.459V93.3526H29.7022V89.1094Z" fill="black"/>
<path d="M46.6749 89.1094H42.4316V93.3526H46.6749V89.1094Z" fill="black"/>
<path d="M50.9191 89.1094H46.6758V93.3526H50.9191V89.1094Z" fill="black"/>
<path d="M63.6475 89.1094H59.4043V93.3526H63.6475V89.1094Z" fill="black"/>
<path d="M72.1358 89.1094H67.8926V93.3526H72.1358V89.1094Z" fill="black"/>
<path d="M76.378 89.1094H72.1348V93.3526H76.378V89.1094Z" fill="black"/>
<path d="M80.6222 89.1094H76.3789V93.3526H80.6222V89.1094Z" fill="black"/>
<path d="M84.8643 89.1094H80.6211V93.3526H84.8643V89.1094Z" fill="black"/>
<path d="M106.081 89.1094H101.838V93.3526H106.081V89.1094Z" fill="black"/>
<path d="M110.323 89.1094H106.08V93.3526H110.323V89.1094Z" fill="black"/>
<path d="M118.812 89.1094H114.568V93.3526H118.812V89.1094Z" fill="black"/>
<path d="M123.054 89.1094H118.811V93.3526H123.054V89.1094Z" fill="black"/>
<path d="M131.54 89.1094H127.297V93.3526H131.54V89.1094Z" fill="black"/>
<path d="M148.513 89.1094H144.27V93.3526H148.513V89.1094Z" fill="black"/>
<path d="M16.9737 93.3516H12.7305V97.5948H16.9737V93.3516Z" fill="black"/>
<path d="M21.2159 93.3516H16.9727V97.5948H21.2159V93.3516Z" fill="black"/>
<path d="M29.7022 93.3516H25.459V97.5948H29.7022V93.3516Z" fill="black"/>
<path d="M38.1886 93.3516H33.9453V97.5948H38.1886V93.3516Z" fill="black"/>
<path d="M46.6749 93.3516H42.4316V97.5948H46.6749V93.3516Z" fill="black"/>
<path d="M59.4054 93.3516H55.1621V97.5948H59.4054V93.3516Z" fill="black"/>
<path d="M67.8917 93.3516H63.6484V97.5948H67.8917V93.3516Z" fill="black"/>
<path d="M76.378 93.3516H72.1348V97.5948H76.378V93.3516Z" fill="black"/>
<path d="M80.6222 93.3516H76.3789V97.5948H80.6222V93.3516Z" fill="black"/>
<path d="M84.8643 93.3516H80.6211V97.5948H84.8643V93.3516Z" fill="black"/>
<path d="M89.1085 93.3516H84.8652V97.5948H89.1085V93.3516Z" fill="black"/>
<path d="M93.3507 93.3516H89.1074V97.5948H93.3507V93.3516Z" fill="black"/>
<path d="M101.837 93.3516H97.5938V97.5948H101.837V93.3516Z" fill="black"/>
<path d="M114.567 93.3516H110.324V97.5948H114.567V93.3516Z" fill="black"/>
<path d="M127.298 93.3516H123.055V97.5948H127.298V93.3516Z" fill="black"/>
<path d="M135.784 93.3516H131.541V97.5948H135.784V93.3516Z" fill="black"/>
<path d="M140.026 93.3516H135.783V97.5948H140.026V93.3516Z" fill="black"/>
<path d="M144.271 93.3516H140.027V97.5948H144.271V93.3516Z" fill="black"/>
<path d="M12.7296 97.5977H8.48633V101.841H12.7296V97.5977Z" fill="black"/>
<path d="M16.9737 97.5977H12.7305V101.841H16.9737V97.5977Z" fill="black"/>
<path d="M29.7022 97.5977H25.459V101.841H29.7022V97.5977Z" fill="black"/>
<path d="M42.4327 97.5977H38.1895V101.841H42.4327V97.5977Z" fill="black"/>
<path d="M46.6749 97.5977H42.4316V101.841H46.6749V97.5977Z" fill="black"/>
<path d="M50.9191 97.5977H46.6758V101.841H50.9191V97.5977Z" fill="black"/>
<path d="M59.4054 97.5977H55.1621V101.841H59.4054V97.5977Z" fill="black"/>
<path d="M63.6475 97.5977H59.4043V101.841H63.6475V97.5977Z" fill="black"/>
<path d="M72.1358 97.5977H67.8926V101.841H72.1358V97.5977Z" fill="black"/>
<path d="M76.378 97.5977H72.1348V101.841H76.378V97.5977Z" fill="black"/>
<path d="M80.6222 97.5977H76.3789V101.841H80.6222V97.5977Z" fill="black"/>
<path d="M84.8643 97.5977H80.6211V101.841H84.8643V97.5977Z" fill="black"/>
<path d="M89.1085 97.5977H84.8652V101.841H89.1085V97.5977Z" fill="black"/>
<path d="M93.3507 97.5977H89.1074V101.841H93.3507V97.5977Z" fill="black"/>
<path d="M97.5948 97.5977H93.3516V101.841H97.5948V97.5977Z" fill="black"/>
<path d="M110.323 97.5977H106.08V101.841H110.323V97.5977Z" fill="black"/>
<path d="M114.567 97.5977H110.324V101.841H114.567V97.5977Z" fill="black"/>
<path d="M123.054 97.5977H118.811V101.841H123.054V97.5977Z" fill="black"/>
<path d="M135.784 97.5977H131.541V101.841H135.784V97.5977Z" fill="black"/>
<path d="M148.513 97.5977H144.27V101.841H148.513V97.5977Z" fill="black"/>
<path d="M38.1886 101.84H33.9453V106.083H38.1886V101.84Z" fill="black"/>
<path d="M42.4327 101.84H38.1895V106.083H42.4327V101.84Z" fill="black"/>
<path d="M46.6749 101.84H42.4316V106.083H46.6749V101.84Z" fill="black"/>
<path d="M50.9191 101.84H46.6758V106.083H50.9191V101.84Z" fill="black"/>
<path d="M67.8917 101.84H63.6484V106.083H67.8917V101.84Z" fill="black"/>
<path d="M72.1358 101.84H67.8926V106.083H72.1358V101.84Z" fill="black"/>
<path d="M76.378 101.84H72.1348V106.083H76.378V101.84Z" fill="black"/>
<path d="M89.1085 101.84H84.8652V106.083H89.1085V101.84Z" fill="black"/>
<path d="M97.5948 101.84H93.3516V106.083H97.5948V101.84Z" fill="black"/>
<path d="M101.837 101.84H97.5938V106.083H101.837V101.84Z" fill="black"/>
<path d="M106.081 101.84H101.838V106.083H106.081V101.84Z" fill="black"/>
<path d="M110.323 101.84H106.08V106.083H110.323V101.84Z" fill="black"/>
<path d="M114.567 101.84H110.324V106.083H114.567V101.84Z" fill="black"/>
<path d="M123.054 101.84H118.811V106.083H123.054V101.84Z" fill="black"/>
<path d="M127.298 101.84H123.055V106.083H127.298V101.84Z" fill="black"/>
<path d="M140.026 101.84H135.783V106.083H140.026V101.84Z" fill="black"/>
<path d="M144.271 101.84H140.027V106.083H144.271V101.84Z" fill="black"/>
<path d="M148.513 101.84H144.27V106.083H148.513V101.84Z" fill="black"/>
<path d="M16.9737 106.082H12.7305V110.325H16.9737V106.082Z" fill="black"/>
<path d="M21.2159 106.082H16.9727V110.325H21.2159V106.082Z" fill="black"/>
<path d="M29.7022 106.082H25.459V110.325H29.7022V106.082Z" fill="black"/>
<path d="M46.6749 106.082H42.4316V110.325H46.6749V106.082Z" fill="black"/>
<path d="M50.9191 106.082H46.6758V110.325H50.9191V106.082Z" fill="black"/>
<path d="M63.6475 106.082H59.4043V110.325H63.6475V106.082Z" fill="black"/>
<path d="M76.378 106.082H72.1348V110.325H76.378V106.082Z" fill="black"/>
<path d="M89.1085 106.082H84.8652V110.325H89.1085V106.082Z" fill="black"/>
<path d="M97.5948 106.082H93.3516V110.325H97.5948V106.082Z" fill="black"/>
<path d="M110.323 106.082H106.08V110.325H110.323V106.082Z" fill="black"/>
<path d="M118.812 106.082H114.568V110.325H118.812V106.082Z" fill="black"/>
<path d="M127.298 106.082H123.055V110.325H127.298V106.082Z" fill="black"/>
<path d="M131.54 106.082H127.297V110.325H131.54V106.082Z" fill="black"/>
<path d="M135.784 106.082H131.541V110.325H135.784V106.082Z" fill="black"/>
<path d="M12.7296 110.324H8.48633V114.567H12.7296V110.324Z" fill="black"/>
<path d="M21.2159 110.324H16.9727V114.567H21.2159V110.324Z" fill="black"/>
<path d="M25.4601 110.324H21.2168V114.567H25.4601V110.324Z" fill="black"/>
<path d="M38.1886 110.324H33.9453V114.567H38.1886V110.324Z" fill="black"/>
<path d="M42.4327 110.324H38.1895V114.567H42.4327V110.324Z" fill="black"/>
<path d="M55.1612 110.324H50.918V114.567H55.1612V110.324Z" fill="black"/>
<path d="M63.6475 110.324H59.4043V114.567H63.6475V110.324Z" fill="black"/>
<path d="M72.1358 110.324H67.8926V114.567H72.1358V110.324Z" fill="black"/>
<path d="M84.8643 110.324H80.6211V114.567H84.8643V110.324Z" fill="black"/>
<path d="M93.3507 110.324H89.1074V114.567H93.3507V110.324Z" fill="black"/>
<path d="M106.081 110.324H101.838V114.567H106.081V110.324Z" fill="black"/>
<path d="M114.567 110.324H110.324V114.567H114.567V110.324Z" fill="black"/>
<path d="M118.812 110.324H114.568V114.567H118.812V110.324Z" fill="black"/>
<path d="M123.054 110.324H118.811V114.567H123.054V110.324Z" fill="black"/>
<path d="M127.298 110.324H123.055V114.567H127.298V110.324Z" fill="black"/>
<path d="M131.54 110.324H127.297V114.567H131.54V110.324Z" fill="black"/>
<path d="M148.513 110.324H144.27V114.567H148.513V110.324Z" fill="black"/>
<path d="M46.6749 114.57H42.4316V118.814H46.6749V114.57Z" fill="black"/>
<path d="M50.9191 114.57H46.6758V118.814H50.9191V114.57Z" fill="black"/>
<path d="M63.6475 114.57H59.4043V118.814H63.6475V114.57Z" fill="black"/>
<path d="M67.8917 114.57H63.6484V118.814H67.8917V114.57Z" fill="black"/>
<path d="M72.1358 114.57H67.8926V118.814H72.1358V114.57Z" fill="black"/>
<path d="M76.378 114.57H72.1348V118.814H76.378V114.57Z" fill="black"/>
<path d="M80.6222 114.57H76.3789V118.814H80.6222V114.57Z" fill="black"/>
<path d="M84.8643 114.57H80.6211V118.814H84.8643V114.57Z" fill="black"/>
<path d="M89.1085 114.57H84.8652V118.814H89.1085V114.57Z" fill="black"/>
<path d="M93.3507 114.57H89.1074V118.814H93.3507V114.57Z" fill="black"/>
<path d="M101.837 114.57H97.5938V118.814H101.837V114.57Z" fill="black"/>
<path d="M110.323 114.57H106.08V118.814H110.323V114.57Z" fill="black"/>
<path d="M114.567 114.57H110.324V118.814H114.567V114.57Z" fill="black"/>
<path d="M131.54 114.57H127.297V118.814H131.54V114.57Z" fill="black"/>
<path d="M135.784 114.57H131.541V118.814H135.784V114.57Z" fill="black"/>
<path d="M144.271 114.57H140.027V118.814H144.271V114.57Z" fill="black"/>
<path d="M46.6749 118.812H42.4316V123.056H46.6749V118.812Z" fill="black"/>
<path d="M55.1612 118.812H50.918V123.056H55.1612V118.812Z" fill="black"/>
<path d="M59.4054 118.812H55.1621V123.056H59.4054V118.812Z" fill="black"/>
<path d="M63.6475 118.812H59.4043V123.056H63.6475V118.812Z" fill="black"/>
<path d="M67.8917 118.812H63.6484V123.056H67.8917V118.812Z" fill="black"/>
<path d="M80.6222 118.812H76.3789V123.056H80.6222V118.812Z" fill="black"/>
<path d="M89.1085 118.812H84.8652V123.056H89.1085V118.812Z" fill="black"/>
<path d="M93.3507 118.812H89.1074V123.056H93.3507V118.812Z" fill="black"/>
<path d="M101.837 118.812H97.5938V123.056H101.837V118.812Z" fill="black"/>
<path d="M110.323 118.812H106.08V123.056H110.323V118.812Z" fill="black"/>
<path d="M114.567 118.812H110.324V123.056H114.567V118.812Z" fill="black"/>
<path d="M123.054 118.812H118.811V123.056H123.054V118.812Z" fill="black"/>
<path d="M131.54 118.812H127.297V123.056H131.54V118.812Z" fill="black"/>
<path d="M46.6749 123.055H42.4316V127.298H46.6749V123.055Z" fill="black"/>
<path d="M63.6475 123.055H59.4043V127.298H63.6475V123.055Z" fill="black"/>
<path d="M67.8917 123.055H63.6484V127.298H67.8917V123.055Z" fill="black"/>
<path d="M76.378 123.055H72.1348V127.298H76.378V123.055Z" fill="black"/>
<path d="M80.6222 123.055H76.3789V127.298H80.6222V123.055Z" fill="black"/>
<path d="M97.5948 123.055H93.3516V127.298H97.5948V123.055Z" fill="black"/>
<path d="M101.837 123.055H97.5938V127.298H101.837V123.055Z" fill="black"/>
<path d="M106.081 123.055H101.838V127.298H106.081V123.055Z" fill="black"/>
<path d="M110.323 123.055H106.08V127.298H110.323V123.055Z" fill="black"/>
<path d="M114.567 123.055H110.324V127.298H114.567V123.055Z" fill="black"/>
<path d="M131.54 123.055H127.297V127.298H131.54V123.055Z" fill="black"/>
<path d="M135.784 123.055H131.541V127.298H135.784V123.055Z" fill="black"/>
<path d="M140.026 123.055H135.783V127.298H140.026V123.055Z" fill="black"/>
<path d="M144.271 123.055H140.027V127.298H144.271V123.055Z" fill="black"/>
<path d="M67.8917 127.301H63.6484V131.544H67.8917V127.301Z" fill="black"/>
<path d="M89.1085 127.301H84.8652V131.544H89.1085V127.301Z" fill="black"/>
<path d="M93.3507 127.301H89.1074V131.544H93.3507V127.301Z" fill="black"/>
<path d="M97.5948 127.301H93.3516V131.544H97.5948V127.301Z" fill="black"/>
<path d="M101.837 127.301H97.5938V131.544H101.837V127.301Z" fill="black"/>
<path d="M106.081 127.301H101.838V131.544H106.081V127.301Z" fill="black"/>
<path d="M110.323 127.301H106.08V131.544H110.323V127.301Z" fill="black"/>
<path d="M114.567 127.301H110.324V131.544H114.567V127.301Z" fill="black"/>
<path d="M118.812 127.301H114.568V131.544H118.812V127.301Z" fill="black"/>
<path d="M123.054 127.301H118.811V131.544H123.054V127.301Z" fill="black"/>
<path d="M127.298 127.301H123.055V131.544H127.298V127.301Z" fill="black"/>
<path d="M131.54 127.301H127.297V131.544H131.54V127.301Z" fill="black"/>
<path d="M140.026 127.301H135.783V131.544H140.026V127.301Z" fill="black"/>
<path d="M148.513 127.301H144.27V131.544H148.513V127.301Z" fill="black"/>
<path d="M46.6749 131.543H42.4316V135.786H46.6749V131.543Z" fill="black"/>
<path d="M55.1612 131.543H50.918V135.786H55.1612V131.543Z" fill="black"/>
<path d="M59.4054 131.543H55.1621V135.786H59.4054V131.543Z" fill="black"/>
<path d="M67.8917 131.543H63.6484V135.786H67.8917V131.543Z" fill="black"/>
<path d="M72.1358 131.543H67.8926V135.786H72.1358V131.543Z" fill="black"/>
<path d="M80.6222 131.543H76.3789V135.786H80.6222V131.543Z" fill="black"/>
<path d="M89.1085 131.543H84.8652V135.786H89.1085V131.543Z" fill="black"/>
<path d="M106.081 131.543H101.838V135.786H106.081V131.543Z" fill="black"/>
<path d="M127.298 131.543H123.055V135.786H127.298V131.543Z" fill="black"/>
<path d="M135.784 131.543H131.541V135.786H135.784V131.543Z" fill="black"/>
<path d="M148.513 131.543H144.27V135.786H148.513V131.543Z" fill="black"/>
<path d="M46.6749 135.785H42.4316V140.028H46.6749V135.785Z" fill="black"/>
<path d="M59.4054 135.785H55.1621V140.028H59.4054V135.785Z" fill="black"/>
<path d="M72.1358 135.785H67.8926V140.028H72.1358V135.785Z" fill="black"/>
<path d="M76.378 135.785H72.1348V140.028H76.378V135.785Z" fill="black"/>
<path d="M84.8643 135.785H80.6211V140.028H84.8643V135.785Z" fill="black"/>
<path d="M89.1085 135.785H84.8652V140.028H89.1085V135.785Z" fill="black"/>
<path d="M97.5948 135.785H93.3516V140.028H97.5948V135.785Z" fill="black"/>
<path d="M106.081 135.785H101.838V140.028H106.081V135.785Z" fill="black"/>
<path d="M110.323 135.785H106.08V140.028H110.323V135.785Z" fill="black"/>
<path d="M123.054 135.785H118.811V140.028H123.054V135.785Z" fill="black"/>
<path d="M127.298 135.785H123.055V140.028H127.298V135.785Z" fill="black"/>
<path d="M140.026 135.785H135.783V140.028H140.026V135.785Z" fill="black"/>
<path d="M50.9191 140.027H46.6758V144.271H50.9191V140.027Z" fill="black"/>
<path d="M55.1612 140.027H50.918V144.271H55.1612V140.027Z" fill="black"/>
<path d="M67.8917 140.027H63.6484V144.271H67.8917V140.027Z" fill="black"/>
<path d="M76.378 140.027H72.1348V144.271H76.378V140.027Z" fill="black"/>
<path d="M84.8643 140.027H80.6211V144.271H84.8643V140.027Z" fill="black"/>
<path d="M89.1085 140.027H84.8652V144.271H89.1085V140.027Z" fill="black"/>
<path d="M106.081 140.027H101.838V144.271H106.081V140.027Z" fill="black"/>
<path d="M114.567 140.027H110.324V144.271H114.567V140.027Z" fill="black"/>
<path d="M118.812 140.027H114.568V144.271H118.812V140.027Z" fill="black"/>
<path d="M127.298 140.027H123.055V144.271H127.298V140.027Z" fill="black"/>
<path d="M131.54 140.027H127.297V144.271H131.54V140.027Z" fill="black"/>
<path d="M148.513 140.027H144.27V144.271H148.513V140.027Z" fill="black"/>
<path d="M46.6749 144.273H42.4316V148.517H46.6749V144.273Z" fill="black"/>
<path d="M50.9191 144.273H46.6758V148.517H50.9191V144.273Z" fill="black"/>
<path d="M84.8643 144.273H80.6211V148.517H84.8643V144.273Z" fill="black"/>
<path d="M89.1085 144.273H84.8652V148.517H89.1085V144.273Z" fill="black"/>
<path d="M101.837 144.273H97.5938V148.517H101.837V144.273Z" fill="black"/>
<path d="M110.323 144.273H106.08V148.517H110.323V144.273Z" fill="black"/>
<path d="M118.812 144.273H114.568V148.517H118.812V144.273Z" fill="black"/>
<path d="M131.54 144.273H127.297V148.517H131.54V144.273Z" fill="black"/>
<path d="M140.026 144.273H135.783V148.517H140.026V144.273Z" fill="black"/>
<path d="M33.7336 8.48828H12.9417H8.48633V12.9437V33.7356V38.191H12.9417H33.7336H38.189V33.7356V12.9437V8.48828H33.7336ZM33.7336 33.7356H12.9417V12.9437H33.7336V33.7356Z" fill="black"/>
<path d="M144.058 8.48828H123.266H118.811V12.9437V33.7356V38.191H123.266H144.058H148.513V33.7356V12.9437V8.48828H144.058ZM144.058 33.7356H123.266V12.9437H144.058V33.7356Z" fill="black"/>
<path d="M33.7336 118.812H12.9417H8.48633V123.268V144.06V148.515H12.9417H33.7336H38.189V144.06V123.268V118.812H33.7336ZM33.7336 144.06H12.9417V123.268H33.7336V144.06Z" fill="black"/>
<path d="M29.7024 16.9766H16.9727V29.7063H29.7024V16.9766Z" fill="black"/>
<path d="M140.027 16.9766H127.297V29.7063H140.027V16.9766Z" fill="black"/>
<path d="M29.7024 127.301H16.9727V140.031H29.7024V127.301Z" fill="black"/>
</svg>
