<svg width="24" height="24" viewBox="0 0 24 24" fill="none" xmlns="http://www.w3.org/2000/svg">
<g clip-path="url(#clip0)">
<path d="M7.13205 23.5515C6.65887 23.2367 6.2395 22.8477 5.89005 22.3995C5.50567 21.9369 5.14952 21.4515 4.82355 20.946C4.05862 19.8254 3.45873 18.6006 3.0423 17.3092C2.54205 15.8092 2.2998 14.3715 2.2998 12.9652C2.2998 11.3947 2.63955 10.0238 3.30405 8.87175C3.79664 7.97133 4.52086 7.21888 5.4018 6.69225C6.25554 6.16198 7.23648 5.87179 8.2413 5.85225C8.59305 5.85225 8.9718 5.90325 9.3738 6.00075C9.66255 6.0825 10.0143 6.2115 10.4441 6.372C10.9908 6.58275 11.2916 6.71175 11.3936 6.74325C11.7138 6.86025 11.9831 6.91125 12.1946 6.91125C12.3551 6.91125 12.5816 6.86025 12.8388 6.78225C12.9836 6.73125 13.2566 6.64125 13.6473 6.474C14.0343 6.333 14.3388 6.21225 14.5811 6.12225C14.9523 6.01275 15.3116 5.9115 15.6318 5.8605C16.0115 5.80065 16.3968 5.78479 16.7801 5.81325C17.4443 5.85666 18.0985 5.99742 18.7218 6.231C19.7411 6.64125 20.5653 7.28175 21.1788 8.19225C20.9195 8.35207 20.6761 8.53642 20.4521 8.74275C19.9643 9.17518 19.5488 9.68284 19.2213 10.2465C18.7933 11.0168 18.5714 11.8845 18.5771 12.7657C18.5928 13.848 18.8703 14.8012 19.4171 15.6255C19.819 16.2364 20.3414 16.7588 20.9523 17.1607C21.2651 17.3715 21.5343 17.5162 21.7923 17.6137C21.6716 17.9887 21.5426 18.3517 21.3903 18.7118C21.045 19.519 20.6265 20.293 20.1401 21.024C19.7066 21.6532 19.3668 22.122 19.1088 22.434C18.7068 22.9102 18.3198 23.274 17.9291 23.5275C17.4993 23.8125 16.9916 23.9647 16.4756 23.9647C16.1261 23.9782 15.7767 23.9359 15.4406 23.8395C15.1518 23.742 14.8661 23.6362 14.5848 23.5155C14.2924 23.3812 13.9909 23.2677 13.6826 23.1757C12.9203 22.98 12.1212 22.9787 11.3583 23.172C11.0456 23.262 10.7448 23.367 10.4478 23.496C10.0301 23.6715 9.75255 23.7892 9.59205 23.8395C9.2718 23.9333 8.93955 23.9917 8.60355 24.0112C8.0838 24.0112 7.5993 23.8628 7.1193 23.562L7.13205 23.5515ZM13.9871 5.09025C13.3076 5.43 12.6588 5.57475 12.0146 5.5275C11.9133 4.87875 12.0146 4.215 12.2838 3.48825C12.513 2.87255 12.8517 2.30339 13.2836 1.80825C13.7396 1.28702 14.2929 0.859782 14.9126 0.5505C15.5726 0.21075 16.2018 0.027 16.8033 0C16.8813 0.6795 16.8033 1.34775 16.5536 2.07C16.3224 2.70846 15.9844 3.30295 15.5538 3.828C15.1143 4.34995 14.575 4.77884 13.9676 5.0895L13.9871 5.09025Z" fill="black"/>
</g>
<defs>
<clipPath id="clip0">
<rect width="24" height="24" fill="white"/>
</clipPath>
</defs>
</svg>
