<svg width="24" height="24" viewBox="0 0 24 24" fill="none" xmlns="http://www.w3.org/2000/svg">
<path d="M19.1116 7.86038C19.1237 8.0298 19.1237 8.19925 19.1237 8.36866C19.1237 13.536 15.1907 19.49 8.00238 19.49C5.78778 19.49 3.73053 18.8486 2 17.7353C2.31465 17.7716 2.61716 17.7837 2.94392 17.7837C4.77123 17.7837 6.45337 17.1665 7.79665 16.1137C6.07822 16.0774 4.63813 14.9519 4.14196 13.4029C4.38401 13.4392 4.62603 13.4634 4.88018 13.4634C5.23112 13.4634 5.58209 13.415 5.90881 13.3303C4.11778 12.9672 2.77447 11.394 2.77447 9.4941V9.44571C3.29482 9.73615 3.89994 9.91767 4.54128 9.94185C3.48844 9.23994 2.79868 8.0419 2.79868 6.68652C2.79868 5.96044 2.99227 5.29485 3.33113 4.71397C5.25529 7.08588 8.14758 8.63485 11.3908 8.8043C11.3303 8.51386 11.294 8.21136 11.294 7.90881C11.294 5.75471 13.0366 4 15.2028 4C16.3282 4 17.3447 4.47196 18.0587 5.23436C18.9421 5.06495 19.7892 4.73819 20.5396 4.29044C20.2491 5.19808 19.6319 5.96048 18.8211 6.44451C19.6077 6.35984 20.3701 6.14196 21.072 5.83945C20.5396 6.61392 19.874 7.30368 19.1116 7.86038Z" fill="#00ACEE"/>
</svg>
