<svg width="24" height="24" viewBox="0 0 24 24" fill="none" xmlns="http://www.w3.org/2000/svg">
<path d="M12.7659 2C8.86009 2 5 4.60385 5 8.81797C5 11.4979 6.50749 13.0207 7.42112 13.0207C7.79799 13.0207 8.01498 11.97 8.01498 11.6731C8.01498 11.319 7.11277 10.5653 7.11277 9.09206C7.11277 6.03139 9.44253 3.86152 12.4575 3.86152C15.0499 3.86152 16.9686 5.33475 16.9686 8.04138C16.9686 10.0628 16.1577 13.8544 13.531 13.8544C12.5831 13.8544 11.7723 13.1691 11.7723 12.187C11.7723 10.748 12.7773 9.35472 12.7773 7.87008C12.7773 5.34998 9.2027 5.80679 9.2027 8.85223C9.2027 9.49177 9.28264 10.1998 9.56815 10.7823C9.04281 13.0435 7.9693 16.4125 7.9693 18.7423C7.9693 19.4618 8.07208 20.1698 8.1406 20.8893C8.27004 21.034 8.20532 21.0187 8.40327 20.9464C10.3219 18.3197 10.2534 17.8058 11.1213 14.3683C11.5896 15.2591 12.8001 15.7387 13.7594 15.7387C17.8022 15.7387 19.6181 11.7987 19.6181 8.24695C19.6181 4.4668 16.3519 2 12.7659 2Z" fill="#C8232C"/>
</svg>
