<svg width="21" height="24" viewBox="0 0 21 24" fill="none" xmlns="http://www.w3.org/2000/svg">
<path d="M4.80535 20H1.28081V8.64997H4.80535V20ZM3.04118 7.10172C1.91415 7.10172 1 6.16822 1 5.04118C1 4.49983 1.21505 3.98065 1.59785 3.59785C1.98065 3.21505 2.49983 3 3.04118 3C3.58254 3 4.10172 3.21505 4.48452 3.59785C4.86731 3.98065 5.08237 4.49983 5.08237 5.04118C5.08237 6.16822 4.16784 7.10172 3.04118 7.10172ZM17.9966 20H14.4796V14.4749C14.4796 13.1581 14.4531 11.4695 12.6472 11.4695C10.8147 11.4695 10.5339 12.9001 10.5339 14.38V20H7.01312V8.64997H10.3935V10.1982H10.4428C10.9133 9.30646 12.0628 8.36537 13.7776 8.36537C17.3446 8.36537 18.0004 10.7143 18.0004 13.7653V20H17.9966Z" fill="#0E76A8"/>
</svg>
