<svg width="24" height="24" viewBox="0 0 24 24" fill="none" xmlns="http://www.w3.org/2000/svg">
<path d="M18.1675 6.9274C18.1675 6.29594 17.6572 5.78606 17.0298 5.78606C16.4024 5.78606 15.8916 6.29594 15.8916 6.9274C15.8916 7.55653 16.4024 8.06641 17.0298 8.06641C17.6572 8.06641 18.1675 7.55653 18.1675 6.9274" fill="url(#paint0_linear)"/>
<path d="M19.6841 15.8383C19.6419 16.7647 19.4874 17.268 19.3591 17.6022C19.1868 18.0454 18.9813 18.3624 18.648 18.6948C18.3183 19.0272 18.0023 19.2328 17.5603 19.4037C17.227 19.5342 16.7232 19.6896 15.7995 19.7338C14.8008 19.7779 14.5049 19.7873 11.9725 19.7873C9.44237 19.7873 9.14411 19.7779 8.14545 19.7338C7.22173 19.6896 6.7203 19.5342 6.38692 19.4037C5.94262 19.2328 5.62894 19.0272 5.29746 18.6948C4.96363 18.3624 4.7581 18.0454 4.58815 17.6022C4.45984 17.268 4.30302 16.7647 4.2632 15.8383C4.21453 14.8369 4.20561 14.5355 4.20561 12.0012C4.20561 9.46168 4.21453 9.16259 4.2632 8.16116C4.30302 7.23487 4.45984 6.73204 4.58815 6.39492C4.7581 5.9522 4.96363 5.63715 5.29746 5.30475C5.62894 4.97284 5.94262 4.76671 6.38692 4.59396C6.7203 4.46297 7.22173 4.3099 8.14545 4.26578C9.14411 4.22163 9.44237 4.21036 11.9725 4.21036C14.5049 4.21036 14.8008 4.22163 15.7995 4.26578C16.7232 4.3099 17.227 4.46297 17.5603 4.59396C18.0023 4.76671 18.3183 4.97284 18.648 5.30475C18.9813 5.63715 19.1868 5.9522 19.3591 6.39492C19.4874 6.73204 19.6419 7.23487 19.6841 8.16116C19.7304 9.16259 19.7416 9.46168 19.7416 12.0012C19.7416 14.5355 19.7304 14.8369 19.6841 15.8383V15.8383ZM21.3897 8.08324C21.3434 7.07099 21.1841 6.37943 20.9477 5.77709C20.7071 5.15218 20.3845 4.62259 19.8564 4.093C19.3306 3.56577 18.8025 3.24227 18.1793 2.99815C17.5763 2.76339 16.8889 2.60187 15.8791 2.55775C14.8692 2.50891 14.5466 2.5 11.9725 2.5C9.40069 2.5 9.07577 2.50891 8.06588 2.55775C7.05831 2.60187 6.37147 2.76339 5.76564 2.99815C5.14482 3.24227 4.6167 3.56577 4.09093 4.093C3.56281 4.62259 3.24021 5.15218 2.99722 5.77709C2.76311 6.37943 2.60394 7.07099 2.55523 8.08324C2.51124 9.09594 2.5 9.41989 2.5 12.0012C2.5 14.5801 2.51124 14.9036 2.55523 15.9163C2.60394 16.9267 2.76311 17.6177 2.99722 18.2229C3.24021 18.8455 3.56281 19.3774 4.09093 19.9046C4.6167 20.4319 5.14482 20.7577 5.76564 21.0014C6.37147 21.2361 7.05831 21.3958 8.06588 21.4423C9.07577 21.4887 9.40069 21.5 11.9725 21.5C14.5466 21.5 14.8692 21.4887 15.8791 21.4423C16.8889 21.3958 17.5763 21.2361 18.1793 21.0014C18.8025 20.7577 19.3306 20.4319 19.8564 19.9046C20.3845 19.3774 20.7071 18.8455 20.9477 18.2229C21.1841 17.6177 21.3434 16.9267 21.3897 15.9163C21.4361 14.9036 21.4473 14.5801 21.4473 12.0012C21.4473 9.41989 21.4361 9.09594 21.3897 8.08324V8.08324Z" fill="url(#paint1_linear)"/>
<path d="M11.9715 15.1662C10.2284 15.1662 8.81401 13.7502 8.81401 12.0022C8.81401 10.2515 10.2284 8.83363 11.9715 8.83363C13.7151 8.83363 15.1314 10.2515 15.1314 12.0022C15.1314 13.7502 13.7151 15.1662 11.9715 15.1662V15.1662ZM11.9715 7.12091C9.28455 7.12091 7.1084 9.3078 7.1084 12.0022C7.1084 14.6943 9.28455 16.8789 11.9715 16.8789C14.6585 16.8789 16.837 14.6943 16.837 12.0022C16.837 9.3078 14.6585 7.12091 11.9715 7.12091Z" fill="url(#paint2_linear)"/>
<defs>
<linearGradient id="paint0_linear" x1="2.67034" y1="21.3018" x2="19.9164" y2="4.10362" gradientUnits="userSpaceOnUse">
<stop stop-color="#FFD521"/>
<stop offset="0.05" stop-color="#FFD521"/>
<stop offset="0.501119" stop-color="#F50000"/>
<stop offset="0.95" stop-color="#B900B4"/>
<stop offset="0.950079" stop-color="#B900B4"/>
<stop offset="1" stop-color="#B900B4"/>
</linearGradient>
<linearGradient id="paint1_linear" x1="2.6709" y1="21.3272" x2="19.9311" y2="4.11489" gradientUnits="userSpaceOnUse">
<stop stop-color="#FFD521"/>
<stop offset="0.05" stop-color="#FFD521"/>
<stop offset="0.501119" stop-color="#F50000"/>
<stop offset="0.95" stop-color="#B900B4"/>
<stop offset="0.950079" stop-color="#B900B4"/>
<stop offset="1" stop-color="#B900B4"/>
</linearGradient>
<linearGradient id="paint2_linear" x1="2.67439" y1="21.3288" x2="19.9305" y2="4.12057" gradientUnits="userSpaceOnUse">
<stop stop-color="#FFD521"/>
<stop offset="0.05" stop-color="#FFD521"/>
<stop offset="0.501119" stop-color="#F50000"/>
<stop offset="0.95" stop-color="#B900B4"/>
<stop offset="0.950079" stop-color="#B900B4"/>
<stop offset="1" stop-color="#B900B4"/>
</linearGradient>
</defs>
</svg>
