<svg width="23" height="24" viewBox="0 0 23 24" fill="none" xmlns="http://www.w3.org/2000/svg">
<g clip-path="url(#clip0)">
<path d="M16.5417 15.6684C19.3849 14.1072 21.5403 12.9177 21.7261 12.8252C22.3204 12.5091 22.9341 11.6727 21.7261 11.0229C21.336 10.8185 19.236 9.66602 16.5417 8.17969L12.8066 11.9518L16.5417 15.6683V15.6684Z" fill="#FFD900"/>
<path d="M12.8069 11.9531L0.914062 23.9394C1.19322 23.9763 1.50837 23.9023 1.87993 23.6981C2.66002 23.2711 10.9297 18.7549 16.542 15.6706L12.8069 11.9531Z" fill="#F43249"/>
<path d="M12.8069 11.9513L16.5419 8.19774C16.5419 8.19774 2.71635 0.652543 1.87986 0.207142C1.5647 0.0204849 1.21154 -0.0349604 0.895508 0.0204849L12.8069 11.9513Z" fill="#00EE76"/>
<path d="M12.8062 11.9503L0.894871 0.0195312C0.411455 0.131298 0.00292969 0.558393 0.00292969 1.43185V22.5243C0.00292969 23.3237 0.319046 23.8995 0.913353 23.9551L12.8062 11.9503Z" fill="#00D3FF"/>
</g>
<defs>
<clipPath id="clip0">
<rect width="22.43" height="24" fill="white"/>
</clipPath>
</defs>
</svg>
