<svg width="80" height="80" viewBox="0 0 80 80" fill="none" xmlns="http://www.w3.org/2000/svg">
<g clip-path="url(#clip0)">
<path d="M29.82 29.7C27.9709 32.0811 25.3919 33.79 22.4784 34.5649C19.5649 35.3398 16.4777 35.1378 13.69 33.99C12.3503 33.4417 11.1321 32.6343 10.105 31.6143C9.07798 30.5942 8.26238 29.3814 7.70498 28.0455C7.14757 26.7096 6.85932 25.2768 6.85675 23.8292C6.85418 22.3817 7.13734 20.9479 7.69 19.61C9.57 15.12 15.33 12.25 19.86 14C24.6 15.86 26.92 20.57 25.24 25.14C24.9147 26.1679 24.3602 27.1086 23.6183 27.891C22.8765 28.6734 21.9666 29.277 20.9573 29.6565C19.9481 30.0359 18.8659 30.1811 17.7923 30.0813C16.7188 29.9814 15.6819 29.6391 14.76 29.08C13.2976 28.3462 12.1718 27.0803 11.6138 25.5422C11.0559 24.0041 11.1082 22.3107 11.76 20.81C12.76 18.39 16.12 16.68 18.54 17.97C20.96 19.26 22.06 20.76 21.19 23.81C21.0545 24.3429 20.7929 24.8354 20.4272 25.246C20.0616 25.6566 19.6025 25.9733 19.0888 26.1694C18.5752 26.3654 18.0219 26.4351 17.4756 26.3726C16.9293 26.3101 16.4061 26.1171 15.95 25.81C15.5916 25.6355 15.2751 25.3858 15.0221 25.0778C14.7691 24.7698 14.5855 24.4108 14.4839 24.0254C14.3824 23.6399 14.3652 23.2371 14.4335 22.8444C14.5019 22.4518 14.6542 22.0784 14.88 21.75C15.1573 21.3841 15.5333 21.1051 15.9637 20.9456C16.3942 20.7862 16.8613 20.753 17.31 20.85C17.5394 20.9176 17.75 21.0378 17.9249 21.2009C18.0999 21.3641 18.2344 21.5657 18.3179 21.7899C18.4013 22.014 18.4314 22.2546 18.4057 22.4924C18.3801 22.7302 18.2994 22.9588 18.17 23.16M67.3 22.73C67.8931 24.0007 68.1139 25.4135 67.937 26.8047C67.76 28.1958 67.1924 29.5083 66.3 30.59L61.93 35.92M50.88 48.66L51.39 53.84C51.4052 53.9758 51.3766 54.1128 51.3083 54.2311C51.24 54.3495 51.1357 54.4428 51.0105 54.4976C50.8854 54.5523 50.746 54.5656 50.6127 54.5354C50.4795 54.5053 50.3594 54.4333 50.27 54.33C49.5177 53.4357 48.6951 52.6031 47.81 51.84C46.69 50.84 44.71 50.61 43.46 49.59C42.46 48.78 42.03 47.19 41.08 46.43C39.8904 45.4931 38.6411 44.6346 37.34 43.86C37.2227 43.7913 37.1303 43.687 37.0762 43.5622C37.0222 43.4375 37.0092 43.2987 37.0393 43.1662C37.0694 43.0336 37.1409 42.914 37.2436 42.8248C37.3462 42.7356 37.4745 42.6814 37.61 42.67L46.25 41.67M65.7 13.81L65.25 8.96C65.2342 8.82276 65.2632 8.68408 65.3326 8.56469C65.4021 8.44529 65.5084 8.35158 65.6356 8.29757C65.7627 8.24356 65.9039 8.23214 66.0381 8.26502C66.1723 8.2979 66.2922 8.37332 66.38 8.48C67.1263 9.37336 67.9458 10.2029 68.83 10.96C69.96 11.96 71.94 12.19 73.18 13.21C74.18 14.02 74.61 15.61 75.56 16.37C76.7352 17.3058 77.9676 18.1674 79.25 18.95C79.3673 19.0187 79.4597 19.123 79.5138 19.2478C79.5678 19.3725 79.5808 19.5113 79.5507 19.6438C79.5206 19.7764 79.449 19.896 79.3464 19.9852C79.2438 20.0744 79.1155 20.1286 78.98 20.14L70.47 20.98M31.26 23.13C31.26 31.4861 24.4861 38.26 16.13 38.26C7.77393 38.26 1 31.4861 1 23.13C1 14.7739 7.77393 8 16.13 8C24.4861 8 31.26 14.7739 31.26 23.13ZM66.7465 17.9966L69.7172 20.4298C72.5841 22.778 73.0046 27.0057 70.6564 29.8726L59.2697 43.7746C56.9215 46.6415 52.6938 47.062 49.8269 44.7137L46.8562 42.2805C43.9893 39.9323 43.5688 35.7046 45.917 32.8377L57.3037 18.9358C59.6519 16.0689 63.8796 15.6484 66.7465 17.9966ZM23.264 36.5907L39.2292 71.3495C39.2665 71.4306 39.2874 71.5183 39.2908 71.6076C39.2942 71.6968 39.28 71.7858 39.2489 71.8696C39.2179 71.9533 39.1707 72.0301 39.11 72.0956C39.0493 72.1611 38.9763 72.214 38.8951 72.2513L38.5407 72.414C38.4596 72.4513 38.3719 72.4722 38.2826 72.4756C38.1934 72.479 38.1044 72.4648 38.0206 72.4338C37.9369 72.4027 37.8601 72.3555 37.7946 72.2948C37.7291 72.2341 37.6762 72.1611 37.639 72.0799L21.6737 37.3211L23.264 36.5907Z" stroke="#FE5900" stroke-linecap="round" stroke-linejoin="round"/>
</g>
<defs>
<clipPath id="clip0">
<rect width="80" height="80" fill="white"/>
</clipPath>
</defs>
</svg>
