<svg width="80" height="80" viewBox="0 0 80 80" fill="none" xmlns="http://www.w3.org/2000/svg">
<path d="M77.53 61.1V66.02C77.53 66.744 77.2424 67.4384 76.7304 67.9504C76.2184 68.4624 75.524 68.75 74.8 68.75C63.39 68.75 51.98 67.38 40.56 67.38C28.95 67.38 17.34 68.75 5.73 68.75C5.00755 68.7423 4.31603 68.4557 3.8 67.95C3.29074 67.4363 3.00347 66.7433 3 66.02V24.92C3 24.195 3.2873 23.4996 3.79899 22.9861C4.31068 22.4725 5.00504 22.1826 5.73 22.18C17.24 22.18 28.81 24.5 40.3 24.5C51.79 24.5 63.3 22.19 74.83 22.19C75.5525 22.1977 76.244 22.4843 76.76 22.99C77.0152 23.2443 77.2173 23.5467 77.3546 23.8797C77.492 24.2128 77.5618 24.5698 77.56 24.93V52.93M6.1 21.83V10.2C6.11051 9.48026 6.40382 8.79356 6.91653 8.28833C7.42925 7.7831 8.12018 7.49992 8.84 7.5H11.84M74.53 69.13V71.84C74.53 72.565 74.2427 73.2604 73.731 73.7739C73.2193 74.2875 72.525 74.5774 71.8 74.58H8.84C8.11331 74.58 7.41638 74.2913 6.90253 73.7775C6.38868 73.2636 6.1 72.5667 6.1 71.84V69.13M68.74 7.5H71.74C72.101 7.49204 72.46 7.55579 72.7962 7.68754C73.1324 7.81929 73.4392 8.01643 73.6987 8.26755C73.9581 8.51867 74.1652 8.81878 74.3079 9.15048C74.4506 9.48219 74.5261 9.83892 74.53 10.2V21.83M37.82 7.47L42.77 7.73M40.3 28.92V61.16M15.84 5H33.82C36.0291 5 37.82 6.79086 37.82 9V14.93C37.82 17.1391 36.0291 18.93 33.82 18.93H15.84C13.6309 18.93 11.84 17.1391 11.84 14.93V9C11.84 6.79086 13.6309 5 15.84 5ZM46.77 5H64.75C66.9591 5 68.75 6.79086 68.75 9V14.93C68.75 17.1391 66.9591 18.93 64.75 18.93H46.77C44.5609 18.93 42.77 17.1391 42.77 14.93V9C42.77 6.79086 44.5609 5 46.77 5Z" stroke="#FE5900" stroke-linecap="round" stroke-linejoin="round"/>
</svg>
