<svg width="80" height="80" viewBox="0 0 80 80" fill="none" xmlns="http://www.w3.org/2000/svg">
<path d="M38.3946 37.11C38.3946 37.11 51.3946 30.9 63.0446 28.56C66.5246 27.86 70.4346 27.01 73.1746 28.13M73.1746 28.13C76.7646 29.61 78.4446 36.01 76.6646 40.18M73.1746 28.13C73.1746 28.13 69.0946 13.62 56.9346 13.72C39.1446 13.88 29.2946 24.5 29.2946 24.5M76.6646 40.18C75.8046 42.1777 74.3527 43.8635 72.5046 45.01C68.3946 47.36 67.9746 50.21 40.5046 52.95M76.6646 40.18C76.6646 40.18 77.5546 52.3 70.3146 56.8C63.0746 61.3 59.3146 63.66 42.4446 67.65C31.7646 70.18 25.0146 66.88 25.0146 66.88M17.5846 20.19C17.5846 20.19 22.1746 15.83 31.0346 13.72C39.8946 11.61 50.3446 11.2 59.1146 13.87M24.6146 16.09C24.6146 16.09 40.6746 18.1 46.9446 33.5C53.2146 48.9 49.9446 58.73 46.9446 66.56M33.3046 13.22C33.3046 13.22 44.6746 17.38 48.6146 22.35C52.5546 27.32 59.3146 37.15 59.1146 50C58.9146 62.85 52.6846 65 52.6846 65M42.5046 12C42.5046 12 50.3946 14.75 54.7946 19.5C59.1946 24.25 66.5046 35.94 66.1446 47.75C65.7846 59.56 63.3246 60.87 63.3246 60.87M52.9046 12.5C52.9046 12.5 59.1146 14.56 62.5046 19.44C65.8946 24.32 71.7846 30.86 72.5046 41.32C73.2246 51.78 70.8246 56.5 70.8246 56.5M41.9646 45.99C41.9646 41.3 39.6246 37.29 36.3146 35.65C36.4606 34.9934 36.5344 34.3227 36.5346 33.65C36.5346 31.2631 35.5863 28.9739 33.8985 27.286C32.2107 25.5982 29.9215 24.65 27.5346 24.65H27.3446C26.6529 23.3822 25.653 22.3091 24.4373 21.5295C23.2216 20.75 21.8292 20.2891 20.3884 20.1895C18.9477 20.0898 17.5051 20.3546 16.1936 20.9594C14.8822 21.5642 13.7442 22.4895 12.8846 23.65C11.7039 23.9027 10.5897 24.4009 9.61411 25.1122C8.63854 25.8235 7.82347 26.732 7.22182 27.7787C6.62017 28.8255 6.24539 29.9871 6.12182 31.1881C5.99825 32.3891 6.12865 33.6027 6.50456 34.75C5.3895 35.7264 4.49925 36.9329 3.89504 38.2863C3.29084 39.6397 2.98705 41.108 3.00456 42.59C2.94703 44.4781 3.4353 46.3428 4.41083 47.9604C5.38636 49.578 6.80774 50.8799 8.50456 51.71C8.34028 52.364 8.25633 53.0357 8.25456 53.71C8.25437 55.9719 9.14532 58.1429 10.7344 59.7526C12.3235 61.3622 14.4828 62.2811 16.7446 62.31C17.4742 63.6902 18.5666 64.8451 19.9041 65.6504C21.2415 66.4557 22.7734 66.8809 24.3346 66.88C24.8105 66.881 25.2856 66.8409 25.7546 66.76C27.1605 66.5326 28.4855 65.951 29.6046 65.07C30.6046 65.5 31.7046 66.38 32.8746 66.55C39.1846 67.42 42.9346 62.71 41.5546 57.14C41.1446 55.5 41.0546 53.88 40.2146 52.55C41.3732 50.5588 41.9774 48.2937 41.9646 45.99Z" stroke="#FE5900" stroke-linecap="round" stroke-linejoin="round"/>
</svg>
