<svg width="80" height="80" viewBox="0 0 80 80" fill="none" xmlns="http://www.w3.org/2000/svg">
<g clip-path="url(#clip0)">
<path d="M64.4 12.26L21.82 3C18.55 7.5 16.16 12.68 12.91 17.15C8.52 23.1 3.27 28.26 -1.09 34.26L43.23 48.15C47.3775 42.5442 51.194 36.7009 54.66 30.65C58.22 24.62 61.12 18.67 64.4 12.26ZM64.4 12.26C67.77 15.99 71.5 20.9 74.88 24.62C77.71 27.75 80.18 29.7 83.02 32.83M45.49 45.08V72.21M45.49 72.21L4.63 55.55V36.06M45.49 72.21L80.67 57.82V30.24M74.52 24.34V56.81L52.71 65.02V33.93M64.4 13.08V52.11M16.31 73.38C16.31 73.38 36.79 54.38 40.02 47.14M3.7 66.15C3.7 66.15 19.22 48.5 22.22 41.57M-13.5 57C-13.5 57 -2.5 39.93 -0.66 34.4M82.5 32.3C82.5 32.3 91.79 51.23 94.2 53.7M94.97 51.69C95.3732 51.69 95.7 52.0168 95.7 52.42V55C95.7 55.4032 95.3732 55.73 94.97 55.73C94.5668 55.73 94.24 55.4032 94.24 55V52.42C94.24 52.0168 94.5668 51.69 94.97 51.69ZM15.57 72.79C15.9732 72.79 16.3 73.1168 16.3 73.52V76.1C16.3 76.5032 15.9732 76.83 15.57 76.83C15.1668 76.83 14.84 76.5032 14.84 76.1V73.52C14.84 73.1168 15.1668 72.79 15.57 72.79ZM2.98 65.5C3.38317 65.5 3.71 65.8268 3.71 66.23V68.81C3.71 69.2132 3.38317 69.54 2.98 69.54C2.57683 69.54 2.25 69.2132 2.25 68.81V66.23C2.25 65.8268 2.57683 65.5 2.98 65.5ZM-14.27 56.22C-13.8668 56.22 -13.54 56.5468 -13.54 56.95V59.53C-13.54 59.9332 -13.8668 60.26 -14.27 60.26C-14.6732 60.26 -15 59.9332 -15 59.53V56.95C-15 56.5468 -14.6732 56.22 -14.27 56.22Z" stroke="#FE5900" stroke-linecap="round" stroke-linejoin="round"/>
</g>
<defs>
<clipPath id="clip0">
<rect width="80" height="80" fill="white"/>
</clipPath>
</defs>
</svg>
