<svg width="80" height="80" viewBox="0 0 80 80" fill="none" xmlns="http://www.w3.org/2000/svg">
<path d="M58.033 54.41C58.3086 54.4256 58.5802 54.338 58.7947 54.1642C59.0092 53.9904 59.1512 53.7429 59.193 53.47C59.2278 53.2358 59.3506 53.0236 59.5364 52.8768C59.7223 52.73 59.9571 52.6596 60.193 52.68C60.4295 52.6571 60.6656 52.7266 60.852 52.8738C61.0383 53.0211 61.1606 53.2347 61.193 53.47V53.59C61.193 54.11 61.723 54.41 62.323 54.41C62.5945 54.426 62.8623 54.3408 63.0747 54.1709C63.2871 54.0009 63.429 53.7584 63.473 53.49C63.51 53.2568 63.6334 53.046 63.8187 52.8997C64.004 52.7533 64.2376 52.682 64.473 52.7C64.6993 52.665 64.9304 52.7195 65.1171 52.8521C65.3038 52.9847 65.4315 53.1848 65.473 53.41V53.54C65.5173 53.8059 65.6604 54.0454 65.8736 54.2104C66.0868 54.3754 66.3545 54.4538 66.623 54.43C66.896 54.4456 67.165 54.3591 67.3776 54.1871C67.5903 54.0152 67.7312 53.7702 67.773 53.5C67.8222 53.3662 67.9021 53.2458 68.0063 53.1485C68.1105 53.0512 68.2361 52.9798 68.373 52.94C68.873 52.84 69.373 53.52 70.033 53.61C70.343 53.66 70.693 53.19 70.803 53.02C70.9024 52.8539 70.9702 52.6708 71.003 52.48C71.026 52.361 71.0426 52.2408 71.053 52.12C71.0571 52.0467 71.0571 51.9733 71.053 51.9C71.0672 51.6152 70.9713 51.3359 70.7851 51.1199C70.599 50.9039 70.3368 50.7679 70.053 50.74C69.8198 50.703 69.6091 50.5796 69.4627 50.3943C69.3163 50.209 69.245 49.9754 69.263 49.74C69.263 49.21 69.503 48.8 69.953 48.74H70.063C70.3431 48.7052 70.6 48.5669 70.7832 48.3522C70.9664 48.1375 71.0627 47.8621 71.053 47.58C71.0671 47.2963 70.9708 47.0181 70.7844 46.8038C70.598 46.5894 70.3359 46.4555 70.053 46.43C69.7878 46.43 69.5335 46.3246 69.3459 46.1371C69.1584 45.9496 69.053 45.6952 69.053 45.43C69.053 45.1648 69.1584 44.9104 69.3459 44.7229C69.5335 44.5354 69.7878 44.43 70.053 44.43H70.183C70.703 44.43 70.993 43.89 70.993 43.29C71.0072 43.0052 70.9113 42.7259 70.7251 42.5099C70.5389 42.2939 70.2768 42.1579 69.993 42.13C69.7598 42.093 69.5491 41.9696 69.4027 41.7843C69.2563 41.599 69.185 41.3654 69.203 41.13C69.203 40.61 69.423 40.2 69.873 40.13H70.003C70.2731 40.0862 70.5179 39.9451 70.6911 39.7332C70.8643 39.5214 70.9539 39.2534 70.943 38.98C70.9598 38.6946 70.8647 38.4139 70.6781 38.1974C70.4914 37.9809 70.2278 37.8455 69.943 37.82C69.7156 37.7712 69.5123 37.6447 69.3681 37.4621C69.2239 37.2796 69.1478 37.0525 69.153 36.82C69.1329 36.5826 69.2046 36.3464 69.3535 36.1604C69.5023 35.9743 69.717 35.8525 69.953 35.82H70.083C70.603 35.82 70.893 35.29 70.893 34.69C70.9071 34.4063 70.8108 34.1281 70.6244 33.9138C70.438 33.6994 70.1759 33.5655 69.893 33.54C69.6656 33.4912 69.4623 33.3647 69.3181 33.1821C69.1739 32.9996 69.0979 32.7725 69.103 32.54C69.103 32.02 69.333 31.6 69.783 31.54H69.903C70.1731 31.4962 70.4179 31.3551 70.5911 31.1432C70.7643 30.9314 70.8539 30.6634 70.843 30.39C70.8572 30.1052 70.7613 29.8259 70.5751 29.6099C70.3889 29.3939 70.1268 29.2579 69.843 29.23C69.6098 29.193 69.3991 29.0696 69.2527 28.8843C69.1063 28.699 69.035 28.4654 69.053 28.23C69.053 27.7 69.263 27.3 69.713 27.23H69.853C70.124 27.184 70.3689 27.0409 70.5419 26.8274C70.7149 26.6138 70.8042 26.3446 70.793 26.07C70.8071 25.7863 70.7108 25.5081 70.5244 25.2938C70.338 25.0794 70.0759 24.9455 69.793 24.92C69.5656 24.8712 69.3623 24.7447 69.2181 24.5621C69.0739 24.3796 68.9979 24.1525 69.003 23.92C68.9708 23.6926 69.0278 23.4616 69.162 23.2752C69.2962 23.0889 69.4972 22.9616 69.723 22.92H69.803C70.0683 22.8645 70.3064 22.7194 70.4772 22.5091C70.6481 22.2987 70.7414 22.036 70.7414 21.765C70.7414 21.494 70.6481 21.2313 70.4772 21.0209C70.3064 20.8106 70.0683 20.6655 69.803 20.61C69.5688 20.5752 69.3566 20.4524 69.2098 20.2666C69.063 20.0808 68.9926 19.8459 69.013 19.61C68.9953 19.3731 69.068 19.1382 69.2164 18.9527C69.3648 18.7672 69.578 18.6447 69.813 18.61H69.963C70.483 18.61 70.753 18.09 70.753 17.49C70.7698 17.2046 70.6747 16.9239 70.4881 16.7074C70.3014 16.4909 70.0378 16.3555 69.753 16.33C69.5256 16.2812 69.3223 16.1547 69.1781 15.9721C69.0339 15.7896 68.9579 15.5625 68.963 15.33C68.9429 15.0926 69.0146 14.8564 69.1635 14.6704C69.3123 14.4843 69.527 14.3625 69.763 14.33H69.933C70.453 14.28 70.703 13.77 70.703 13.17C70.7171 12.8863 70.6208 12.6081 70.4344 12.3938C70.248 12.1794 69.9859 12.0455 69.703 12.02C69.4756 11.9712 69.2723 11.8447 69.1281 11.6621C68.9839 11.4796 68.9079 11.2525 68.913 11.02C68.913 10.97 68.913 10.91 68.913 10.87C68.9804 10.8217 69.044 10.7682 69.103 10.71C69.235 10.616 69.3422 10.4914 69.4154 10.3468C69.4886 10.2022 69.5255 10.042 69.523 9.88C69.531 9.74678 69.5039 9.6138 69.4442 9.49443C69.3845 9.37506 69.2944 9.27351 69.183 9.2C69.0173 9.09976 68.8341 9.03189 68.643 9L68.693 9.1H68.463C68.191 9.08175 67.922 9.1661 67.7092 9.33641C67.4963 9.50672 67.3549 9.75062 67.313 10.02C67.2642 10.2474 67.1377 10.4507 66.9552 10.5949C66.7726 10.7391 66.5456 10.8152 66.313 10.81C65.793 10.81 65.383 10.59 65.313 10.14V10.02C65.2721 9.75596 65.1374 9.51553 64.9334 9.34285C64.7295 9.17018 64.4702 9.07685 64.203 9.08C63.9269 9.06205 63.6541 9.14884 63.4391 9.32306C63.2241 9.49728 63.0827 9.74613 63.043 10.02C63.006 10.2532 62.8826 10.464 62.6973 10.6103C62.5121 10.7567 62.2785 10.828 62.043 10.81C61.513 10.81 61.043 10.63 61.043 10.18V10.02C60.9997 9.7534 60.8615 9.51144 60.6538 9.3387C60.4461 9.16596 60.1831 9.07409 59.913 9.08C59.638 9.06229 59.3665 9.1494 59.1531 9.32381C58.9398 9.49821 58.8004 9.74696 58.763 10.02C58.7142 10.2474 58.5877 10.4507 58.4052 10.5949C58.2226 10.7391 57.9956 10.8152 57.763 10.81C57.243 10.81 56.833 10.62 56.763 10.17V10.02C56.7217 9.75248 56.584 9.50928 56.3759 9.33616C56.1678 9.16305 55.9036 9.07195 55.633 9.08C55.3569 9.06205 55.0841 9.14884 54.8691 9.32306C54.6541 9.49728 54.5127 9.74613 54.473 10.02C54.436 10.2532 54.3126 10.464 54.1273 10.6103C53.9421 10.7567 53.7085 10.828 53.473 10.81C52.953 10.81 52.543 10.61 52.473 10.16V10.02C52.4236 9.76063 52.284 9.52708 52.0791 9.36058C51.8742 9.19407 51.617 9.10532 51.353 9.11C51.0794 9.08914 50.8079 9.17229 50.5929 9.34283C50.3778 9.51338 50.235 9.75878 50.193 10.03C50.156 10.2632 50.0326 10.474 49.8473 10.6203C49.6621 10.7667 49.4285 10.838 49.193 10.82C48.9571 10.8404 48.7223 10.77 48.5364 10.6232C48.3506 10.4764 48.2278 10.2642 48.193 10.03V9.89C48.193 9.37 47.663 9.09 47.063 9.09C46.788 9.07229 46.5165 9.1594 46.3031 9.33381C46.0898 9.50821 45.9504 9.75696 45.913 10.03C45.876 10.2632 45.7526 10.474 45.5673 10.6203C45.3821 10.7667 45.1485 10.838 44.913 10.82C44.6762 10.8239 44.4458 10.7436 44.2626 10.5934C44.0795 10.4432 43.9556 10.233 43.913 10C43.8575 9.73474 43.7124 9.49666 43.5021 9.32578C43.2918 9.15489 43.029 9.06161 42.758 9.06161C42.487 9.06161 42.2243 9.15489 42.014 9.32578C41.8036 9.49666 41.6585 9.73474 41.603 10C41.603 10.2652 41.4977 10.5196 41.3101 10.7071C41.1226 10.8946 40.8682 11 40.603 11C40.3378 11 40.0835 10.8946 39.8959 10.7071C39.7084 10.5196 39.603 10.2652 39.603 10C39.5489 9.74391 39.4098 9.51364 39.2083 9.34662C39.0068 9.17959 38.7547 9.08563 38.493 9.08C38.218 9.06229 37.9465 9.1494 37.7331 9.32381C37.5198 9.49821 37.3804 9.74696 37.343 10.02C37.343 10.2852 37.2377 10.5396 37.0501 10.7271C36.8626 10.9146 36.6082 11.02 36.343 11.02C36.0778 11.02 35.8235 10.9146 35.6359 10.7271C35.4484 10.5396 35.343 10.2852 35.343 10.02C35.3062 9.73995 35.1676 9.48324 34.9537 9.29881C34.7398 9.11438 34.4654 9.01514 34.183 9.02C33.9069 9.00205 33.6341 9.08884 33.4191 9.26306C33.2041 9.43728 33.0627 9.68613 33.023 9.96C32.986 10.1932 32.8626 10.404 32.6773 10.5503C32.4921 10.6967 32.2585 10.768 32.023 10.75C31.7912 10.7815 31.5563 10.7205 31.3692 10.5801C31.1821 10.4397 31.0577 10.2313 31.023 10C30.9784 9.74303 30.8447 9.50998 30.6454 9.34175C30.446 9.17352 30.1938 9.08085 29.933 9.08C29.6584 9.06177 29.3869 9.14718 29.1721 9.31935C28.9574 9.49153 28.815 9.73796 28.773 10.01C28.7262 10.1441 28.6469 10.2645 28.5422 10.3605C28.4375 10.4564 28.3107 10.525 28.173 10.56C27.9091 10.564 27.6473 10.5126 27.4045 10.4093C27.1616 10.306 26.9431 10.1529 26.763 9.96C26.7293 9.93035 26.6893 9.90867 26.646 9.89656C26.6027 9.88444 26.5573 9.8822 26.513 9.89C26.2018 9.99788 25.9347 10.2052 25.753 10.48C25.6528 10.6457 25.5849 10.829 25.553 11.02C25.553 11.14 25.553 11.26 25.503 11.38C25.4986 11.4566 25.4986 11.5334 25.503 11.61C25.4851 11.8861 25.5719 12.1589 25.7461 12.3739C25.9203 12.5889 26.1692 12.7303 26.443 12.77C26.6773 12.8048 26.8894 12.9276 27.0362 13.1134C27.183 13.2992 27.2534 13.5341 27.233 13.77C27.252 14.0011 27.1848 14.231 27.0446 14.4156C26.9043 14.6001 26.7007 14.7264 26.473 14.77H26.373C26.2422 14.7861 26.1159 14.8278 26.0012 14.8929C25.8866 14.9579 25.786 15.045 25.7051 15.1491C25.6243 15.2532 25.5648 15.3722 25.5301 15.4994C25.4954 15.6265 25.4862 15.7593 25.503 15.89C25.4824 16.1625 25.5659 16.4327 25.7366 16.6461C25.9073 16.8595 26.1526 17.0003 26.423 17.04C26.6562 17.077 26.867 17.2004 27.0134 17.3857C27.1597 17.571 27.231 17.8046 27.213 18.04C27.2158 18.2812 27.1312 18.5152 26.975 18.699C26.8188 18.8827 26.6015 19.0038 26.363 19.04H26.423C26.1511 19.0839 25.9049 19.2265 25.7315 19.4405C25.5581 19.6545 25.4697 19.9249 25.483 20.2C25.4653 20.475 25.5524 20.7465 25.7268 20.9599C25.9012 21.1733 26.15 21.3126 26.423 21.35C26.6562 21.387 26.867 21.5104 27.0134 21.6957C27.1597 21.881 27.231 22.1146 27.213 22.35M53.823 34.87H53.963C54.493 34.82 54.753 34.34 54.753 33.74C54.771 33.4639 54.6842 33.1911 54.51 32.9761C54.3358 32.7611 54.0869 32.6197 53.813 32.58C53.5478 32.58 53.2935 32.4746 53.1059 32.2871C52.9184 32.0996 52.813 31.8452 52.813 31.58C52.813 31.3148 52.9184 31.0604 53.1059 30.8729C53.2935 30.6854 53.5478 30.58 53.813 30.58H53.983C54.503 30.53 54.743 30.02 54.743 29.42C54.7607 29.145 54.6736 28.8735 54.4992 28.6601C54.3248 28.4467 54.0761 28.3074 53.803 28.27C53.5756 28.2212 53.3723 28.0947 53.2281 27.9121C53.0839 27.7296 53.0079 27.5025 53.013 27.27C53.013 27.22 53.013 27.16 53.013 27.12C53.0804 27.0717 53.144 27.0182 53.203 26.96C53.335 26.866 53.4422 26.7414 53.5154 26.5968C53.5886 26.4522 53.6255 26.292 53.623 26.13C53.6291 25.9971 53.601 25.8648 53.5415 25.7458C53.482 25.6267 53.393 25.5249 53.283 25.45C53.1173 25.3498 52.9341 25.2819 52.743 25.25L52.383 25.2H52.153C51.8815 25.184 51.6137 25.2692 51.4013 25.4391C51.189 25.6091 51.0471 25.8516 51.003 26.12C50.9706 26.3553 50.8484 26.5689 50.662 26.7162C50.4756 26.8634 50.2395 26.9329 50.003 26.91C49.483 26.91 49.063 26.69 49.003 26.25V26.12C48.9475 25.8547 48.8024 25.6167 48.5921 25.4458C48.3818 25.2749 48.119 25.1816 47.848 25.1816C47.577 25.1816 47.3143 25.2749 47.104 25.4458C46.8936 25.6167 46.7485 25.8547 46.693 26.12C46.656 26.3532 46.5326 26.564 46.3473 26.7103C46.1621 26.8567 45.9285 26.928 45.693 26.91C45.173 26.91 44.693 26.73 44.693 26.28V26.12C44.6491 25.8481 44.5065 25.6019 44.2925 25.4285C44.0785 25.2551 43.8081 25.1666 43.533 25.18C43.2586 25.1646 42.9883 25.2526 42.7754 25.4266C42.5626 25.6006 42.4226 25.848 42.383 26.12C42.346 26.3532 42.2226 26.564 42.0373 26.7103C41.8521 26.8567 41.6185 26.928 41.383 26.91C40.863 26.91 40.453 26.72 40.383 26.27V26.12C40.3275 25.8547 40.1824 25.6167 39.9721 25.4458C39.7618 25.2749 39.499 25.1816 39.228 25.1816C38.957 25.1816 38.6943 25.2749 38.4839 25.4458C38.2736 25.6167 38.1285 25.8547 38.073 26.12C38.0383 26.3542 37.9154 26.5664 37.7296 26.7132C37.5438 26.86 37.309 26.9304 37.073 26.91C36.553 26.91 36.143 26.71 36.073 26.27V26.12C36.0187 25.8555 35.8724 25.6189 35.6599 25.4522C35.4475 25.2856 35.1828 25.1998 34.913 25.21C34.6415 25.194 34.3737 25.2792 34.1613 25.4492C33.949 25.6191 33.8071 25.8616 33.763 26.13C33.726 26.3632 33.6026 26.574 33.4173 26.7203C33.2321 26.8667 32.9985 26.938 32.763 26.92C32.5271 26.9404 32.2923 26.87 32.1064 26.7232C31.9206 26.5764 31.7978 26.3642 31.763 26.13V25.99C31.713 25.47 31.233 25.19 30.633 25.19C30.3574 25.1744 30.0859 25.262 29.8714 25.4358C29.6569 25.6096 29.5149 25.8571 29.473 26.13C29.4406 26.3653 29.3184 26.5789 29.132 26.7262C28.9456 26.8734 28.7095 26.9429 28.473 26.92C28.2362 26.9239 28.0058 26.8436 27.8226 26.6934C27.6395 26.5432 27.5156 26.333 27.473 26.1C27.4313 25.8289 27.2908 25.5829 27.0784 25.4093C26.8661 25.2357 26.597 25.1469 26.323 25.16C26.0469 25.142 25.7741 25.2288 25.5591 25.4031C25.3441 25.5773 25.2027 25.8261 25.163 26.1C25.126 26.3332 25.0026 26.544 24.8173 26.6903C24.6321 26.8367 24.3985 26.908 24.163 26.89C23.9271 26.9104 23.6923 26.84 23.5064 26.6932C23.3206 26.5464 23.1978 26.3342 23.163 26.1V26.15C23.1242 25.8708 22.985 25.6154 22.7715 25.4314C22.558 25.2473 22.2849 25.1473 22.003 25.15C21.7286 25.1346 21.4583 25.2226 21.2454 25.3966C21.0326 25.5706 20.8926 25.818 20.853 26.09C20.816 26.3232 20.6926 26.534 20.5073 26.6803C20.3221 26.8267 20.0885 26.898 19.853 26.88C19.6205 26.8852 19.3934 26.8091 19.2109 26.6649C19.0284 26.5207 18.9018 26.3174 18.853 26.09C18.8162 25.8099 18.6776 25.5532 18.4637 25.3688C18.2498 25.1844 17.9754 25.0851 17.693 25.09C17.4174 25.0744 17.1459 25.162 16.9314 25.3358C16.7169 25.5096 16.5749 25.7571 16.533 26.03C16.4983 26.2642 16.3754 26.4764 16.1896 26.6232C16.0038 26.77 15.769 26.8404 15.533 26.82C15.3021 26.8463 15.0698 26.7833 14.8839 26.6439C14.6979 26.5044 14.5724 26.2991 14.533 26.07C14.4891 25.7981 14.3465 25.5519 14.1325 25.3785C13.9185 25.2051 13.6481 25.1166 13.373 25.13C13.1 25.1144 12.831 25.2009 12.6184 25.3729C12.4058 25.5448 12.2648 25.7898 12.223 26.06C12.1768 26.1955 12.0979 26.3175 11.9932 26.4152C11.8885 26.5129 11.7614 26.5832 11.623 26.62C11.3589 26.6197 11.0975 26.5654 10.8551 26.4605C10.6126 26.3556 10.3941 26.2023 10.213 26.01C10.1789 25.981 10.1389 25.9597 10.0957 25.9476C10.0525 25.9355 10.0073 25.9329 9.96303 25.94C9.6507 26.0511 9.38363 26.262 9.20303 26.54C9.10094 26.7012 9.03288 26.8816 9.00303 27.07C9.00303 27.19 9.00303 27.31 9.00303 27.44C8.99899 27.5133 8.99899 27.5867 9.00303 27.66C8.98508 27.9361 9.07186 28.2089 9.24608 28.4239C9.42031 28.6389 9.66916 28.7803 9.94303 28.82C10.2082 28.82 10.4626 28.9254 10.6501 29.1129C10.8377 29.3004 10.943 29.5548 10.943 29.82C10.943 30.0852 10.8377 30.3396 10.6501 30.5271C10.4626 30.7146 10.2082 30.82 9.94303 30.82H9.84303C9.605 30.9004 9.40597 31.0675 9.28553 31.288C9.16509 31.5085 9.13207 31.7663 9.19303 32.01C9.17478 32.282 9.25913 32.551 9.42944 32.7639C9.59974 32.9768 9.84364 33.1181 10.113 33.16C10.3462 33.197 10.557 33.3204 10.7034 33.5057C10.8497 33.691 10.921 33.9246 10.903 34.16C10.9058 34.4012 10.8212 34.6352 10.665 34.819C10.5088 35.0027 10.2915 35.1238 10.053 35.16H10.113C9.85009 35.2076 9.61285 35.3477 9.44414 35.5549C9.27542 35.7622 9.18636 36.0229 9.19303 36.29C9.1774 36.5656 9.26505 36.8372 9.43885 37.0517C9.61266 37.2661 9.86015 37.4082 10.133 37.45C10.3683 37.4825 10.582 37.6047 10.7292 37.7911C10.8765 37.9775 10.9459 38.2136 10.923 38.45C10.941 38.6854 10.8697 38.919 10.7234 39.1043C10.577 39.2896 10.3662 39.413 10.133 39.45H10.063C9.93125 39.466 9.80398 39.5081 9.68863 39.5738C9.57329 39.6395 9.47218 39.7275 9.39119 39.8327C9.31021 39.9378 9.25099 40.0581 9.21696 40.1864C9.18294 40.3147 9.1748 40.4485 9.19303 40.58C9.17268 40.8567 9.25858 41.1307 9.43323 41.3462C9.60789 41.5617 9.85815 41.7026 10.133 41.74C10.3662 41.777 10.577 41.9004 10.7234 42.0857C10.8697 42.271 10.941 42.5046 10.923 42.74C10.9434 42.9759 10.873 43.2108 10.7262 43.3966C10.5794 43.5824 10.3673 43.7052 10.133 43.74H10.193C9.91478 43.785 9.66154 43.9273 9.47841 44.1416C9.29528 44.3558 9.19415 44.6281 9.19303 44.91C9.17531 45.185 9.26243 45.4565 9.43683 45.6699C9.61124 45.8833 9.85999 46.0226 10.133 46.06C10.3662 46.097 10.577 46.2204 10.7234 46.4057C10.8697 46.591 10.941 46.8246 10.923 47.06C10.9576 47.2892 10.9003 47.5228 10.7636 47.7101C10.6269 47.8973 10.4219 48.0231 10.193 48.06H10.133C9.87407 48.1001 9.63766 48.2305 9.46562 48.4282C9.29358 48.6258 9.19702 48.878 9.19303 49.14C9.17241 49.4125 9.25588 49.6827 9.42661 49.8961C9.59734 50.1095 9.84263 50.2503 10.113 50.29C10.3473 50.3248 10.5594 50.4476 10.7062 50.6334C10.853 50.8192 10.9234 51.0541 10.903 51.29C10.935 51.5188 10.8766 51.7511 10.7404 51.9377C10.6042 52.1244 10.4007 52.2507 10.173 52.29H10.133C9.86374 52.3315 9.61913 52.4706 9.44579 52.6809C9.27244 52.8911 9.18248 53.1577 9.19303 53.43C9.17531 53.705 9.26243 53.9765 9.43683 54.1899C9.61124 54.4033 9.85999 54.5426 10.133 54.58C10.3662 54.617 10.577 54.7404 10.7234 54.9257C10.8697 55.111 10.941 55.3446 10.923 55.58C10.9434 55.8159 10.873 56.0508 10.7262 56.2366C10.5794 56.4224 10.3673 56.5452 10.133 56.58C9.85298 56.6168 9.59626 56.7554 9.41184 56.9693C9.22741 57.1833 9.12816 57.4576 9.13303 57.74C9.11531 58.015 9.20243 58.2865 9.37683 58.4999C9.55124 58.7133 9.79999 58.8526 10.073 58.89C10.3382 58.89 10.5926 58.9954 10.7801 59.1829C10.9677 59.3704 11.073 59.6248 11.073 59.89C11.073 60.1552 10.9677 60.4096 10.7801 60.5971C10.5926 60.7846 10.3382 60.89 10.073 60.89C9.79387 60.9289 9.53841 61.068 9.35438 61.2815C9.17035 61.495 9.07034 61.7682 9.07303 62.05C9.05508 62.3261 9.14186 62.5989 9.31608 62.8139C9.49031 63.0289 9.73916 63.1703 10.013 63.21C10.2782 63.21 10.5326 63.3154 10.7201 63.5029C10.9077 63.6904 11.013 63.9448 11.013 64.21C11.013 64.4752 10.9077 64.7296 10.7201 64.9171C10.5326 65.1046 10.2782 65.21 10.013 65.21H10.063C9.78387 65.2489 9.52841 65.388 9.34438 65.6015C9.16035 65.815 9.06034 66.0882 9.06303 66.37C9.04478 66.642 9.12913 66.911 9.29944 67.1239C9.46974 67.3368 9.71364 67.4781 9.98303 67.52C10.2162 67.557 10.427 67.6804 10.5734 67.8657C10.7197 68.051 10.791 68.2846 10.773 68.52C10.7783 68.5699 10.7783 68.6201 10.773 68.67C10.6932 68.715 10.6164 68.7651 10.543 68.82C10.4169 68.9193 10.3166 69.0474 10.2504 69.1936C10.1843 69.3398 10.1543 69.4998 10.163 69.66C10.1561 69.7942 10.1848 69.9278 10.2463 70.0472C10.3077 70.1667 10.3998 70.2677 10.513 70.34C10.6771 70.4436 10.861 70.5118 11.053 70.54L11.413 70.59H11.633C11.7847 70.6171 11.9404 70.6118 12.0898 70.5743C12.2393 70.5369 12.3791 70.4681 12.5 70.3727C12.621 70.2773 12.7203 70.1573 12.7915 70.0206C12.8627 69.884 12.9041 69.7338 12.913 69.58C12.95 69.3468 13.0734 69.136 13.2587 68.9897C13.444 68.8433 13.6776 68.772 13.913 68.79C14.149 68.7696 14.3838 68.84 14.5696 68.9868C14.7554 69.1336 14.8783 69.3458 14.913 69.58V69.66C14.9618 69.9215 15.1072 70.1551 15.3202 70.3144C15.5332 70.4737 15.7984 70.5471 16.063 70.52C16.3347 70.5325 16.6012 70.443 16.8103 70.2691C17.0194 70.0952 17.1559 69.8494 17.193 69.58C17.23 69.3468 17.3534 69.136 17.5387 68.9897C17.724 68.8433 17.9576 68.772 18.193 68.79C18.4285 68.772 18.6621 68.8433 18.8473 68.9897C19.0326 69.136 19.156 69.3468 19.193 69.58V69.67C19.2114 69.801 19.2555 69.927 19.3229 70.0408C19.3903 70.1546 19.4796 70.2539 19.5856 70.3329C19.6916 70.412 19.8123 70.4692 19.9406 70.5013C20.0689 70.5335 20.2023 70.5398 20.333 70.52C20.6075 70.5354 20.8778 70.4474 21.0906 70.2734C21.3035 70.0994 21.4435 69.852 21.483 69.58C21.5178 69.3458 21.6406 69.1336 21.8264 68.9868C22.0123 68.84 22.2471 68.7696 22.483 68.79C23.013 68.79 23.483 69.04 23.483 69.49V69.58C23.527 69.8519 23.6696 70.0981 23.8835 70.2715C24.0975 70.4449 24.3679 70.5334 24.643 70.52C24.913 70.53 25.1771 70.4393 25.384 70.2657C25.591 70.092 25.726 69.8476 25.763 69.58C25.8 69.3468 25.9234 69.136 26.1087 68.9897C26.294 68.8433 26.5276 68.772 26.763 68.79C26.9908 68.7552 27.2231 68.8111 27.4101 68.9458C27.5971 69.0804 27.7238 69.283 27.763 69.51V69.58C27.8133 69.8446 27.9572 70.0823 28.1684 70.2494C28.3796 70.4165 28.644 70.5019 28.913 70.49C29.1814 70.5037 29.4455 70.4188 29.6556 70.2511C29.8656 70.0835 30.007 69.8448 30.053 69.58C30.0878 69.3458 30.2106 69.1336 30.3964 68.9868C30.5823 68.84 30.8171 68.7696 31.053 68.79C31.2885 68.772 31.5221 68.8433 31.7073 68.9897C31.8926 69.136 32.016 69.3468 32.053 69.58V69.69C32.053 70.21 32.583 70.52 33.183 70.52C33.458 70.5377 33.7295 70.4506 33.9429 70.2762C34.1563 70.1018 34.2957 69.853 34.333 69.58C34.333 69.3148 34.4384 69.0604 34.6259 68.8729C34.8135 68.6854 35.0678 68.58 35.333 68.58C35.5982 68.58 35.8526 68.6854 36.0401 68.8729C36.2277 69.0604 36.333 69.3148 36.333 69.58C36.379 69.8509 36.5222 70.0958 36.7357 70.2689C36.9492 70.4419 37.2184 70.5312 37.493 70.52C37.763 70.53 38.0271 70.4393 38.234 70.2657C38.441 70.092 38.576 69.8476 38.613 69.58C38.65 69.3468 38.7734 69.136 38.9587 68.9897C39.144 68.8433 39.3776 68.772 39.613 68.79C40.133 68.79 40.553 69.05 40.613 69.49V69.58C40.6547 69.8511 40.7953 70.0971 41.0076 70.2707C41.22 70.4443 41.4891 70.5331 41.763 70.52C42.0358 70.5328 42.3036 70.4436 42.5144 70.2699C42.7251 70.0962 42.8636 69.8502 42.903 69.58C42.903 69.3148 43.0084 69.0604 43.1959 68.8729C43.3835 68.6854 43.6378 68.58 43.903 68.58C44.1682 68.58 44.4226 68.6854 44.6101 68.8729C44.7977 69.0604 44.903 69.3148 44.903 69.58V69.7C44.903 70.22 45.433 70.52 46.033 70.52C46.308 70.5377 46.5795 70.4506 46.7929 70.2762C47.0063 70.1018 47.1457 69.853 47.183 69.58C47.22 69.3468 47.3434 69.136 47.5287 68.9897C47.714 68.8433 47.9476 68.772 48.183 68.79C48.703 68.79 49.123 69.06 49.183 69.5V69.64C49.2296 69.9041 49.3736 70.1411 49.5866 70.3041C49.7995 70.4671 50.0659 70.5441 50.333 70.52C50.6041 70.5303 50.8695 70.44 51.0781 70.2664C51.2867 70.0929 51.4238 69.8485 51.463 69.58C51.5142 69.4474 51.5948 69.3281 51.6987 69.2311C51.8026 69.1341 51.9272 69.0619 52.063 69.02C52.563 68.93 53.063 69.6 53.723 69.7C54.033 69.7 54.383 69.27 54.493 69.1C54.5898 68.9398 54.6575 68.7638 54.693 68.58C54.693 68.46 54.693 68.34 54.693 68.21C54.6976 68.1367 54.6976 68.0633 54.693 67.99C54.711 67.7139 54.6242 67.4411 54.45 67.2261C54.2757 67.0111 54.0269 66.8697 53.753 66.83C53.5198 66.793 53.3091 66.6696 53.1627 66.4843C53.0163 66.299 52.945 66.0654 52.963 65.83C52.963 65.31 53.203 64.89 53.653 64.83H53.763C54.0331 64.7839 54.2769 64.6403 54.4483 64.4266C54.6196 64.2128 54.7067 63.9436 54.693 63.67C54.6978 63.4139 54.6122 63.1642 54.4513 62.9649C54.2904 62.7656 54.0644 62.6293 53.813 62.58C53.5856 62.5312 53.3823 62.4047 53.2381 62.2221C53.0939 62.0396 53.0179 61.8125 53.023 61.58C53.0029 61.3426 53.0746 61.1064 53.2235 60.9204C53.3723 60.7343 53.587 60.6125 53.823 60.58H53.953C54.473 60.58 54.753 60.04 54.753 59.44C54.7707 59.165 54.6836 58.8935 54.5092 58.6801C54.3348 58.4667 54.0861 58.3274 53.813 58.29C53.5856 58.2412 53.3823 58.1147 53.2381 57.9321C53.0939 57.7496 53.0179 57.5225 53.023 57.29C53.023 56.77 53.243 56.36 53.693 56.29H53.823C54.0923 56.2461 54.3359 56.1046 54.5075 55.8924C54.679 55.6803 54.7664 55.4125 54.753 55.14C54.771 54.8639 54.6842 54.5911 54.51 54.3761C54.3358 54.1611 54.0869 54.0197 53.813 53.98C53.5798 53.943 53.3691 53.8196 53.2227 53.6343C53.0763 53.449 53.005 53.2154 53.023 52.98C53.0029 52.7426 53.0746 52.5064 53.2235 52.3204C53.3723 52.1343 53.587 52.0125 53.823 51.98H53.953C54.473 51.98 54.753 51.44 54.753 50.84C54.7707 50.565 54.6836 50.2935 54.5092 50.0801C54.3348 49.8667 54.0861 49.7274 53.813 49.69C53.5856 49.6412 53.3823 49.5147 53.2381 49.3321C53.0939 49.1496 53.0179 48.9225 53.023 48.69C53.023 48.17 53.253 47.76 53.703 47.69H53.823C54.0852 47.6469 54.3233 47.5112 54.494 47.3075C54.6646 47.1039 54.7565 46.8457 54.753 46.58C54.771 46.3039 54.6842 46.0311 54.51 45.8161C54.3358 45.6011 54.0869 45.4597 53.813 45.42C53.5798 45.383 53.3691 45.2596 53.2227 45.0743C53.0763 44.889 53.005 44.6554 53.023 44.42C53.023 43.9 53.233 43.49 53.683 43.42H53.823C54.0923 43.3761 54.3359 43.2346 54.5075 43.0225C54.679 42.8103 54.7664 42.5425 54.753 42.27C54.7734 41.9933 54.6875 41.7193 54.5128 41.5038C54.3382 41.2883 54.0879 41.1474 53.813 41.11C53.5856 41.0612 53.3823 40.9347 53.2381 40.7521C53.0939 40.5696 53.0179 40.3425 53.023 40.11C53.0045 39.997 53.0084 39.8815 53.0345 39.7701C53.0607 39.6586 53.1086 39.5535 53.1755 39.4606C53.2424 39.3677 53.3269 39.2889 53.4243 39.2287C53.5217 39.1686 53.63 39.1282 53.743 39.11H53.823C54.0931 39.0639 54.3369 38.9203 54.5083 38.7066C54.6796 38.4928 54.7667 38.2236 54.753 37.95C54.7707 37.675 54.6836 37.4035 54.5092 37.1901C54.3348 36.9767 54.0861 36.8374 53.813 36.8C53.5478 36.8 53.2935 36.6946 53.1059 36.5071C52.9184 36.3196 52.813 36.0652 52.813 35.8C52.813 35.5348 52.9184 35.2804 53.1059 35.0929C53.2935 34.9054 53.5478 34.8 53.813 34.8L53.823 34.87ZM20.503 34.81C20.503 35.7323 19.7553 36.48 18.833 36.48C17.9107 36.48 17.163 35.7323 17.163 34.81C17.163 33.8877 17.9107 33.14 18.833 33.14C19.7553 33.14 20.503 33.8877 20.503 34.81ZM33.743 34.81C33.743 35.7323 32.9953 36.48 32.073 36.48C31.1507 36.48 30.403 35.7323 30.403 34.81C30.403 33.8877 31.1507 33.14 32.073 33.14C32.9953 33.14 33.743 33.8877 33.743 34.81ZM46.983 34.81C46.983 35.7323 46.2353 36.48 45.313 36.48C44.3907 36.48 43.643 35.7323 43.643 34.81C43.643 33.8877 44.3907 33.14 45.313 33.14C46.2353 33.14 46.983 33.8877 46.983 34.81ZM20.503 47.85C20.503 48.7723 19.7553 49.52 18.833 49.52C17.9107 49.52 17.163 48.7723 17.163 47.85C17.163 46.9277 17.9107 46.18 18.833 46.18C19.7553 46.18 20.503 46.9277 20.503 47.85ZM33.743 47.86C33.743 48.7823 32.9953 49.53 32.073 49.53C31.1507 49.53 30.403 48.7823 30.403 47.86C30.403 46.9377 31.1507 46.19 32.073 46.19C32.9953 46.19 33.743 46.9377 33.743 47.86ZM46.983 47.86C46.983 48.7823 46.2353 49.53 45.313 49.53C44.3907 49.53 43.643 48.7823 43.643 47.86C43.643 46.9377 44.3907 46.19 45.313 46.19C46.2353 46.19 46.983 46.9377 46.983 47.86ZM20.503 60.9C20.503 61.8223 19.7553 62.57 18.833 62.57C17.9107 62.57 17.163 61.8223 17.163 60.9C17.163 59.9777 17.9107 59.23 18.833 59.23C19.7553 59.23 20.503 59.9777 20.503 60.9ZM33.743 60.9C33.743 61.8223 32.9953 62.57 32.073 62.57C31.1507 62.57 30.403 61.8223 30.403 60.9C30.403 59.9777 31.1507 59.23 32.073 59.23C32.9953 59.23 33.743 59.9777 33.743 60.9ZM46.983 60.9C46.983 61.8223 46.2353 62.57 45.313 62.57C44.3907 62.57 43.643 61.8223 43.643 60.9C43.643 59.9777 44.3907 59.23 45.313 59.23C46.2353 59.23 46.983 59.9777 46.983 60.9ZM36.793 18.62C36.793 19.5423 36.0453 20.29 35.123 20.29C34.2007 20.29 33.453 19.5423 33.453 18.62C33.453 17.6977 34.2007 16.95 35.123 16.95C36.0453 16.95 36.793 17.6977 36.793 18.62ZM50.033 18.63C50.033 19.5523 49.2853 20.3 48.363 20.3C47.4407 20.3 46.693 19.5523 46.693 18.63C46.693 17.7077 47.4407 16.96 48.363 16.96C49.2853 16.96 50.033 17.7077 50.033 18.63ZM63.273 18.63C63.273 19.5523 62.5253 20.3 61.603 20.3C60.6807 20.3 59.933 19.5523 59.933 18.63C59.933 17.7077 60.6807 16.96 61.603 16.96C62.5253 16.96 63.273 17.7077 63.273 18.63ZM63.273 31.67C63.273 32.5923 62.5253 33.34 61.603 33.34C60.6807 33.34 59.933 32.5923 59.933 31.67C59.933 30.7477 60.6807 30 61.603 30C62.5253 30 63.273 30.7477 63.273 31.67ZM63.273 44.72C63.273 45.6423 62.5253 46.39 61.603 46.39C60.6807 46.39 59.933 45.6423 59.933 44.72C59.933 43.7977 60.6807 43.05 61.603 43.05C62.5253 43.05 63.273 43.7977 63.273 44.72Z" stroke="#FE5900" stroke-linecap="round" stroke-linejoin="round"/>
</svg>
