<svg width="80" height="80" viewBox="0 0 80 80" fill="none" xmlns="http://www.w3.org/2000/svg">
<path d="M46.2103 40.21V41.77L47.5003 43.5H12.7103L14.0003 41.77V40.21M29.5203 40.25H14.3303C14.0205 40.2487 13.714 40.1859 13.4286 40.0652C13.1432 39.9446 12.8847 39.7684 12.6679 39.547C12.4511 39.3256 12.2805 39.0633 12.1659 38.7755C12.0513 38.4876 11.995 38.1798 12.0003 37.87V36.04C12.0003 35.422 12.2458 34.8294 12.6828 34.3924C13.1197 33.9555 13.7124 33.71 14.3303 33.71H45.8803C46.1897 33.7047 46.497 33.761 46.7843 33.8757C47.0716 33.9905 47.3332 34.1612 47.5538 34.3781C47.7744 34.595 47.9496 34.8537 48.0692 35.139C48.1888 35.4243 48.2504 35.7306 48.2503 36.04V37.87C48.262 38.4343 48.064 38.9829 47.6945 39.4096C47.3251 39.8363 46.8105 40.1108 46.2503 40.18M45.0003 43.5V46.25L47.5003 51.52C47.979 52.4985 48.2351 53.5708 48.2503 54.66V75.37C48.2503 75.8677 48.1523 76.3605 47.9618 76.8204C47.7714 77.2802 47.4922 77.698 47.1403 78.0499C46.7883 78.4019 46.3705 78.681 45.9107 78.8715C45.4509 79.062 44.9581 79.16 44.4603 79.16H15.7903C15.2926 79.16 14.7998 79.062 14.34 78.8715C13.8801 78.681 13.4623 78.4019 13.1104 78.0499C12.7585 77.698 12.4793 77.2802 12.2888 76.8204C12.0984 76.3605 12.0003 75.8677 12.0003 75.37V54.62C12.0019 53.5198 12.2479 52.4336 12.7203 51.44L15.2503 46.25V43.5M15.6503 58.08V54.06M19.5003 75.25H17.7103C17.4373 75.25 17.1669 75.1958 16.915 75.0904C16.6631 74.985 16.4347 74.8305 16.243 74.6361C16.0513 74.4416 15.9002 74.2109 15.7985 73.9575C15.6967 73.7041 15.6464 73.433 15.6503 73.16V67.04M15.6603 33.71V35.74M18.5503 33.71V35.74M21.4403 33.71V35.74M24.3303 33.71V35.74M27.2203 33.71V35.74M30.1103 33.71V35.74M33.0003 33.71V35.74M35.8803 33.71V35.74M38.7703 33.71V35.74M41.6603 33.71V35.74M44.5503 33.71V35.74M40.6903 29.88V25.88C40.6901 25.1174 40.9701 24.3812 41.4771 23.8115C41.9842 23.2418 42.6828 22.8783 43.4403 22.79M43.4403 22.83C43.5635 22.8197 43.6872 22.8197 43.8103 22.83H64.7503C65.5778 22.83 66.3714 23.1587 66.9565 23.7438C67.5416 24.3289 67.8703 25.1225 67.8703 25.95V76.05C67.8677 76.8757 67.5378 77.6668 66.953 78.2497C66.3682 78.8327 65.5761 79.16 64.7503 79.16H50.9903M64.4903 30.8V42.51M53.8303 15.12H64.3903C64.5553 15.12 64.7187 15.1527 64.871 15.2161C65.0233 15.2795 65.1616 15.3725 65.2778 15.4896C65.394 15.6068 65.4858 15.7458 65.5481 15.8986C65.6103 16.0514 65.6417 16.215 65.6403 16.38V22.6M42.9103 22.63V16.38C42.9103 16.0458 43.0431 15.7253 43.2794 15.489C43.5157 15.2527 43.8362 15.12 44.1703 15.12H47.1703M47.1403 15.12V12.12C47.139 11.9542 47.1707 11.7897 47.2335 11.6362C47.2964 11.4828 47.3892 11.3433 47.5064 11.2261C47.6237 11.1088 47.7631 11.016 47.9166 10.9532C48.0701 10.8903 48.2345 10.8587 48.4003 10.86H60.1603C60.3262 10.8587 60.4906 10.8903 60.6441 10.9532C60.7976 11.016 60.937 11.1088 61.0543 11.2261C61.1715 11.3433 61.2643 11.4828 61.3271 11.6362C61.39 11.7897 61.4217 11.9542 61.4203 12.12V15.12M56.5903 10.82H51.9703L52.5003 1H56.0603L56.5903 10.82Z" stroke="#FE5900" stroke-linecap="round" stroke-linejoin="round"/>
</svg>
