<svg width="80" height="80" viewBox="0 0 80 80" fill="none" xmlns="http://www.w3.org/2000/svg">
<path d="M9 12.29V74.05H71.52V12.29M9 12.29H71.52M9 12.29L17.16 8.65L12.92 5M71.52 12.29L63.36 8.65L67.59 5M12.92 10.54V5M12.92 5H67.59M67.59 5V10.54M27.5 27.03C26.9783 26.7925 26.5535 26.3835 26.2965 25.8711C26.0394 25.3587 25.9655 24.7737 26.087 24.2135C26.2086 23.6533 26.5182 23.1515 26.9645 22.7917C27.4107 22.4318 27.9667 22.2356 28.54 22.2356C29.1133 22.2356 29.6693 22.4318 30.1155 22.7917C30.5618 23.1515 30.8714 23.6533 30.993 24.2135C31.1145 24.7737 31.0406 25.3587 30.7835 25.8711C30.5265 26.3835 30.1017 26.7925 29.58 27.03M50.89 27.06C50.3562 26.838 49.9159 26.4379 49.6439 25.9278C49.372 25.4177 49.2852 24.8291 49.3984 24.2622C49.5116 23.6953 49.8177 23.1851 50.2647 22.8186C50.7117 22.452 51.2719 22.2517 51.85 22.2517C52.4281 22.2517 52.9883 22.452 53.4353 22.8186C53.8823 23.1851 54.1884 23.6953 54.3016 24.2622C54.4148 24.8291 54.328 25.4177 54.0561 25.9278C53.7841 26.4379 53.3438 26.838 52.81 27.06M17.16 8.81V12.09M63.36 8.81V12.09M52.79 27.97C52.7781 29.6447 52.4289 31.2999 51.7634 32.8367C51.0979 34.3736 50.1296 35.7606 48.9163 36.9151C47.7031 38.0696 46.2697 38.9678 44.7017 39.5562C43.1337 40.1447 41.4632 40.4112 39.79 40.34C36.5279 40.1903 33.45 38.7849 31.2004 36.4179C28.9508 34.0508 27.7037 30.9055 27.72 27.64V25.05C27.72 24.9336 27.7431 24.8183 27.7879 24.7109C27.8328 24.6035 27.8985 24.506 27.9813 24.4242C28.064 24.3423 28.1622 24.2777 28.2702 24.2341C28.3781 24.1905 28.4936 24.1687 28.61 24.17C28.7269 24.1687 28.8429 24.1904 28.9514 24.2339C29.0598 24.2774 29.1587 24.3419 29.2423 24.4236C29.3258 24.5053 29.3925 24.6027 29.4384 24.7102C29.4844 24.8176 29.5087 24.9331 29.51 25.05V27.69C29.4993 30.4882 30.5701 33.1824 32.4987 35.2098C34.4274 37.2372 37.0647 38.4411 39.86 38.57C41.2933 38.629 42.7239 38.3993 44.0667 37.8943C45.4094 37.3893 46.637 36.6195 47.6762 35.6307C48.7155 34.6418 49.5453 33.454 50.1163 32.138C50.6873 30.8219 50.9878 29.4045 51 27.97V25.05C51 24.9336 51.0231 24.8183 51.0679 24.7109C51.1128 24.6035 51.1785 24.506 51.2613 24.4242C51.3441 24.3423 51.4422 24.2777 51.5502 24.2341C51.6581 24.1905 51.7736 24.1687 51.89 24.17C52.0069 24.1687 52.1229 24.1904 52.2314 24.2339C52.3398 24.2774 52.4387 24.3419 52.5223 24.4236C52.6058 24.5053 52.6725 24.6027 52.7184 24.7102C52.7644 24.8176 52.7887 24.9331 52.79 25.05V27.97Z" stroke="#FE5900" stroke-linecap="round" stroke-linejoin="round"/>
</svg>
