<svg width="80" height="80" viewBox="0 0 80 80" fill="none" xmlns="http://www.w3.org/2000/svg">
<g clip-path="url(#clip0)">
<path d="M77.1816 36.3913L78.261 33.5543C79.8553 29.4032 80.365 24.9142 79.742 20.5114L79.3851 18.0134C61.6496 17.6298 57.1622 35.856 57.1622 35.856M61.3463 22.8488C58.6481 20.3422 55.4494 18.4358 51.961 17.2551L49.5701 16.4433C47.8514 19.5301 46.9494 23.0047 46.9494 26.5377C46.9494 30.0708 47.8514 33.5453 49.5701 36.6322M53.094 25.4449L55.3868 30.2356M66.0745 36.3824L72.0429 27.8358M22.2977 36.6322L8.29126 21.3411C7.2041 22.0732 6.03298 22.6723 4.80303 23.1253C3.54513 23.4286 1.55568 23.1253 0.672468 21.9388C0.232939 21.2318 0 20.416 0 19.5836C0 18.7511 0.232939 17.9353 0.672468 17.2283C2.07599 15.2566 3.61096 13.3819 5.26694 11.6168C5.26694 11.6168 8.32695 7.95018 9.93278 7.29892C10.5779 7.02078 11.2894 6.93428 11.9823 7.04977C12.6753 7.16526 13.3203 7.47785 13.8403 7.95018C14.4085 8.43906 14.8259 9.07943 15.0439 9.79658C15.2619 10.5137 15.2714 11.2781 15.0715 12.0004C14.7588 13.0819 14.3865 14.1451 13.9563 15.1854L40.6042 36.3913M21.0398 46.178C21.0398 46.178 25.3845 61.4869 35.7956 65.671L50.3017 65.8762M77.3154 40.0044C77.3154 39.7992 77.3154 39.5851 77.3154 39.371H12.0561C12.0561 39.5851 12.0561 39.7992 12.0561 40.0044C12.0491 45.0572 13.2155 50.0425 15.4634 54.5677C17.7113 59.0929 20.9792 63.0343 25.0098 66.0814C25.1185 66.1588 25.1995 66.269 25.241 66.3958C25.2825 66.5226 25.2823 66.6594 25.2404 66.7861C25.1985 66.9128 25.1171 67.0227 25.0082 67.0998C24.8992 67.1769 24.7685 67.217 24.6351 67.2144C23.9241 67.2049 23.2358 67.4643 22.7081 67.9408C22.1804 68.4172 21.8521 69.0755 21.7892 69.7837C21.7685 70.1579 21.8246 70.5323 21.9539 70.884C22.0833 71.2357 22.2832 71.5572 22.5414 71.8287C22.7996 72.1003 23.1106 72.3162 23.4553 72.4631C23.8 72.6101 24.1712 72.6849 24.5459 72.6831H64.7363C65.444 72.6925 66.1289 72.4337 66.6536 71.9587C67.1782 71.4838 67.5036 70.8278 67.5644 70.1227C67.5876 69.7491 67.5339 69.3746 67.4067 69.0225C67.2794 68.6704 67.0814 68.3481 66.8247 68.0756C66.568 67.803 66.2582 67.586 65.9144 67.4378C65.5705 67.2897 65.1999 67.2137 64.8256 67.2144C64.6873 67.2163 64.5521 67.1742 64.4394 67.0942C64.3266 67.0141 64.2423 66.9003 64.1986 66.7691C64.1549 66.638 64.1541 66.4963 64.1962 66.3647C64.2383 66.233 64.3213 66.1182 64.433 66.0368C68.4434 62.9859 71.6933 59.0481 73.9282 54.5319C76.1631 50.0156 77.3224 45.0434 77.3154 40.0044Z" stroke="#FE5900" stroke-linecap="round" stroke-linejoin="round"/>
</g>
<defs>
<clipPath id="clip0">
<rect width="80" height="80" fill="white"/>
</clipPath>
</defs>
</svg>
