<svg width="80" height="80" viewBox="0 0 80 80" fill="none" xmlns="http://www.w3.org/2000/svg">
<path d="M5 58.35C5 58.35 12.13 60.06 14.44 63.66C16.75 67.26 21.07 71.2 24.79 72.5C27.3296 73.3555 30.0348 73.6021 32.6872 73.2199C35.3396 72.8378 37.8652 71.8376 40.06 70.3C42.3948 68.5709 44.1882 66.2121 45.23 63.5C45.23 63.5 46.43 60.59 43.34 60.85C40.25 61.11 30.23 61.53 27.58 61.19C24.93 60.85 20.04 58.79 18.07 57.68C16.1 56.57 10.44 52.5 5 52.1M65.5 6C65.5 6 60.79 8.74 58.65 9.94C56.51 11.14 55.5 14.4 55.5 14.4L54.64 21.25C54.5402 22.0486 54.2561 22.8131 53.8101 23.483C53.3641 24.1529 52.7683 24.7099 52.07 25.11L43.07 30.25C42.6281 30.5002 42.3026 30.9145 42.1641 31.403C42.0255 31.8916 42.0852 32.4151 42.33 32.86L44.5 36.86L45.5 38.3M74.19 38.3C72.7275 38.7037 71.1926 38.7721 69.7 38.5L63.29 35.93C62.5433 35.6302 61.737 35.5084 60.9351 35.5744C60.1332 35.6403 59.3577 35.8922 58.67 36.31L49.83 41.67C49.3916 41.9201 48.8748 41.9952 48.3833 41.8803C47.8918 41.7653 47.462 41.4687 47.18 41.05L45.38 38.21M49.93 35L52.66 39.93M55.71 34.37L57.01 36.71M46.27 28.44L48.06 31.67M51.04 25.99L53.54 30.51M31.35 56.68C31.35 56.68 31.86 44.34 40.35 39.2M38.64 56.68C38.64 56.68 38.98 48.56 43.64 42.75" stroke="#FE5900" stroke-linecap="round" stroke-linejoin="round"/>
</svg>
