<svg width="80" height="80" viewBox="0 0 80 80" fill="none" xmlns="http://www.w3.org/2000/svg">
<path d="M59.3321 25.5041C59.9416 25.1087 60.4318 24.5547 60.7502 23.9017C61.0687 23.2487 61.2032 22.5214 61.1395 21.7977C61.0757 21.074 60.8161 20.3813 60.3885 19.794C59.9608 19.2067 59.3813 18.747 58.7121 18.4641C58.8121 18.3341 58.8921 18.1941 58.9821 18.0541H59.4721C60.0448 17.2805 60.8404 16.7005 61.7521 16.3918C62.6638 16.0831 63.6481 16.0605 64.573 16.3271C65.4979 16.5937 66.3192 17.1367 66.9267 17.8833C67.5343 18.6299 67.899 19.5444 67.9721 20.5041C68.7634 20.1886 69.6199 20.0718 70.4668 20.1642C71.3136 20.2565 72.1249 20.5551 72.8296 21.0337C73.5343 21.5124 74.1108 22.1565 74.5088 22.9098C74.9067 23.663 75.1139 24.5023 75.1121 25.3541C75.1084 26.097 74.9447 26.8303 74.6321 27.5041C75.7785 27.7099 76.8091 28.3306 77.5271 29.2477C78.2451 30.1648 78.6003 31.3142 78.5248 32.4765C78.4494 33.6388 77.9487 34.7327 77.1181 35.5493C76.2876 36.366 75.1855 36.8483 74.0221 36.9041C73.9422 36.9089 73.862 36.9089 73.7821 36.9041C73.9331 37.397 74.0139 37.9087 74.0221 38.4241C74.0221 39.8457 73.4574 41.209 72.4522 42.2142C71.447 43.2194 70.0837 43.7841 68.6621 43.7841C67.8987 43.7822 67.1448 43.615 66.4521 43.2941C66.4615 43.4573 66.4615 43.6209 66.4521 43.7841C66.4559 44.7507 66.1635 45.6952 65.6143 46.4906C65.065 47.286 64.2853 47.894 63.38 48.2327C62.4748 48.5715 61.4875 48.6249 60.551 48.3855C59.6145 48.1462 58.7738 47.6257 58.1421 46.8941C57.7564 46.9934 57.3604 47.0471 56.9621 47.0541C56.0538 47.0539 55.1647 46.7927 54.4006 46.3016C53.6365 45.8105 53.0296 45.1103 52.6521 44.2841C51.6922 43.9844 50.8529 43.3865 50.2559 42.5773C49.6589 41.7681 49.3353 40.7897 49.3321 39.7841C49.3268 39.6909 49.3268 39.5974 49.3321 39.5041M59.3321 25.5041C59.6848 25.9364 59.942 26.4384 60.0867 26.9773C60.2313 27.5161 60.2602 28.0794 60.1714 28.6302C60.0826 29.181 59.8781 29.7068 59.5714 30.1728C59.2647 30.6389 58.8628 31.0347 58.3921 31.3341C58.4562 31.7211 58.493 32.112 58.5021 32.5041M59.3321 25.5041C59.6927 25.9359 59.9569 26.4397 60.107 26.9818C60.2572 27.524 60.2898 28.0919 60.2027 28.6477C60.1156 29.2034 59.9108 29.7342 59.602 30.2044C59.2932 30.6746 58.8875 31.0734 58.4121 31.3741C58.4677 31.7483 58.4978 32.1259 58.5021 32.5041M59.3321 25.5041C59.9061 25.1477 60.3805 24.6518 60.711 24.0625C61.0415 23.4732 61.2173 22.8098 61.2221 22.1341C61.2197 21.3376 60.9795 20.5599 60.5323 19.9007C60.0852 19.2415 59.4513 18.7308 58.7121 18.4341C58.8121 18.3041 58.8921 18.1641 58.9821 18.0241C59.7892 16.8451 60.2277 15.4529 60.2421 14.0241C60.2486 12.7281 59.9095 11.4537 59.2596 10.3323C58.6098 9.21093 57.6727 8.28306 56.545 7.64431C55.4172 7.00556 54.1396 6.67902 52.8436 6.69832C51.5477 6.71762 50.2803 7.08207 49.1721 7.75413C48.5139 6.79953 47.6077 6.04268 46.551 5.56519C45.4944 5.0877 44.3274 4.90767 43.176 5.04453C42.0246 5.18138 40.9324 5.62992 40.0171 6.34178C39.1018 7.05365 38.3982 8.00184 37.9821 9.08413C37.0952 8.18302 35.9603 7.56621 34.7217 7.31223C33.4831 7.05825 32.197 7.1786 31.0271 7.65794C29.8571 8.13729 28.8563 8.95395 28.152 10.004C27.4477 11.054 27.0718 12.2898 27.0721 13.5541C27.0754 14.3085 27.2108 15.0565 27.4721 15.7641C26.0078 15.7627 24.5876 16.2659 23.4508 17.1889C22.314 18.1119 21.5299 19.3985 21.2305 20.8319C20.9311 22.2653 21.1348 23.7581 21.8072 25.059C22.4795 26.3599 23.5796 27.3893 24.9221 27.9741C24.0318 28.8662 23.426 30.0023 23.1816 31.2387C22.9372 32.4751 23.065 33.7562 23.5489 34.9199C24.0328 36.0836 24.851 37.0777 25.9001 37.7762C26.9491 38.4748 28.1818 38.8464 29.4421 38.8441C30.2894 38.8444 31.1283 38.6756 31.9096 38.3476C32.6909 38.0197 33.3989 37.5391 33.9921 36.9341C34.4837 38.0525 35.2865 39.0059 36.3049 39.6808C37.3232 40.3556 38.5141 40.7233 39.7357 40.7402C40.9572 40.7571 42.1578 40.4223 43.1944 39.7759C44.231 39.1294 45.0598 38.1985 45.5821 37.0941C46.5485 38.2708 47.8603 39.1139 49.3321 39.5041M58.5021 32.5041C58.5021 34.4376 57.7341 36.2918 56.3669 37.6589C54.9998 39.0261 53.1455 39.7941 51.2121 39.7941C50.5752 39.7827 49.9428 39.6852 49.3321 39.5041M58.5021 32.5041C58.4915 34.4358 57.7147 36.2843 56.3422 37.6437C54.9697 39.0031 53.1138 39.7621 51.1821 39.7541C50.5571 39.7531 49.935 39.669 49.3321 39.5041M16.8921 34.6041C15.7908 34.8213 14.6483 34.6033 13.7043 33.9959C12.7603 33.3885 12.0884 32.4391 11.8295 31.3468C11.5707 30.2546 11.7451 29.1046 12.3162 28.1382C12.8872 27.1718 13.8105 26.4643 14.8921 26.1641M37.1721 30.5541C36.5707 31.3423 35.6979 31.8791 34.7232 32.0603C33.7484 32.2415 32.7411 32.0543 31.8966 31.5348C31.052 31.0154 30.4305 30.2009 30.1525 29.2492C29.8746 28.2975 29.9599 27.2765 30.3921 26.3841M35.6821 16.6841C36.5899 16.242 37.6345 16.1722 38.593 16.4896C39.5516 16.807 40.3481 17.4864 40.8127 18.3829C41.2772 19.2794 41.373 20.3219 41.0796 21.2881C40.7862 22.2542 40.1268 23.0674 39.2421 23.5541M71.4721 27.9441C72.042 29.2477 72.0826 30.7219 71.5853 32.0548C71.088 33.3878 70.0917 34.4751 68.8072 35.0869C67.5227 35.6986 66.0506 35.7868 64.7023 35.3328C63.354 34.8788 62.235 33.9182 61.5821 32.6541M53.3321 25.3541C53.7503 26.3592 53.8598 27.4661 53.6464 28.5336C53.433 29.6011 52.9065 30.5808 52.1341 31.3479C51.3617 32.115 50.3782 32.6346 49.3093 32.8406C48.2403 33.0465 47.1342 32.9294 46.1321 32.5041C44.9736 32.0199 44.0143 31.1559 43.4121 30.0541M51.5121 13.1341C51.6307 13.4141 51.6917 13.7151 51.6917 14.0191C51.6917 14.3232 51.6307 14.6241 51.5121 14.9041C51.3442 15.3084 51.0654 15.6569 50.7078 15.9095C50.3503 16.162 49.9286 16.3082 49.4914 16.3312C49.0543 16.3542 48.6196 16.2531 48.2375 16.0395C47.8554 15.8259 47.5415 15.5086 47.3321 15.1241M19.5521 47.5041C19.5521 47.5041 24.5521 47.6641 28.5521 55.2641C32.5521 62.8641 34.4621 70.1141 34.3321 72.7341L34.2421 75.3641L44.1621 75.7341C44.1621 75.7341 44.4621 65.9841 46.8021 59.1441C46.8021 59.1441 50.6821 50.5341 54.4621 46.3541M27.9021 43.2941C27.9021 43.2941 37.0921 57.5541 37.4121 59.2341C37.7321 60.9141 37.0221 40.0941 37.0221 40.0941M43.4121 39.6341V55.5841C43.4121 55.5841 46.6621 46.2541 50.8621 42.5041M23.0621 32.5041C23.0614 31.6687 23.2253 30.8412 23.5444 30.0691C23.8636 29.297 24.3317 28.5953 24.9221 28.0041C24.0826 27.6377 23.332 27.0946 22.7215 26.4117C22.111 25.7288 21.6549 24.9223 21.3844 24.0472C21.1139 23.1721 21.0353 22.2489 21.154 21.3406C21.2726 20.4324 21.5858 19.5604 22.0721 18.7841C21.4958 18.4169 20.8466 18.1792 20.1694 18.0874C19.4922 17.9957 18.8031 18.052 18.1499 18.2527C17.4966 18.4533 16.8947 18.7934 16.3857 19.2495C15.8768 19.7056 15.4729 20.2667 15.2021 20.8941C14.4946 20.1068 13.5648 19.5527 12.5357 19.3051C11.5065 19.0575 10.4265 19.1279 9.43824 19.5072C8.45 19.8864 7.6001 20.5566 7.00087 21.4292C6.40163 22.3018 6.08127 23.3356 6.08211 24.3941C6.07868 25.1216 6.23217 25.8413 6.53211 26.5041C5.31134 26.5602 4.15914 27.0846 3.31507 27.9683C2.471 28.852 2 30.0271 2 31.2491C2 32.4712 2.471 33.6462 3.31507 34.5299C4.15914 35.4137 5.31134 35.9381 6.53211 35.9941C6.61204 35.9989 6.69218 35.9989 6.77211 35.9941C6.62115 36.487 6.54035 36.9987 6.53211 37.5141C6.53211 38.9357 7.09682 40.299 8.10202 41.3042C9.10721 42.3094 10.4706 42.8741 11.8921 42.8741C12.6555 42.8722 13.4094 42.705 14.1021 42.3841C14.0761 42.5464 14.0594 42.71 14.0521 42.8741C14.0483 43.8407 14.3407 44.7852 14.8899 45.5806C15.4392 46.376 16.2189 46.984 17.1242 47.3227C18.0294 47.6615 19.0168 47.7149 19.9532 47.4755C20.8897 47.2362 21.7304 46.7157 22.3621 45.9841C22.7478 46.0834 23.1439 46.1371 23.5421 46.1441C24.4504 46.1439 25.3395 45.8827 26.1036 45.3916C26.8677 44.9005 27.4746 44.2003 27.8521 43.3741C28.812 43.0744 29.6513 42.4765 30.2484 41.6673C30.8454 40.8581 31.1689 39.8797 31.1721 38.8741C31.1721 38.8041 31.1721 38.7341 31.1721 38.6741C30.5965 38.839 30.0008 38.9231 29.4021 38.9241C28.5643 38.9189 27.7357 38.7487 26.9636 38.4232C26.1916 38.0977 25.4912 37.6234 24.9025 37.0272C24.3137 36.4311 23.8482 35.7248 23.5324 34.9487C23.2167 34.1726 23.0568 33.342 23.0621 32.5041Z" stroke="#FE5900" stroke-linecap="round" stroke-linejoin="round"/>
</svg>
