<svg width="80" height="80" viewBox="0 0 80 80" fill="none" xmlns="http://www.w3.org/2000/svg">
<path d="M66.9435 31.1177C68.1015 28.1721 68.1958 24.8086 66.3332 22.7748L58.375 14.1387C57.4503 13.1398 56.2799 12.4006 54.9805 11.9948C53.6811 11.589 52.2981 11.5308 50.9692 11.826M66.9435 31.1177C66.2666 32.9446 65.1344 34.5683 63.6541 35.835M66.9435 31.1177C67.4647 31.5738 67.9063 32.1136 68.2499 32.7149L72.2075 41.7202C72.6378 42.4504 72.9151 43.2605 73.0226 44.1012C73.13 44.9419 73.0653 45.7957 72.8324 46.6107C72.5995 47.4256 72.2033 48.1847 71.6679 48.8417C71.1324 49.4987 70.4689 50.04 69.7178 50.4325L69.5785 50.5138L51.7647 58.8081M50.9692 11.826C49.4308 12.1681 48.0345 12.9741 46.9687 14.1351L29.3092 32.9223M50.9692 11.826C49.4451 12.1609 48.0587 12.9511 46.9937 14.0918L29.3092 32.9223M50.9692 11.826L50.4409 11.521L42.0671 6.8249C41.3128 6.39554 40.478 6.12666 39.6149 6.03513C38.7518 5.9436 37.8791 6.03139 37.0516 6.293C36.224 6.55461 35.4594 6.98439 34.8058 7.55539C34.1521 8.12639 33.6235 8.82629 33.2531 9.61119M29.3092 32.9223C28.2362 33.959 27.5381 35.3229 27.3247 36.7995C27.2805 37.7308 27.4409 38.6605 27.7947 39.5232C28.1486 40.3858 28.6872 41.1604 29.3726 41.7924L35.0709 48.7427C35.8117 49.589 36.7124 50.2807 37.7212 50.7779C38.7301 51.2752 39.8273 51.5683 40.9497 51.6403C42.5101 51.6958 44.0376 51.1824 45.2478 50.1958L63.6541 35.835M29.3092 32.9223C28.4927 33.8593 27.8435 34.9296 27.3899 36.0866C26.1812 35.7253 25.1538 34.9204 24.5137 33.8334C23.8735 32.7465 23.6679 31.4577 23.938 30.2254M63.6541 35.835L45.2464 50.2182C44.754 50.6992 44.1685 51.0744 43.5258 51.3209C42.8831 51.5674 42.1968 51.6799 41.509 51.6515C41.8056 53.0531 42.364 54.3862 43.1549 55.5808L43.6071 56.2576C44.2853 57.4323 45.324 58.3572 46.5691 58.8951C47.8143 59.4331 49.1997 59.5555 50.5199 59.2442M51.7647 58.8081L69.6368 50.5128L69.7761 50.4316C70.3879 58.1518 67.5056 61.9841 64.0473 66.754C59.9892 72.263 52.2594 76.6914 49.9298 73.1063C47.6998 69.7288 51.9265 67.608 51.6873 63.3822C51.5824 61.9381 51.1853 60.5302 50.5199 59.2442M51.7647 58.8081C51.366 58.9961 50.9488 59.1422 50.5199 59.2442M33.2531 9.61119C33.4889 9.11477 33.7878 8.65084 34.1424 8.23091C26.5635 6.33786 21.9048 8.26696 16.4955 10.5363C10.2061 13.2098 4.88824 21.9406 7.83528 25.0162C10.6341 27.9484 12.5004 23.8759 16.5438 25.0326C18.7358 25.7471 20.6717 27.0856 22.1144 28.8839L23.938 30.2254M33.2531 9.61119L24.4193 28.5518C24.1861 29.0862 24.0243 29.6489 23.938 30.2254M33.2531 9.61119L24.4293 28.5345C24.1912 29.0738 24.026 29.6425 23.938 30.2254M55.9249 17.8625C54.8382 16.9288 53.4265 16.4625 51.9975 16.565C50.4412 16.8064 49.0264 17.6072 48.0183 18.8171L43.0593 24.1063" stroke="#FE5900" stroke-linecap="round" stroke-linejoin="round"/>
</svg>
