<svg width="80" height="80" viewBox="0 0 80 80" fill="none" xmlns="http://www.w3.org/2000/svg">
<path d="M44 44L62.28 62.28M17.31 17.31L35.6 35.6M14.31 25.41H25.41V14.31M54.18 65.28V54.18H65.28M45.74 39.8H71.59M45.74 39.8C45.74 43.0806 43.0806 45.74 39.8 45.74C36.5194 45.74 33.86 43.0806 33.86 39.8C33.86 36.5194 36.5194 33.86 39.8 33.86M45.74 39.8C45.74 36.5194 43.0806 33.86 39.8 33.86M8 39.8H33.73M11.6 47.65L19.46 39.8L11.6 31.94M67.99 47.65L60.13 39.8L67.99 31.94M44 35.6L62.28 17.31M17.31 62.28L35.6 44M25.41 65.28V54.18H14.31M65.28 25.41H54.18V14.31M39.8 33.86V8M39.8 71.59V45.89M47.65 67.99L39.8 60.13L31.94 67.99M47.65 11.6L39.8 19.46L31.94 11.6" stroke="#FE5900" stroke-linecap="round" stroke-linejoin="round"/>
</svg>
