<svg width="80" height="80" viewBox="0 0 80 80" fill="none" xmlns="http://www.w3.org/2000/svg">
<path d="M11.5 47.03V72.29C11.5078 72.5448 11.5657 72.7956 11.6704 73.028C11.7751 73.2604 11.9246 73.4699 12.1104 73.6445C12.2961 73.8191 12.5144 73.9554 12.7529 74.0456C12.9913 74.1357 13.2452 74.178 13.5 74.17H15.33M51.13 75.97H61.68C62.4756 75.97 63.2387 75.6539 63.8013 75.0913C64.3639 74.5287 64.68 73.7657 64.68 72.97V66.13H51.19M36.22 12.35H73.02M56.81 53.66H69.65M11.44 38.17H30.47M36.79 38.17H43.26M41.62 2.00001V7.33001M48.23 2.00001V7.33001M54.84 2.00001V7.33001M61.45 2.00001V7.33001M68.06 2.00001V7.33001M51.68 66.13H66.14C66.899 66.132 67.6305 65.8464 68.1872 65.3305C68.7439 64.8146 69.0843 64.1069 69.14 63.35L73.7 5.22001C73.7303 4.80794 73.6752 4.39405 73.538 4.00429C73.4009 3.61453 73.1847 3.2573 72.9031 2.95499C72.6214 2.65268 72.2803 2.41181 71.9012 2.24748C71.5221 2.08315 71.1132 1.9989 70.7 2.00001H38.5C38.0868 1.9989 37.6779 2.08315 37.2988 2.24748C36.9197 2.41181 36.5786 2.65268 36.2969 2.95499C36.0153 3.2573 35.7991 3.61453 35.662 4.00429C35.5248 4.39405 35.4697 4.80794 35.5 5.22001L37.36 23.3L51.68 66.13ZM45.19 38.18H43.69V29.72C43.69 28.9244 43.3739 28.1613 42.8113 27.5987C42.2487 27.0361 41.4856 26.72 40.69 26.72H14.5C13.7044 26.72 12.9413 27.0361 12.3787 27.5987C11.8161 28.1613 11.5 28.9244 11.5 29.72V38.18H10C9.20435 38.18 8.44129 38.4961 7.87868 39.0587C7.31607 39.6213 7 40.3844 7 41.18V75.5C7 76.2957 7.31607 77.0587 7.87868 77.6213C8.44129 78.1839 9.20435 78.5 10 78.5H45.19C45.893 78.4966 46.5724 78.2464 47.1097 77.7932C47.6471 77.3399 48.0082 76.7123 48.13 76.02C48.1651 75.8488 48.1852 75.6748 48.19 75.5V41.18C48.19 40.3844 47.8739 39.6213 47.3113 39.0587C46.7487 38.4961 45.9856 38.18 45.19 38.18ZM54.84 36.72C53.4116 36.722 52.0147 36.3002 50.8261 35.5081C49.6374 34.7159 48.7105 33.589 48.1625 32.2699C47.6145 30.9508 47.4701 29.4988 47.7475 28.0976C48.025 26.6964 48.7118 25.409 49.7212 24.3982C50.7305 23.3875 52.017 22.6989 53.4178 22.4195C54.8186 22.1401 56.2708 22.2825 57.5907 22.8286C58.9105 23.3748 60.0387 24.3002 60.8325 25.4878C61.6263 26.6753 62.05 28.0716 62.05 29.5C62.0513 30.4477 61.8658 31.3863 61.504 32.2622C61.1423 33.1381 60.6114 33.9341 59.9418 34.6047C59.2721 35.2753 58.4769 35.8073 57.6015 36.1702C56.726 36.5332 55.7877 36.72 54.84 36.72Z" stroke="#FE5900" stroke-linecap="round" stroke-linejoin="round"/>
</svg>
