<svg width="80" height="80" viewBox="0 0 80 80" fill="none" xmlns="http://www.w3.org/2000/svg">
<path d="M24.5 44.0873L30.76 44.4873C31.0005 44.5055 31.242 44.4681 31.4657 44.3779C31.6894 44.2877 31.8894 44.1472 32.05 43.9673L36.05 39.3773M34.51 51.3173L32.5 46.7773M38.37 55.9673L42.5 58.8673C42.6636 58.9784 42.8501 59.0515 43.0457 59.0809C43.2412 59.1103 43.4409 59.0954 43.63 59.0373L48.5 57.5173M42.39 63.0673L43.06 59.0773M21.61 33.6073C23.81 32.8373 25.61 32.3773 30.61 32.5173C37.77 32.7073 41.45 33.9873 45.54 34.9673C49.63 35.9473 57.45 35.4073 57.45 35.4073M45.5 34.7673L46.96 11.2173C47.0199 10.5481 47.2247 9.9 47.5602 9.31793C47.8957 8.73586 48.3538 8.23378 48.9028 7.84653C49.4518 7.45928 50.0785 7.19615 50.7394 7.0754C51.4003 6.95465 52.0795 6.97917 52.73 7.14726L61.04 9.14726L60.1 12.7773L52.56 10.9073C52.3736 10.8568 52.1784 10.8478 51.9881 10.881C51.7979 10.9142 51.6173 10.9888 51.459 11.0994C51.3007 11.21 51.1686 11.354 51.072 11.5213C50.9754 11.6885 50.9167 11.8749 50.9 12.0673L49.5 35.3273M51.12 72.5773H25.38C24.574 72.5892 23.7926 72.2994 23.1894 71.7646C22.5862 71.2299 22.2048 70.4889 22.12 69.6873L18 21.6873H58.5L54.38 69.6873C54.2952 70.4889 53.9138 71.2299 53.3106 71.7646C52.7074 72.2994 51.926 72.5892 51.12 72.5773ZM24.56 44.6973L26.93 50.0673C27.0095 50.2471 27.1342 50.4033 27.2919 50.5207C27.4496 50.6381 27.6349 50.7127 27.83 50.7373L33.97 51.4573C34.1587 51.4786 34.3497 51.4513 34.5248 51.3777C34.6999 51.3042 34.8532 51.187 34.97 51.0373L38.66 46.3573C38.7848 46.1941 38.8637 46.0004 38.8883 45.7964C38.9129 45.5924 38.8824 45.3855 38.8 45.1973L36.5 39.8273C36.4188 39.6467 36.2924 39.4902 36.133 39.3728C35.9735 39.2554 35.7865 39.1812 35.59 39.1573L29.46 38.4373C29.2715 38.4187 29.0814 38.4474 28.9069 38.5207C28.7323 38.594 28.5787 38.7097 28.46 38.8573L24.7 43.5173C24.5694 43.6815 24.4871 43.879 24.4624 44.0874C24.4376 44.2958 24.4715 44.507 24.56 44.6973ZM38.13 56.5173L37.38 60.9773C37.346 61.1784 37.3671 61.385 37.441 61.5752C37.515 61.7653 37.639 61.9319 37.8 62.0573L41.5 64.9773C41.6509 65.0947 41.8292 65.1718 42.0181 65.2016C42.207 65.2313 42.4003 65.2126 42.58 65.1473L47.09 63.5173C47.2784 63.4479 47.4451 63.3299 47.5733 63.1754C47.7015 63.0209 47.7866 62.8352 47.82 62.6373L48.57 58.1773C48.604 57.9761 48.5829 57.7695 48.509 57.5793C48.435 57.3892 48.311 57.2226 48.15 57.0973L44.5 54.1873C44.3471 54.0698 44.1672 53.9927 43.9767 53.963C43.7863 53.9333 43.5914 53.952 43.41 54.0173L38.91 55.6573C38.7149 55.7176 38.5395 55.8292 38.4023 55.9805C38.2651 56.1318 38.1711 56.3172 38.13 56.5173ZM48.6 43.2073C48.6 44.1903 47.7717 44.9873 46.75 44.9873C45.7283 44.9873 44.9 44.1903 44.9 43.2073C44.9 42.2242 45.7283 41.4273 46.75 41.4273C47.7717 41.4273 48.6 42.2242 48.6 43.2073ZM31.12 63.7973C31.1366 63.4322 31.0453 63.0704 30.8575 62.7569C30.6698 62.4434 30.3938 62.1922 30.0641 62.0346C29.7344 61.877 29.3656 61.82 29.0037 61.8707C28.6418 61.9214 28.3029 62.0776 28.0292 62.3198C27.7556 62.562 27.5593 62.8794 27.465 63.2325C27.3706 63.5855 27.3824 63.9585 27.4987 64.3049C27.6151 64.6513 27.8309 64.9558 28.1192 65.1803C28.4076 65.4048 28.7556 65.5394 29.12 65.5673H29.3C29.7742 65.5674 30.2297 65.3826 30.5696 65.052C30.9095 64.7214 31.107 64.2712 31.12 63.7973Z" stroke="#FE5900" stroke-linecap="round" stroke-linejoin="round"/>
</svg>
