<svg width="80" height="80" viewBox="0 0 80 80" fill="none" xmlns="http://www.w3.org/2000/svg">
<path d="M30.7717 43.9131C30.7717 43.9131 29.8917 41.6731 31.2617 37.9131C31.9966 36.3682 32.8631 34.8894 33.8517 33.4931M26.7317 46.6531C25.8317 47.7431 24.3417 49.5031 23.5417 50.2731C22.3517 51.4231 21.2617 53.4131 16.7617 53.8131C12.2617 54.2131 11.6317 55.6031 11.1817 56.8131C10.9931 57.5333 10.9508 58.284 11.0573 59.0209C11.1638 59.7577 11.4169 60.4658 11.8017 61.1031C12.7877 62.1325 14.0838 62.8104 15.4917 63.0331C16.1788 63.1458 16.8838 63.0225 17.4917 62.6831C17.4697 63.6299 17.5945 64.5745 17.8617 65.4831C18.3146 66.9768 19.2369 68.2848 20.4917 69.2131C21.4917 69.7631 24.4317 69.4631 25.4917 68.8131C26.5517 68.1631 28.2817 66.4231 28.0817 64.4331C27.8817 62.4431 27.5817 59.8931 28.7817 58.2531C29.7817 56.8631 32.2017 54.0731 33.6817 52.3831C31.0921 50.8307 28.7494 48.8992 26.7317 46.6531ZM68.1217 23.2431C67.0864 19.6754 65.175 16.4233 62.5617 13.7831C59.2757 11.1067 55.1014 9.76759 50.8717 10.0331C45.8317 10.4831 40.6517 13.8531 36.6717 18.4831C33.4917 22.1931 30.8217 29.0331 29.9017 31.5831C29.6298 32.3403 29.2742 33.0648 28.8417 33.7431C27.9562 35.0027 27.1896 36.3418 26.5517 37.7431C25.4091 40.1626 25.1991 42.9184 25.9617 45.4831C26.155 45.9235 26.4146 46.3315 26.7317 46.6931C28.7646 48.9432 31.1244 50.8748 33.7317 52.4231C34.0817 52.6331 34.4217 52.8231 34.7317 52.9831C37.8917 54.5331 40.0317 53.4031 41.7317 52.4231C43.4317 51.4431 45.5317 49.8131 48.6417 47.8931C51.7517 45.9731 56.4917 44.3131 59.7617 42.4831C63.0317 40.6531 64.4217 38.0331 66.6217 34.9331C68.8217 31.8331 69.0817 26.9031 68.1217 23.2431ZM46.1517 22.7931C46.4832 22.7931 46.8012 22.6614 47.0356 22.427C47.27 22.1926 47.4017 21.8746 47.4017 21.5431C47.4017 21.2116 47.27 20.8936 47.0356 20.6592C46.8012 20.4248 46.4832 20.2931 46.1517 20.2931C45.8202 20.2931 45.5022 20.4248 45.2678 20.6592C45.0334 20.8936 44.9017 21.2116 44.9017 21.5431C44.9017 21.8746 45.0334 22.1926 45.2678 22.427C45.5022 22.6614 45.8202 22.7931 46.1517 22.7931ZM57.2017 24.4831C57.5332 24.4831 57.8512 24.3514 58.0856 24.117C58.32 23.8826 58.4517 23.5646 58.4517 23.2331C58.4517 22.9016 58.32 22.5836 58.0856 22.3492C57.8512 22.1148 57.5332 21.9831 57.2017 21.9831C56.8702 21.9831 56.5522 22.1148 56.3178 22.3492C56.0834 22.5836 55.9517 22.9016 55.9517 23.2331C55.9517 23.5646 56.0834 23.8826 56.3178 24.117C56.5522 24.3514 56.8702 24.4831 57.2017 24.4831ZM51.6717 29.4031C52.0032 29.4031 52.3212 29.2714 52.5556 29.037C52.79 28.8026 52.9217 28.4846 52.9217 28.1531C52.9217 27.8216 52.79 27.5036 52.5556 27.2692C52.3212 27.0348 52.0032 26.9031 51.6717 26.9031C51.3402 26.9031 51.0222 27.0348 50.7878 27.2692C50.5534 27.5036 50.4217 27.8216 50.4217 28.1531C50.4217 28.4846 50.5534 28.8026 50.7878 29.037C51.0222 29.2714 51.3402 29.4031 51.6717 29.4031ZM52.4017 21.8831C52.7332 21.8831 53.0512 21.7514 53.2856 21.517C53.52 21.2826 53.6517 20.9646 53.6517 20.6331C53.6517 20.3016 53.52 19.9836 53.2856 19.7492C53.0512 19.5148 52.7332 19.3831 52.4017 19.3831C52.0702 19.3831 51.7522 19.5148 51.5178 19.7492C51.2834 19.9836 51.1517 20.3016 51.1517 20.6331C51.1517 20.9646 51.2834 21.2826 51.5178 21.517C51.7522 21.7514 52.0702 21.8831 52.4017 21.8831ZM42.7917 28.2331C43.1232 28.2331 43.4412 28.1014 43.6756 27.867C43.91 27.6326 44.0417 27.3146 44.0417 26.9831C44.0417 26.6516 43.91 26.3336 43.6756 26.0992C43.4412 25.8648 43.1232 25.7331 42.7917 25.7331C42.4602 25.7331 42.1422 25.8648 41.9078 26.0992C41.6734 26.3336 41.5417 26.6516 41.5417 26.9831C41.5417 27.3146 41.6734 27.6326 41.9078 27.867C42.1422 28.1014 42.4602 28.2331 42.7917 28.2331ZM58.2917 32.5831C58.6232 32.5831 58.9412 32.4514 59.1756 32.217C59.41 31.9826 59.5417 31.6646 59.5417 31.3331C59.5417 31.0016 59.41 30.6836 59.1756 30.4492C58.9412 30.2148 58.6232 30.0831 58.2917 30.0831C57.9602 30.0831 57.6422 30.2148 57.4078 30.4492C57.1734 30.6836 57.0417 31.0016 57.0417 31.3331C57.0417 31.6646 57.1734 31.9826 57.4078 32.217C57.6422 32.4514 57.9602 32.5831 58.2917 32.5831ZM46.4917 33.1231C46.8232 33.1231 47.1412 32.9914 47.3756 32.757C47.61 32.5226 47.7417 32.2046 47.7417 31.8731C47.7417 31.5416 47.61 31.2236 47.3756 30.9892C47.1412 30.7548 46.8232 30.6231 46.4917 30.6231C46.1602 30.6231 45.8422 30.7548 45.6078 30.9892C45.3734 31.2236 45.2417 31.5416 45.2417 31.8731C45.2417 32.2046 45.3734 32.5226 45.6078 32.757C45.8422 32.9914 46.1602 33.1231 46.4917 33.1231ZM52.7617 34.5731C53.0932 34.5731 53.4112 34.4414 53.6456 34.207C53.88 33.9726 54.0117 33.6546 54.0117 33.3231C54.0117 32.9916 53.88 32.6736 53.6456 32.4392C53.4112 32.2048 53.0932 32.0731 52.7617 32.0731C52.4302 32.0731 52.1122 32.2048 51.8778 32.4392C51.6434 32.6736 51.5117 32.9916 51.5117 33.3231C51.5117 33.6546 51.6434 33.9726 51.8778 34.207C52.1122 34.4414 52.4302 34.5731 52.7617 34.5731ZM58.3817 39.8231C58.7132 39.8231 59.0312 39.6914 59.2656 39.457C59.5 39.2226 59.6317 38.9046 59.6317 38.5731C59.6317 38.2416 59.5 37.9236 59.2656 37.6892C59.0312 37.4548 58.7132 37.3231 58.3817 37.3231C58.0502 37.3231 57.7322 37.4548 57.4978 37.6892C57.2634 37.9236 57.1317 38.2416 57.1317 38.5731C57.1317 38.9046 57.2634 39.2226 57.4978 39.457C57.7322 39.6914 58.0502 39.8231 58.3817 39.8231ZM63.2717 29.6831C63.6032 29.6831 63.9212 29.5514 64.1556 29.317C64.39 29.0826 64.5217 28.7646 64.5217 28.4331C64.5217 28.1016 64.39 27.7836 64.1556 27.5492C63.9212 27.3148 63.6032 27.1831 63.2717 27.1831C62.9402 27.1831 62.6222 27.3148 62.3878 27.5492C62.1534 27.7836 62.0217 28.1016 62.0217 28.4331C62.0217 28.7646 62.1534 29.0826 62.3878 29.317C62.6222 29.5514 62.9402 29.6831 63.2717 29.6831ZM61.4917 21.8531C61.8232 21.8531 62.1412 21.7214 62.3756 21.487C62.61 21.2526 62.7417 20.9346 62.7417 20.6031C62.7417 20.2716 62.61 19.9536 62.3756 19.7192C62.1412 19.4848 61.8232 19.3531 61.4917 19.3531C61.1602 19.3531 60.8422 19.4848 60.6078 19.7192C60.3734 19.9536 60.2417 20.2716 60.2417 20.6031C60.2417 20.9346 60.3734 21.2526 60.6078 21.487C60.8422 21.7214 61.1602 21.8531 61.4917 21.8531ZM55.0317 17.1731C55.3632 17.1731 55.6812 17.0414 55.9156 16.807C56.15 16.5726 56.2817 16.2546 56.2817 15.9231C56.2817 15.5916 56.15 15.2736 55.9156 15.0392C55.6812 14.8048 55.3632 14.6731 55.0317 14.6731C54.7002 14.6731 54.3822 14.8048 54.1478 15.0392C53.9134 15.2736 53.7817 15.5916 53.7817 15.9231C53.7817 16.2546 53.9134 16.5726 54.1478 16.807C54.3822 17.0414 54.7002 17.1731 55.0317 17.1731ZM48.9617 16.2631C49.2932 16.2631 49.6112 16.1314 49.8456 15.897C50.08 15.6626 50.2117 15.3446 50.2117 15.0131C50.2117 14.6816 50.08 14.3636 49.8456 14.1292C49.6112 13.8948 49.2932 13.7631 48.9617 13.7631C48.6302 13.7631 48.3122 13.8948 48.0778 14.1292C47.8434 14.3636 47.7117 14.6816 47.7117 15.0131C47.7117 15.3446 47.8434 15.6626 48.0778 15.897C48.3122 16.1314 48.6302 16.2631 48.9617 16.2631Z" stroke="#FE5900" stroke-linecap="round" stroke-linejoin="round"/>
</svg>
