<svg width="80" height="80" viewBox="0 0 80 80" fill="none" xmlns="http://www.w3.org/2000/svg">
<path d="M66.5565 49.9774C64.7952 55.8155 61.2009 60.9313 56.3057 64.5676C51.4104 68.2039 45.4745 70.1674 39.3765 70.1674C33.2785 70.1674 27.3425 68.2039 22.4473 64.5676C17.5521 60.9313 13.9578 55.8155 12.1965 49.9774M56.8265 19.4374C61.8325 23.3504 65.3817 28.8292 66.9065 34.9974M11.7765 34.9974C12.9885 30.1051 15.4792 25.6231 18.9936 22.0103C22.508 18.3975 26.9196 15.784 31.7765 14.4374M12.1565 49.9874C11.9599 49.9975 11.763 49.9975 11.5665 49.9874C10.3973 49.9962 9.24217 49.7318 8.19316 49.2154C7.14414 48.699 6.23019 47.9448 5.52409 47.0129C4.81798 46.0809 4.33924 44.997 4.12598 43.8474C3.91272 42.6978 3.97083 41.5142 4.29569 40.391C4.62054 39.2678 5.20317 38.236 5.99718 37.3777C6.79118 36.5194 7.77462 35.8584 8.86918 35.4472C9.96374 35.0361 11.1392 34.8862 12.3019 35.0095C13.4646 35.1328 14.5825 35.5258 15.5665 36.1574M66.8965 34.9974C65.7001 35.0363 64.5306 35.3621 63.4865 35.9474M66.5565 49.9874C66.753 49.9974 66.9499 49.9974 67.1465 49.9874C68.164 50.0399 69.1815 49.8849 70.1372 49.5317C71.0929 49.1786 71.9667 48.6346 72.7055 47.933C73.4443 47.2314 74.0326 46.3868 74.4346 45.4506C74.8366 44.5144 75.0439 43.5062 75.0439 42.4874C75.0439 41.4685 74.8366 40.4603 74.4346 39.5241C74.0326 38.588 73.4443 37.7434 72.7055 37.0418C71.9667 36.3401 71.0929 35.7962 70.1372 35.443C69.1815 35.0898 68.164 34.9348 67.1465 34.9874H66.9065M35.4265 29.2574C35.4265 29.2574 49.6365 27.2574 48.4265 18.2574C47.2165 9.25738 40.5565 8.76738 38.5565 9.05738C35.3165 9.52738 32.6465 11.1474 31.5565 14.6674C31.13 16.1751 31.2951 17.7887 32.018 19.1789C32.741 20.569 33.9672 21.6307 35.4465 22.1474C37.9165 22.8174 40.9165 21.3474 41.5065 19.0574C42.0365 17.0574 40.9365 13.8374 38.0465 14.0574M46.9065 54.9074C44.6789 56.8899 41.7627 57.9197 38.7842 57.7758C35.8057 57.6318 33.0024 56.3255 30.9765 54.1374M27.1965 42.5074V46.0574M52.5565 42.5074V46.0574" stroke="#FE5900" stroke-linecap="round" stroke-linejoin="round"/>
</svg>
