<svg width="80" height="80" viewBox="0 0 80 80" fill="none" xmlns="http://www.w3.org/2000/svg">
<path d="M36.5 78.09L18.5 70.09V25.92L36.5 31.92M36.5 78.09V31.92M36.5 78.09L61.5 70.09V25.92M36.5 78.09L36.5 77.96M36.5 31.92L36.5 32M36.5 31.92L61.5 25.92M61.5 25.92L36.5 32.04M61.5 25.92L51.92 7.4L28.08 12.53M36.5 32.04L28.08 12.53M36.5 32.04L18.5 25.5L28.08 12.53M33.32 5.09V11.6M38.05 4.15V9.66M43 3.21V8.72M47.87 2.27V7.78M39.36 43.84L61.5 29.22M36.5 64.22L61.5 47.7M18.5 40.01L36.5 46.01M18.5 57.96L32.35 62.58M48.8568 17.2148C50.0783 19.6605 49.4024 22.4753 47.347 23.5019C45.2916 24.5285 42.6351 23.378 41.4136 20.9323C40.192 18.4866 40.868 15.6717 42.9234 14.6452C44.9788 13.6186 47.6353 14.769 48.8568 17.2148ZM51.8 7.4L28.24 12.87L28.13 5.86L51.71 1.5L51.8 7.4Z" stroke="#FE5900" stroke-linecap="round" stroke-linejoin="round"/>
</svg>
