<svg width="80" height="80" viewBox="0 0 80 80" fill="none" xmlns="http://www.w3.org/2000/svg">
<path d="M21.96 22.24L23.28 22.16C23.28 20.67 23.04 16.65 23.03 14.78C23.03 14.01 23.44 11.37 16.51 9.78C14.9 9.41 14.51 8.26 12.38 7.78V3.34C19.18 2.94 27.14 3.36 33.5 3.07C34.0766 3.07849 34.6306 3.29514 35.06 3.68C36.85 5.48 38.36 7.3 39.9 9.14C41.9 11.51 38.64 13.03 35.66 13.85C35.66 13.85 35.18 19.28 34.82 22.15H35.92C36.004 22.1486 36.0873 22.1643 36.1651 22.1961C36.2428 22.2279 36.3133 22.2751 36.3722 22.335C36.4311 22.3948 36.4772 22.466 36.5078 22.5442C36.5384 22.6225 36.5527 22.7061 36.55 22.79C36.38 27.74 36.24 59.08 36.24 70.64C36.24 75.42 33.72 77.88 28.95 77.81C24.57 77.75 13.18 77.87 8.81 77.68C8.02546 77.6555 7.25354 77.4758 6.53886 77.1513C5.82419 76.8267 5.18092 76.3637 4.64625 75.7891C4.11158 75.2144 3.6961 74.5395 3.42383 73.8033C3.15157 73.0671 3.02791 72.2843 3.06 71.5C3 65.99 3.09 57.5 3 51.91C3 48.63 5.09 47.13 7.53 45.77C13.11 42.66 17.72 38.55 20.53 32.77C21.23 31.42 21.74 24.04 21.96 22.24ZM21.96 22.24L36.27 22.18M21.61 26.97H36.66M3.61 60.01H36.66M29.5 26.97C29.5 26.97 30.09 49.75 24.75 69.72M21.6 11.73C21.5065 13.4993 21.0069 15.2234 20.1398 16.7685C19.2727 18.3136 18.0615 19.6383 16.6 20.64M16.6 3V9.9M40.15 24.62C44.3433 23.1182 48.8397 22.6622 53.2492 23.2913C57.6586 23.9205 61.848 25.616 65.454 28.2306C69.0599 30.8452 71.9735 34.3001 73.9421 38.2956C75.9107 42.291 76.8749 46.7065 76.7509 51.1589C76.6269 55.6112 75.4186 59.9662 73.2307 63.8459C71.0429 67.7257 67.9415 71.0131 64.1957 73.423C60.4498 75.8329 56.1726 77.2926 51.7349 77.6755C47.2973 78.0583 42.8333 77.3528 38.73 75.62M40.66 36.84C43.0967 35.2742 45.9101 34.3935 48.8047 34.2902C51.6993 34.187 54.5683 34.8651 57.1104 36.2533C59.6525 37.6415 61.7739 39.6886 63.2518 42.1796C64.7297 44.6706 65.5096 47.5136 65.5096 50.41C65.5096 53.3064 64.7297 56.1494 63.2518 58.6404C61.7739 61.1314 59.6525 63.1785 57.1104 64.5667C54.5683 65.9549 51.6993 66.633 48.8047 66.5298C45.9101 66.4265 43.0967 65.5458 40.66 63.98" stroke="#FE5900" stroke-linecap="round" stroke-linejoin="round"/>
</svg>
