<svg width="80" height="80" viewBox="0 0 80 80" fill="none" xmlns="http://www.w3.org/2000/svg">
<path d="M6.16814 53.5228C6.16814 53.5228 6.76814 56.0028 9.00814 56.4128C10.8681 56.7528 20.3081 56.0028 24.0081 55.7328C24.5935 55.6756 25.1842 55.7561 25.7329 55.968C26.2816 56.1798 26.7731 56.5171 27.1681 56.9528C27.3244 57.1059 27.4469 57.29 27.5278 57.4932C27.6087 57.6964 27.6463 57.9143 27.6381 58.1328C27.3681 60.1328 27.2281 62.8228 28.7681 63.2028C30.3081 63.5828 31.0081 62.2028 31.0081 60.4628C31.0081 58.2828 31.5481 55.2028 33.1681 55.0128C34.7881 54.8228 35.7781 55.2728 35.9881 56.6128C36.2304 58.8091 36.1529 61.0288 35.7581 63.2028C35.1781 66.0328 36.6681 68.5428 38.5081 68.6928C40.7381 68.8828 41.4181 67.1328 41.5081 63.4028C41.5881 61.2028 40.6981 60.4028 41.7581 58.0328C42.108 57.1692 42.5757 56.3581 43.1481 55.6228C44.7781 53.7428 51.7881 53.4028 51.7881 53.4028L63.6481 50.9528L66.4781 50.3528C66.4781 50.3528 67.7781 41.5528 55.6081 29.7228C43.4381 17.8928 40.7681 17.5228 40.7681 17.5228M40.7681 17.5228C40.7681 17.5228 39.5981 13.1328 43.7681 12.0928C47.9381 11.0528 58.0381 19.0928 58.0381 19.0928C58.0381 19.0928 68.0381 28.0928 71.4881 36.1928C74.9381 44.2928 73.8781 46.2628 74.0381 48.7428C74.1981 51.2228 71.8181 54.4328 66.9081 55.1328C61.9981 55.8328 42.2881 58.2128 42.2881 58.2128M40.7681 17.5228L16.8481 42.7928C16.8481 42.7928 6.22814 51.8228 6.02814 53.9928C5.50814 59.5228 12.3681 59.7428 12.3681 59.7428L27.2481 58.5928M66.6581 47.9929C66.6788 47.8772 66.7089 47.7635 66.7481 47.6529C66.9879 46.8602 67.4846 46.1698 68.16 45.6906C68.8354 45.2114 69.6511 44.9705 70.4784 45.0061C71.3058 45.0416 72.0978 45.3514 72.7297 45.8868C73.3615 46.4221 73.7972 47.1525 73.9681 47.9628M53.4381 36.5228C53.0983 36.4141 52.7834 36.239 52.5117 36.0078C52.2399 35.7765 52.0167 35.4938 51.8549 35.1757C51.6931 34.8577 51.5959 34.5108 51.569 34.155C51.5421 33.7992 51.586 33.4416 51.6981 33.1028C51.7193 33.0198 51.7494 32.9393 51.7881 32.8628M37.0381 39.4628C37.3946 39.4213 37.7558 39.4512 38.1005 39.5508C38.4453 39.6505 38.7667 39.8179 39.0461 40.0432C39.3254 40.2685 39.557 40.5473 39.7273 40.8631C39.8977 41.179 40.0033 41.5257 40.0381 41.8828C40.0381 41.9728 40.0381 42.0528 40.0381 42.1428M15.7581 48.8528C16.1151 48.8127 16.4765 48.8439 16.8214 48.9448C17.1662 49.0456 17.4875 49.2139 17.7667 49.44C18.0458 49.6662 18.2772 49.9455 18.4474 50.2619C18.6177 50.5782 18.7233 50.9253 18.7581 51.2828C18.7631 51.3661 18.7631 51.4496 18.7581 51.5328M31.3281 34.1428C31.4488 34.4783 31.5021 34.8343 31.485 35.1905C31.4679 35.5466 31.3806 35.8958 31.2283 36.2182C31.0759 36.5405 30.8614 36.8297 30.5972 37.069C30.3329 37.3083 30.024 37.4931 29.6881 37.6128L29.4381 37.6928M35.7881 48.6828C36.3482 48.2304 37.0647 48.0184 37.7808 48.0934C38.4969 48.1684 39.154 48.5242 39.6081 49.0828L39.7581 49.2928M58.0581 46.4328C58.5478 45.9044 59.2272 45.5918 59.9471 45.5636C60.667 45.5355 61.3687 45.7942 61.8981 46.2828L62.0781 46.4628M31.2481 58.4828H36.1581M45.4181 31.3928C45.7734 30.3717 45.7098 29.2513 45.2413 28.2769C44.7728 27.3024 43.9376 26.5532 42.9181 26.1928C40.7881 25.4528 36.8481 27.0228 36.1081 29.1928C35.7837 30.1097 35.8313 31.1172 36.2406 31.9994C36.6499 32.8817 37.3885 33.5685 38.2981 33.9128C38.4181 33.9128 40.1681 34.7928 40.2981 34.8328C42.4181 35.5228 44.6681 33.5228 45.4181 31.3928ZM53.7281 44.8628C53.7071 43.9301 53.3177 43.0436 52.645 42.3971C51.9723 41.7506 51.071 41.3968 50.1381 41.4128C48.1981 41.4128 45.4881 43.9128 45.5281 45.8628C45.5412 46.7011 45.8828 47.5008 46.4793 48.0898C47.0759 48.6789 47.8798 49.0103 48.7181 49.0128L50.6081 49.1628C52.5081 49.1228 53.7681 46.8028 53.7281 44.8628ZM31.0381 45.0028C31.0276 44.0745 30.6507 43.1879 29.9896 42.5361C29.3284 41.8843 28.4365 41.5202 27.5081 41.5228C25.5581 41.5228 22.8581 44.0228 22.8881 45.9728C22.9181 47.9228 22.9881 49.8829 24.7781 49.9729L27.5781 50.0829C29.5081 50.1129 31.0781 46.9428 31.0381 45.0028Z" stroke="#FE5900" stroke-linecap="round" stroke-linejoin="round"/>
</svg>
