<svg width="80" height="80" viewBox="0 0 80 80" fill="none" xmlns="http://www.w3.org/2000/svg">
<g clip-path="url(#clip0)">
<path d="M62.41 42.08C62.41 42.08 64.14 34.55 60.41 27.86C56.94 21.66 54.98 18.69 60.41 8M16.38 34.54V42.08M48.47 42.08H77.24C78.3446 42.08 79.24 42.9754 79.24 44.08V46.27C79.24 47.3746 78.3446 48.27 77.24 48.27H48.47C47.3654 48.27 46.47 47.3746 46.47 46.27V44.08C46.47 42.9754 47.3654 42.08 48.47 42.08ZM71.74 71.61H53.97L50.97 48.27H74.74L71.74 71.61ZM46.5 28.1C46.2214 28.6177 46 29.1643 45.84 29.73C46.2512 30.0882 46.7006 30.4 47.18 30.66C48.9533 31.6355 51.0413 31.8675 52.9856 31.3051C54.9298 30.7426 56.5714 29.4317 57.55 27.66C57.8286 27.1423 58.05 26.5957 58.21 26.03C57.7966 25.6717 57.3476 25.3567 56.87 25.09C55.0949 24.118 53.0069 23.889 51.0633 24.4531C49.1197 25.0173 47.4788 26.3286 46.5 28.1ZM60.72 12.4C60.1527 12.5555 59.6057 12.777 59.09 13.06C59.1202 13.6036 59.2039 14.1429 59.34 14.67C59.5999 15.6392 60.0482 16.5478 60.6593 17.3437C61.2703 18.1397 62.0322 18.8074 62.9014 19.3089C63.7706 19.8103 64.7301 20.1356 65.725 20.2662C66.7199 20.3968 67.7308 20.3302 68.7 20.07C69.2669 19.9179 69.814 19.6997 70.33 19.42C70.2998 18.8764 70.2161 18.3371 70.08 17.81C69.8212 16.8399 69.3737 15.9303 68.763 15.1332C68.1524 14.3362 67.3907 13.6673 66.5214 13.1649C65.6521 12.6624 64.6923 12.3362 63.6968 12.205C62.7014 12.0738 61.6898 12.14 60.72 12.4ZM63.71 34.01C63.5383 34.5723 63.4342 35.1531 63.4 35.74C63.8779 36.0017 64.3803 36.2161 64.9 36.38C65.8606 36.6713 66.8692 36.7704 67.8681 36.6717C68.8671 36.573 69.8368 36.2785 70.7218 35.8048C71.6069 35.3312 72.3899 34.6878 73.0262 33.9114C73.6624 33.135 74.1395 32.2408 74.43 31.28C74.6017 30.7177 74.7058 30.1369 74.74 29.55C73.7446 28.9984 72.6384 28.6765 71.5024 28.6077C70.3664 28.539 69.2295 28.7253 68.1748 29.1529C67.1202 29.5805 66.1746 30.2387 65.4072 31.0791C64.6398 31.9195 64.0702 32.9209 63.74 34.01H63.71ZM2 42.08H30.77C31.8746 42.08 32.77 42.9754 32.77 44.08V46.27C32.77 47.3746 31.8746 48.27 30.77 48.27H2C0.89543 48.27 0 47.3746 0 46.27V44.08C0 42.9754 0.89543 42.08 2 42.08ZM25.27 71.61H7.5L4.5 48.27H28.27L25.27 71.61ZM23.75 34.76L22.84 32.6C22.7792 32.4601 22.7619 32.3051 22.7903 32.1552C22.8188 32.0053 22.8917 31.8675 22.9996 31.7596C23.1075 31.6517 23.2453 31.5788 23.3952 31.5503C23.5451 31.5219 23.7001 31.5392 23.84 31.6L26 32.48C26.0931 32.519 26.1931 32.5391 26.2941 32.5391C26.3951 32.5391 26.495 32.5189 26.5881 32.4798C26.6812 32.4407 26.7656 32.3834 26.8363 32.3114C26.907 32.2393 26.9627 32.1538 27 32.06L28.76 27.74C28.8007 27.6477 28.8224 27.5481 28.8237 27.4472C28.8251 27.3463 28.806 27.2461 28.7677 27.1528C28.7295 27.0594 28.6727 26.9747 28.601 26.9038C28.5292 26.8329 28.4438 26.7772 28.35 26.74L26.18 25.86C26.0394 25.8034 25.9189 25.706 25.834 25.5804C25.7492 25.4547 25.7039 25.3066 25.7039 25.155C25.7039 25.0034 25.7492 24.8553 25.834 24.7296C25.9189 24.604 26.0394 24.5066 26.18 24.45L28.33 23.55C28.516 23.4705 28.6632 23.3211 28.7399 23.134C28.8166 22.9469 28.8167 22.7371 28.74 22.55L26.93 18.25C26.8505 18.064 26.7011 17.9168 26.514 17.8401C26.3269 17.7634 26.1171 17.7633 25.93 17.84L23.78 18.75C23.6401 18.8108 23.4851 18.8281 23.3352 18.7997C23.1853 18.7712 23.0475 18.6983 22.9396 18.5904C22.8317 18.4825 22.7588 18.3447 22.7303 18.1948C22.7019 18.0449 22.7192 17.8899 22.78 17.75L23.66 15.59C23.7007 15.4977 23.7224 15.3981 23.7237 15.2972C23.7251 15.1963 23.706 15.0961 23.6677 15.0028C23.6295 14.9094 23.5727 14.8247 23.501 14.7538C23.4292 14.6829 23.3438 14.6272 23.25 14.59L18.91 12.87C18.8175 12.8307 18.7181 12.8101 18.6176 12.8095C18.5171 12.8088 18.4174 12.8281 18.3244 12.8663C18.2314 12.9044 18.1469 12.9606 18.0758 13.0316C18.0046 13.1026 17.9483 13.1871 17.91 13.28L17.03 15.44C16.9756 15.5815 16.8796 15.7032 16.7546 15.789C16.6296 15.8748 16.4816 15.9207 16.33 15.9207C16.1784 15.9207 16.0304 15.8748 15.9054 15.789C15.7804 15.7032 15.6844 15.5815 15.63 15.44L14.72 13.3C14.6828 13.2062 14.6271 13.1208 14.5562 13.049C14.4853 12.9773 14.4006 12.9205 14.3072 12.8823C14.2139 12.844 14.1137 12.8249 14.0128 12.8263C13.9119 12.8276 13.8123 12.8493 13.72 12.89L9.43 14.7C9.33706 14.7383 9.25263 14.7946 9.18161 14.8658C9.11059 14.9369 9.05439 15.0214 9.01626 15.1144C8.97812 15.2074 8.95882 15.3071 8.95946 15.4076C8.96011 15.5081 8.98068 15.6075 9.02 15.7L9.93 17.85C9.98557 17.9898 9.99899 18.1428 9.96859 18.2901C9.93819 18.4374 9.86531 18.5726 9.75895 18.6789C9.65259 18.7853 9.5174 18.8582 9.37009 18.8886C9.22277 18.919 9.06978 18.9056 8.93 18.85L6.76 17.97C6.66749 17.9307 6.5681 17.9101 6.46758 17.9095C6.36707 17.9088 6.26742 17.9281 6.17442 17.9663C6.08141 18.0044 5.99689 18.0606 5.92576 18.1316C5.85462 18.2026 5.79828 18.2871 5.76 18.38L4.02 22.7C3.97953 22.7929 3.95833 22.8931 3.95767 22.9945C3.95701 23.0959 3.97691 23.1963 4.01617 23.2898C4.05542 23.3833 4.11322 23.4678 4.18607 23.5383C4.25892 23.6088 4.3453 23.6638 4.44 23.7L6.6 24.59C6.73757 24.6482 6.85496 24.7456 6.93749 24.8701C7.02001 24.9946 7.06403 25.1406 7.06403 25.29C7.06403 25.4394 7.02001 25.5854 6.93749 25.7099C6.85496 25.8344 6.73757 25.9318 6.6 25.99L4.5 26.89C4.40794 26.9292 4.32453 26.9863 4.25457 27.0578C4.1846 27.1293 4.12945 27.214 4.09228 27.3069C4.05512 27.3998 4.03667 27.4992 4.03799 27.5992C4.03932 27.6993 4.06039 27.7981 4.1 27.89L5.91 32.19C5.94828 32.2829 6.00462 32.3674 6.07576 32.4384C6.14689 32.5094 6.23141 32.5656 6.32441 32.6037C6.41742 32.6419 6.51707 32.6612 6.61758 32.6605C6.7181 32.6599 6.81749 32.6393 6.91 32.6L9.07 31.69C9.20992 31.6292 9.3649 31.6119 9.5148 31.6403C9.66469 31.6688 9.80254 31.7417 9.91042 31.8496C10.0183 31.9575 10.0912 32.0953 10.1197 32.2452C10.1481 32.3951 10.1308 32.5501 10.07 32.69L9.19 34.85C9.14953 34.9429 9.12833 35.0431 9.12767 35.1445C9.12701 35.2459 9.14691 35.3463 9.18617 35.4398C9.22542 35.5333 9.28322 35.6178 9.35607 35.6883C9.42892 35.7588 9.5153 35.8138 9.61 35.85L13.93 37.62C14.0231 37.659 14.1231 37.6791 14.2241 37.6791C14.3251 37.6791 14.425 37.6589 14.5181 37.6198C14.6112 37.5807 14.6956 37.5234 14.7663 37.4514C14.837 37.3793 14.8927 37.2938 14.93 37.2L15.81 35.04C15.8666 34.8994 15.964 34.7789 16.0896 34.694C16.2153 34.6092 16.3634 34.5639 16.515 34.5639C16.6666 34.5639 16.8147 34.6092 16.9404 34.694C17.066 34.7789 17.1634 34.8994 17.22 35.04L18.12 37.19C18.1583 37.2829 18.2146 37.3674 18.2858 37.4384C18.3569 37.5094 18.4414 37.5656 18.5344 37.6037C18.6274 37.6419 18.7271 37.6612 18.8276 37.6605C18.9281 37.6599 19.0275 37.6393 19.12 37.6L23.42 35.79C23.5097 35.7445 23.5896 35.6817 23.6548 35.6051C23.7201 35.5285 23.7695 35.4398 23.8002 35.344C23.8309 35.2481 23.8423 35.1472 23.8337 35.0469C23.825 34.9467 23.7966 34.8492 23.75 34.76ZM20.38 25.23C20.38 27.4391 18.5891 29.23 16.38 29.23C14.1709 29.23 12.38 27.4391 12.38 25.23C12.38 23.0209 14.1709 21.23 16.38 21.23C18.5891 21.23 20.38 23.0209 20.38 25.23Z" stroke="#FE5900" stroke-linecap="round" stroke-linejoin="round"/>
</g>
<defs>
<clipPath id="clip0">
<rect width="80" height="80" fill="white"/>
</clipPath>
</defs>
</svg>
