<svg width="80" height="80" viewBox="0 0 80 80" fill="none" xmlns="http://www.w3.org/2000/svg">
<path d="M8.08301 42.4955C8.08301 44.8855 8.37301 54.0855 10.523 56.7455C10.933 57.2455 12.403 60.3555 20.603 63.8955C29.863 67.8955 37.173 64.1355 45.743 58.8355L46.253 58.5055C50.463 55.7855 51.363 53.8555 55.073 49.3455C56.693 47.3455 59.383 42.7155 63.073 40.5555C66.763 38.3955 70.323 36.3355 72.073 33.9355C73.823 31.5355 71.723 23.4955 71.723 23.4955M46.983 25.1055C46.983 25.1055 52.293 22.7955 56.743 24.8355M8.52301 45.4155C8.52301 45.4155 5.52301 34.8255 13.893 27.0755C22.263 19.3255 44.453 15.4955 50.753 15.0755C57.053 14.6555 65.133 15.9855 68.593 19.1255C72.053 22.2655 74.413 26.9355 68.593 32.9155C62.773 38.8955 61.973 32.8155 48.593 48.4055C35.213 63.9955 22.093 59.1355 17.953 57.4955C13.813 55.8555 10.203 50.9655 8.52301 45.4155ZM12.893 42.7155C12.893 42.7155 11.133 35.8655 17.423 30.0355C23.713 24.2055 45.423 20.4055 50.113 20.0355C54.803 19.6655 60.643 19.7755 63.253 22.1455C65.863 24.5155 65.753 27.6655 60.613 30.6855C51.793 35.8555 43.933 46.8855 38.743 50.1155C30.003 55.5655 23.083 53.0055 19.963 51.7655C16.843 50.5255 14.133 46.8855 12.893 42.7155ZM24.423 41.6255C24.423 41.6255 20.083 40.0655 22.813 36.7055C25.543 33.3455 30.133 34.3655 30.133 34.3655C30.133 34.3655 32.893 34.7555 33.183 36.6755C33.473 38.5955 31.573 40.1855 29.923 41.0155C28.273 41.8455 27.353 42.1655 24.423 41.6255Z" stroke="#FE5900" stroke-linecap="round" stroke-linejoin="round"/>
</svg>
