<svg width="80" height="80" viewBox="0 0 80 80" fill="none" xmlns="http://www.w3.org/2000/svg">
<path d="M47.1885 19.0162C40.4085 17.0862 24.2285 18.0862 26.8385 20.4962C27.4925 20.998 28.0311 21.6345 28.4175 22.3626C28.804 23.0907 29.0294 23.8934 29.0785 24.7162C33.492 21.9546 38.4108 20.0985 43.5485 19.2562M47.1885 19.0162C45.9714 19.0231 44.7559 19.1032 43.5485 19.2562M47.1885 19.0162C63.1185 18.9862 72.0585 32.9462 72.2485 40.8862C72.2485 40.9562 73.5985 40.7562 73.5985 40.8262C73.5985 52.7462 59.9885 63.0862 43.5485 60.5262L41.8685 60.2462C36.9278 59.5005 32.1617 57.8711 27.7985 55.4362M43.5485 19.2562C38.413 20.0893 33.4943 21.9351 29.0785 24.6862C24.5985 27.3462 20.4385 32.9862 17.5785 35.6862L9.4185 23.8062C8.3585 22.6162 6.6085 23.8362 7.0785 25.4962C8.48238 30.4846 9.18578 35.6441 9.1685 40.8262C9.19006 46.0284 8.48662 51.2082 7.0785 56.2162C6.6085 57.8162 8.3585 59.0462 9.4185 57.8562L16.9485 46.8562C21.0085 50.3562 24.4985 53.4962 27.7985 55.4362M27.7985 55.4362C32.1604 57.8781 36.9265 59.5143 41.8685 60.2662C40.9379 60.6876 39.9705 61.0223 38.9785 61.2662C33.4485 62.8162 23.5685 60.5162 25.8785 58.2662C26.7223 57.4785 27.3784 56.5114 27.7985 55.4362ZM50.0885 33.9262C50.0885 33.9262 46.9085 49.9962 51.3585 60.7962M47.7085 25.4962C43.6546 24.9049 39.5165 25.5423 35.8285 27.3262M63.4385 40.8862H73.5985M57.3285 33.7362C57.1548 33.3078 57.1198 32.8356 57.2285 32.3862C57.2705 32.1461 57.3617 31.9173 57.4963 31.7141C57.6309 31.5109 57.806 31.3377 58.0107 31.2053C58.2154 31.073 58.4452 30.9843 58.6857 30.9449C58.9262 30.9054 59.1723 30.9161 59.4085 30.9762C59.8875 31.1552 60.2823 31.5068 60.5154 31.962C60.7485 32.4171 60.8031 32.9429 60.6685 33.4362M44.5985 45.6262L37.1785 48.9562C36.9147 48.9986 36.6452 48.9878 36.3857 48.9243C36.1262 48.8608 35.882 48.746 35.6676 48.5866C35.4532 48.4272 35.273 48.2265 35.1374 47.9963C35.0019 47.7661 34.9138 47.511 34.8785 47.2462L33.7385 41.0562C33.6273 40.5168 33.7216 39.9554 34.0027 39.4819C34.2839 39.0083 34.7317 38.6568 35.2585 38.4962L43.4985 39.7962" stroke="#FE5900" stroke-linecap="round" stroke-linejoin="round"/>
</svg>
