<svg width="80" height="80" viewBox="0 0 80 80" fill="none" xmlns="http://www.w3.org/2000/svg">
<g clip-path="url(#clip0)">
<path d="M67.2018 63.4005H12.6848M62.6122 61.4198H12.6848M6.61179 29.2401C6.63254 25.4562 8.15026 21.8343 10.8333 19.166C13.5163 16.4977 17.1464 14.9999 20.9304 15H58.8951C62.6911 15.0023 66.3309 16.5119 69.0143 19.1969C71.6976 21.8819 73.205 25.5226 73.205 29.3186M20.3894 51.2633H16.1837C15.258 51.2633 14.3703 50.8956 13.7157 50.241C13.0612 49.5865 12.6935 48.6987 12.6935 47.7731V43.4103C12.6935 42.4846 13.0612 41.5969 13.7157 40.9424C14.3703 40.2878 15.258 39.9201 16.1837 39.9201H63.668C64.5937 39.9201 65.4814 40.2878 66.1359 40.9424C66.7905 41.5969 67.1582 42.4846 67.1582 43.4103V47.7731C67.1582 48.6987 66.7905 49.5865 66.1359 50.241C65.4814 50.8956 64.5937 51.2633 63.668 51.2633H29.2283M12.6935 37.2501V63.2609C12.6935 63.5617 12.574 63.8502 12.3612 64.063C12.1485 64.2757 11.86 64.3952 11.5592 64.3952H3.36589C3.06505 64.3952 2.77653 64.2757 2.56381 64.063C2.35108 63.8502 2.23157 63.5617 2.23157 63.2609V39.4227M67.324 63.4877C67.3831 63.7369 67.5247 63.9588 67.7259 64.1172C67.9271 64.2756 68.176 64.3613 68.4321 64.3603H76.6341C76.9334 64.358 77.2197 64.2375 77.4306 64.025C77.6414 63.8125 77.7597 63.5253 77.7597 63.226V39.4227M67.2978 37.2501V63.2609C67.2887 63.3362 67.2887 63.4124 67.2978 63.4877M26.314 26.4741C26.0858 26.8022 25.7381 27.0277 25.3455 27.1023C25.1512 27.1375 24.952 27.1341 24.759 27.0921C24.5661 27.0502 24.3834 26.9706 24.2213 26.858C24.0592 26.7453 23.9209 26.6018 23.8143 26.4356C23.7078 26.2694 23.6351 26.0838 23.6004 25.8895C23.5357 25.5525 23.5913 25.2036 23.7574 24.9035M38.5647 25.3921C38.7332 25.147 38.9708 24.9575 39.2472 24.8477C39.5237 24.7379 39.8265 24.7128 40.1173 24.7754C40.4081 24.8381 40.6737 24.9857 40.8804 25.1996C41.0871 25.4135 41.2256 25.684 41.2783 25.9767C41.3379 26.3165 41.2826 26.6665 41.1212 26.9714M55.6318 27.3117C55.2476 27.3724 54.8547 27.2851 54.5324 27.0674C54.3692 26.9555 54.2297 26.8125 54.122 26.6465C54.0143 26.4805 53.9405 26.2948 53.9048 26.1002C53.8691 25.9056 53.8723 25.7058 53.9141 25.5124C53.9559 25.319 54.0355 25.1358 54.1484 24.9733C54.3415 24.6888 54.6289 24.4817 54.9599 24.3887M12.6935 37.1628C12.6935 41.1242 10.0758 41.098 6.12316 40.7665C2.7202 40.4873 0.660979 38.8905 0.0763688 35.217C-0.543143 31.308 2.69403 29.3186 6.61179 29.3186C10.5295 29.3186 12.6935 33.2014 12.6935 37.1628ZM67.2978 37.1628C67.2978 41.1242 69.9155 41.098 73.8768 40.7665C77.2798 40.4873 79.339 38.8905 79.9236 35.217C80.5431 31.308 77.306 29.3186 73.3795 29.3186C69.453 29.3186 67.2978 33.2014 67.2978 37.1628Z" stroke="#FE5900" stroke-linecap="round" stroke-linejoin="round"/>
</g>
<defs>
<clipPath id="clip0">
<rect width="80" height="80" fill="white"/>
</clipPath>
</defs>
</svg>
