<svg width="80" height="80" viewBox="0 0 80 80" fill="none" xmlns="http://www.w3.org/2000/svg">
<path d="M52.5 58.71H3C2.46957 58.71 1.96086 58.4993 1.58579 58.1242C1.21071 57.7491 1 57.2404 1 56.71V13C1 12.4696 1.21071 11.9609 1.58579 11.5858C1.96086 11.2107 2.46957 11 3 11H65.23C65.7604 11 66.2691 11.2107 66.6442 11.5858C67.0193 11.9609 67.23 12.4696 67.23 13V26M17.97 64.96H50.26M55.85 64.01H79.01M1 50.39H52.45M73.99 29.38V30.06C73.99 30.5904 73.7793 31.0991 73.4042 31.4742C73.0291 31.8493 72.5204 32.06 71.99 32.06H62.5C61.9696 32.06 61.4609 31.8493 61.0858 31.4742C60.7107 31.0991 60.5 30.5904 60.5 30.06V29.38M57.45 29.38H77C78.1046 29.38 79 30.2754 79 31.38V66.02C79 67.1246 78.1046 68.02 77 68.02H57.45C56.3454 68.02 55.45 67.1246 55.45 66.02V31.38C55.45 30.2754 56.3454 29.38 57.45 29.38ZM43.08 64.96H25.15L27.68 58.71H40.54L43.08 64.96Z" stroke="#FE5900" stroke-linecap="round" stroke-linejoin="round"/>
</svg>
