<svg width="24" height="24" viewBox="0 0 24 24" fill="none" xmlns="http://www.w3.org/2000/svg">
<path d="M12 24C18.6274 24 24 18.6274 24 12C24 5.37258 18.6274 0 12 0C5.37258 0 0 5.37258 0 12C0 18.6274 5.37258 24 12 24Z" fill="#D80027"/>
<path d="M6.56719 7.30371L7.60312 10.4912H10.9547L8.24531 12.4646L9.28125 15.6521L6.56719 13.6834L3.85313 15.6521L4.89375 12.4646L2.17969 10.4912H5.53125L6.56719 7.30371Z" fill="#FFDA44"/>
<path d="M14.226 18.5862L13.4338 17.6112L12.2619 18.0659L12.9416 17.0112L12.1494 16.0315L13.3635 16.355L14.0478 15.3003L14.1135 16.5565L15.3322 16.88L14.1557 17.33L14.226 18.5862Z" fill="#FFDA44"/>
<path d="M15.801 15.7269L16.176 14.5269L15.1494 13.8003L16.4057 13.7815L16.776 12.5815L17.1838 13.7722L18.44 13.7581L17.4322 14.5081L17.8354 15.6987L16.8088 14.9722L15.801 15.7269Z" fill="#FFDA44"/>
<path d="M17.9256 8.8082L17.3725 9.93789L18.2725 10.8145L17.0303 10.6363L16.4771 11.7613L16.2615 10.5238L15.0146 10.3457L16.1303 9.75977L15.9146 8.51758L16.8146 9.39414L17.9256 8.8082Z" fill="#FFDA44"/>
<path d="M14.2592 5.38623L14.1654 6.63779L15.3326 7.11123L14.1092 7.41123L14.0201 8.66748L13.3592 7.59873L12.1357 7.89873L12.9467 6.93779L12.2811 5.87373L13.4482 6.34717L14.2592 5.38623Z" fill="#FFDA44"/>
</svg>
