<svg width="24" height="24" viewBox="0 0 24 24" fill="none" xmlns="http://www.w3.org/2000/svg">
<g clip-path="url(#clip0)">
<path d="M20.1598 3.2C17.9998 1.2 15.1598 0 11.9998 0C8.83984 0 5.99984 1.2 3.83984 3.2H20.1598Z" fill="#F9F9F9"/>
<path d="M3.83984 20.7998C5.99984 22.7998 8.83984 23.9998 11.9998 23.9998C15.1598 23.9998 17.9998 22.7998 20.1598 20.7998H3.83984Z" fill="#F9F9F9"/>
<path d="M0 12.0002C0 13.7202 0.36 15.3202 1 16.8002H23C23.64 15.3202 24 13.7202 24 12.0002C24 10.2802 23.64 8.6802 23 7.2002H1C0.36 8.6802 0 10.2802 0 12.0002Z" fill="#F9F9F9"/>
<path d="M3.88 20.7998H20.16C21.36 19.6798 22.36 18.3198 23 16.7998H1C1.68 18.3198 2.68 19.6798 3.88 20.7998Z" fill="#428BC1"/>
<path d="M20.1591 3.2002H3.87906C2.67906 4.3202 1.67906 5.6802 1.03906 7.2002H23.0391C22.3591 5.6802 21.3591 4.3202 20.1591 3.2002Z" fill="#428BC1"/>
<path d="M15.6004 10H13.2004L12.0004 8L10.8004 10H8.40039L9.60039 12L8.40039 14H10.8004L12.0004 16L13.2004 14H15.6004L14.4004 12L15.6004 10ZM12.0004 9.16L12.5204 10H11.5204L12.0004 9.16ZM9.48039 10.6H10.4804L10.0004 11.44L9.48039 10.6ZM9.48039 13.4L9.96039 12.56L10.4404 13.4H9.48039ZM12.0004 14.84L11.5204 14H12.5204L12.0004 14.84ZM12.8804 13.4H11.2004L10.3204 12L11.1604 10.6H12.8404L13.7204 12L12.8804 13.4ZM14.5604 13.4H13.5604L14.0404 12.56L14.5604 13.4ZM14.0804 11.4L13.6004 10.56H14.6004L14.0804 11.4Z" fill="#428BC1"/>
</g>
<defs>
<clipPath id="clip0">
<rect width="24" height="24" fill="white"/>
</clipPath>
</defs>
</svg>
