<svg width="56" height="56" viewBox="0 0 56 56" fill="none" xmlns="http://www.w3.org/2000/svg">
<rect width="56" height="56" rx="5" fill="#0084FF"/>
<path d="M27.5306 14C19.9076 14 14 19.5712 14 27.0962C14 31.0321 15.6174 34.4334 18.25 36.783C18.7046 37.1918 18.6109 37.4286 18.6882 39.9529C18.6943 40.1297 18.7436 40.3024 18.8317 40.4558C18.9198 40.6092 19.0441 40.7387 19.1938 40.833C19.3435 40.9273 19.514 40.9836 19.6904 40.9969C19.8668 41.0102 20.0438 40.9802 20.206 40.9094C23.0863 39.641 23.1233 39.5408 23.6116 39.6736C31.9565 41.9704 41.0014 36.63 41.0014 27.0962C41.0014 19.5712 35.1542 14 27.5306 14ZM35.655 24.0782L31.681 30.3696C31.5309 30.6062 31.3336 30.8092 31.1014 30.966C30.8692 31.1227 30.6072 31.2298 30.3316 31.2806C30.0561 31.3313 29.7731 31.3246 29.5003 31.2609C29.2275 31.1971 28.9707 31.0777 28.7462 30.9102L25.5845 28.5437C25.4431 28.4377 25.2712 28.3804 25.0945 28.3804C24.9178 28.3804 24.7459 28.4377 24.6046 28.5437L20.3382 31.7795C19.7688 32.2112 19.023 31.5291 19.4068 30.9265L23.3808 24.6351C23.5308 24.3984 23.7281 24.1953 23.9603 24.0385C24.1925 23.8817 24.4546 23.7746 24.7301 23.7238C25.0057 23.6731 25.2887 23.6798 25.5616 23.7436C25.8344 23.8074 26.0911 23.9268 26.3156 24.0945L29.4763 26.4604C29.6176 26.5664 29.7895 26.6237 29.9662 26.6237C30.1429 26.6237 30.3148 26.5664 30.4561 26.4604L34.7246 23.2278C35.293 22.7934 36.0388 23.475 35.655 24.0782Z" fill="white"/>
</svg>
