<svg width="56" height="56" viewBox="0 0 56 56" fill="none" xmlns="http://www.w3.org/2000/svg">
<rect width="56" height="56" rx="5" fill="#1178B3"/>
<path d="M21.0738 38.6667H16.3744V23.5333H21.0738V38.6667ZM18.7216 21.469C17.2189 21.469 16 20.2243 16 18.7216C16 17.9998 16.2867 17.3075 16.7971 16.7971C17.3075 16.2867 17.9998 16 18.7216 16C19.4434 16 20.1356 16.2867 20.646 16.7971C21.1564 17.3075 21.4432 17.9998 21.4432 18.7216C21.4432 20.2243 20.2238 21.469 18.7216 21.469ZM38.6621 38.6667H33.9728V31.2998C33.9728 29.5441 33.9374 27.2926 31.5295 27.2926C29.0862 27.2926 28.7118 29.2001 28.7118 31.1733V38.6667H24.0175V23.5333H28.5246V25.5976H28.5904C29.2178 24.4086 30.7504 23.1538 33.0368 23.1538C37.7929 23.1538 38.6672 26.2857 38.6672 30.3537V38.6667H38.6621Z" fill="white"/>
</svg>
