<svg width="56" height="56" viewBox="0 0 56 56" fill="none" xmlns="http://www.w3.org/2000/svg">
<rect width="56" height="56" rx="5" fill="#C8232C"/>
<path d="M29.021 14.668C23.8133 14.668 18.6665 18.1398 18.6665 23.7586C18.6665 27.3319 20.6765 29.3622 21.8947 29.3622C22.3972 29.3622 22.6865 27.9613 22.6865 27.5654C22.6865 27.0933 21.4835 26.0883 21.4835 24.124C21.4835 20.0432 24.5899 17.15 28.6098 17.15C32.0664 17.15 34.6246 19.1143 34.6246 22.7231C34.6246 25.4184 33.5435 30.4738 30.0412 30.4738C28.7773 30.4738 27.6962 29.5601 27.6962 28.2506C27.6962 26.332 29.0362 24.4743 29.0362 22.4947C29.0362 19.1346 24.2701 19.7437 24.2701 23.8043C24.2701 24.657 24.3767 25.6011 24.7574 26.3777C24.0569 29.3926 22.6256 33.8847 22.6256 36.991C22.6256 37.9503 22.7626 38.8944 22.854 39.8537C23.0266 40.0466 22.9403 40.0263 23.2042 39.9298C25.7624 36.4276 25.671 35.7424 26.8283 31.159C27.4526 32.3467 29.0667 32.9863 30.3457 32.9863C35.7362 32.9863 38.1573 27.7329 38.1573 22.9972C38.1573 17.957 33.8023 14.668 29.021 14.668Z" fill="white"/>
</svg>
