<svg width="56" height="56" viewBox="0 0 56 56" fill="none" xmlns="http://www.w3.org/2000/svg">
<rect width="56" height="56" rx="5" fill="#2AA3EF"/>
<path d="M37.4821 22.4792C37.4982 22.7051 37.4982 22.931 37.4982 23.1569C37.4982 30.0467 32.2543 37.9854 22.6698 37.9854C19.717 37.9854 16.974 37.1301 14.6666 35.6458C15.0862 35.6941 15.4895 35.7103 15.9252 35.7103C18.3616 35.7103 20.6045 34.8874 22.3955 33.4836C20.1043 33.4352 18.1841 31.9346 17.5226 29.8692C17.8453 29.9176 18.168 29.9499 18.5069 29.9499C18.9748 29.9499 19.4427 29.8853 19.8784 29.7724C17.4903 29.2883 15.6993 27.1908 15.6993 24.6575V24.593C16.393 24.9802 17.1999 25.2223 18.055 25.2545C16.6512 24.3186 15.7315 22.7212 15.7315 20.9141C15.7315 19.946 15.9897 19.0585 16.4415 18.284C19.007 21.4465 22.8634 23.5118 27.1876 23.7378C27.107 23.3505 27.0586 22.9472 27.0586 22.5438C27.0586 19.6716 29.3821 17.332 32.2703 17.332C33.7709 17.332 35.1263 17.9613 36.0783 18.9778C37.2561 18.752 38.3856 18.3163 39.386 17.7193C38.9987 18.9295 38.1759 19.946 37.0948 20.5914C38.1436 20.4785 39.1602 20.188 40.096 19.7846C39.3861 20.8173 38.4986 21.7369 37.4821 22.4792Z" fill="white"/>
</svg>
