<svg width="56" height="56" viewBox="0 0 56 56" fill="none" xmlns="http://www.w3.org/2000/svg">
<rect width="56" height="56" rx="5" fill="#25D366"/>
<path d="M37.1058 18.7781C34.6741 16.3406 31.4357 15 27.9942 15C20.8906 15 15.1103 20.7804 15.1103 27.8839C15.1103 30.1531 15.7022 32.3701 16.8281 34.3259L15 41L21.8308 39.2067C23.7112 40.2339 25.8295 40.7737 27.9884 40.7737H27.9942C35.092 40.7737 41 34.9933 41 27.8897C41 24.4482 39.5375 21.2156 37.1058 18.7781ZM27.9942 38.6031C26.0674 38.6031 24.1812 38.0866 22.5388 37.1116L22.15 36.8795L18.0991 37.9415L19.1786 33.9893L18.9232 33.583C17.8496 31.8768 17.2866 29.9094 17.2866 27.8839C17.2866 21.9817 22.092 17.1763 28 17.1763C30.8612 17.1763 33.5482 18.2906 35.5679 20.3161C37.5875 22.3415 38.8295 25.0286 38.8237 27.8897C38.8237 33.7978 33.8964 38.6031 27.9942 38.6031ZM33.8674 30.5826C33.5482 30.4201 31.9638 29.6424 31.6679 29.5379C31.3719 29.4277 31.1571 29.3754 30.9424 29.7004C30.7277 30.0254 30.1125 30.7451 29.921 30.9656C29.7353 31.1804 29.5437 31.2094 29.2246 31.0469C27.3326 30.1009 26.0906 29.358 24.8429 27.2165C24.5121 26.6478 25.1737 26.6884 25.7888 25.458C25.8933 25.2433 25.8411 25.0576 25.7598 24.8951C25.6786 24.7326 25.0344 23.1482 24.7674 22.504C24.5062 21.8772 24.2393 21.9643 24.042 21.9527C23.8562 21.9411 23.6415 21.9411 23.4268 21.9411C23.2121 21.9411 22.8638 22.0223 22.5679 22.3415C22.2719 22.6665 21.442 23.4442 21.442 25.0286C21.442 26.6129 22.5969 28.1451 22.7536 28.3598C22.9161 28.5746 25.0228 31.8246 28.2554 33.2232C30.2982 34.1054 31.0991 34.1808 32.1205 34.0299C32.7415 33.9371 34.0241 33.2522 34.2911 32.4978C34.558 31.7433 34.558 31.0991 34.4768 30.9656C34.4013 30.8205 34.1866 30.7393 33.8674 30.5826Z" fill="white"/>
</svg>
